<svg width="36" height="37" viewBox="0 0 36 37" fill="none" xmlns="http://www.w3.org/2000/svg">
<g clip-path="url(#clip0_4546_19638)">
<rect x="0.00146484" y="0.394165" width="35.9971" height="35.9971" rx="17.9985" fill="#213147"/>
<path d="M7.36475 13.3036V23.4818C7.36475 24.1361 7.70748 24.7281 8.27871 25.0605L17.0964 30.1496C17.6572 30.4716 18.3531 30.4716 18.9139 30.1496L27.7316 25.0605C28.2924 24.7385 28.6455 24.1361 28.6455 23.4818V13.3036C28.6455 12.6493 28.3028 12.0573 27.7316 11.7249L18.9139 6.63582C18.3531 6.31386 17.6572 6.31386 17.0964 6.63582L8.27871 11.7249C7.71787 12.0469 7.37513 12.6493 7.37513 13.3036H7.36475Z" fill="#213147"/>
<path fill-rule="evenodd" clip-rule="evenodd" d="M22.0399 14.5708C22.1126 14.3838 22.3723 14.3838 22.445 14.5708V14.5811L26.8278 26.5873L24.3248 28.0309L20.7832 18.3201C20.752 18.2162 20.752 18.1124 20.7832 18.0189L22.0399 14.5708ZM18.6645 23.8142L19.9212 20.366C19.9939 20.1791 20.2535 20.1791 20.3262 20.366L23.3278 28.6021L20.8248 30.0457L18.6645 24.1154C18.6333 24.0115 18.6333 23.9076 18.6645 23.8142Z" fill="#12AAFF"/>
<path fill-rule="evenodd" clip-rule="evenodd" d="M18.1766 7.07203C18.1247 7.04087 18.0624 7.0201 18.0001 7.0201V7.00971C17.9377 7.00971 17.8754 7.03049 17.8235 7.06164L8.2892 12.5662C8.18534 12.6285 8.11264 12.7531 8.11264 12.8778V23.8973C8.11264 24.0219 8.17495 24.1465 8.2892 24.2088L12.2513 26.4963L11.6921 28.0225L7.4791 25.5902C6.86633 25.237 6.49243 24.5931 6.49243 23.8869V12.8778C6.49243 12.1715 6.86633 11.5276 7.4791 11.1745L17.0134 5.66993C17.3234 5.49426 17.654 5.41112 17.9949 5.41028C18.3359 5.41112 18.6767 5.49426 18.9763 5.66993L28.521 11.1745C29.1338 11.5276 29.5077 12.1715 29.5077 12.8778V23.8869C29.5077 24.5931 29.1338 25.237 28.521 25.5902L18.9867 31.0947C18.6751 31.2713 18.3428 31.3544 18.0001 31.3544C17.6573 31.3544 17.3146 31.2713 17.0134 31.0947L12.6945 28.6012L13.9309 27.466L17.8235 29.7134C17.8754 29.7445 17.9377 29.7653 18.0001 29.7653C18.0624 29.7653 18.1247 29.7445 18.1766 29.7134L27.7109 24.2088C27.8148 24.1465 27.8875 24.0219 27.8875 23.8973V12.8882C27.8875 12.7635 27.8252 12.6389 27.7109 12.5766L18.1766 7.07203ZM17.9949 5.41028C17.9966 5.41028 17.9983 5.41028 18.0001 5.41028H17.9897C17.9914 5.41028 17.9931 5.41028 17.9949 5.41028Z" fill="#9DCCED"/>
<path fill-rule="evenodd" clip-rule="evenodd" d="M14.77 12.0988H17.1899L17.2003 12.0884C17.3457 12.0884 17.4496 12.2338 17.3977 12.3792L11.6854 28.0309L9.18237 26.5872L14.365 12.3792C14.4273 12.2131 14.5934 12.0988 14.77 12.0988ZM19.0074 12.0989H21.4273V12.0885C21.5727 12.0885 21.6765 12.2339 21.6246 12.3793L15.1853 30.0458L12.6823 28.6022L15.6423 20.4908L18.6023 12.3793C18.6646 12.2132 18.8308 12.0989 19.0074 12.0989Z" fill="white"/>
</g>
<defs>
<clipPath id="clip0_4546_19638">
<rect width="35.9971" height="35.9971" fill="white" transform="translate(0.00146484 0.394165)"/>
</clipPath>
</defs>
</svg>
