<svg width="36" height="37" viewBox="0 0 36 37" fill="none" xmlns="http://www.w3.org/2000/svg">
<g clip-path="url(#clip0_4546_32859)">
<rect x="-0.00366211" y="0.389038" width="36.0073" height="36.0073" rx="18.0037" fill="#E84142"/>
<path d="M23.8827 19.1744C24.4604 18.2215 25.3927 18.2215 25.9705 19.1744L29.5682 25.205C30.146 26.1578 29.6734 26.9351 28.5178 26.9351H21.2696C20.1271 26.9351 19.6545 26.1578 20.2191 25.205L23.8827 19.1744ZM16.9232 7.56444C17.501 6.61158 18.4202 6.61158 18.998 7.56444L19.7988 8.94359L21.6898 12.1156C22.1494 13.0183 22.1494 14.084 21.6898 14.9867L15.3476 25.4807C14.7698 26.3334 13.8113 26.8724 12.7475 26.9351H7.48212C6.3266 26.9351 5.85388 26.1703 6.43165 25.205L16.9232 7.56444Z" fill="white"/>
</g>
<defs>
<clipPath id="clip0_4546_32859">
<rect width="36.0073" height="36.0073" fill="white" transform="translate(-0.00366211 0.389038)"/>
</clipPath>
</defs>
</svg>
