<svg width="36" height="37" viewBox="0 0 36 37" fill="none" xmlns="http://www.w3.org/2000/svg">
<g clip-path="url(#clip0_4546_32876)">
<rect x="-0.000488281" y="0.392212" width="36.001" height="36.001" rx="18.0005" fill="#F3BA2F"/>
<g clip-path="url(#clip1_4546_32876)">
<path d="M13.0974 16.3784L17.9999 11.476L22.905 16.3809L25.7577 13.5283L17.9999 5.77026L10.2448 13.5257L13.0974 16.3784ZM5.37769 18.3923L8.23045 15.5396L11.083 18.3921L8.23028 21.2449L5.37769 18.3923ZM13.0974 20.407L17.9999 25.3094L22.9049 20.4046L25.7591 23.2558L25.7577 23.2573L17.9999 31.0152L10.2446 23.2599L10.2405 23.2559L13.0974 20.407ZM24.9173 18.3939L27.7701 15.5411L30.6226 18.3937L27.7699 21.2465L24.9173 18.3939Z" fill="white"/>
<path d="M20.8931 18.3912H20.8943L17.9996 15.4965L15.8604 17.6357H15.8602L15.6145 17.8816L15.1076 18.3886L15.1035 18.3926L15.1076 18.3967L17.9996 21.2889L20.8943 18.3942L20.8957 18.3926L20.8931 18.3912Z" fill="white"/>
</g>
</g>
<defs>
<clipPath id="clip0_4546_32876">
<rect width="36.001" height="36.001" fill="white" transform="translate(-0.000488281 0.392212)"/>
</clipPath>
<clipPath id="clip1_4546_32876">
<rect width="25.2449" height="25.2449" fill="white" transform="translate(5.37744 5.77026)"/>
</clipPath>
</defs>
</svg>
