<svg width="36" height="37" viewBox="0 0 36 37" fill="none" xmlns="http://www.w3.org/2000/svg">
<g clip-path="url(#clip0_4546_19660)">
<rect x="-0.000488281" y="0.392212" width="36.001" height="36.001" rx="18.0005" fill="#F5AC37"/>
<path d="M18 0.392212C27.9423 0.392212 36.0005 8.45201 36.0005 18.3927C36.0005 28.335 27.9423 36.3932 18 36.3932C8.05931 36.3932 -0.000488281 28.3342 -0.000488281 18.3927C-0.000488281 8.45201 8.05931 0.392212 18 0.392212Z" fill="white"/>
<path d="M28.6037 20.6244L19.8201 29.3725V22.7695L28.6037 14.0196V20.6244Z" fill="url(#paint0_linear_4546_19660)"/>
<path d="M15.1313 27.4354H7.396V22.7659H19.8199L15.1313 27.4354Z" fill="url(#paint1_linear_4546_19660)"/>
<path d="M20.87 9.35004H28.6034V14.0196H16.1814L20.87 9.35004Z" fill="url(#paint2_linear_4546_19660)"/>
<path d="M7.396 16.1609L16.1796 7.41284L16.1815 14.0158L7.396 22.7657V16.1609Z" fill="url(#paint3_linear_4546_19660)"/>
</g>
<defs>
<linearGradient id="paint0_linear_4546_19660" x1="12.8445" y1="33.0183" x2="32.3089" y2="13.473" gradientUnits="userSpaceOnUse">
<stop stop-color="#3D3DEA"/>
<stop offset="1" stop-color="#6489FF"/>
</linearGradient>
<linearGradient id="paint1_linear_4546_19660" x1="8.0782" y1="28.2732" x2="27.5444" y2="8.72796" gradientUnits="userSpaceOnUse">
<stop stop-color="#3D3DEA"/>
<stop offset="1" stop-color="#6489FF"/>
</linearGradient>
<linearGradient id="paint2_linear_4546_19660" x1="8.07999" y1="28.2732" x2="27.5462" y2="8.72976" gradientUnits="userSpaceOnUse">
<stop stop-color="#3D3DEA"/>
<stop offset="1" stop-color="#6489FF"/>
</linearGradient>
<linearGradient id="paint3_linear_4546_19660" x1="3.31571" y1="23.5281" x2="22.78" y2="3.98276" gradientUnits="userSpaceOnUse">
<stop stop-color="#3D3DEA"/>
<stop offset="1" stop-color="#6489FF"/>
</linearGradient>
<clipPath id="clip0_4546_19660">
<rect width="36.001" height="36.001" fill="white" transform="translate(-0.000488281 0.392212)"/>
</clipPath>
</defs>
</svg>
