<svg width="36" height="37" viewBox="0 0 36 37" fill="none" xmlns="http://www.w3.org/2000/svg">
<g clip-path="url(#clip0_4546_19654)">
<path d="M18.0001 36.3923C27.941 36.3923 35.9997 28.3336 35.9997 18.3927C35.9997 8.45182 27.941 0.393127 18.0001 0.393127C8.05918 0.393127 0.000488281 8.45182 0.000488281 18.3927C0.000488281 28.3336 8.05918 36.3923 18.0001 36.3923Z" fill="#FF0420"/>
<path d="M12.7514 23.1735C11.6786 23.1735 10.8002 22.9215 10.1163 22.4175C9.43947 21.9063 9.10107 21.172 9.10107 20.2288C9.10107 20.0272 9.12267 19.7896 9.16587 19.5016C9.28107 18.8536 9.44667 18.076 9.66266 17.1616C10.2746 14.6849 11.8586 13.4465 14.4074 13.4465C15.0985 13.4465 15.7249 13.5617 16.2721 13.7993C16.8193 14.0225 17.2513 14.3681 17.5681 14.8289C17.8849 15.2825 18.0433 15.8225 18.0433 16.4489C18.0433 16.6361 18.0217 16.8737 17.9785 17.1616C17.8417 17.9608 17.6833 18.7456 17.4889 19.5016C17.1721 20.7328 16.6321 21.6615 15.8545 22.2735C15.0841 22.8783 14.0474 23.1735 12.7514 23.1735ZM12.9458 21.2296C13.4498 21.2296 13.8746 21.0784 14.2274 20.7832C14.5874 20.488 14.8465 20.0344 14.9977 19.4152C15.2065 18.5656 15.3649 17.8312 15.4729 17.1976C15.5089 17.0105 15.5305 16.8161 15.5305 16.6145C15.5305 15.7937 15.1057 15.3833 14.249 15.3833C13.745 15.3833 13.313 15.5345 12.953 15.8297C12.6002 16.1249 12.3482 16.5785 12.197 17.1976C12.0314 17.8024 11.873 18.5368 11.7074 19.4152C11.6714 19.5952 11.6498 19.7824 11.6498 19.984C11.6426 20.8192 12.0818 21.2296 12.9458 21.2296Z" fill="white"/>
<path d="M18.6699 23.0439C18.5691 23.0439 18.4971 23.0151 18.4395 22.9503C18.3963 22.8783 18.3819 22.7991 18.3963 22.7055L20.261 13.9217C20.2754 13.8209 20.3258 13.7417 20.4122 13.6769C20.4914 13.6121 20.5778 13.5833 20.6714 13.5833H24.2641C25.2649 13.5833 26.0641 13.7921 26.6689 14.2025C27.2809 14.6201 27.5905 15.2177 27.5905 16.0025C27.5905 16.2257 27.5617 16.4632 27.5113 16.708C27.2881 17.7448 26.8345 18.508 26.1433 19.0048C25.4665 19.5016 24.5377 19.7464 23.357 19.7464H21.5354L20.9162 22.7055C20.8946 22.8063 20.8514 22.8855 20.765 22.9503C20.6858 23.0151 20.5994 23.0439 20.5058 23.0439H18.6699ZM23.4506 17.8816C23.8321 17.8816 24.1561 17.7808 24.4369 17.572C24.7249 17.3632 24.9121 17.068 25.0057 16.6792C25.0345 16.528 25.0489 16.3913 25.0489 16.2761C25.0489 16.0169 24.9697 15.8153 24.8185 15.6785C24.6673 15.5345 24.4009 15.4625 24.0337 15.4625H22.4138L21.9026 17.8816H23.4506Z" fill="white"/>
</g>
<defs>
<clipPath id="clip0_4546_19654">
<rect width="35.9992" height="35.9992" fill="white" transform="translate(0.000488281 0.393127)"/>
</clipPath>
</defs>
</svg>
