<svg width="36" height="37" viewBox="0 0 36 37" fill="none" xmlns="http://www.w3.org/2000/svg">
<g clip-path="url(#clip0_4545_19620)">
<rect x="-0.000488281" y="0.392212" width="36.001" height="36.001" rx="18.0005" fill="#864DE6"/>
<path d="M23.8105 14.6936C23.3894 14.4525 22.8421 14.4525 22.379 14.6936L19.0948 16.5431L16.8631 17.7494L13.5789 19.5989C13.1579 19.8401 12.6104 19.8401 12.1474 19.5989L9.53676 18.1514C9.11569 17.9101 8.82096 17.468 8.82096 16.9854V14.1307C8.82096 13.6483 9.07359 13.206 9.53676 12.9648L12.1052 11.5575C12.5262 11.3163 13.0736 11.3163 13.5368 11.5575L16.1052 12.9648C16.5262 13.206 16.821 13.6483 16.821 14.1307V15.9803L19.0526 14.7338V12.8843C19.0526 12.4019 18.8 11.9596 18.3368 11.7183L13.5789 9.06472C13.1579 8.82348 12.6104 8.82348 12.1474 9.06472L7.30516 11.7183C6.84199 11.9596 6.58936 12.4019 6.58936 12.8843V18.2319C6.58936 18.7144 6.84199 19.1566 7.30516 19.3979L12.1474 22.0515C12.5684 22.2928 13.1157 22.2928 13.5789 22.0515L16.8631 20.2422L19.0948 18.9958L22.379 17.1865C22.8001 16.9452 23.3474 16.9452 23.8105 17.1865L26.379 18.5937C26.8 18.835 27.0948 19.2773 27.0948 19.7597V22.6143C27.0948 23.0969 26.8421 23.5392 26.379 23.7803L23.8105 25.2278C23.3894 25.4691 22.8421 25.4691 22.379 25.2278L19.8105 23.8206C19.3895 23.5793 19.0948 23.1371 19.0948 22.6546V20.8051L16.8631 22.0515V23.901C16.8631 24.3834 17.1158 24.8257 17.5789 25.067L22.4211 27.7206C22.8421 27.9619 23.3894 27.9619 23.8526 27.7206L28.6949 25.067C29.1159 24.8257 29.4107 24.3834 29.4107 23.901V18.5535C29.4107 18.071 29.158 17.6288 28.6949 17.3875L23.8105 14.6936Z" fill="white"/>
</g>
<defs>
<clipPath id="clip0_4545_19620">
<rect width="36.001" height="36.001" fill="white" transform="translate(-0.000488281 0.392212)"/>
</clipPath>
</defs>
</svg>
