<svg width="36" height="37" viewBox="0 0 36 37" fill="none" xmlns="http://www.w3.org/2000/svg">
<g clip-path="url(#clip0_4546_19657)">
<rect x="-0.000488281" y="0.392212" width="36.1809" height="36.1809" rx="18.0905" fill="white"/>
<path d="M7.52832 8.89185V28.0735H25.2873V25.9234H9.65508V11.0418H25.2873V8.89185H7.52832Z" fill="black"/>
<path d="M27.0517 16.2628C27.0517 15.8071 26.8755 15.4108 26.5225 15.0739C26.1697 14.737 25.6798 14.5686 25.0426 14.5686C24.5035 14.5686 24.0821 14.6776 23.7686 14.9055C23.4549 15.1333 23.2982 15.4306 23.2982 15.8071C23.2982 16.0052 23.3373 16.1836 23.4156 16.3421C23.4941 16.5006 23.6215 16.6393 23.8077 16.7682C23.994 16.8969 24.239 17.0059 24.5525 17.105C24.8564 17.204 25.2485 17.2932 25.7189 17.3824C26.9048 17.6005 27.8065 17.967 28.4337 18.4722C29.0608 18.9876 29.3745 19.7405 29.3745 20.7411V20.9393C29.3745 21.4744 29.2766 21.9499 29.0903 22.3859C28.9041 22.8119 28.6297 23.1786 28.2769 23.4857C27.9239 23.7928 27.4928 24.0207 26.9831 24.1891C26.4735 24.3477 25.9052 24.4367 25.268 24.4367C24.5232 24.4367 23.8764 24.3279 23.3078 24.1198C22.7395 23.9117 22.269 23.6144 21.8966 23.2379C21.5241 22.8614 21.2301 22.4254 21.0438 21.9202C20.8479 21.4149 20.75 20.8601 20.75 20.2656V20.1665H22.8767C22.8767 20.8501 23.0726 21.3952 23.4648 21.8112C23.8567 22.2175 24.4644 22.4254 25.2975 22.4254C25.9443 22.4254 26.4246 22.2869 26.7382 21.9994C27.0517 21.7121 27.2086 21.3754 27.2086 20.9889C27.2086 20.8006 27.1792 20.6322 27.1105 20.4538C27.0419 20.2854 26.9341 20.1369 26.7675 19.9981C26.6108 19.8594 26.3854 19.7405 26.101 19.6315C25.8169 19.5224 25.464 19.4334 25.0329 19.354C24.4644 19.255 23.945 19.1263 23.4648 18.9677C22.9943 18.8091 22.5827 18.6011 22.2299 18.3435C21.8769 18.0859 21.6124 17.7589 21.4163 17.3626C21.2202 16.9662 21.1223 16.4907 21.1223 15.926V15.8269C21.1223 15.3612 21.2202 14.9253 21.4065 14.529C21.5927 14.1326 21.8574 13.7859 22.2004 13.4886C22.5434 13.1914 22.9454 12.9635 23.4254 12.805C23.9057 12.6465 24.4349 12.5573 25.0329 12.5573C25.6993 12.5573 26.2873 12.6564 26.8069 12.8446C27.3263 13.0329 27.7575 13.2905 28.1102 13.6174C28.4632 13.9444 28.6984 14.3308 28.9041 14.7469C29.159 15.2522 29.1688 16.2826 29.1688 16.2826L27.0517 16.2628Z" fill="black"/>
</g>
<defs>
<clipPath id="clip0_4546_19657">
<rect width="36.0009" height="36.0009" fill="white" transform="translate(-0.000488281 0.392212)"/>
</clipPath>
</defs>
</svg>
