<svg width="36" height="37" viewBox="0 0 36 37" fill="none" xmlns="http://www.w3.org/2000/svg">
<g clip-path="url(#clip0_4545_19403)">
<rect x="0.000488281" y="0.393127" width="35.9992" height="35.9992" rx="17.9996" fill="#0098EA"/>
<path d="M24.8796 9.70477H11.1194C8.58933 9.70477 6.98581 12.4339 8.2586 14.6402L16.7509 29.3598C17.3051 30.3209 18.6939 30.3209 19.2481 29.3598L27.7421 14.6402C29.0133 12.4374 27.4097 9.70477 24.8814 9.70477H24.8796ZM16.744 24.9456L14.8945 21.3661L10.4319 13.3847C10.1375 12.8738 10.5011 12.2192 11.1176 12.2192H16.7423V24.9473L16.744 24.9456ZM25.5636 13.3829L21.1027 21.3679L19.2532 24.9456V12.2175H24.8779C25.4944 12.2175 25.858 12.8721 25.5636 13.3829Z" fill="white"/>
</g>
<defs>
<clipPath id="clip0_4545_19403">
<rect width="35.9992" height="35.9992" fill="white" transform="translate(0.000488281 0.393127)"/>
</clipPath>
</defs>
</svg>
