<svg width="29" height="28" viewBox="0 0 29 28" fill="none" xmlns="http://www.w3.org/2000/svg">
<g opacity="0.2">
<rect x="1.25" y="0.75" width="26.5" height="26.5" rx="13.25" stroke="#F86F6E" stroke-width="1.5"/>
</g>
<g opacity="0.5">
<rect x="4.25" y="3.75" width="20.5" height="20.5" rx="10.25" stroke="#F86F6E" stroke-width="1.5"/>
</g>
<path fill-rule="evenodd" clip-rule="evenodd" d="M11.5 21.6484C12.4844 22.0755 13.5339 22.2891 14.6484 22.2891C15.763 22.2891 16.8125 22.0755 17.7969 21.6484C18.7812 21.2266 19.6458 20.6406 20.3906 19.8906C21.1406 19.1406 21.7292 18.276 22.1562 17.2969C22.5833 16.3125 22.7969 15.2604 22.7969 14.1406C22.7969 13.026 22.5833 11.9792 22.1562 11C21.7292 10.0156 21.1406 9.14844 20.3906 8.39844C19.6458 7.64844 18.7786 7.0625 17.7891 6.64062C16.8047 6.21354 15.7552 6 14.6406 6C13.526 6 12.4766 6.21354 11.4922 6.64062C10.5078 7.0625 9.64062 7.64844 8.89062 8.39844C8.14583 9.14844 7.5599 10.0156 7.13281 11C6.71094 11.9792 6.5 13.026 6.5 14.1406C6.5 15.2604 6.71094 16.3125 7.13281 17.2969C7.5599 18.276 8.14844 19.1406 8.89844 19.8906C9.64844 20.6406 10.5156 21.2266 11.5 21.6484ZM13.9834 15.916C14.1266 16.0664 14.3289 16.1416 14.5903 16.1416C14.8517 16.1416 15.054 16.0664 15.1973 15.916C15.3405 15.7656 15.4157 15.5562 15.4229 15.2876L15.5142 10.1475C15.5177 10.1117 15.5195 10.0776 15.5195 10.0454V9.9541C15.5195 9.66764 15.4354 9.44206 15.2671 9.27734C15.0988 9.11263 14.8732 9.03027 14.5903 9.03027C14.311 9.03027 14.0854 9.11263 13.9136 9.27734C13.7417 9.44206 13.6558 9.66764 13.6558 9.9541V10.0454C13.6593 10.0776 13.6611 10.1117 13.6611 10.1475L13.7632 15.2876C13.7703 15.5562 13.8438 15.7656 13.9834 15.916ZM14.0425 19.1655C14.2072 19.2586 14.3898 19.3052 14.5903 19.3052C14.7873 19.3052 14.9681 19.2586 15.1328 19.1655C15.2975 19.0724 15.4282 18.9453 15.5249 18.7842C15.6216 18.6266 15.6699 18.4512 15.6699 18.2578C15.6699 18.0645 15.6216 17.889 15.5249 17.7314C15.4282 17.5739 15.2975 17.4486 15.1328 17.3555C14.9681 17.2624 14.7873 17.2158 14.5903 17.2158C14.3898 17.2158 14.2072 17.2624 14.0425 17.3555C13.8778 17.4486 13.7453 17.5739 13.645 17.7314C13.5483 17.889 13.5 18.0645 13.5 18.2578C13.5 18.4512 13.5483 18.6266 13.645 18.7842C13.7453 18.9453 13.8778 19.0724 14.0425 19.1655Z" fill="#F86F6E"/>
</svg>
