<svg width="21" height="20" viewBox="0 0 21 20" fill="none" xmlns="http://www.w3.org/2000/svg">
<path d="M10.6484 18.2891C9.53385 18.2891 8.48438 18.0755 7.5 17.6484C6.51562 17.2266 5.64844 16.6406 4.89844 15.8906C4.14844 15.1406 3.5599 14.276 3.13281 13.2969C2.71094 12.3125 2.5 11.2604 2.5 10.1406C2.5 9.02604 2.71094 7.97917 3.13281 7C3.5599 6.01562 4.14583 5.14844 4.89062 4.39844C5.64062 3.64844 6.50781 3.0625 7.49219 2.64062C8.47656 2.21354 9.52604 2 10.6406 2C11.7552 2 12.8047 2.21354 13.7891 2.64062C14.7786 3.0625 15.6458 3.64844 16.3906 4.39844C17.1406 5.14844 17.7292 6.01562 18.1562 7C18.5833 7.97917 18.7969 9.02604 18.7969 10.1406C18.7969 11.2604 18.5833 12.3125 18.1562 13.2969C17.7292 14.276 17.1406 15.1406 16.3906 15.8906C15.6458 16.6406 14.7812 17.2266 13.7969 17.6484C12.8125 18.0755 11.763 18.2891 10.6484 18.2891ZM10.6484 16.5C11.5286 16.5 12.3516 16.3359 13.1172 16.0078C13.888 15.6797 14.5651 15.2266 15.1484 14.6484C15.7318 14.0651 16.1875 13.3906 16.5156 12.625C16.8438 11.8542 17.0078 11.026 17.0078 10.1406C17.0078 9.26042 16.8411 8.4375 16.5078 7.67188C16.1797 6.90104 15.724 6.22396 15.1406 5.64062C14.5625 5.05729 13.888 4.60156 13.1172 4.27344C12.3516 3.94531 11.526 3.78125 10.6406 3.78125C9.76042 3.78125 8.9349 3.94531 8.16406 4.27344C7.39844 4.60156 6.72396 5.05729 6.14062 5.64062C5.5625 6.22396 5.10938 6.90104 4.78125 7.67188C4.45833 8.4375 4.29688 9.26042 4.29688 10.1406C4.29688 11.026 4.45833 11.8542 4.78125 12.625C5.10938 13.3906 5.5651 14.0651 6.14844 14.6484C6.73177 15.2266 7.40625 15.6797 8.17188 16.0078C8.94271 16.3359 9.76823 16.5 10.6484 16.5ZM9.80469 13.8516C9.65365 13.8516 9.51562 13.8177 9.39062 13.75C9.27083 13.6823 9.15625 13.5833 9.04688 13.4531L7.24219 11.2656C7.09635 11.0833 7.02344 10.8984 7.02344 10.7109C7.02344 10.5026 7.09635 10.3255 7.24219 10.1797C7.38802 10.0339 7.5625 9.96094 7.76562 9.96094C7.89062 9.96094 8.0026 9.98698 8.10156 10.0391C8.20052 10.0911 8.29948 10.1771 8.39844 10.2969L9.78906 12.0469L12.75 7.27344C12.9271 6.99219 13.1484 6.85156 13.4141 6.85156C13.612 6.85156 13.7891 6.91667 13.9453 7.04688C14.1016 7.17708 14.1797 7.34635 14.1797 7.55469C14.1797 7.64323 14.1589 7.73438 14.1172 7.82812C14.0807 7.92188 14.0339 8.01302 13.9766 8.10156L10.5469 13.4453C10.3646 13.7161 10.1172 13.8516 9.80469 13.8516Z" fill="#40D86E"/>
</svg>
