<svg width="40" height="40" viewBox="0 0 40 40" fill="none" xmlns="http://www.w3.org/2000/svg">
<rect width="40" height="40" rx="10" fill="#191B1E"/>
<rect x="0.625" y="0.625" width="38.75" height="38.75" rx="9.375" stroke="#61646B" stroke-opacity="0.1" stroke-width="1.25"/>
<path d="M14.2726 25.7274C14.1498 25.6047 14.0688 25.4622 14.0295 25.3002C13.9902 25.1381 13.9902 24.9761 14.0295 24.814C14.0688 24.6519 14.1473 24.512 14.2652 24.3941L18.6556 19.9963L14.2652 15.6059C14.1473 15.4929 14.0688 15.3554 14.0295 15.1934C13.9951 15.0264 13.9951 14.8619 14.0295 14.6998C14.0688 14.5378 14.1498 14.3953 14.2726 14.2726C14.3904 14.1498 14.5304 14.0688 14.6924 14.0295C14.8594 13.9902 15.0239 13.9902 15.186 14.0295C15.353 14.0688 15.4954 14.1473 15.6133 14.2652L20.0037 18.6556L24.3941 14.2652C24.512 14.1473 24.6519 14.0688 24.814 14.0295C24.9761 13.9902 25.1381 13.9902 25.3002 14.0295C25.4622 14.0688 25.6047 14.1522 25.7274 14.2799C25.8502 14.3978 25.9312 14.5378 25.9705 14.6998C26.0147 14.8619 26.0147 15.0239 25.9705 15.186C25.9312 15.3481 25.8527 15.488 25.7348 15.6059L21.3517 19.9963L25.7348 24.3941C25.8527 24.512 25.9312 24.6519 25.9705 24.814C26.0098 24.9761 26.0098 25.1381 25.9705 25.3002C25.9312 25.4622 25.8502 25.6047 25.7274 25.7274C25.6047 25.8502 25.4622 25.9312 25.3002 25.9705C25.1381 26.0098 24.9761 26.0098 24.814 25.9705C24.6519 25.9312 24.512 25.8527 24.3941 25.7348L20.0037 21.3444L15.6133 25.7348C15.4954 25.8527 15.3554 25.9312 15.1934 25.9705C15.0313 26.0098 14.8668 26.0098 14.6998 25.9705C14.5378 25.9312 14.3953 25.8502 14.2726 25.7274Z" fill="#E0E3E6"/>
</svg>
