<svg width="16" height="16" viewBox="0 0 16 16" fill="none" xmlns="http://www.w3.org/2000/svg">
<path d="M8.01554 10.7865C7.81068 10.7865 7.62318 10.7032 7.45304 10.5365L3.53117 6.52608C3.4652 6.45664 3.41485 6.38199 3.38013 6.30212C3.34888 6.22226 3.33325 6.13372 3.33325 6.0365C3.33325 5.90803 3.3645 5.78997 3.427 5.68233C3.4895 5.57469 3.57284 5.48962 3.677 5.42712C3.78464 5.36462 3.9027 5.33337 4.03117 5.33337C4.22561 5.33337 4.39575 5.40455 4.54159 5.54692L8.25513 9.35942H7.78117L11.4843 5.54692C11.6301 5.40455 11.8003 5.33337 11.9947 5.33337C12.1232 5.33337 12.2395 5.36462 12.3437 5.42712C12.4513 5.48962 12.5364 5.57469 12.5989 5.68233C12.6614 5.78997 12.6926 5.90803 12.6926 6.0365C12.6926 6.22747 12.6249 6.38893 12.4895 6.52087L8.57804 10.5365C8.49471 10.6198 8.40617 10.6823 8.31242 10.724C8.22214 10.7622 8.12318 10.783 8.01554 10.7865Z" fill="white"/>
</svg>
