<svg width="32" height="32" viewBox="0 0 32 32" fill="none" xmlns="http://www.w3.org/2000/svg">
<rect width="32" height="32" rx="8" fill="#94979E" fill-opacity="0.24"/>
<rect x="0.5" y="0.5" width="31" height="31" rx="7.5" stroke="url(#paint0_linear_2301_2810)" stroke-opacity="0.1"/>
<path d="M18.9688 23.3516C18.5833 23.3516 18.2292 23.2552 17.9062 23.0625C17.5885 22.875 17.3333 22.6224 17.1406 22.3047C16.9531 21.987 16.8594 21.6354 16.8594 21.25C16.8594 20.8646 16.9531 20.513 17.1406 20.1953C17.3333 19.8724 17.5885 19.6172 17.9062 19.4297C18.2292 19.237 18.5833 19.1406 18.9688 19.1406C19.3594 19.1406 19.7135 19.237 20.0312 19.4297C20.349 19.6172 20.6016 19.8724 20.7891 20.1953C20.9818 20.513 21.0781 20.8646 21.0781 21.25C21.0781 21.6354 20.9818 21.987 20.7891 22.3047C20.6016 22.6224 20.3464 22.875 20.0234 23.0625C19.7057 23.2552 19.3542 23.3516 18.9688 23.3516ZM18.9688 22.2344C19.2448 22.2344 19.4792 22.138 19.6719 21.9453C19.8646 21.7526 19.9609 21.5208 19.9609 21.25C19.9609 20.9688 19.8646 20.7344 19.6719 20.5469C19.4792 20.3542 19.2448 20.2578 18.9688 20.2578C18.6979 20.2578 18.4661 20.3542 18.2734 20.5469C18.0807 20.7344 17.9844 20.9688 17.9844 21.25C17.9844 21.5208 18.0807 21.7526 18.2734 21.9453C18.4661 22.138 18.6979 22.2344 18.9688 22.2344ZM17.5781 20.4219V22.0703H8.60938C8.39062 22.0703 8.20052 21.9896 8.03906 21.8281C7.88281 21.6615 7.80469 21.4688 7.80469 21.25C7.80469 21.0208 7.88281 20.8255 8.03906 20.6641C8.19531 20.5026 8.38542 20.4219 8.60938 20.4219H17.5781ZM23.3984 20.4219C23.6172 20.4219 23.8047 20.5026 23.9609 20.6641C24.1172 20.8255 24.1953 21.0208 24.1953 21.25C24.1953 21.4688 24.1172 21.6615 23.9609 21.8281C23.8047 21.9896 23.6172 22.0703 23.3984 22.0703H20.4297V20.4219H23.3984ZM13.1172 18.4297C12.7318 18.4297 12.3776 18.3333 12.0547 18.1406C11.737 17.9479 11.4844 17.6927 11.2969 17.375C11.1094 17.0573 11.0156 16.7031 11.0156 16.3125C11.0156 15.9271 11.1094 15.5755 11.2969 15.2578C11.4844 14.9401 11.737 14.6875 12.0547 14.5C12.3776 14.3073 12.7318 14.2109 13.1172 14.2109C13.5026 14.2109 13.8542 14.3073 14.1719 14.5C14.4896 14.6875 14.7448 14.9401 14.9375 15.2578C15.1302 15.5755 15.2266 15.9271 15.2266 16.3125C15.2266 16.7031 15.1302 17.0573 14.9375 17.375C14.7448 17.6927 14.4896 17.9479 14.1719 18.1406C13.8542 18.3333 13.5026 18.4297 13.1172 18.4297ZM13.1172 17.3047C13.3984 17.3047 13.6328 17.2083 13.8203 17.0156C14.013 16.8229 14.1094 16.5885 14.1094 16.3125C14.1094 16.0312 14.013 15.7969 13.8203 15.6094C13.6328 15.4219 13.3984 15.3281 13.1172 15.3281C12.8411 15.3281 12.6068 15.4219 12.4141 15.6094C12.2214 15.7969 12.125 16.0312 12.125 16.3125C12.125 16.5885 12.2214 16.8229 12.4141 17.0156C12.6068 17.2083 12.8411 17.3047 13.1172 17.3047ZM8.59375 15.4844H11.6953V17.1406H8.59375C8.38021 17.1406 8.19531 17.0599 8.03906 16.8984C7.88281 16.7318 7.80469 16.5365 7.80469 16.3125C7.80469 16.0885 7.88281 15.8958 8.03906 15.7344C8.19531 15.5677 8.38021 15.4844 8.59375 15.4844ZM23.3828 15.4844C23.6068 15.4844 23.7969 15.5651 23.9531 15.7266C24.1146 15.888 24.1953 16.0833 24.1953 16.3125C24.1953 16.5417 24.1146 16.737 23.9531 16.8984C23.7969 17.0599 23.6068 17.1406 23.3828 17.1406H14.4766V15.4844H23.3828ZM18.9688 13.4922C18.5833 13.4922 18.2292 13.3958 17.9062 13.2031C17.5885 13.0104 17.3333 12.7552 17.1406 12.4375C16.9531 12.1198 16.8594 11.7682 16.8594 11.3828C16.8594 10.9974 16.9531 10.6458 17.1406 10.3281C17.3333 10.0052 17.5885 9.75 17.9062 9.5625C18.2292 9.36979 18.5833 9.27344 18.9688 9.27344C19.3542 9.27344 19.7057 9.36979 20.0234 9.5625C20.3464 9.75 20.6016 10.0052 20.7891 10.3281C20.9818 10.6458 21.0781 10.9974 21.0781 11.3828C21.0781 11.7682 20.9818 12.1198 20.7891 12.4375C20.6016 12.7552 20.3464 13.0104 20.0234 13.2031C19.7057 13.3958 19.3542 13.4922 18.9688 13.4922ZM18.9688 12.375C19.2448 12.375 19.4792 12.2786 19.6719 12.0859C19.8646 11.888 19.9609 11.651 19.9609 11.375C19.9609 11.099 19.8646 10.8672 19.6719 10.6797C19.4792 10.487 19.2448 10.3906 18.9688 10.3906C18.6979 10.3906 18.4661 10.487 18.2734 10.6797C18.0807 10.8672 17.9844 11.099 17.9844 11.375C17.9844 11.651 18.0807 11.888 18.2734 12.0859C18.4661 12.2786 18.6979 12.375 18.9688 12.375ZM17.6016 10.5547V12.2109H8.60938C8.39062 12.2109 8.20052 12.1276 8.03906 11.9609C7.88281 11.7943 7.80469 11.6016 7.80469 11.3828C7.80469 11.1589 7.88281 10.9661 8.03906 10.8047C8.19531 10.638 8.38542 10.5547 8.60938 10.5547H17.6016ZM23.3984 10.5547C23.6172 10.5547 23.8047 10.638 23.9609 10.8047C24.1172 10.9661 24.1953 11.1589 24.1953 11.3828C24.1953 11.6068 24.1172 11.8021 23.9609 11.9688C23.8047 12.1302 23.6172 12.2109 23.3984 12.2109H20.3516V10.5547H23.3984Z" fill="#EFEB00"/>
<defs>
<linearGradient id="paint0_linear_2301_2810" x1="16" y1="0" x2="16" y2="32" gradientUnits="userSpaceOnUse">
<stop stop-color="#94979E"/>
<stop offset="1" stop-color="#94979E" stop-opacity="0"/>
</linearGradient>
</defs>
</svg>
