<svg width="25" height="24" viewBox="0 0 25 24" fill="none" xmlns="http://www.w3.org/2000/svg">
<path d="M12.6484 20.2891C11.5339 20.2891 10.4844 20.0755 9.5 19.6484C8.51562 19.2266 7.64844 18.6406 6.89844 17.8906C6.14844 17.1406 5.5599 16.276 5.13281 15.2969C4.71094 14.3125 4.5 13.2604 4.5 12.1406C4.5 11.026 4.71094 9.97917 5.13281 9C5.5599 8.01562 6.14583 7.14844 6.89062 6.39844C7.64062 5.64844 8.50781 5.0625 9.49219 4.64062C10.4766 4.21354 11.526 4 12.6406 4C13.7552 4 14.8047 4.21354 15.7891 4.64062C16.7786 5.0625 17.6458 5.64844 18.3906 6.39844C19.1406 7.14844 19.7292 8.01562 20.1562 9C20.5833 9.97917 20.7969 11.026 20.7969 12.1406C20.7969 13.2604 20.5833 14.3125 20.1562 15.2969C19.7292 16.276 19.1406 17.1406 18.3906 17.8906C17.6458 18.6406 16.7812 19.2266 15.7969 19.6484C14.8125 20.0755 13.763 20.2891 12.6484 20.2891ZM12.6484 18.5C13.5286 18.5 14.3516 18.3359 15.1172 18.0078C15.888 17.6797 16.5651 17.2266 17.1484 16.6484C17.7318 16.0651 18.1875 15.3906 18.5156 14.625C18.8438 13.8542 19.0078 13.026 19.0078 12.1406C19.0078 11.2604 18.8411 10.4375 18.5078 9.67188C18.1797 8.90104 17.724 8.22396 17.1406 7.64062C16.5625 7.05729 15.888 6.60156 15.1172 6.27344C14.3516 5.94531 13.526 5.78125 12.6406 5.78125C11.7604 5.78125 10.9349 5.94531 10.1641 6.27344C9.39844 6.60156 8.72396 7.05729 8.14062 7.64062C7.5625 8.22396 7.10938 8.90104 6.78125 9.67188C6.45833 10.4375 6.29688 11.2604 6.29688 12.1406C6.29688 13.026 6.45833 13.8542 6.78125 14.625C7.10938 15.3906 7.5651 16.0651 8.14844 16.6484C8.73177 17.2266 9.40625 17.6797 10.1719 18.0078C10.9427 18.3359 11.7682 18.5 12.6484 18.5ZM11.2812 16.375C11.099 16.375 10.9453 16.3177 10.8203 16.2031C10.6953 16.0833 10.6328 15.9297 10.6328 15.7422C10.6328 15.5651 10.6953 15.4167 10.8203 15.2969C10.9453 15.1771 11.099 15.1172 11.2812 15.1172H12.1797V12.0859H11.4219C11.2396 12.0859 11.0859 12.0286 10.9609 11.9141C10.8359 11.7943 10.7734 11.6406 10.7734 11.4531C10.7734 11.276 10.8359 11.1276 10.9609 11.0078C11.0859 10.888 11.2396 10.8281 11.4219 10.8281H12.8984C13.1276 10.8281 13.3021 10.9036 13.4219 11.0547C13.5417 11.2005 13.6016 11.3958 13.6016 11.6406V15.1172H14.4062C14.5885 15.1172 14.7422 15.1771 14.8672 15.2969C14.9922 15.4167 15.0547 15.5651 15.0547 15.7422C15.0547 15.9297 14.9922 16.0833 14.8672 16.2031C14.7422 16.3177 14.5885 16.375 14.4062 16.375H11.2812ZM12.6172 9.67969C12.3203 9.67969 12.0651 9.57552 11.8516 9.36719C11.638 9.15365 11.5312 8.89844 11.5312 8.60156C11.5312 8.29427 11.638 8.03646 11.8516 7.82812C12.0651 7.61458 12.3203 7.50781 12.6172 7.50781C12.9193 7.50781 13.1745 7.61458 13.3828 7.82812C13.5911 8.03646 13.6953 8.29427 13.6953 8.60156C13.6953 8.89844 13.5911 9.15365 13.3828 9.36719C13.1745 9.57552 12.9193 9.67969 12.6172 9.67969Z" fill="white"/>
</svg>
