<svg width="20" height="20" viewBox="0 0 20 20" fill="none" xmlns="http://www.w3.org/2000/svg">
<path d="M10.1484 18.2891C9.03385 18.2891 7.98438 18.0755 7 17.6484C6.01562 17.2266 5.14844 16.6406 4.39844 15.8906C3.64844 15.1406 3.0599 14.276 2.63281 13.2969C2.21094 12.3125 2 11.2604 2 10.1406C2 9.02604 2.21094 7.97917 2.63281 7C3.0599 6.01562 3.64583 5.14844 4.39062 4.39844C5.14062 3.64844 6.00781 3.0625 6.99219 2.64062C7.97656 2.21354 9.02604 2 10.1406 2C11.2552 2 12.3047 2.21354 13.2891 2.64062C14.2786 3.0625 15.1458 3.64844 15.8906 4.39844C16.6406 5.14844 17.2292 6.01562 17.6562 7C18.0833 7.97917 18.2969 9.02604 18.2969 10.1406C18.2969 11.2604 18.0833 12.3125 17.6562 13.2969C17.2292 14.276 16.6406 15.1406 15.8906 15.8906C15.1458 16.6406 14.2812 17.2266 13.2969 17.6484C12.3125 18.0755 11.263 18.2891 10.1484 18.2891ZM10.1484 16.5C11.0286 16.5 11.8516 16.3359 12.6172 16.0078C13.388 15.6797 14.0651 15.2266 14.6484 14.6484C15.2318 14.0651 15.6875 13.3906 16.0156 12.625C16.3438 11.8542 16.5078 11.026 16.5078 10.1406C16.5078 9.26042 16.3411 8.4375 16.0078 7.67188C15.6797 6.90104 15.224 6.22396 14.6406 5.64062C14.0625 5.05729 13.388 4.60156 12.6172 4.27344C11.8516 3.94531 11.026 3.78125 10.1406 3.78125C9.26042 3.78125 8.4349 3.94531 7.66406 4.27344C6.89844 4.60156 6.22396 5.05729 5.64062 5.64062C5.0625 6.22396 4.60938 6.90104 4.28125 7.67188C3.95833 8.4375 3.79688 9.26042 3.79688 10.1406C3.79688 11.026 3.95833 11.8542 4.28125 12.625C4.60938 13.3906 5.0651 14.0651 5.64844 14.6484C6.23177 15.2266 6.90625 15.6797 7.67188 16.0078C8.44271 16.3359 9.26823 16.5 10.1484 16.5ZM8.78125 14.375C8.59896 14.375 8.44531 14.3177 8.32031 14.2031C8.19531 14.0833 8.13281 13.9297 8.13281 13.7422C8.13281 13.5651 8.19531 13.4167 8.32031 13.2969C8.44531 13.1771 8.59896 13.1172 8.78125 13.1172H9.67969V10.0859H8.92188C8.73958 10.0859 8.58594 10.0286 8.46094 9.91406C8.33594 9.79427 8.27344 9.64062 8.27344 9.45312C8.27344 9.27604 8.33594 9.1276 8.46094 9.00781C8.58594 8.88802 8.73958 8.82812 8.92188 8.82812H10.3984C10.6276 8.82812 10.8021 8.90365 10.9219 9.05469C11.0417 9.20052 11.1016 9.39583 11.1016 9.64062V13.1172H11.9062C12.0885 13.1172 12.2422 13.1771 12.3672 13.2969C12.4922 13.4167 12.5547 13.5651 12.5547 13.7422C12.5547 13.9297 12.4922 14.0833 12.3672 14.2031C12.2422 14.3177 12.0885 14.375 11.9062 14.375H8.78125ZM10.1172 7.67969C9.82031 7.67969 9.5651 7.57552 9.35156 7.36719C9.13802 7.15365 9.03125 6.89844 9.03125 6.60156C9.03125 6.29427 9.13802 6.03646 9.35156 5.82812C9.5651 5.61458 9.82031 5.50781 10.1172 5.50781C10.4193 5.50781 10.6745 5.61458 10.8828 5.82812C11.0911 6.03646 11.1953 6.29427 11.1953 6.60156C11.1953 6.89844 11.0911 7.15365 10.8828 7.36719C10.6745 7.57552 10.4193 7.67969 10.1172 7.67969Z" fill="#B3B7BF"/>
</svg>
