<svg width="21" height="20" viewBox="0 0 21 20" fill="none" xmlns="http://www.w3.org/2000/svg">
<path d="M14.6094 10.0859C14.6094 10.3932 14.4844 10.6745 14.2344 10.9297L8.21875 16.8125C8.11458 16.9115 8.0026 16.987 7.88281 17.0391C7.76302 17.0859 7.63021 17.1094 7.48438 17.1094C7.29167 17.1094 7.11458 17.0625 6.95312 16.9687C6.79167 16.875 6.66406 16.75 6.57031 16.5937C6.47656 16.4323 6.42969 16.2552 6.42969 16.0625C6.42969 15.7708 6.53646 15.5156 6.75 15.2969L12.4687 9.72656L12.4687 10.4375L6.75 4.88281C6.53646 4.66406 6.42969 4.40885 6.42969 4.11719C6.42969 3.92448 6.47656 3.75 6.57031 3.59375C6.66406 3.43229 6.79167 3.30469 6.95312 3.21094C7.11458 3.11719 7.29167 3.07031 7.48437 3.07031C7.77083 3.07031 8.01302 3.17187 8.21094 3.375L14.2344 9.24219C14.3594 9.36719 14.4531 9.5 14.5156 9.64062C14.5729 9.77604 14.6042 9.92448 14.6094 10.0859Z" fill="#B3B7BF"/>
</svg>
