<svg width="25" height="24" viewBox="0 0 25 24" fill="none" xmlns="http://www.w3.org/2000/svg">
<path d="M19.5 11.7492C19.5 12.0125 19.4049 12.2369 19.2147 12.4222L14.4091 17.2132C14.2189 17.4033 14.0068 17.4984 13.7727 17.4984C13.5045 17.4984 13.2875 17.4155 13.1217 17.2497C12.9559 17.0839 12.873 16.8791 12.873 16.6353C12.873 16.4988 12.8974 16.3769 12.9462 16.2696C12.9998 16.1623 13.0681 16.0672 13.151 15.9843L14.7894 14.3312L17.3861 11.9613L17.7226 12.5099L15.0601 12.6635H6.42894C6.15099 12.6635 5.92668 12.5806 5.75601 12.4148C5.58534 12.2442 5.5 12.0223 5.5 11.7492C5.5 11.481 5.58534 11.264 5.75601 11.0982C5.92668 10.9276 6.15099 10.8422 6.42894 10.8422H15.0601L17.7226 10.9885L17.3861 11.5517L14.7894 9.16719L13.151 7.51411C13.0681 7.43121 12.9998 7.33612 12.9462 7.22884C12.8974 7.11668 12.873 6.99478 12.873 6.86311C12.873 6.6193 12.9559 6.41449 13.1217 6.24869C13.2875 6.0829 13.5045 6 13.7727 6C13.8849 6 13.9946 6.02438 14.1019 6.07315C14.214 6.11703 14.3213 6.19018 14.4237 6.29258L19.2147 11.0763C19.4049 11.2616 19.5 11.4859 19.5 11.7492Z" fill="#40D86E"/>
</svg>
