<svg width="65" height="65" viewBox="0 0 65 65" fill="none" xmlns="http://www.w3.org/2000/svg">
<circle opacity="0.1" cx="32.5" cy="32.5" r="32" fill="white"/>
<circle cx="32.5" cy="32.5" r="31.5" stroke="url(#paint0_radial_3501_21707)"/>
<path d="M19.167 29.9089C19.167 28.4332 19.4448 27.0443 20.0003 25.7422C20.5559 24.4401 21.3285 23.2986 22.318 22.3177C23.3076 21.3281 24.4491 20.5556 25.7425 20C27.0446 19.4444 28.4378 19.1667 29.9222 19.1667C31.4066 19.1667 32.7955 19.4444 34.0889 20C35.3909 20.5556 36.5368 21.3281 37.5264 22.3177C38.5159 23.2986 39.2885 24.4401 39.8441 25.7422C40.3996 27.0443 40.6774 28.4332 40.6774 29.9089C40.6774 31.02 40.5125 32.079 40.1826 33.0859C39.8614 34.0929 39.41 35.0174 38.8284 35.8594L44.4404 41.4974C44.6488 41.7144 44.805 41.9531 44.9092 42.2135C45.022 42.4826 45.0784 42.7691 45.0784 43.0729C45.0784 43.4896 44.983 43.8672 44.792 44.2057C44.601 44.5443 44.3406 44.809 44.0107 45C43.6809 45.1996 43.2989 45.2995 42.8649 45.2995C42.5698 45.2995 42.2833 45.2474 42.0055 45.1432C41.7278 45.0391 41.4804 44.8785 41.2633 44.6615L35.5993 38.9974C34.7833 39.5182 33.8936 39.9306 32.93 40.2344C31.9752 40.5295 30.9725 40.6771 29.9222 40.6771C28.4378 40.6771 27.0446 40.3993 25.7425 39.8437C24.4491 39.2882 23.3076 38.5156 22.318 37.526C21.3285 36.5365 20.5559 35.3906 20.0003 34.0885C19.4448 32.7865 19.167 31.3932 19.167 29.9089ZM22.3311 29.9089C22.3311 30.9592 22.5264 31.9444 22.917 32.8646C23.3163 33.776 23.8632 34.579 24.5576 35.2734C25.2521 35.9679 26.055 36.5148 26.9665 36.9141C27.8866 37.3047 28.8719 37.5 29.9222 37.5C30.9725 37.5 31.9535 37.3047 32.8649 36.9141C33.785 36.5148 34.5923 35.9679 35.2868 35.2734C35.9812 34.579 36.5238 33.776 36.9144 32.8646C37.3137 31.9444 37.5133 30.9592 37.5133 29.9089C37.5133 28.8672 37.3137 27.8906 36.9144 26.9792C36.5238 26.059 35.9812 25.2517 35.2868 24.5573C34.5923 23.8542 33.785 23.3073 32.8649 22.9167C31.9535 22.526 30.9725 22.3307 29.9222 22.3307C28.8719 22.3307 27.8866 22.526 26.9665 22.9167C26.055 23.3073 25.2521 23.8542 24.5576 24.5573C23.8632 25.2517 23.3163 26.059 22.917 26.9792C22.5264 27.8906 22.3311 28.8672 22.3311 29.9089Z" fill="white"/>
<defs>
<radialGradient id="paint0_radial_3501_21707" cx="0" cy="0" r="1" gradientUnits="userSpaceOnUse" gradientTransform="translate(13.5 7.5) rotate(67.1663) scale(61.8466)">
<stop stop-color="white"/>
<stop offset="1" stop-color="#3F3D3D" stop-opacity="0.99"/>
</radialGradient>
</defs>
</svg>
