<svg width="100" height="100" viewBox="0 0 100 100" fill="none" xmlns="http://www.w3.org/2000/svg">
<g filter="url(#filter0_d_2302_7452)">
<circle opacity="0.1" cx="50" cy="48" r="32" fill="#40D86E"/>
<circle cx="50" cy="48" r="31.5" stroke="url(#paint0_radial_2302_7452)"/>
<path d="M50.2477 61.8151C48.3901 61.8151 46.641 61.4592 45.0003 60.7474C43.3597 60.0442 41.9144 59.0677 40.6644 57.8177C39.4144 56.5677 38.4335 55.1267 37.7217 53.4948C37.0186 51.8541 36.667 50.1007 36.667 48.2343C36.667 46.3767 37.0186 44.6319 37.7217 43C38.4335 41.3593 39.41 39.914 40.6514 38.664C41.9014 37.414 43.3467 36.4375 44.9873 35.7343C46.6279 35.0225 48.3771 34.6666 50.2347 34.6666C52.0923 34.6666 53.8415 35.0225 55.4821 35.7343C57.1314 36.4375 58.5767 37.414 59.818 38.664C61.068 39.914 62.0489 41.3593 62.7607 43C63.4725 44.6319 63.8284 46.3767 63.8284 48.2343C63.8284 50.1007 63.4725 51.8541 62.7607 53.4948C62.0489 55.1267 61.068 56.5677 59.818 57.8177C58.5767 59.0677 57.1357 60.0442 55.4951 60.7474C53.8545 61.4592 52.1054 61.8151 50.2477 61.8151ZM50.2477 58.8333C51.7147 58.8333 53.0863 58.5599 54.3623 58.013C55.647 57.4661 56.7755 56.7109 57.7477 55.7474C58.7199 54.7751 59.4795 53.651 60.0264 52.375C60.5732 51.0902 60.8467 49.71 60.8467 48.2343C60.8467 46.7673 60.5689 45.3958 60.0133 44.1198C59.4665 42.835 58.7069 41.7066 57.7347 40.7343C56.7712 39.7621 55.647 39.0026 54.3623 38.4557C53.0863 37.9088 51.7104 37.6354 50.2347 37.6354C48.7677 37.6354 47.3918 37.9088 46.1071 38.4557C44.8311 39.0026 43.7069 39.7621 42.7347 40.7343C41.7712 41.7066 41.016 42.835 40.4691 44.1198C39.9309 45.3958 39.6618 46.7673 39.6618 48.2343C39.6618 49.71 39.9309 51.0902 40.4691 52.375C41.016 53.651 41.7755 54.7751 42.7477 55.7474C43.7199 56.7109 44.8441 57.4661 46.1201 58.013C47.4048 58.5599 48.7807 58.8333 50.2477 58.8333ZM48.8415 54.4192C48.5897 54.4192 48.3597 54.3628 48.1514 54.25C47.9517 54.1371 47.7607 53.9722 47.5785 53.7552L44.5706 50.1093C44.3276 49.8055 44.2061 49.4974 44.2061 49.1849C44.2061 48.8376 44.3276 48.5425 44.5706 48.2994C44.8137 48.0564 45.1045 47.9349 45.443 47.9349C45.6514 47.9349 45.838 47.9783 46.0029 48.0651C46.1679 48.1519 46.3328 48.2951 46.4977 48.4948L48.8154 51.4114L53.7503 43.4557C54.0455 42.9869 54.4144 42.7526 54.8571 42.7526C55.187 42.7526 55.4821 42.8611 55.7425 43.0781C56.0029 43.2951 56.1331 43.5772 56.1331 43.9244C56.1331 44.072 56.0984 44.2239 56.029 44.3802C55.9682 44.5364 55.8901 44.6883 55.7946 44.8359L50.0785 53.7421C49.7746 54.1935 49.3623 54.4192 48.8415 54.4192Z" fill="#40D86E"/>
</g>
<defs>
<filter id="filter0_d_2302_7452" x="0" y="0" width="100" height="100" filterUnits="userSpaceOnUse" color-interpolation-filters="sRGB">
<feFlood flood-opacity="0" result="BackgroundImageFix"/>
<feColorMatrix in="SourceAlpha" type="matrix" values="0 0 0 0 0 0 0 0 0 0 0 0 0 0 0 0 0 0 127 0" result="hardAlpha"/>
<feMorphology radius="6" operator="dilate" in="SourceAlpha" result="effect1_dropShadow_2302_7452"/>
<feOffset dy="2"/>
<feGaussianBlur stdDeviation="6"/>
<feComposite in2="hardAlpha" operator="out"/>
<feColorMatrix type="matrix" values="0 0 0 0 0 0 0 0 0 0 0 0 0 0 0 0 0 0 0.2 0"/>
<feBlend mode="multiply" in2="BackgroundImageFix" result="effect1_dropShadow_2302_7452"/>
<feBlend mode="normal" in="SourceGraphic" in2="effect1_dropShadow_2302_7452" result="shape"/>
</filter>
<radialGradient id="paint0_radial_2302_7452" cx="0" cy="0" r="1" gradientUnits="userSpaceOnUse" gradientTransform="translate(31 23) rotate(67.1663) scale(61.8466)">
<stop stop-color="#40D86E"/>
<stop offset="1" stop-color="#104320"/>
</radialGradient>
</defs>
</svg>
