<svg width="257" height="40" viewBox="0 0 257 40" fill="none" xmlns="http://www.w3.org/2000/svg">
<rect x="0.5" width="256" height="40" rx="8" fill="#983433" fill-opacity="0.2"/>
<g opacity="0.2">
<rect x="7.25" y="6.75" width="26.5" height="26.5" rx="13.25" stroke="#F86F6E" stroke-width="1.5"/>
</g>
<g opacity="0.5">
<rect x="10.25" y="9.75" width="20.5" height="20.5" rx="10.25" stroke="#F86F6E" stroke-width="1.5"/>
</g>
<path fill-rule="evenodd" clip-rule="evenodd" d="M17.5 27.6484C18.4844 28.0755 19.5339 28.2891 20.6484 28.2891C21.763 28.2891 22.8125 28.0755 23.7969 27.6484C24.7812 27.2266 25.6458 26.6406 26.3906 25.8906C27.1406 25.1406 27.7292 24.276 28.1562 23.2969C28.5833 22.3125 28.7969 21.2604 28.7969 20.1406C28.7969 19.026 28.5833 17.9792 28.1562 17C27.7292 16.0156 27.1406 15.1484 26.3906 14.3984C25.6458 13.6484 24.7786 13.0625 23.7891 12.6406C22.8047 12.2135 21.7552 12 20.6406 12C19.526 12 18.4766 12.2135 17.4922 12.6406C16.5078 13.0625 15.6406 13.6484 14.8906 14.3984C14.1458 15.1484 13.5599 16.0156 13.1328 17C12.7109 17.9792 12.5 19.026 12.5 20.1406C12.5 21.2604 12.7109 22.3125 13.1328 23.2969C13.5599 24.276 14.1484 25.1406 14.8984 25.8906C15.6484 26.6406 16.5156 27.2266 17.5 27.6484ZM19.9834 21.916C20.1266 22.0664 20.3289 22.1416 20.5903 22.1416C20.8517 22.1416 21.054 22.0664 21.1973 21.916C21.3405 21.7656 21.4157 21.5562 21.4229 21.2876L21.5142 16.1475C21.5177 16.1117 21.5195 16.0776 21.5195 16.0454V15.9541C21.5195 15.6676 21.4354 15.4421 21.2671 15.2773C21.0988 15.1126 20.8732 15.0303 20.5903 15.0303C20.311 15.0303 20.0854 15.1126 19.9136 15.2773C19.7417 15.4421 19.6558 15.6676 19.6558 15.9541V16.0454C19.6593 16.0776 19.6611 16.1117 19.6611 16.1475L19.7632 21.2876C19.7703 21.5562 19.8438 21.7656 19.9834 21.916ZM20.0425 25.1655C20.2072 25.2586 20.3898 25.3052 20.5903 25.3052C20.7873 25.3052 20.9681 25.2586 21.1328 25.1655C21.2975 25.0724 21.4282 24.9453 21.5249 24.7842C21.6216 24.6266 21.6699 24.4512 21.6699 24.2578C21.6699 24.0645 21.6216 23.889 21.5249 23.7314C21.4282 23.5739 21.2975 23.4486 21.1328 23.3555C20.9681 23.2624 20.7873 23.2158 20.5903 23.2158C20.3898 23.2158 20.2072 23.2624 20.0425 23.3555C19.8778 23.4486 19.7453 23.5739 19.645 23.7314C19.5483 23.889 19.5 24.0645 19.5 24.2578C19.5 24.4512 19.5483 24.6266 19.645 24.7842C19.7453 24.9453 19.8778 25.0724 20.0425 25.1655Z" fill="#F86F6E"/>
<path d="M41.9091 26V14.3636H45.8409C46.7538 14.3636 47.5 14.5284 48.0795 14.858C48.6629 15.1837 49.0947 15.625 49.375 16.1818C49.6553 16.7386 49.7955 17.3598 49.7955 18.0455C49.7955 18.7311 49.6553 19.3542 49.375 19.9148C49.0985 20.4754 48.6705 20.9223 48.0909 21.2557C47.5114 21.5852 46.7689 21.75 45.8636 21.75H43.0455V20.5H45.8182C46.4432 20.5 46.9451 20.392 47.3239 20.1761C47.7027 19.9602 47.9773 19.6686 48.1477 19.3011C48.322 18.9299 48.4091 18.5114 48.4091 18.0455C48.4091 17.5795 48.322 17.1629 48.1477 16.7955C47.9773 16.428 47.7008 16.1402 47.3182 15.9318C46.9356 15.7197 46.428 15.6136 45.7955 15.6136H43.3182V26H41.9091ZM53.2244 14.3636V26H51.8835V14.3636H53.2244ZM59.3395 26.1818C58.4986 26.1818 57.7732 25.9962 57.1634 25.625C56.5573 25.25 56.0895 24.7273 55.7599 24.0568C55.4342 23.3826 55.2713 22.5985 55.2713 21.7045C55.2713 20.8106 55.4342 20.0227 55.7599 19.3409C56.0895 18.6553 56.5478 18.1212 57.1349 17.7386C57.7259 17.3523 58.4152 17.1591 59.2031 17.1591C59.6577 17.1591 60.1065 17.2348 60.5497 17.3864C60.9929 17.5379 61.3963 17.7841 61.7599 18.125C62.1236 18.4621 62.4134 18.9091 62.6293 19.4659C62.8452 20.0227 62.9531 20.7083 62.9531 21.5227V22.0909H56.2259V20.9318H61.5895C61.5895 20.4394 61.491 20 61.294 19.6136C61.1009 19.2273 60.8243 18.9223 60.4645 18.6989C60.1084 18.4754 59.688 18.3636 59.2031 18.3636C58.669 18.3636 58.2069 18.4962 57.8168 18.7614C57.4304 19.0227 57.133 19.3636 56.9247 19.7841C56.7164 20.2045 56.6122 20.6553 56.6122 21.1364V21.9091C56.6122 22.5682 56.7259 23.1269 56.9531 23.5852C57.1842 24.0398 57.5043 24.3864 57.9134 24.625C58.3224 24.8598 58.7978 24.9773 59.3395 24.9773C59.6918 24.9773 60.0099 24.928 60.294 24.8295C60.5819 24.7273 60.83 24.5758 61.0384 24.375C61.2467 24.1705 61.4077 23.9167 61.5213 23.6136L62.8168 23.9773C62.6804 24.4167 62.4512 24.803 62.1293 25.1364C61.8073 25.4659 61.4096 25.7235 60.9361 25.9091C60.4626 26.0909 59.9304 26.1818 59.3395 26.1818ZM67.5611 26.2045C67.008 26.2045 66.5062 26.1004 66.0554 25.892C65.6046 25.6799 65.2467 25.375 64.9815 24.9773C64.7164 24.5758 64.5838 24.0909 64.5838 23.5227C64.5838 23.0227 64.6823 22.6174 64.8793 22.3068C65.0762 21.9924 65.3395 21.7462 65.669 21.5682C65.9986 21.3902 66.3622 21.2576 66.7599 21.1705C67.1615 21.0795 67.5649 21.0076 67.9702 20.9545C68.5005 20.8864 68.9304 20.8352 69.2599 20.8011C69.5933 20.7633 69.8357 20.7008 69.9872 20.6136C70.1425 20.5265 70.2202 20.375 70.2202 20.1591V20.1136C70.2202 19.553 70.0668 19.1174 69.7599 18.8068C69.4569 18.4962 68.9967 18.3409 68.3793 18.3409C67.7391 18.3409 67.2372 18.4811 66.8736 18.7614C66.5099 19.0417 66.2543 19.3409 66.1065 19.6591L64.8338 19.2045C65.0611 18.6742 65.3641 18.2614 65.7429 17.9659C66.1255 17.6667 66.5421 17.4583 66.9929 17.3409C67.4474 17.2197 67.8944 17.1591 68.3338 17.1591C68.6141 17.1591 68.9361 17.1932 69.2997 17.2614C69.6671 17.3258 70.0213 17.4602 70.3622 17.6648C70.7069 17.8693 70.9929 18.178 71.2202 18.5909C71.4474 19.0038 71.5611 19.5568 71.5611 20.25V26H70.2202V24.8182H70.152C70.0611 25.0076 69.9096 25.2102 69.6974 25.4261C69.4853 25.642 69.2031 25.8258 68.8509 25.9773C68.4986 26.1288 68.0687 26.2045 67.5611 26.2045ZM67.7656 25C68.2959 25 68.7429 24.8958 69.1065 24.6875C69.474 24.4792 69.7505 24.2102 69.9361 23.8807C70.1255 23.5511 70.2202 23.2045 70.2202 22.8409V21.6136C70.1634 21.6818 70.0384 21.7443 69.8452 21.8011C69.6558 21.8542 69.4361 21.9015 69.1861 21.9432C68.9399 21.9811 68.6993 22.0152 68.4645 22.0455C68.2334 22.072 68.0459 22.0947 67.902 22.1136C67.5535 22.1591 67.2277 22.233 66.9247 22.3352C66.6255 22.4337 66.383 22.5833 66.1974 22.7841C66.0156 22.9811 65.9247 23.25 65.9247 23.5909C65.9247 24.0568 66.0971 24.4091 66.4418 24.6477C66.7902 24.8826 67.2315 25 67.7656 25ZM80.1903 19.2273L78.9858 19.5682C78.91 19.3674 78.7983 19.1723 78.6506 18.983C78.5066 18.7898 78.3097 18.6307 78.0597 18.5057C77.8097 18.3807 77.4896 18.3182 77.0994 18.3182C76.5653 18.3182 76.1203 18.4413 75.7642 18.6875C75.4119 18.9299 75.2358 19.2386 75.2358 19.6136C75.2358 19.947 75.357 20.2102 75.5994 20.4034C75.8419 20.5966 76.2206 20.7576 76.7358 20.8864L78.0312 21.2045C78.8116 21.3939 79.393 21.6837 79.7756 22.0739C80.1581 22.4602 80.3494 22.9583 80.3494 23.5682C80.3494 24.0682 80.2055 24.5152 79.9176 24.9091C79.6335 25.303 79.2358 25.6136 78.7244 25.8409C78.2131 26.0682 77.6184 26.1818 76.9403 26.1818C76.0502 26.1818 75.3134 25.9886 74.7301 25.6023C74.1468 25.2159 73.7775 24.6515 73.6222 23.9091L74.8949 23.5909C75.0161 24.0606 75.2453 24.4129 75.5824 24.6477C75.9233 24.8826 76.3684 25 76.9176 25C77.5426 25 78.0388 24.8674 78.4062 24.6023C78.7775 24.3333 78.9631 24.0114 78.9631 23.6364C78.9631 23.3333 78.857 23.0795 78.6449 22.875C78.4328 22.6667 78.107 22.5114 77.6676 22.4091L76.2131 22.0682C75.4138 21.8788 74.8267 21.5852 74.4517 21.1875C74.0805 20.786 73.8949 20.2841 73.8949 19.6818C73.8949 19.1894 74.0331 18.7538 74.3097 18.375C74.59 17.9962 74.9706 17.6989 75.4517 17.483C75.9366 17.267 76.4858 17.1591 77.0994 17.1591C77.9631 17.1591 78.6411 17.3485 79.1335 17.7273C79.6297 18.1061 79.982 18.6061 80.1903 19.2273ZM86.027 26.1818C85.1861 26.1818 84.4607 25.9962 83.8509 25.625C83.2448 25.25 82.777 24.7273 82.4474 24.0568C82.1217 23.3826 81.9588 22.5985 81.9588 21.7045C81.9588 20.8106 82.1217 20.0227 82.4474 19.3409C82.777 18.6553 83.2353 18.1212 83.8224 17.7386C84.4134 17.3523 85.1027 17.1591 85.8906 17.1591C86.3452 17.1591 86.794 17.2348 87.2372 17.3864C87.6804 17.5379 88.0838 17.7841 88.4474 18.125C88.8111 18.4621 89.1009 18.9091 89.3168 19.4659C89.5327 20.0227 89.6406 20.7083 89.6406 21.5227V22.0909H82.9134V20.9318H88.277C88.277 20.4394 88.1785 20 87.9815 19.6136C87.7884 19.2273 87.5118 18.9223 87.152 18.6989C86.7959 18.4754 86.3755 18.3636 85.8906 18.3636C85.3565 18.3636 84.8944 18.4962 84.5043 18.7614C84.1179 19.0227 83.8205 19.3636 83.6122 19.7841C83.4039 20.2045 83.2997 20.6553 83.2997 21.1364V21.9091C83.2997 22.5682 83.4134 23.1269 83.6406 23.5852C83.8717 24.0398 84.1918 24.3864 84.6009 24.625C85.0099 24.8598 85.4853 24.9773 86.027 24.9773C86.3793 24.9773 86.6974 24.928 86.9815 24.8295C87.2694 24.7273 87.5175 24.5758 87.7259 24.375C87.9342 24.1705 88.0952 23.9167 88.2088 23.6136L89.5043 23.9773C89.3679 24.4167 89.1387 24.803 88.8168 25.1364C88.4948 25.4659 88.0971 25.7235 87.6236 25.9091C87.1501 26.0909 86.6179 26.1818 86.027 26.1818ZM102.362 19.2273L101.158 19.5682C101.082 19.3674 100.97 19.1723 100.822 18.983C100.679 18.7898 100.482 18.6307 100.232 18.5057C99.9815 18.3807 99.6615 18.3182 99.2713 18.3182C98.7372 18.3182 98.2921 18.4413 97.9361 18.6875C97.5838 18.9299 97.4077 19.2386 97.4077 19.6136C97.4077 19.947 97.5289 20.2102 97.7713 20.4034C98.0137 20.5966 98.3925 20.7576 98.9077 20.8864L100.203 21.2045C100.983 21.3939 101.565 21.6837 101.947 22.0739C102.33 22.4602 102.521 22.9583 102.521 23.5682C102.521 24.0682 102.377 24.5152 102.089 24.9091C101.805 25.303 101.408 25.6136 100.896 25.8409C100.385 26.0682 99.7902 26.1818 99.1122 26.1818C98.2221 26.1818 97.4853 25.9886 96.902 25.6023C96.3187 25.2159 95.9493 24.6515 95.794 23.9091L97.0668 23.5909C97.188 24.0606 97.4171 24.4129 97.7543 24.6477C98.0952 24.8826 98.5402 25 99.0895 25C99.7145 25 100.211 24.8674 100.578 24.6023C100.949 24.3333 101.135 24.0114 101.135 23.6364C101.135 23.3333 101.029 23.0795 100.817 22.875C100.605 22.6667 100.279 22.5114 99.8395 22.4091L98.3849 22.0682C97.5857 21.8788 96.9986 21.5852 96.6236 21.1875C96.2524 20.786 96.0668 20.2841 96.0668 19.6818C96.0668 19.1894 96.205 18.7538 96.4815 18.375C96.7618 17.9962 97.1425 17.6989 97.6236 17.483C98.1084 17.267 98.6577 17.1591 99.2713 17.1591C100.135 17.1591 100.813 17.3485 101.305 17.7273C101.802 18.1061 102.154 18.6061 102.362 19.2273ZM106.517 26L103.858 17.2727H105.267L107.153 23.9545H107.244L109.108 17.2727H110.54L112.381 23.9318H112.472L114.358 17.2727H115.767L113.108 26H111.79L109.881 19.2955H109.744L107.835 26H106.517ZM117.54 26V17.2727H118.881V26H117.54ZM118.222 15.8182C117.96 15.8182 117.735 15.7292 117.545 15.5511C117.36 15.3731 117.267 15.1591 117.267 14.9091C117.267 14.6591 117.36 14.4451 117.545 14.267C117.735 14.089 117.96 14 118.222 14C118.483 14 118.706 14.089 118.892 14.267C119.081 14.4451 119.176 14.6591 119.176 14.9091C119.176 15.1591 119.081 15.3731 118.892 15.5511C118.706 15.7292 118.483 15.8182 118.222 15.8182ZM125.132 17.2727V18.4091H120.609V17.2727H125.132ZM121.928 15.1818H123.268V23.5C123.268 23.8788 123.323 24.1629 123.433 24.3523C123.547 24.5379 123.691 24.6629 123.865 24.7273C124.043 24.7879 124.231 24.8182 124.428 24.8182C124.575 24.8182 124.696 24.8106 124.791 24.7955C124.886 24.7765 124.962 24.7614 125.018 24.75L125.291 25.9545C125.2 25.9886 125.073 26.0227 124.911 26.0568C124.748 26.0947 124.541 26.1136 124.291 26.1136C123.912 26.1136 123.541 26.0322 123.178 25.8693C122.818 25.7064 122.518 25.4583 122.28 25.125C122.045 24.7917 121.928 24.3712 121.928 23.8636V15.1818ZM130.601 26.1818C129.783 26.1818 129.078 25.9886 128.487 25.6023C127.896 25.2159 127.442 24.6837 127.124 24.0057C126.805 23.3277 126.646 22.553 126.646 21.6818C126.646 20.7955 126.809 20.0133 127.135 19.3352C127.464 18.6534 127.923 18.1212 128.51 17.7386C129.101 17.3523 129.79 17.1591 130.578 17.1591C131.192 17.1591 131.745 17.2727 132.237 17.5C132.73 17.7273 133.133 18.0455 133.447 18.4545C133.762 18.8636 133.957 19.3409 134.033 19.8864H132.692C132.589 19.4886 132.362 19.1364 132.01 18.8295C131.661 18.5189 131.192 18.3636 130.601 18.3636C130.078 18.3636 129.62 18.5 129.226 18.7727C128.836 19.0417 128.531 19.4223 128.311 19.9148C128.095 20.4034 127.987 20.9773 127.987 21.6364C127.987 22.3106 128.093 22.8977 128.305 23.3977C128.521 23.8977 128.824 24.286 129.214 24.5625C129.608 24.839 130.071 24.9773 130.601 24.9773C130.949 24.9773 131.266 24.9167 131.55 24.7955C131.834 24.6742 132.074 24.5 132.271 24.2727C132.468 24.0455 132.608 23.7727 132.692 23.4545H134.033C133.957 23.9697 133.769 24.4337 133.47 24.8466C133.175 25.2557 132.783 25.5814 132.294 25.8239C131.809 26.0625 131.245 26.1818 130.601 26.1818ZM137.334 20.75V26H135.993V14.3636H137.334V18.6364H137.447C137.652 18.1856 137.959 17.8277 138.368 17.5625C138.781 17.2936 139.33 17.1591 140.016 17.1591C140.61 17.1591 141.131 17.2784 141.578 17.517C142.025 17.7519 142.372 18.1136 142.618 18.6023C142.868 19.0871 142.993 19.7045 142.993 20.4545V26H141.652V20.5455C141.652 19.8523 141.472 19.3163 141.112 18.9375C140.756 18.5549 140.262 18.3636 139.629 18.3636C139.19 18.3636 138.796 18.4564 138.447 18.642C138.103 18.8277 137.83 19.0985 137.629 19.4545C137.432 19.8106 137.334 20.2424 137.334 20.75ZM153.741 17.2727V18.4091H149.219V17.2727H153.741ZM150.537 15.1818H151.878V23.5C151.878 23.8788 151.933 24.1629 152.043 24.3523C152.156 24.5379 152.3 24.6629 152.474 24.7273C152.652 24.7879 152.84 24.8182 153.037 24.8182C153.185 24.8182 153.306 24.8106 153.401 24.7955C153.495 24.7765 153.571 24.7614 153.628 24.75L153.901 25.9545C153.81 25.9886 153.683 26.0227 153.52 26.0568C153.357 26.0947 153.151 26.1136 152.901 26.1136C152.522 26.1136 152.151 26.0322 151.787 25.8693C151.427 25.7064 151.128 25.4583 150.889 25.125C150.654 24.7917 150.537 24.3712 150.537 23.8636V15.1818ZM159.21 26.1818C158.422 26.1818 157.731 25.9943 157.136 25.6193C156.545 25.2443 156.083 24.7197 155.75 24.0455C155.42 23.3712 155.256 22.5833 155.256 21.6818C155.256 20.7727 155.42 19.9792 155.75 19.3011C156.083 18.6231 156.545 18.0966 157.136 17.7216C157.731 17.3466 158.422 17.1591 159.21 17.1591C159.998 17.1591 160.688 17.3466 161.278 17.7216C161.873 18.0966 162.335 18.6231 162.665 19.3011C162.998 19.9792 163.165 20.7727 163.165 21.6818C163.165 22.5833 162.998 23.3712 162.665 24.0455C162.335 24.7197 161.873 25.2443 161.278 25.6193C160.688 25.9943 159.998 26.1818 159.21 26.1818ZM159.21 24.9773C159.809 24.9773 160.301 24.8239 160.688 24.517C161.074 24.2102 161.36 23.8068 161.545 23.3068C161.731 22.8068 161.824 22.2652 161.824 21.6818C161.824 21.0985 161.731 20.5549 161.545 20.0511C161.36 19.5473 161.074 19.1402 160.688 18.8295C160.301 18.5189 159.809 18.3636 159.21 18.3636C158.612 18.3636 158.119 18.5189 157.733 18.8295C157.347 19.1402 157.061 19.5473 156.875 20.0511C156.689 20.5549 156.597 21.0985 156.597 21.6818C156.597 22.2652 156.689 22.8068 156.875 23.3068C157.061 23.8068 157.347 24.2102 157.733 24.517C158.119 24.8239 158.612 24.9773 159.21 24.9773ZM179.712 20.1818C179.712 21.4091 179.49 22.4697 179.047 23.3636C178.604 24.2576 177.996 24.947 177.223 25.4318C176.45 25.9167 175.568 26.1591 174.575 26.1591C173.583 26.1591 172.7 25.9167 171.928 25.4318C171.155 24.947 170.547 24.2576 170.104 23.3636C169.661 22.4697 169.439 21.4091 169.439 20.1818C169.439 18.9545 169.661 17.8939 170.104 17C170.547 16.1061 171.155 15.4167 171.928 14.9318C172.7 14.447 173.583 14.2045 174.575 14.2045C175.568 14.2045 176.45 14.447 177.223 14.9318C177.996 15.4167 178.604 16.1061 179.047 17C179.49 17.8939 179.712 18.9545 179.712 20.1818ZM178.348 20.1818C178.348 19.1742 178.179 18.3239 177.842 17.6307C177.509 16.9375 177.056 16.4129 176.484 16.0568C175.916 15.7008 175.28 15.5227 174.575 15.5227C173.871 15.5227 173.232 15.7008 172.661 16.0568C172.092 16.4129 171.64 16.9375 171.303 17.6307C170.969 18.3239 170.803 19.1742 170.803 20.1818C170.803 21.1894 170.969 22.0398 171.303 22.733C171.64 23.4261 172.092 23.9508 172.661 24.3068C173.232 24.6629 173.871 24.8409 174.575 24.8409C175.28 24.8409 175.916 24.6629 176.484 24.3068C177.056 23.9508 177.509 23.4261 177.842 22.733C178.179 22.0398 178.348 21.1894 178.348 20.1818ZM181.899 29.2727V17.2727H183.195V18.6591H183.354C183.452 18.5076 183.589 18.3144 183.763 18.0795C183.941 17.8409 184.195 17.6288 184.524 17.4432C184.857 17.2538 185.308 17.1591 185.876 17.1591C186.611 17.1591 187.259 17.3428 187.82 17.7102C188.38 18.0777 188.818 18.5985 189.132 19.2727C189.446 19.947 189.604 20.7424 189.604 21.6591C189.604 22.5833 189.446 23.3845 189.132 24.0625C188.818 24.7367 188.382 25.2595 187.825 25.6307C187.268 25.9981 186.626 26.1818 185.899 26.1818C185.339 26.1818 184.89 26.089 184.553 25.9034C184.215 25.714 183.956 25.5 183.774 25.2614C183.592 25.0189 183.452 24.8182 183.354 24.6591H183.24V29.2727H181.899ZM183.217 21.6364C183.217 22.2955 183.314 22.8769 183.507 23.3807C183.7 23.8807 183.982 24.2727 184.354 24.5568C184.725 24.8371 185.179 24.9773 185.717 24.9773C186.278 24.9773 186.746 24.8295 187.121 24.5341C187.5 24.2348 187.784 23.8333 187.973 23.3295C188.166 22.822 188.263 22.2576 188.263 21.6364C188.263 21.0227 188.168 20.4697 187.979 19.9773C187.793 19.4811 187.511 19.089 187.132 18.8011C186.757 18.5095 186.286 18.3636 185.717 18.3636C185.172 18.3636 184.714 18.5019 184.342 18.7784C183.971 19.0511 183.691 19.4337 183.501 19.9261C183.312 20.4148 183.217 20.9848 183.217 21.6364ZM195.445 17.2727V18.4091H190.922V17.2727H195.445ZM192.24 15.1818H193.581V23.5C193.581 23.8788 193.636 24.1629 193.746 24.3523C193.859 24.5379 194.003 24.6629 194.178 24.7273C194.356 24.7879 194.543 24.8182 194.74 24.8182C194.888 24.8182 195.009 24.8106 195.104 24.7955C195.198 24.7765 195.274 24.7614 195.331 24.75L195.604 25.9545C195.513 25.9886 195.386 26.0227 195.223 26.0568C195.06 26.0947 194.854 26.1136 194.604 26.1136C194.225 26.1136 193.854 26.0322 193.49 25.8693C193.13 25.7064 192.831 25.4583 192.592 25.125C192.357 24.7917 192.24 24.3712 192.24 23.8636V15.1818ZM197.462 26V17.2727H198.803V26H197.462ZM198.143 15.8182C197.882 15.8182 197.657 15.7292 197.467 15.5511C197.282 15.3731 197.189 15.1591 197.189 14.9091C197.189 14.6591 197.282 14.4451 197.467 14.267C197.657 14.089 197.882 14 198.143 14C198.405 14 198.628 14.089 198.814 14.267C199.003 14.4451 199.098 14.6591 199.098 14.9091C199.098 15.1591 199.003 15.3731 198.814 15.5511C198.628 15.7292 198.405 15.8182 198.143 15.8182ZM201.259 26V17.2727H202.554V18.6364H202.668C202.849 18.1705 203.143 17.8087 203.548 17.5511C203.954 17.2898 204.44 17.1591 205.009 17.1591C205.584 17.1591 206.063 17.2898 206.446 17.5511C206.832 17.8087 207.134 18.1705 207.349 18.6364H207.44C207.664 18.1856 207.999 17.8277 208.446 17.5625C208.893 17.2936 209.429 17.1591 210.054 17.1591C210.834 17.1591 211.473 17.4034 211.969 17.892C212.465 18.3769 212.713 19.1326 212.713 20.1591V26H211.372V20.1591C211.372 19.5152 211.196 19.0549 210.844 18.7784C210.491 18.5019 210.077 18.3636 209.599 18.3636C208.986 18.3636 208.51 18.5492 208.173 18.9205C207.836 19.2879 207.668 19.7538 207.668 20.3182V26H206.304V20.0227C206.304 19.5265 206.143 19.1269 205.821 18.8239C205.499 18.517 205.084 18.3636 204.577 18.3636C204.228 18.3636 203.902 18.4564 203.599 18.642C203.3 18.8277 203.058 19.0852 202.872 19.4148C202.69 19.7405 202.599 20.1174 202.599 20.5455V26H201.259ZM215.165 26V17.2727H216.506V26H215.165ZM215.847 15.8182C215.585 15.8182 215.36 15.7292 215.17 15.5511C214.985 15.3731 214.892 15.1591 214.892 14.9091C214.892 14.6591 214.985 14.4451 215.17 14.267C215.36 14.089 215.585 14 215.847 14C216.108 14 216.331 14.089 216.517 14.267C216.706 14.4451 216.801 14.6591 216.801 14.9091C216.801 15.1591 216.706 15.3731 216.517 15.5511C216.331 15.7292 216.108 15.8182 215.847 15.8182ZM225.143 19.2273L223.939 19.5682C223.863 19.3674 223.751 19.1723 223.604 18.983C223.46 18.7898 223.263 18.6307 223.013 18.5057C222.763 18.3807 222.443 18.3182 222.053 18.3182C221.518 18.3182 221.073 18.4413 220.717 18.6875C220.365 18.9299 220.189 19.2386 220.189 19.6136C220.189 19.947 220.31 20.2102 220.553 20.4034C220.795 20.5966 221.174 20.7576 221.689 20.8864L222.984 21.2045C223.765 21.3939 224.346 21.6837 224.729 22.0739C225.111 22.4602 225.303 22.9583 225.303 23.5682C225.303 24.0682 225.159 24.5152 224.871 24.9091C224.587 25.303 224.189 25.6136 223.678 25.8409C223.166 26.0682 222.571 26.1818 221.893 26.1818C221.003 26.1818 220.267 25.9886 219.683 25.6023C219.1 25.2159 218.731 24.6515 218.575 23.9091L219.848 23.5909C219.969 24.0606 220.198 24.4129 220.536 24.6477C220.876 24.8826 221.321 25 221.871 25C222.496 25 222.992 24.8674 223.359 24.6023C223.731 24.3333 223.916 24.0114 223.916 23.6364C223.916 23.3333 223.81 23.0795 223.598 22.875C223.386 22.6667 223.06 22.5114 222.621 22.4091L221.166 22.0682C220.367 21.8788 219.78 21.5852 219.405 21.1875C219.034 20.786 218.848 20.2841 218.848 19.6818C218.848 19.1894 218.986 18.7538 219.263 18.375C219.543 17.9962 219.924 17.6989 220.405 17.483C220.89 17.267 221.439 17.1591 222.053 17.1591C222.916 17.1591 223.594 17.3485 224.087 17.7273C224.583 18.1061 224.935 18.6061 225.143 19.2273ZM227.321 26V17.2727H228.616V18.6364H228.73C228.912 18.1705 229.205 17.8087 229.611 17.5511C230.016 17.2898 230.503 17.1591 231.071 17.1591C231.647 17.1591 232.126 17.2898 232.509 17.5511C232.895 17.8087 233.196 18.1705 233.412 18.6364H233.503C233.726 18.1856 234.062 17.8277 234.509 17.5625C234.955 17.2936 235.491 17.1591 236.116 17.1591C236.897 17.1591 237.535 17.4034 238.031 17.892C238.527 18.3769 238.776 19.1326 238.776 20.1591V26H237.435V20.1591C237.435 19.5152 237.259 19.0549 236.906 18.7784C236.554 18.5019 236.139 18.3636 235.662 18.3636C235.048 18.3636 234.573 18.5492 234.236 18.9205C233.899 19.2879 233.73 19.7538 233.73 20.3182V26H232.366V20.0227C232.366 19.5265 232.205 19.1269 231.884 18.8239C231.562 18.517 231.147 18.3636 230.639 18.3636C230.291 18.3636 229.965 18.4564 229.662 18.642C229.363 18.8277 229.12 19.0852 228.935 19.4148C228.753 19.7405 228.662 20.1174 228.662 20.5455V26H227.321Z" fill="#F86F6E"/>
</svg>
