<svg width="16" height="16" viewBox="0 0 16 16" fill="none" xmlns="http://www.w3.org/2000/svg">
<path d="M8.31771 2C8.42188 2 8.51736 2.02257 8.60417 2.06771C8.69097 2.11285 8.78472 2.17361 8.88542 2.25L12.3958 5.08333C12.559 5.21528 12.6406 5.38715 12.6406 5.59896C12.6406 5.73785 12.6076 5.85938 12.5417 5.96354C12.4757 6.06771 12.3889 6.15104 12.2812 6.21354C12.1771 6.27257 12.0642 6.30208 11.9427 6.30208C11.8524 6.30208 11.7639 6.28472 11.6771 6.25C11.5938 6.21528 11.5104 6.16493 11.4271 6.09896L8.31771 3.60417L5.21354 6.09896C5.12674 6.16493 5.04167 6.21528 4.95833 6.25C4.875 6.28472 4.78819 6.30208 4.69792 6.30208C4.57639 6.30208 4.46181 6.27257 4.35417 6.21354C4.25 6.15104 4.16493 6.06771 4.09896 5.96354C4.03299 5.85938 4 5.73785 4 5.59896C4 5.38715 4.0816 5.21528 4.24479 5.08333L7.75521 2.25C7.8559 2.17361 7.94965 2.11285 8.03646 2.06771C8.12326 2.02257 8.21701 2 8.31771 2ZM8.31771 13.901C8.21701 13.901 8.12326 13.8785 8.03646 13.8333C7.94965 13.7917 7.8559 13.7309 7.75521 13.651L4.24479 10.8177C4.0816 10.6823 4 10.5104 4 10.3021C4 10.1667 4.03299 10.0469 4.09896 9.94271C4.16493 9.83507 4.25 9.75174 4.35417 9.69271C4.46181 9.63021 4.57639 9.59896 4.69792 9.59896C4.78819 9.59896 4.875 9.61632 4.95833 9.65104C5.04167 9.68576 5.12674 9.73611 5.21354 9.80208L8.31771 12.2969L11.4271 9.80208C11.5104 9.73611 11.5938 9.68576 11.6771 9.65104C11.7639 9.61632 11.8524 9.59896 11.9427 9.59896C12.0642 9.59896 12.1771 9.63021 12.2812 9.69271C12.3889 9.75174 12.4757 9.83507 12.5417 9.94271C12.6076 10.0469 12.6406 10.1667 12.6406 10.3021C12.6406 10.5104 12.559 10.6823 12.3958 10.8177L8.88542 13.6562C8.78472 13.7326 8.69097 13.7917 8.60417 13.8333C8.51736 13.8785 8.42188 13.901 8.31771 13.901Z" fill="#B3B7BF"/>
</svg>
