<svg width="38" height="11" viewBox="0 0 38 11" fill="none" xmlns="http://www.w3.org/2000/svg">
<path d="M16.8882 8.8371L13.0817 5.03062C11.2251 3.17402 10.2968 2.24573 9.21348 1.58187C8.25301 0.993299 7.2059 0.559569 6.11056 0.296602C4.87513 0 3.56232 0 0.936698 0H36.6349C34.0093 0 32.6965 0 31.4611 0.296602C30.3657 0.559569 29.3186 0.993299 28.3582 1.58187C27.2748 2.24573 26.3465 3.17403 24.4899 5.03062L20.6835 8.8371C19.6354 9.88515 17.9362 9.88514 16.8882 8.8371Z" fill="#191B1E"/>
<path d="M0.116211 0.5H1.05291C3.67853 0.5 4.99134 0.5 6.22677 0.796602C7.32211 1.05957 8.36923 1.4933 9.32969 2.08187C10.413 2.74573 11.3413 3.67402 13.1979 5.53062L17.0044 9.3371C18.0524 10.3851 19.7516 10.3851 20.7997 9.3371L24.6062 5.53062C26.4628 3.67403 27.3911 2.74573 28.4744 2.08187C29.4348 1.4933 30.4819 1.05957 31.5773 0.796602C32.8127 0.5 34.1255 0.5 36.7511 0.5H37.6878" stroke="#3C3F43"/>
</svg>
