<svg width="24" height="24" viewBox="0 0 24 24" fill="none" xmlns="http://www.w3.org/2000/svg">
<path d="M17.9531 15.2578C17.9531 15.5443 17.8568 15.7839 17.6641 15.9766C17.4714 16.1693 17.2448 16.2656 16.9844 16.2656C16.7188 16.2656 16.4948 16.1693 16.3125 15.9766C16.1354 15.7786 16.0469 15.5443 16.0469 15.2734V12.3281L16.1641 9.41406L14.9141 10.8203L7.69531 18.0312C7.48177 18.2448 7.24479 18.3516 6.98438 18.3516C6.80729 18.3516 6.64323 18.3047 6.49219 18.2109C6.34635 18.1172 6.22656 17.9948 6.13281 17.8438C6.03906 17.6875 5.99219 17.526 5.99219 17.3594C5.99219 17.099 6.09896 16.862 6.3125 16.6484L13.5234 9.42188L14.9219 8.1875L11.8906 8.29688H9.0625C8.79688 8.29688 8.5651 8.20573 8.36719 8.02344C8.17448 7.84115 8.07812 7.61979 8.07812 7.35938C8.07812 7.09896 8.17188 6.875 8.35938 6.6875C8.55208 6.49479 8.79167 6.39844 9.07812 6.39844H16.9141C17.2318 6.39844 17.4818 6.49479 17.6641 6.6875C17.8516 6.875 17.9453 7.11979 17.9453 7.42188L17.9531 15.2578Z" fill="#B3B7BF"/>
</svg>
