<svg width="25" height="24" viewBox="0 0 25 24" fill="none" xmlns="http://www.w3.org/2000/svg">
<path d="M8.67188 15.6797C8.45312 15.6797 8.29427 15.6302 8.19531 15.5312C8.09635 15.4271 8.04688 15.263 8.04688 15.0391V9.69531C8.04688 9.47135 8.09635 9.3099 8.19531 9.21094C8.29427 9.10677 8.45312 9.05469 8.67188 9.05469H16.8906C17.1094 9.05469 17.2682 9.10677 17.3672 9.21094C17.4661 9.3099 17.5156 9.47135 17.5156 9.69531V15.0391C17.5156 15.263 17.4661 15.4271 17.3672 15.5312C17.2682 15.6302 17.1094 15.6797 16.8906 15.6797H8.67188ZM6.14844 19.7344C5.28385 19.7344 4.625 19.5104 4.17188 19.0625C3.72396 18.6146 3.5 17.9661 3.5 17.1172V7.625C3.5 6.76562 3.72396 6.11458 4.17188 5.67188C4.625 5.22396 5.28385 5 6.14844 5H19.4219C20.2865 5 20.9427 5.22396 21.3906 5.67188C21.8385 6.11979 22.0625 6.77083 22.0625 7.625V17.1172C22.0625 17.9661 21.8385 18.6146 21.3906 19.0625C20.9427 19.5104 20.2865 19.7344 19.4219 19.7344H6.14844ZM6.28906 17.9922H19.2734C19.612 17.9922 19.8724 17.9062 20.0547 17.7344C20.237 17.5573 20.3281 17.2891 20.3281 16.9297V7.80469C20.3281 7.44531 20.237 7.17708 20.0547 7C19.8724 6.82292 19.612 6.73438 19.2734 6.73438H6.28906C5.94531 6.73438 5.68229 6.82292 5.5 7C5.32292 7.17708 5.23438 7.44531 5.23438 7.80469V16.9297C5.23438 17.2891 5.32292 17.5573 5.5 17.7344C5.68229 17.9062 5.94531 17.9922 6.28906 17.9922Z" fill="#E0E3E6"/>
</svg>
