<svg width="24" height="24" viewBox="0 0 24 24" fill="none" xmlns="http://www.w3.org/2000/svg">
<rect width="24" height="24" rx="12" fill="#191B1E"/>
<rect x="0.25" y="0.25" width="23.5" height="23.5" rx="11.75" stroke="#EFEB00" stroke-opacity="0.9" stroke-width="0.5"/>
<path d="M17.3553 8.4707L17.9506 9.06375L19.1412 7.87764L18.5459 7.28458C17.5617 6.30415 15.9599 6.30415 14.9757 7.28458L14.3804 7.87764L13.7851 7.28458C12.8009 6.30415 11.1991 6.30415 10.2149 7.28458L9.61958 7.87764L9.02426 7.28458C8.0401 6.30415 6.43825 6.30415 5.45408 7.28458L4.85876 7.87764L6.0494 9.06375L6.64471 8.4707C6.97334 8.14331 7.50672 8.14331 7.83535 8.4707L8.43066 9.06375L7.83535 9.65681C6.85118 10.6372 6.85118 12.233 7.83535 13.2134L8.43066 13.8065L6.05112 16.177L8.43066 18.5475L9.6213 17.3614L8.43066 16.1753L9.6213 14.9892L12.0008 17.3597L14.3804 14.9892L15.571 16.1753L14.3804 17.3614L15.571 18.5475L17.9506 16.177L15.571 13.8065L16.1663 13.2134C17.1505 12.233 17.1505 10.6372 16.1663 9.65681L15.571 9.06375L16.1663 8.4707C16.495 8.14331 17.0283 8.14331 17.357 8.4707H17.3553ZM11.4055 8.4707C11.7342 8.14331 12.2675 8.14331 12.5962 8.4707L13.1915 9.06375L12.0008 10.2499L10.8102 9.06375L11.4055 8.4707ZM9.02598 12.0273C8.69735 11.7 8.69735 11.1686 9.02598 10.8412L9.6213 10.2482L10.8119 11.4343L9.6213 12.6204L9.02598 12.0273ZM12.0008 14.9909L10.8102 13.8048L12.0008 12.6187L13.1915 13.8048L12.0008 14.9909ZM14.9757 10.8412C15.3043 11.1686 15.3043 11.7 14.9757 12.0273L14.3804 12.6204L13.1898 11.4343L14.3804 10.2482L14.9757 10.8412Z" fill="#EFEB00"/>
</svg>
