<svg width="40" height="41" viewBox="0 0 40 41" fill="none" xmlns="http://www.w3.org/2000/svg">
<rect x="0.5" y="0.947266" width="39" height="39" rx="5.5" stroke="url(#paint0_linear_3604_48855)"/>
<rect x="0.5" y="0.947266" width="39" height="39" rx="5.5" stroke="url(#paint1_linear_3604_48855)"/>
<path d="M32.2879 24.228H28.5071V17.2973C29.4157 18.4182 30.5949 19.2892 31.9334 19.828C32.1648 19.9172 32.4219 19.9119 32.6494 19.8132C32.8769 19.7145 33.0565 19.5304 33.1495 19.3005C33.2425 19.0707 33.2414 18.8135 33.1466 18.5844C33.0517 18.3553 32.8706 18.1727 32.6423 18.0759C31.4182 17.5845 30.3697 16.737 29.6324 15.6432C28.8952 14.5493 28.5032 13.2594 28.5071 11.9403C28.5071 11.6896 28.4075 11.4492 28.2302 11.2719C28.053 11.0947 27.8125 10.9951 27.5619 10.9951C27.3112 10.9951 27.0708 11.0947 26.8935 11.2719C26.7162 11.4492 26.6167 11.6896 26.6167 11.9403C26.6167 13.6951 25.9196 15.378 24.6787 16.6188C23.4379 17.8597 21.755 18.5567 20.0002 18.5567C18.2454 18.5567 16.5625 17.8597 15.3217 16.6188C14.0809 15.378 13.3838 13.6951 13.3838 11.9403C13.3838 11.6896 13.2842 11.4492 13.1069 11.2719C12.9297 11.0947 12.6893 10.9951 12.4386 10.9951C12.1879 10.9951 11.9475 11.0947 11.7702 11.2719C11.5929 11.4492 11.4934 11.6896 11.4934 11.9403C11.4973 13.2594 11.1052 14.5493 10.368 15.6432C9.63076 16.737 8.58224 17.5845 7.35809 18.0759C7.12981 18.1727 6.94872 18.3553 6.85385 18.5844C6.75899 18.8135 6.75794 19.0707 6.85093 19.3005C6.94393 19.5304 7.12352 19.7145 7.351 19.8132C7.57848 19.9119 7.83562 19.9172 8.06699 19.828C9.40554 19.2892 10.5847 18.4182 11.4934 17.2973V24.228H7.71254C7.46186 24.228 7.22144 24.3276 7.04418 24.5048C6.86692 24.6821 6.76733 24.9225 6.76733 25.1732C6.76733 25.4239 6.86692 25.6643 7.04418 25.8415C7.22144 26.0188 7.46186 26.1184 7.71254 26.1184H11.4934V28.954C11.4934 29.2047 11.5929 29.4451 11.7702 29.6224C11.9475 29.7996 12.1879 29.8992 12.4386 29.8992C12.6893 29.8992 12.9297 29.7996 13.1069 29.6224C13.2842 29.4451 13.3838 29.2047 13.3838 28.954V26.1184H26.6167V28.954C26.6167 29.2047 26.7162 29.4451 26.8935 29.6224C27.0708 29.7996 27.3112 29.8992 27.5619 29.8992C27.8125 29.8992 28.053 29.7996 28.2302 29.6224C28.4075 29.4451 28.5071 29.2047 28.5071 28.954V26.1184H32.2879C32.5386 26.1184 32.779 26.0188 32.9562 25.8415C33.1335 25.6643 33.2331 25.4239 33.2331 25.1732C33.2331 24.9225 33.1335 24.6821 32.9562 24.5048C32.779 24.3276 32.5386 24.228 32.2879 24.228ZM21.8906 20.2345V24.228H18.1098V20.2345C19.3541 20.5181 20.6463 20.5181 21.8906 20.2345ZM13.3838 17.2807C14.1551 18.2339 15.1221 19.0103 16.2194 19.5575V24.228H13.3838V17.2807ZM23.781 24.228V19.5587C24.8784 19.0115 25.8454 18.2351 26.6167 17.2819V24.228H23.781Z" fill="#EFEB00"/>
<defs>
<linearGradient id="paint0_linear_3604_48855" x1="5.09351" y1="-11.4618" x2="20" y2="40.4473" gradientUnits="userSpaceOnUse">
<stop stop-color="#CECB16"/>
<stop offset="1" stop-color="#1B1D20" stop-opacity="0"/>
</linearGradient>
<linearGradient id="paint1_linear_3604_48855" x1="-7.79665" y1="-55.2775" x2="54.9917" y2="-25.4436" gradientUnits="userSpaceOnUse">
<stop stop-color="#4A67FF"/>
<stop offset="0.32" stop-color="#EFEB00"/>
<stop offset="0.675" stop-color="#8940D3"/>
<stop offset="0.985" stop-color="#4A67FF"/>
</linearGradient>
</defs>
</svg>
