<svg width="40" height="41" viewBox="0 0 40 41" fill="none" xmlns="http://www.w3.org/2000/svg">
<rect x="0.5" y="0.947266" width="39" height="39" rx="5.5" stroke="url(#paint0_linear_3604_48861)"/>
<rect x="0.5" y="0.947266" width="39" height="39" rx="5.5" stroke="url(#paint1_linear_3604_48861)"/>
<path d="M28.1544 10.8536H11.8451C11.4634 10.8536 11.0974 11.0052 10.8275 11.275C10.5576 11.5449 10.406 11.911 10.406 12.2926V28.6019C10.406 28.9836 10.5576 29.3496 10.8275 29.6195C11.0974 29.8894 11.4634 30.041 11.8451 30.041H28.1544C28.536 30.041 28.9021 29.8894 29.1719 29.6195C29.4418 29.3496 29.5934 28.9836 29.5934 28.6019V12.2926C29.5934 11.911 29.4418 11.5449 29.1719 11.275C28.9021 11.0052 28.536 10.8536 28.1544 10.8536Z" stroke="#EFEB00" stroke-width="1.32753" stroke-linecap="round" stroke-linejoin="round"/>
<path d="M14.2431 15.6505C14.4975 15.6505 14.7415 15.5494 14.9214 15.3695C15.1014 15.1895 15.2024 14.9455 15.2024 14.6911C15.2024 14.4366 15.1014 14.1926 14.9214 14.0127C14.7415 13.8328 14.4975 13.7317 14.2431 13.7317C13.9886 13.7317 13.7446 13.8328 13.5647 14.0127C13.3848 14.1926 13.2837 14.4366 13.2837 14.6911C13.2837 14.9455 13.3848 15.1895 13.5647 15.3695C13.7446 15.5494 13.9886 15.6505 14.2431 15.6505ZM14.2431 27.1629C14.4975 27.1629 14.7415 27.0618 14.9214 26.8819C15.1014 26.702 15.2024 26.458 15.2024 26.2035C15.2024 25.9491 15.1014 25.7051 14.9214 25.5252C14.7415 25.3452 14.4975 25.2442 14.2431 25.2442C13.9886 25.2442 13.7446 25.3452 13.5647 25.5252C13.3848 25.7051 13.2837 25.9491 13.2837 26.2035C13.2837 26.458 13.3848 26.702 13.5647 26.8819C13.7446 27.0618 13.9886 27.1629 14.2431 27.1629ZM25.7555 15.6505C26.01 15.6505 26.254 15.5494 26.4339 15.3695C26.6138 15.1895 26.7149 14.9455 26.7149 14.6911C26.7149 14.4366 26.6138 14.1926 26.4339 14.0127C26.254 13.8328 26.01 13.7317 25.7555 13.7317C25.5011 13.7317 25.2571 13.8328 25.0771 14.0127C24.8972 14.1926 24.7961 14.4366 24.7961 14.6911C24.7961 14.9455 24.8972 15.1895 25.0771 15.3695C25.2571 15.5494 25.5011 15.6505 25.7555 15.6505ZM25.7555 27.1629C26.01 27.1629 26.254 27.0618 26.4339 26.8819C26.6138 26.702 26.7149 26.458 26.7149 26.2035C26.7149 25.9491 26.6138 25.7051 26.4339 25.5252C26.254 25.3452 26.01 25.2442 25.7555 25.2442C25.5011 25.2442 25.2571 25.3452 25.0771 25.5252C24.8972 25.7051 24.7961 25.9491 24.7961 26.2035C24.7961 26.458 24.8972 26.702 25.0771 26.8819C25.2571 27.0618 25.5011 27.1629 25.7555 27.1629Z" fill="#EFEB00"/>
<path d="M19.9992 24.7646C21.1442 24.7646 22.2422 24.3098 23.0519 23.5001C23.8615 22.6905 24.3163 21.5924 24.3163 20.4474C24.3163 19.3024 23.8615 18.2044 23.0519 17.3947C22.2422 16.5851 21.1442 16.1303 19.9992 16.1303C18.8542 16.1303 17.7561 16.5851 16.9465 17.3947C16.1369 18.2044 15.682 19.3024 15.682 20.4474C15.682 21.5924 16.1369 22.6905 16.9465 23.5001C17.7561 24.3098 18.8542 24.7646 19.9992 24.7646Z" stroke="#EFEB00" stroke-width="1.32753" stroke-linecap="round" stroke-linejoin="round"/>
<defs>
<linearGradient id="paint0_linear_3604_48861" x1="5.09351" y1="-11.4618" x2="20" y2="40.4473" gradientUnits="userSpaceOnUse">
<stop stop-color="#CECB16"/>
<stop offset="1" stop-color="#1B1D20" stop-opacity="0"/>
</linearGradient>
<linearGradient id="paint1_linear_3604_48861" x1="-7.79665" y1="-55.2775" x2="54.9917" y2="-25.4436" gradientUnits="userSpaceOnUse">
<stop stop-color="#4A67FF"/>
<stop offset="0.32" stop-color="#EFEB00"/>
<stop offset="0.675" stop-color="#8940D3"/>
<stop offset="0.985" stop-color="#4A67FF"/>
</linearGradient>
</defs>
</svg>
