<svg width="40" height="41" viewBox="0 0 40 41" fill="none" xmlns="http://www.w3.org/2000/svg">
<rect x="0.5" y="0.947266" width="39" height="39" rx="5.5" stroke="url(#paint0_linear_3604_48876)"/>
<rect x="0.5" y="0.947266" width="39" height="39" rx="5.5" stroke="url(#paint1_linear_3604_48876)"/>
<path d="M20.005 16.6451C19.4303 16.6451 18.9451 16.5781 18.5492 16.444C18.1598 16.3099 17.8246 16.1439 17.5436 15.946C17.2691 15.748 17.0201 15.5501 16.7966 15.3522C16.5731 15.1542 16.3497 14.9882 16.1262 14.8542C15.9091 14.7201 15.6569 14.653 15.3696 14.653C15.0823 14.653 14.8301 14.7201 14.613 14.8542C14.3959 14.9882 14.1756 15.1542 13.9522 15.3522C13.7351 15.5501 13.4797 15.748 13.186 15.946C12.8987 16.1439 12.5379 16.3099 12.1038 16.444C11.676 16.5781 11.146 16.6451 10.5139 16.6451H10.4373C10.1692 16.6451 9.93931 16.5493 9.74777 16.3578C9.55622 16.1662 9.46045 15.9332 9.46045 15.6586C9.46045 15.3969 9.55622 15.1702 9.74777 14.9787C9.93931 14.7871 10.1692 14.6913 10.4373 14.6913H10.5139C10.929 14.6913 11.2961 14.6147 11.6153 14.4615C11.9346 14.3019 12.2953 14.0784 12.6976 13.7911C13.0168 13.5549 13.3935 13.3154 13.8277 13.0728C14.2682 12.8302 14.7822 12.7089 15.3696 12.7089C15.9698 12.7089 16.4901 12.8334 16.9307 13.0824C17.3712 13.3314 17.7479 13.5772 18.0608 13.8198C18.3992 14.0688 18.7089 14.2763 18.9898 14.4423C19.2771 14.6083 19.6155 14.6913 20.005 14.6913C20.3881 14.6913 20.7201 14.6083 21.001 14.4423C21.2883 14.2763 21.6012 14.0688 21.9396 13.8198C22.2588 13.5772 22.6387 13.3314 23.0793 13.0824C23.5198 12.8334 24.037 12.7089 24.6308 12.7089C25.2182 12.7089 25.729 12.8302 26.1631 13.0728C26.6037 13.3154 26.9836 13.5549 27.3028 13.7911C27.7051 14.0784 28.0626 14.3019 28.3755 14.4615C28.6947 14.6147 29.065 14.6913 29.4864 14.6913H29.5631C29.8312 14.6913 30.0611 14.7871 30.2526 14.9787C30.4442 15.1702 30.5399 15.3969 30.5399 15.6586C30.5399 15.9332 30.4442 16.1662 30.2526 16.3578C30.0611 16.5493 29.8312 16.6451 29.5631 16.6451H29.4864C28.848 16.6451 28.3148 16.5781 27.887 16.444C27.4656 16.3099 27.1081 16.1439 26.8144 15.946C26.5207 15.748 26.2621 15.5501 26.0386 15.3522C25.8216 15.1542 25.6045 14.9882 25.3874 14.8542C25.1703 14.7201 24.9181 14.653 24.6308 14.653C24.3499 14.653 24.0977 14.7201 23.8742 14.8542C23.6507 14.9882 23.4272 15.1542 23.2038 15.3522C22.9867 15.5501 22.7377 15.748 22.4568 15.946C22.1758 16.1439 21.8374 16.3099 21.4416 16.444C21.0521 16.5781 20.5732 16.6451 20.005 16.6451ZM20.005 22.4106C19.4303 22.4106 18.9451 22.3436 18.5492 22.2095C18.1598 22.0754 17.8246 21.9126 17.5436 21.721C17.2691 21.5231 17.0201 21.3252 16.7966 21.1272C16.5731 20.9293 16.3497 20.7633 16.1262 20.6292C15.9091 20.4952 15.6569 20.4281 15.3696 20.4281C15.0823 20.4281 14.8301 20.4952 14.613 20.6292C14.3959 20.7633 14.1756 20.9293 13.9522 21.1272C13.7351 21.3252 13.4797 21.5231 13.186 21.721C12.8987 21.9126 12.5379 22.0754 12.1038 22.2095C11.676 22.3436 11.146 22.4106 10.5139 22.4106H10.4373C10.1692 22.4106 9.93931 22.318 9.74777 22.1329C9.55622 21.9413 9.46045 21.7083 9.46045 21.4337C9.46045 21.1656 9.55622 20.9389 9.74777 20.7537C9.93931 20.5622 10.1692 20.4664 10.4373 20.4664H10.5139C10.929 20.4664 11.2961 20.3866 11.6153 20.227C11.9346 20.0674 12.2953 19.8439 12.6976 19.5566C13.0168 19.3267 13.3935 19.0905 13.8277 18.8479C14.2682 18.6052 14.7822 18.4839 15.3696 18.4839C15.9698 18.4839 16.4901 18.6084 16.9307 18.8574C17.3712 19.1065 17.7479 19.3491 18.0608 19.5853C18.3992 19.8407 18.7089 20.0514 18.9898 20.2174C19.2771 20.3834 19.6155 20.4664 20.005 20.4664C20.3881 20.4664 20.7201 20.3834 21.001 20.2174C21.2883 20.0514 21.6012 19.8407 21.9396 19.5853C22.2588 19.3491 22.6387 19.1065 23.0793 18.8574C23.5198 18.6084 24.037 18.4839 24.6308 18.4839C25.2182 18.4839 25.729 18.6052 26.1631 18.8479C26.6037 19.0905 26.9836 19.3267 27.3028 19.5566C27.7051 19.8439 28.0626 20.0674 28.3755 20.227C28.6947 20.3866 29.065 20.4664 29.4864 20.4664H29.5631C29.8312 20.4664 30.0611 20.5622 30.2526 20.7537C30.4442 20.9389 30.5399 21.1656 30.5399 21.4337C30.5399 21.7083 30.4442 21.9413 30.2526 22.1329C30.0611 22.318 29.8312 22.4106 29.5631 22.4106H29.4864C28.848 22.4106 28.3148 22.3436 27.887 22.2095C27.4656 22.0754 27.1081 21.9126 26.8144 21.721C26.5207 21.5231 26.2621 21.3252 26.0386 21.1272C25.8216 20.9293 25.6045 20.7633 25.3874 20.6292C25.1703 20.4952 24.9181 20.4281 24.6308 20.4281C24.3499 20.4281 24.0977 20.4952 23.8742 20.6292C23.6507 20.7633 23.4272 20.9293 23.2038 21.1272C22.9867 21.3252 22.7377 21.5231 22.4568 21.721C22.1758 21.9126 21.8374 22.0754 21.4416 22.2095C21.0521 22.3436 20.5732 22.4106 20.005 22.4106ZM20.005 28.1857C19.4303 28.1857 18.9451 28.1186 18.5492 27.9845C18.1598 27.8505 17.8246 27.6845 17.5436 27.4865C17.2691 27.2886 17.0201 27.0939 16.7966 26.9023C16.5731 26.7044 16.3497 26.5384 16.1262 26.4043C15.9091 26.2702 15.6569 26.2032 15.3696 26.2032C15.0823 26.2032 14.8301 26.2702 14.613 26.4043C14.3959 26.5384 14.1756 26.7044 13.9522 26.9023C13.7351 27.0939 13.4797 27.2886 13.186 27.4865C12.8987 27.6845 12.5379 27.8505 12.1038 27.9845C11.676 28.1186 11.146 28.1857 10.5139 28.1857H10.4373C10.1692 28.1857 9.93931 28.0899 9.74777 27.8984C9.55622 27.7068 9.46045 27.477 9.46045 27.2088C9.46045 26.9406 9.55622 26.714 9.74777 26.5288C9.93931 26.3373 10.1692 26.2415 10.4373 26.2415H10.5139C10.929 26.2415 11.2961 26.1617 11.6153 26.0021C11.9346 25.8424 12.2953 25.619 12.6976 25.3317C13.0168 25.1018 13.3935 24.8656 13.8277 24.6229C14.2682 24.3803 14.7822 24.259 15.3696 24.259C15.9698 24.259 16.4901 24.3835 16.9307 24.6325C17.3712 24.8815 17.7479 25.1241 18.0608 25.3604C18.3992 25.6158 18.7089 25.8265 18.9898 25.9925C19.2771 26.1585 19.6155 26.2415 20.005 26.2415C20.3881 26.2415 20.7201 26.1585 21.001 25.9925C21.2883 25.8265 21.6012 25.6158 21.9396 25.3604C22.2588 25.1241 22.6387 24.8815 23.0793 24.6325C23.5198 24.3835 24.037 24.259 24.6308 24.259C25.2182 24.259 25.729 24.3803 26.1631 24.6229C26.6037 24.8656 26.9836 25.1018 27.3028 25.3317C27.7051 25.619 28.0626 25.8424 28.3755 26.0021C28.6947 26.1617 29.065 26.2415 29.4864 26.2415H29.5631C29.8312 26.2415 30.0611 26.3373 30.2526 26.5288C30.4442 26.714 30.5399 26.9406 30.5399 27.2088C30.5399 27.477 30.4442 27.7068 30.2526 27.8984C30.0611 28.0899 29.8312 28.1857 29.5631 28.1857H29.4864C28.848 28.1857 28.3148 28.1186 27.887 27.9845C27.4656 27.8505 27.1081 27.6845 26.8144 27.4865C26.5207 27.2886 26.2621 27.0939 26.0386 26.9023C25.8216 26.7044 25.6045 26.5384 25.3874 26.4043C25.1703 26.2702 24.9181 26.2032 24.6308 26.2032C24.3499 26.2032 24.0977 26.2702 23.8742 26.4043C23.6507 26.5384 23.4272 26.7044 23.2038 26.9023C22.9867 27.0939 22.7377 27.2886 22.4568 27.4865C22.1758 27.6845 21.8374 27.8505 21.4416 27.9845C21.0521 28.1186 20.5732 28.1857 20.005 28.1857Z" fill="#EFEB00"/>
<defs>
<linearGradient id="paint0_linear_3604_48876" x1="5.09351" y1="-11.4618" x2="20" y2="40.4473" gradientUnits="userSpaceOnUse">
<stop stop-color="#CECB16"/>
<stop offset="1" stop-color="#1B1D20" stop-opacity="0"/>
</linearGradient>
<linearGradient id="paint1_linear_3604_48876" x1="-7.79665" y1="-55.2775" x2="54.9917" y2="-25.4436" gradientUnits="userSpaceOnUse">
<stop stop-color="#4A67FF"/>
<stop offset="0.32" stop-color="#EFEB00"/>
<stop offset="0.675" stop-color="#8940D3"/>
<stop offset="0.985" stop-color="#4A67FF"/>
</linearGradient>
</defs>
</svg>
