<svg width="40" height="41" viewBox="0 0 40 41" fill="none" xmlns="http://www.w3.org/2000/svg">
<rect x="0.5" y="0.947266" width="39" height="39" rx="5.5" stroke="url(#paint0_linear_3604_48881)"/>
<rect x="0.5" y="0.947266" width="39" height="39" rx="5.5" stroke="url(#paint1_linear_3604_48881)"/>
<path d="M13.0862 10.0769C15.0048 10.0772 16.8604 10.7611 18.3202 12.0059C19.78 13.2508 20.7485 14.9751 21.0518 16.8695C21.7461 16.176 22.5702 15.6262 23.4772 15.2516C24.3841 14.8769 25.356 14.6847 26.3372 14.686H28.9298H30.615C31.1162 14.686 31.5224 15.0922 31.5224 15.5934V17.5666C31.5224 19.553 30.7333 21.458 29.3287 22.8626C27.9241 24.2672 26.0191 25.0563 24.0327 25.0563H21.1521V29.6654C21.1521 30.3017 20.6362 30.8176 19.9998 30.8176C19.3634 30.8176 18.8475 30.3017 18.8475 29.6654V21.5995H16.543C14.4038 21.5995 12.3522 20.7497 10.8396 19.2371C9.32696 17.7245 8.47717 15.6729 8.47717 13.5337V10.9843C8.47717 10.4832 8.88343 10.0769 9.38458 10.0769H13.0862ZM29.2179 16.9905H26.3372C24.962 16.9905 23.6432 17.5368 22.6708 18.5092C21.6984 19.4816 21.1521 20.8005 21.1521 22.1757V22.7518H24.0327C25.4079 22.7518 26.7268 22.2055 27.6992 21.2331C28.6716 20.2607 29.2179 18.9418 29.2179 17.5666V16.9905ZM13.0862 12.3814H10.7817V13.5337C10.7817 15.0617 11.3887 16.5271 12.4691 17.6076C13.5496 18.688 15.015 19.295 16.543 19.295H18.8475V18.1427C18.8475 16.6147 18.2405 15.1493 17.1601 14.0689C16.0796 12.9884 14.6142 12.3814 13.0862 12.3814Z" fill="#EFEB00"/>
<defs>
<linearGradient id="paint0_linear_3604_48881" x1="5.09351" y1="-11.4618" x2="20" y2="40.4473" gradientUnits="userSpaceOnUse">
<stop stop-color="#CECB16"/>
<stop offset="1" stop-color="#1B1D20" stop-opacity="0"/>
</linearGradient>
<linearGradient id="paint1_linear_3604_48881" x1="-7.79665" y1="-55.2775" x2="54.9917" y2="-25.4436" gradientUnits="userSpaceOnUse">
<stop stop-color="#4A67FF"/>
<stop offset="0.32" stop-color="#EFEB00"/>
<stop offset="0.675" stop-color="#8940D3"/>
<stop offset="0.985" stop-color="#4A67FF"/>
</linearGradient>
</defs>
</svg>
