<svg width="40" height="41" viewBox="0 0 40 41" fill="none" xmlns="http://www.w3.org/2000/svg">
<rect x="0.5" y="0.947266" width="39" height="39" rx="5.5" stroke="url(#paint0_linear_3604_48886)"/>
<rect x="0.5" y="0.947266" width="39" height="39" rx="5.5" stroke="url(#paint1_linear_3604_48886)"/>
<g clip-path="url(#clip0_3604_48886)">
<path d="M29.9458 21.3764C29.6781 21.1704 29.3666 21.029 29.0354 20.963C28.7042 20.8971 28.3622 20.9084 28.0361 20.9961L24.2743 21.861C24.3618 21.4913 24.3645 21.1065 24.2822 20.7356C24.1999 20.3647 24.0347 20.0172 23.799 19.7193C23.5632 19.4213 23.2632 19.1805 22.9212 19.015C22.5792 18.8495 22.2042 18.7635 21.8242 18.7636H17.3233C16.9453 18.7626 16.5709 18.8366 16.2217 18.9812C15.8725 19.1258 15.5553 19.3382 15.2887 19.606L13.2549 21.6407H10.6754C10.2938 21.6407 9.92794 21.7923 9.65816 22.0621C9.38838 22.3318 9.23682 22.6977 9.23682 23.0793V26.6757C9.23682 27.0572 9.38838 27.4231 9.65816 27.6929C9.92794 27.9627 10.2938 28.1142 10.6754 28.1142H20.026C20.0848 28.1143 20.1434 28.107 20.2004 28.0926L25.9547 26.6541C25.9914 26.6454 26.0272 26.6333 26.0617 26.6181L29.5565 25.131L29.596 25.113C29.9319 24.9452 30.2195 24.6946 30.4318 24.3849C30.6441 24.0752 30.774 23.7165 30.8094 23.3427C30.8447 22.9689 30.7843 22.5923 30.6339 22.2483C30.4834 21.9042 30.2479 21.6042 29.9494 21.3764H29.9458ZM10.6754 23.0793H12.8332V26.6757H10.6754V23.0793ZM28.9658 23.8174L25.5492 25.2722L19.9361 26.6757H14.2718V22.6576L16.3064 20.6238C16.4395 20.4897 16.598 20.3833 16.7726 20.3109C16.9471 20.2385 17.1343 20.2015 17.3233 20.2021H21.8242C22.1104 20.2021 22.3848 20.3158 22.5871 20.5182C22.7895 20.7205 22.9031 20.9949 22.9031 21.2811C22.9031 21.5672 22.7895 21.8416 22.5871 22.044C22.3848 22.2463 22.1104 22.36 21.8242 22.36H19.3067C19.116 22.36 18.933 22.4358 18.7981 22.5707C18.6632 22.7056 18.5875 22.8885 18.5875 23.0793C18.5875 23.27 18.6632 23.453 18.7981 23.5879C18.933 23.7228 19.116 23.7985 19.3067 23.7985H22.1839C22.238 23.7984 22.292 23.7924 22.3448 23.7806L28.3688 22.3951L28.3966 22.3879C28.5805 22.3368 28.7768 22.3556 28.9477 22.4405C29.1186 22.5255 29.252 22.6707 29.3223 22.8481C29.3926 23.0255 29.3948 23.2227 29.3285 23.4016C29.2622 23.5806 29.132 23.7287 28.9631 23.8174H28.9658ZM23.9821 17.325C24.1598 17.3252 24.3372 17.3108 24.5125 17.2819C24.7098 17.8677 25.0706 18.3848 25.5524 18.772C26.0341 19.1592 26.6167 19.4004 27.2312 19.467C27.8458 19.5336 28.4665 19.4229 29.0201 19.1479C29.5736 18.873 30.0369 18.4452 30.3551 17.9153C30.6733 17.3854 30.8331 16.7754 30.8156 16.1575C30.7981 15.5397 30.6041 14.9397 30.2564 14.4287C29.9088 13.9176 29.422 13.5167 28.8538 13.2735C28.2856 13.0303 27.6596 12.9548 27.0498 13.0561C26.8599 12.4917 26.518 11.9906 26.0616 11.608C25.6053 11.2254 25.0523 10.9761 24.4634 10.8875C23.8745 10.7989 23.2726 10.8745 22.7239 11.106C22.1753 11.3375 21.7011 11.7158 21.3536 12.1994C21.006 12.683 20.7987 13.2531 20.7543 13.8469C20.7099 14.4408 20.8301 15.0354 21.1019 15.5652C21.3736 16.0951 21.7863 16.5398 22.2944 16.8503C22.8026 17.1608 23.3866 17.325 23.9821 17.325ZM29.3767 16.2461C29.3767 16.6018 29.2712 16.9494 29.0736 17.2451C28.876 17.5408 28.5952 17.7713 28.2666 17.9074C27.938 18.0435 27.5765 18.0791 27.2277 18.0098C26.8788 17.9404 26.5584 17.7691 26.3069 17.5176C26.0555 17.2661 25.8842 16.9457 25.8148 16.5969C25.7454 16.2481 25.781 15.8865 25.9171 15.558C26.0532 15.2294 26.2837 14.9485 26.5794 14.751C26.8752 14.5534 27.2228 14.4479 27.5785 14.4479C28.0554 14.4479 28.5128 14.6374 28.85 14.9746C29.1872 15.3118 29.3767 15.7692 29.3767 16.2461ZM23.9821 12.2901C24.3743 12.2903 24.7558 12.4187 25.0683 12.6559C25.3808 12.893 25.6071 13.2259 25.7128 13.6036C25.3444 13.8629 25.0342 14.1961 24.802 14.5821C24.5698 14.968 24.4206 15.3982 24.3642 15.8451C24.2386 15.8722 24.1105 15.8861 23.9821 15.8865C23.5052 15.8865 23.0478 15.697 22.7105 15.3598C22.3733 15.0226 22.1839 14.5652 22.1839 14.0883C22.1839 13.6114 22.3733 13.154 22.7105 12.8167C23.0478 12.4795 23.5052 12.2901 23.9821 12.2901Z" fill="#EFEB00"/>
</g>
<defs>
<linearGradient id="paint0_linear_3604_48886" x1="5.09351" y1="-11.4618" x2="20" y2="40.4473" gradientUnits="userSpaceOnUse">
<stop stop-color="#CECB16"/>
<stop offset="1" stop-color="#1B1D20" stop-opacity="0"/>
</linearGradient>
<linearGradient id="paint1_linear_3604_48886" x1="-7.79665" y1="-55.2775" x2="54.9917" y2="-25.4436" gradientUnits="userSpaceOnUse">
<stop stop-color="#4A67FF"/>
<stop offset="0.32" stop-color="#EFEB00"/>
<stop offset="0.675" stop-color="#8940D3"/>
<stop offset="0.985" stop-color="#4A67FF"/>
</linearGradient>
<clipPath id="clip0_3604_48886">
<rect width="23.017" height="23.017" fill="white" transform="translate(9.23682 8.6936)"/>
</clipPath>
</defs>
</svg>
