<svg width="40" height="41" viewBox="0 0 40 41" fill="none" xmlns="http://www.w3.org/2000/svg">
<rect x="0.5" y="0.947266" width="39" height="39" rx="5.5" stroke="url(#paint0_linear_3604_48891)"/>
<rect x="0.5" y="0.947266" width="39" height="39" rx="5.5" stroke="url(#paint1_linear_3604_48891)"/>
<path d="M10.7041 29.7148C9.66569 29.7148 8.88509 29.457 8.3623 28.9414C7.84668 28.4258 7.58887 27.6595 7.58887 26.6426V21.0566C7.58887 20.7702 7.60319 20.5267 7.63184 20.3262C7.66764 20.1185 7.72493 19.9323 7.80371 19.7676C7.88965 19.6029 8.00065 19.4274 8.13672 19.2412L11.7676 14.3643C12.1185 13.8844 12.4408 13.5156 12.7344 13.2578C13.028 12.9928 13.3574 12.8102 13.7227 12.71C14.0951 12.6025 14.5713 12.5488 15.1514 12.5488H23.917C24.4971 12.5488 24.9697 12.6025 25.335 12.71C25.7002 12.8102 26.0296 12.9928 26.3232 13.2578C26.624 13.5156 26.9499 13.8844 27.3008 14.3643L30.9316 19.2412C31.0605 19.4274 31.1644 19.6029 31.2432 19.7676C31.3291 19.9323 31.3864 20.1185 31.415 20.3262C31.4508 20.5267 31.4688 20.7702 31.4688 21.0566V26.6426C31.4688 27.6595 31.2109 28.4258 30.6953 28.9414C30.1797 29.457 29.4027 29.7148 28.3643 29.7148H10.7041ZM19.5342 23.9248C20.0498 23.9248 20.4974 23.7995 20.877 23.5488C21.2565 23.2982 21.5537 22.9723 21.7686 22.5713C21.9834 22.1702 22.0908 21.7513 22.0908 21.3145V21.2822C22.0908 21.0602 22.1517 20.8669 22.2734 20.7021C22.4023 20.5374 22.5957 20.4551 22.8535 20.4551H29.4922C29.6426 20.4551 29.7357 20.4049 29.7715 20.3047C29.8073 20.1973 29.7894 20.0898 29.7178 19.9824L25.8506 14.7295C25.6143 14.4072 25.3457 14.1816 25.0449 14.0527C24.7441 13.9238 24.4076 13.8594 24.0352 13.8594H15.0332C14.6536 13.8594 14.3135 13.9238 14.0127 14.0527C13.7119 14.1816 13.4434 14.4072 13.207 14.7295L9.33984 19.9824C9.26823 20.0898 9.24674 20.1973 9.27539 20.3047C9.3112 20.4049 9.40788 20.4551 9.56543 20.4551H16.2041C16.4619 20.4551 16.6553 20.5374 16.7842 20.7021C16.9131 20.8669 16.9775 21.0602 16.9775 21.2822V21.3145C16.9775 21.7513 17.0814 22.1702 17.2891 22.5713C17.5039 22.9723 17.8011 23.2982 18.1807 23.5488C18.5674 23.7995 19.0186 23.9248 19.5342 23.9248ZM23.8418 15.3955C23.9707 15.3955 24.0781 15.4421 24.1641 15.5352C24.25 15.6211 24.293 15.7285 24.293 15.8574C24.293 15.9863 24.25 16.0938 24.1641 16.1797C24.0781 16.2656 23.9707 16.3086 23.8418 16.3086H15.2158C15.0869 16.3086 14.9795 16.2656 14.8936 16.1797C14.8076 16.0938 14.7646 15.9863 14.7646 15.8574C14.7646 15.7285 14.8076 15.6211 14.8936 15.5352C14.9795 15.4421 15.0869 15.3955 15.2158 15.3955H23.8418ZM25.249 17.7373C25.3779 17.7373 25.4854 17.7874 25.5713 17.8877C25.6644 17.9808 25.7109 18.0918 25.7109 18.2207C25.7109 18.3496 25.6644 18.4606 25.5713 18.5537C25.4854 18.6468 25.3779 18.6934 25.249 18.6934H13.8193C13.6833 18.6934 13.5687 18.6468 13.4756 18.5537C13.3825 18.4606 13.3359 18.3496 13.3359 18.2207C13.3359 18.0918 13.3825 17.9808 13.4756 17.8877C13.5687 17.7874 13.6833 17.7373 13.8193 17.7373H25.249Z" fill="#EFEB00"/>
<defs>
<linearGradient id="paint0_linear_3604_48891" x1="5.09351" y1="-11.4618" x2="20" y2="40.4473" gradientUnits="userSpaceOnUse">
<stop stop-color="#CECB16"/>
<stop offset="1" stop-color="#1B1D20" stop-opacity="0"/>
</linearGradient>
<linearGradient id="paint1_linear_3604_48891" x1="-7.79665" y1="-55.2775" x2="54.9917" y2="-25.4436" gradientUnits="userSpaceOnUse">
<stop stop-color="#4A67FF"/>
<stop offset="0.32" stop-color="#EFEB00"/>
<stop offset="0.675" stop-color="#8940D3"/>
<stop offset="0.985" stop-color="#4A67FF"/>
</linearGradient>
</defs>
</svg>
