<svg width="50" height="51" viewBox="0 0 50 51" fill="none" xmlns="http://www.w3.org/2000/svg">
<rect x="0.003479" y="0.447266" width="50.0019" height="50.0019" rx="8" fill="url(#paint0_linear_2820_2819)"/>
<rect x="0.503479" y="0.947266" width="49.0019" height="49.0019" rx="7.5" stroke="url(#paint1_linear_2820_2819)" stroke-opacity="0.5"/>
<path d="M30.5543 20.4447C29.5567 19.9795 28.4766 19.6419 27.3515 19.4468C27.3416 19.4465 27.3318 19.4483 27.3227 19.4522C27.3137 19.4561 27.3056 19.462 27.299 19.4693C27.164 19.7169 27.0065 20.0396 26.9014 20.2872C25.7081 20.1071 24.4944 20.1071 23.3011 20.2872C23.1961 20.0321 23.0385 19.7169 22.896 19.4693C22.8885 19.4543 22.866 19.4468 22.8435 19.4468C21.7184 19.6419 20.6458 19.9795 19.6407 20.4447C19.6332 20.4447 19.6257 20.4522 19.6182 20.4597C17.578 23.5135 17.0154 26.4848 17.2929 29.426C17.2929 29.441 17.3004 29.456 17.3154 29.4635C18.6656 30.454 19.9632 31.0542 21.2459 31.4519C21.2684 31.4594 21.2909 31.4519 21.2984 31.4369C21.5984 31.0242 21.8684 30.589 22.1009 30.1313C22.1159 30.1013 22.1009 30.0713 22.0709 30.0638C21.6434 29.8987 21.2384 29.7036 20.8408 29.4785C20.8108 29.4635 20.8108 29.4185 20.8333 29.396C20.9158 29.336 20.9983 29.2685 21.0808 29.2084C21.0958 29.1934 21.1183 29.1934 21.1333 29.2009C23.7136 30.3789 26.4964 30.3789 29.0467 29.2009C29.0617 29.1934 29.0842 29.1934 29.0992 29.2084C29.1817 29.276 29.2642 29.336 29.3467 29.4035C29.3767 29.426 29.3767 29.471 29.3392 29.486C28.9492 29.7186 28.5366 29.9062 28.1091 30.0713C28.0791 30.0788 28.0716 30.1163 28.0791 30.1388C28.3191 30.5965 28.5891 31.0317 28.8817 31.4444C28.9042 31.4519 28.9267 31.4594 28.9492 31.4519C30.2393 31.0542 31.5369 30.454 32.8871 29.4635C32.9021 29.456 32.9096 29.441 32.9096 29.426C33.2396 26.0271 32.362 23.0783 30.5843 20.4597C30.5768 20.4522 30.5693 20.4447 30.5543 20.4447ZM22.491 27.6328C21.7184 27.6328 21.0733 26.92 21.0733 26.0421C21.0733 25.1642 21.7034 24.4514 22.491 24.4514C23.2861 24.4514 23.9161 25.1717 23.9086 26.0421C23.9086 26.92 23.2786 27.6328 22.491 27.6328ZM27.719 27.6328C26.9465 27.6328 26.3014 26.92 26.3014 26.0421C26.3014 25.1642 26.9314 24.4514 27.719 24.4514C28.5141 24.4514 29.1442 25.1717 29.1367 26.0421C29.1367 26.92 28.5141 27.6328 27.719 27.6328Z" fill="white"/>
<defs>
<linearGradient id="paint0_linear_2820_2819" x1="25.0044" y1="0.447266" x2="25.0044" y2="50.4492" gradientUnits="userSpaceOnUse">
<stop stop-color="#24262A"/>
<stop offset="1" stop-color="#1B1D20"/>
</linearGradient>
<linearGradient id="paint1_linear_2820_2819" x1="25.0044" y1="0.447266" x2="25.0044" y2="50.4492" gradientUnits="userSpaceOnUse">
<stop stop-color="#4D4D4D"/>
<stop offset="1" stop-color="#4D4D4D" stop-opacity="0.41"/>
</linearGradient>
</defs>
</svg>
