<svg width="50" height="51" viewBox="0 0 50 51" fill="none" xmlns="http://www.w3.org/2000/svg">
<rect x="0.00537109" y="0.448242" width="50.0024" height="50.0024" rx="8" fill="url(#paint0_linear_3952_14003)"/>
<rect x="0.505371" y="0.948242" width="49.0024" height="49.0024" rx="7.5" stroke="url(#paint1_linear_3952_14003)" stroke-opacity="0.5"/>
<path d="M30.2572 18.6986C30.6551 18.6986 31.0367 18.8567 31.318 19.138C31.5994 19.4194 31.7574 19.8009 31.7574 20.1988V30.7002C31.7574 31.0981 31.5994 31.4797 31.318 31.761C31.0367 32.0424 30.6551 32.2004 30.2572 32.2004H19.7558C19.3579 32.2004 18.9764 32.0424 18.695 31.761C18.4137 31.4797 18.2556 31.0981 18.2556 30.7002V20.1988C18.2556 19.8009 18.4137 19.4194 18.695 19.138C18.9764 18.8567 19.3579 18.6986 19.7558 18.6986H30.2572ZM29.8822 30.3252V26.3496C29.8822 25.7011 29.6246 25.0791 29.166 24.6205C28.7074 24.1619 28.0854 23.9043 27.4369 23.9043C26.7993 23.9043 26.0567 24.2944 25.6966 24.8794V24.0468H23.6038V30.3252H25.6966V26.6272C25.6966 26.0496 26.1617 25.577 26.7393 25.577C27.0178 25.577 27.2849 25.6877 27.4818 25.8846C27.6788 26.0816 27.7894 26.3487 27.7894 26.6272V30.3252H29.8822ZM21.166 22.8692C21.5002 22.8692 21.8208 22.7364 22.0571 22.5001C22.2934 22.2638 22.4262 21.9432 22.4262 21.609C22.4262 20.9114 21.8636 20.3413 21.166 20.3413C20.8298 20.3413 20.5074 20.4749 20.2696 20.7126C20.0319 20.9504 19.8983 21.2728 19.8983 21.609C19.8983 22.3066 20.4684 22.8692 21.166 22.8692ZM22.2087 30.3252V24.0468H20.1309V30.3252H22.2087Z" fill="white"/>
<defs>
<linearGradient id="paint0_linear_3952_14003" x1="25.0066" y1="0.448242" x2="25.0066" y2="50.4507" gradientUnits="userSpaceOnUse">
<stop stop-color="#24262A"/>
<stop offset="1" stop-color="#1B1D20"/>
</linearGradient>
<linearGradient id="paint1_linear_3952_14003" x1="25.0066" y1="0.448242" x2="25.0066" y2="50.4507" gradientUnits="userSpaceOnUse">
<stop stop-color="#4D4D4D"/>
<stop offset="1" stop-color="#4D4D4D" stop-opacity="0.41"/>
</linearGradient>
</defs>
</svg>
