<svg width="37" height="36" viewBox="0 0 37 36" fill="none" xmlns="http://www.w3.org/2000/svg">
<g clip-path="url(#clip0_4552_33369)">
<rect x="0.295898" y="-0.000488281" width="36.0009" height="36.0009" rx="18.0005" fill="#0F51FC"/>
<circle cx="18.2964" cy="18" r="18.0005" fill="#E5453C"/>
<path fill-rule="evenodd" clip-rule="evenodd" d="M27.7361 11.3263L27.8586 12.0671C27.9552 12.7562 27.9999 13.4516 27.9925 14.1474C27.9917 15.6851 27.8062 17.2171 27.44 18.7105C26.9447 20.7394 26.0821 22.6605 24.8949 24.3786C23.523 26.3519 21.5393 28.2927 18.6478 29.8521L18.294 30.0428L17.9403 29.8521C15.0488 28.2927 13.0659 26.3519 11.6932 24.3786C10.5059 22.6605 9.64335 20.7394 9.14808 18.7105C8.78195 17.2174 8.59645 15.6856 8.59557 14.1482C8.5881 13.4524 8.63285 12.757 8.72944 12.0679L8.85195 11.3271C8.8624 11.2667 8.8608 11.2048 8.84724 11.145C8.83368 11.0853 8.80841 11.0287 8.7729 10.9788C8.73739 10.9288 8.69235 10.8863 8.64036 10.8538C8.58837 10.8213 8.53046 10.7994 8.46998 10.7894C8.40949 10.7794 8.34763 10.7815 8.28794 10.7955C8.22825 10.8095 8.17193 10.8352 8.12222 10.8711C8.0725 10.907 8.03038 10.9523 7.99828 11.0045C7.96617 11.0568 7.94472 11.1148 7.93516 11.1754L7.81265 11.9162C7.70728 12.6554 7.65819 13.4016 7.66581 14.1482C7.66639 15.7614 7.86088 17.3685 8.24508 18.9353C8.76808 21.0747 9.67853 23.1003 10.9313 24.9117C12.3795 26.9961 14.48 29.0456 17.503 30.6723L18.0774 30.9815C18.1451 31.0181 18.2208 31.0372 18.2977 31.0372C18.3746 31.0372 18.4503 31.0181 18.518 30.9815L19.0915 30.6723C22.1113 29.0448 24.2126 26.9961 25.6632 24.9117C26.9154 23.1004 27.8253 21.0751 28.3478 18.9361C28.732 17.3694 28.9265 15.7622 28.9271 14.1491C28.9347 13.4024 28.8856 12.6562 28.7803 11.917L28.6578 11.1762C28.6482 11.1157 28.6267 11.0576 28.5946 11.0054C28.5626 10.9531 28.5204 10.9078 28.4707 10.8719C28.421 10.836 28.3646 10.8103 28.305 10.7963C28.2453 10.7823 28.1834 10.7802 28.1229 10.7902C28.0625 10.8003 28.0045 10.8221 27.9525 10.8546C27.9006 10.8871 27.8555 10.9296 27.82 10.9796C27.7845 11.0295 27.7593 11.0861 27.7457 11.1459C27.7321 11.2056 27.7305 11.2675 27.741 11.3279L27.7361 11.3263Z" fill="white"/>
<path fill-rule="evenodd" clip-rule="evenodd" d="M11.3905 10.822L18.295 8.71246L25.3536 10.8674C25.4718 10.9027 25.5992 10.8898 25.7078 10.8315C25.8165 10.7731 25.8976 10.6741 25.9334 10.5561C25.9693 10.4381 25.9569 10.3107 25.899 10.2017C25.8411 10.0928 25.7425 10.0113 25.6246 9.97493L18.4304 7.77859C18.3422 7.75154 18.2478 7.75154 18.1594 7.77859L11.1187 9.92787C11.0598 9.94546 11.005 9.9745 10.9575 10.0133C10.9099 10.0521 10.8704 10.1 10.8414 10.1541C10.8123 10.2082 10.7942 10.2675 10.7882 10.3286C10.7821 10.3897 10.7882 10.4514 10.806 10.5102C10.8238 10.569 10.8531 10.6236 10.8921 10.671C10.9312 10.7185 10.9792 10.7577 11.0334 10.7865C11.0876 10.8153 11.147 10.8332 11.2081 10.839C11.2693 10.8448 11.331 10.8384 11.3897 10.8204L11.3905 10.822Z" fill="white"/>
<path fill-rule="evenodd" clip-rule="evenodd" d="M7.98109 11.463L17.8798 30.7831C17.9184 30.8586 17.9769 30.9221 18.0491 30.9666C18.1212 31.0112 18.2042 31.0352 18.289 31.036C18.3737 31.0367 18.4571 31.0143 18.53 30.9709C18.6029 30.9276 18.6626 30.8652 18.7025 30.7904L24.7391 19.5003L24.748 19.4825L28.6118 11.45C28.6641 11.3392 28.6707 11.2121 28.6298 11.0965C28.5891 10.9809 28.5043 10.8861 28.394 10.8326C28.2836 10.7792 28.1567 10.7714 28.0407 10.8111C27.9246 10.8507 27.829 10.9345 27.7745 11.0443L23.9172 19.0703L18.3074 29.5693L8.80787 11.0379C8.78049 10.9828 8.74247 10.9338 8.696 10.8936C8.64954 10.8534 8.59555 10.8227 8.53716 10.8035C8.47879 10.7843 8.41718 10.7769 8.3559 10.7817C8.29463 10.7865 8.23492 10.8033 8.18022 10.8314C8.12552 10.8594 8.07692 10.898 8.03725 10.9449C7.99757 10.9918 7.96761 11.0462 7.94909 11.1048C7.93056 11.1634 7.92386 11.2251 7.92935 11.2863C7.93484 11.3475 7.95243 11.407 7.98109 11.4614V11.463Z" fill="white"/>
</g>
<defs>
<clipPath id="clip0_4552_33369">
<rect width="36.0009" height="36.0009" fill="white" transform="translate(0.295898 -0.000488281)"/>
</clipPath>
</defs>
</svg>
