<svg width="37" height="36" viewBox="0 0 37 36" fill="none" xmlns="http://www.w3.org/2000/svg">
<g clip-path="url(#clip0_4552_33372)">
<rect x="0.295898" y="-0.000488281" width="36.001" height="36.001" rx="18.0005" fill="#0F51FC"/>
<circle cx="18.2964" cy="18" r="18.0005" fill="#0047FF"/>
<path d="M6.74683 16.1628C6.87103 12.7213 8.58532 9.74219 11.1026 7.8909C14.5476 5.35724 19.5613 4.88866 23.9134 7.90332C22.4381 7.56506 20.4931 8.01777 18.5376 8.94429C15.7881 8.321 12.8445 8.82359 10.453 10.5824C8.536 11.9923 7.28374 13.9814 6.74683 16.1628Z" fill="white"/>
<path d="M15.3308 29.2881C19.1016 30.8871 23.0796 30.2125 25.9606 28.0937C29.1144 25.7743 31.0078 21.6844 30.0927 17.1331C29.1068 17.0665 27.9697 17.2802 26.7878 17.7009C27.4211 21.4064 26.0632 25.2512 22.9339 27.5527C21.3085 28.748 19.4281 29.3632 17.5268 29.4389C17.5292 29.4422 17.5316 29.4454 17.534 29.4487L17.5268 29.4389C16.7934 29.468 16.057 29.417 15.3308 29.2881Z" fill="white"/>
<path d="M26.1911 15.568C27.4623 15.2117 28.6505 15.1254 29.6146 15.4064C29.4214 14.86 29.1869 14.3096 28.9083 13.7572C27.9303 13.1807 26.5878 13.1506 25.1113 13.5077C25.5519 14.1676 25.9112 14.8587 26.1911 15.568Z" fill="white"/>
<path d="M23.5693 11.6651C25.4024 11.1907 27.0442 11.2973 28.0611 12.2839C27.8752 11.9965 27.6768 11.7091 27.4656 11.422C27.2578 11.1395 27.0461 10.8687 26.8308 10.6094C25.6899 9.45263 23.7251 9.45035 21.5828 10.1565C22.2894 10.5737 22.9572 11.0776 23.5693 11.6651Z" fill="white"/>
<path d="M30.2135 17.7896C30.7481 21.1915 29.6335 24.4429 27.5156 26.7403C24.617 29.8847 19.7848 31.301 14.9375 29.1717C16.4501 29.2225 18.2731 28.4071 20.016 27.1246C22.8341 27.212 25.6277 26.1572 27.6398 23.9744C29.2527 22.2248 30.1026 20.0334 30.2135 17.7896Z" fill="white"/>
<path d="M19.2842 6.54273C15.2775 5.69216 11.5011 7.11318 9.077 9.74276C6.42355 12.6212 5.3451 16.9971 7.11158 21.2903C8.09204 21.1676 9.1675 20.7409 10.2476 20.1026C8.91909 16.5858 9.51851 12.5526 12.1514 9.69651C13.5189 8.21302 15.2475 7.25052 17.0994 6.81355C17.0965 6.81079 17.0935 6.80803 17.0905 6.80528L17.0994 6.81355C17.8138 6.64499 18.5467 6.55462 19.2842 6.54273Z" fill="white"/>
<path d="M11.2401 22.0825C10.0602 22.6746 8.9103 22.9861 7.9104 22.8942C8.20407 23.3936 8.53931 23.8892 8.91818 24.3784C9.98821 24.7577 11.3118 24.5312 12.693 23.899C12.1346 23.3352 11.6502 22.7254 11.2401 22.0825Z" fill="white"/>
<path d="M14.558 25.4136C12.849 26.2288 11.2172 26.4374 10.0308 25.6629C10.268 25.9094 10.5175 26.1538 10.7795 26.3953C11.0372 26.6328 11.2965 26.858 11.557 27.0712C12.8976 27.9898 14.827 27.6174 16.7957 26.5154C16.0226 26.2406 15.2709 25.8734 14.558 25.4136Z" fill="white"/>
</g>
<defs>
<clipPath id="clip0_4552_33372">
<rect width="36.001" height="36.001" fill="white" transform="translate(0.295898 -0.000488281)"/>
</clipPath>
</defs>
</svg>
