<svg width="37" height="36" viewBox="0 0 37 36" fill="none" xmlns="http://www.w3.org/2000/svg">
<g clip-path="url(#clip0_4552_33386)">
<rect x="0.295898" y="-0.000488281" width="36.0009" height="36.0009" rx="18.0005" fill="#0F51FC"/>
<circle cx="18.2964" cy="18" r="18.0005" fill="#120F23"/>
<g clip-path="url(#clip1_4552_33386)">
<path d="M20.5007 16.8694C20.5007 18.0622 19.5126 19.0294 18.294 19.0294V21.1894C20.7312 21.1894 22.7072 19.2551 22.7072 16.8694C22.7072 14.4837 20.7312 12.5493 18.294 12.5493C17.4907 12.5493 16.7362 12.7594 16.0875 13.1277C14.7681 13.8741 13.8809 15.2701 13.8809 16.8694V27.6695L15.8649 29.6117L16.0875 29.8295V16.8694C16.0875 15.6765 17.0755 14.7094 18.294 14.7094C19.5126 14.7094 20.5007 15.6765 20.5007 16.8694Z" fill="#E6DAFE"/>
<path d="M18.2949 8.22559C16.6871 8.22559 15.1801 8.64665 13.8817 9.38229C13.0504 9.8522 12.3058 10.4511 11.6751 11.1515C10.3018 12.6746 9.46851 14.6754 9.46851 16.8657V23.3458L11.6751 25.5058V16.8657C11.6751 14.947 12.5274 13.2227 13.8817 12.0357C14.5184 11.4788 15.266 11.0392 16.0883 10.7559C16.7779 10.5155 17.5214 10.3856 18.2949 10.3856C21.9506 10.3856 24.9147 13.2871 24.9147 16.8657C24.9147 20.4443 21.9506 23.3458 18.2949 23.3458V25.5058C23.1702 25.5058 27.1213 21.6371 27.1213 16.8657C27.1213 12.0943 23.1702 8.22559 18.2949 8.22559Z" fill="#E6DAFE"/>
</g>
</g>
<defs>
<clipPath id="clip0_4552_33386">
<rect width="36.0009" height="36.0009" fill="white" transform="translate(0.295898 -0.000488281)"/>
</clipPath>
<clipPath id="clip1_4552_33386">
<rect width="17.6554" height="21.775" fill="white" transform="translate(9.46851 8.22559)"/>
</clipPath>
</defs>
</svg>
