<svg width="25" height="24" viewBox="0 0 25 24" fill="none" xmlns="http://www.w3.org/2000/svg">
<path d="M2.76562 10.7578C2.58854 10.5807 2.5 10.375 2.5 10.1406C2.50521 9.90625 2.60156 9.69792 2.78906 9.51562L5.47656 6.83594C5.79948 6.51823 6.13542 6.35938 6.48438 6.35938C6.83854 6.35417 7.17708 6.51302 7.5 6.83594L10.1875 9.51562C10.375 9.69792 10.4688 9.90625 10.4688 10.1406C10.4688 10.375 10.3802 10.5807 10.2031 10.7578C10.0208 10.9401 9.8151 11.0286 9.58594 11.0234C9.35677 11.0182 9.14844 10.9271 8.96094 10.75L8.40625 10.2031L7.35156 9.02344V16.9375C7.35156 17.2969 7.44271 17.5651 7.625 17.7422C7.80729 17.9141 8.07031 18 8.41406 18H14.1797C14.4609 18 14.6823 18.0781 14.8438 18.2344C15.0104 18.3906 15.0938 18.6016 15.0938 18.8672C15.099 19.1328 15.0182 19.3438 14.8516 19.5C14.6849 19.6562 14.4609 19.7344 14.1797 19.7344H8.26562C7.40104 19.7344 6.74219 19.5104 6.28906 19.0625C5.84115 18.6198 5.61719 17.9714 5.61719 17.1172V9.03906L4.5625 10.2031L4.00781 10.75C3.82552 10.9271 3.61719 11.0182 3.38281 11.0234C3.15365 11.0286 2.94792 10.9401 2.76562 10.7578ZM9.89844 5.86719C9.89323 5.60677 9.97396 5.39844 10.1406 5.24219C10.3125 5.08594 10.5391 5.00781 10.8203 5.00781H16.7344C17.599 5.00781 18.2552 5.23177 18.7031 5.67969C19.151 6.1224 19.375 6.77083 19.375 7.625V15.7031L20.4297 14.5312L20.9844 13.9922C21.1667 13.8099 21.3724 13.7161 21.6016 13.7109C21.8359 13.7057 22.0443 13.7943 22.2266 13.9766C22.4036 14.1589 22.4896 14.3672 22.4844 14.6016C22.4844 14.8307 22.3932 15.0391 22.2109 15.2266L19.5234 17.8984C19.2005 18.2214 18.862 18.3828 18.5078 18.3828C18.1536 18.3828 17.8151 18.2214 17.4922 17.8984L14.8047 15.2266C14.6172 15.0391 14.5234 14.8307 14.5234 14.6016C14.5234 14.3672 14.612 14.1589 14.7891 13.9766C14.9714 13.7943 15.1771 13.7057 15.4062 13.7109C15.6354 13.7161 15.8438 13.8099 16.0312 13.9922L16.5859 14.5312L17.6406 15.7109V7.80469C17.6406 7.44531 17.5495 7.17969 17.3672 7.00781C17.1901 6.83073 16.9297 6.74219 16.5859 6.74219H10.8203C10.5391 6.74219 10.3151 6.66406 10.1484 6.50781C9.98177 6.35156 9.89844 6.13802 9.89844 5.86719Z" fill="#EFEB00"/>
</svg>
