<svg width="25" height="24" viewBox="0 0 25 24" fill="none" xmlns="http://www.w3.org/2000/svg">
<path d="M4.5 10.4453C4.5 9.5599 4.66667 8.72656 5 7.94531C5.33333 7.16406 5.79688 6.47917 6.39062 5.89062C6.98438 5.29688 7.66927 4.83333 8.44531 4.5C9.22656 4.16667 10.0625 4 10.9531 4C11.8438 4 12.6771 4.16667 13.4531 4.5C14.2344 4.83333 14.9219 5.29688 15.5156 5.89062C16.1094 6.47917 16.5729 7.16406 16.9062 7.94531C17.2396 8.72656 17.4062 9.5599 17.4062 10.4453C17.4062 11.112 17.3073 11.7474 17.1094 12.3516C16.9167 12.9557 16.6458 13.5104 16.2969 14.0156L19.6641 17.3984C19.7891 17.5286 19.8828 17.6719 19.9453 17.8281C20.013 17.9896 20.0469 18.1615 20.0469 18.3438C20.0469 18.5938 19.9896 18.8203 19.875 19.0234C19.7604 19.2266 19.6042 19.3854 19.4062 19.5C19.2083 19.6198 18.9792 19.6797 18.7188 19.6797C18.5417 19.6797 18.3698 19.6484 18.2031 19.5859C18.0365 19.5234 17.888 19.4271 17.7578 19.2969L14.3594 15.8984C13.8698 16.2109 13.3359 16.4583 12.7578 16.6406C12.1849 16.8177 11.5833 16.9062 10.9531 16.9062C10.0625 16.9062 9.22656 16.7396 8.44531 16.4062C7.66927 16.0729 6.98438 15.6094 6.39062 15.0156C5.79688 14.4219 5.33333 13.7344 5 12.9531C4.66667 12.1719 4.5 11.3359 4.5 10.4453ZM6.39844 10.4453C6.39844 11.0755 6.51562 11.6667 6.75 12.2188C6.98958 12.7656 7.31771 13.2474 7.73438 13.6641C8.15104 14.0807 8.63281 14.4089 9.17969 14.6484C9.73177 14.8828 10.3229 15 10.9531 15C11.5833 15 12.1719 14.8828 12.7188 14.6484C13.2708 14.4089 13.7552 14.0807 14.1719 13.6641C14.5885 13.2474 14.9141 12.7656 15.1484 12.2188C15.388 11.6667 15.5078 11.0755 15.5078 10.4453C15.5078 9.82031 15.388 9.23438 15.1484 8.6875C14.9141 8.13542 14.5885 7.65104 14.1719 7.23438C13.7552 6.8125 13.2708 6.48438 12.7188 6.25C12.1719 6.01562 11.5833 5.89844 10.9531 5.89844C10.3229 5.89844 9.73177 6.01562 9.17969 6.25C8.63281 6.48438 8.15104 6.8125 7.73438 7.23438C7.31771 7.65104 6.98958 8.13542 6.75 8.6875C6.51562 9.23438 6.39844 9.82031 6.39844 10.4453Z" fill="#EFEB00"/>
</svg>
