<svg width="25" height="24" viewBox="0 0 25 24" fill="none" xmlns="http://www.w3.org/2000/svg">
<path d="M19.4976 6.47567L6.9758 18.9975C6.87874 19.0946 6.76351 19.1716 6.63668 19.2241C6.50986 19.2766 6.37394 19.3037 6.23667 19.3037C6.0994 19.3037 5.96347 19.2766 5.83665 19.2241C5.70983 19.1716 5.5946 19.0946 5.49753 18.9975C5.40047 18.9004 5.32347 18.7852 5.27094 18.6584C5.21841 18.5316 5.19137 18.3956 5.19137 18.2584C5.19137 18.1211 5.21841 17.9852 5.27094 17.8584C5.32347 17.7315 5.40047 17.6163 5.49753 17.5192L18.0194 4.9974C18.2154 4.80137 18.4813 4.69124 18.7585 4.69124C19.0357 4.69124 19.3016 4.80137 19.4976 4.9974C19.6937 5.19343 19.8038 5.45931 19.8038 5.73654C19.8038 6.01377 19.6937 6.27964 19.4976 6.47567ZM5.51753 9.93657C4.9488 9.36726 4.59506 8.61837 4.51658 7.81749C4.43811 7.01661 4.63975 6.2133 5.08716 5.54443C5.53456 4.87555 6.20005 4.3825 6.97023 4.14928C7.74041 3.91606 8.56762 3.9571 9.31093 4.26541C10.0542 4.57372 10.6677 5.13023 11.0467 5.8401C11.4257 6.54998 11.5468 7.36931 11.3894 8.15848C11.2321 8.94766 10.8059 9.65786 10.1836 10.1681C9.56134 10.6783 8.78139 10.9569 7.97668 10.9566C7.51968 10.9577 7.06701 10.8681 6.64488 10.693C6.22275 10.5179 5.83957 10.2608 5.51753 9.93657ZM6.58537 7.47829C6.58522 7.80018 6.69669 8.11217 6.90079 8.36109C7.10488 8.61001 7.38898 8.78046 7.70466 8.8434C8.02035 8.90633 8.34809 8.85786 8.63203 8.70623C8.91598 8.55461 9.13857 8.30922 9.26188 8.01187C9.38518 7.71453 9.40156 7.38363 9.30824 7.07556C9.21491 6.76749 9.01765 6.50131 8.75007 6.32238C8.48249 6.14344 8.16114 6.06283 7.84079 6.09427C7.52043 6.12571 7.22088 6.26726 6.99319 6.4948C6.86348 6.62356 6.76063 6.7768 6.69062 6.94563C6.62061 7.11446 6.58483 7.29552 6.58537 7.47829ZM20.4985 16.5218C20.4985 17.3265 20.2194 18.1063 19.709 18.7283C19.1985 19.3504 18.4881 19.7762 17.6988 19.9332C16.9096 20.0901 16.0904 19.9686 15.3807 19.5893C14.671 19.21 14.1148 18.5964 13.8068 17.853C13.4988 17.1096 13.4581 16.2823 13.6916 15.5123C13.9252 14.7422 14.4185 14.077 15.0875 13.6298C15.7565 13.1827 16.5599 12.9814 17.3607 13.0601C18.1615 13.1389 18.9103 13.4929 19.4794 14.0618C19.8036 14.384 20.0607 14.7674 20.2356 15.1896C20.4106 15.6119 20.4999 16.0647 20.4985 16.5218ZM18.4115 16.5218C18.4122 16.3389 18.3765 16.1577 18.3065 15.9887C18.2364 15.8197 18.1335 15.6663 18.0037 15.5375C17.776 15.31 17.4765 15.1684 17.1562 15.137C16.8359 15.1055 16.5146 15.1861 16.247 15.3649C15.9794 15.5438 15.7821 15.8099 15.6888 16.1179C15.5954 16.4259 15.6117 16.7568 15.7349 17.0541C15.8581 17.3515 16.0805 17.5969 16.3644 17.7487C16.6482 17.9004 16.9759 17.949 17.2916 17.8862C17.6073 17.8234 17.8914 17.6531 18.0956 17.4044C18.2998 17.1556 18.4115 16.8437 18.4115 16.5218Z" fill="#EFEB00"/>
</svg>
