<svg width="24" height="24" viewBox="0 0 24 24" fill="none" xmlns="http://www.w3.org/2000/svg">
<path d="M12.0039 8.89844C11.5352 8.89844 11.1393 8.84375 10.8164 8.73438C10.4987 8.625 10.2253 8.48958 9.99609 8.32812C9.77214 8.16667 9.56901 8.00521 9.38672 7.84375C9.20443 7.68229 9.02214 7.54688 8.83984 7.4375C8.66276 7.32812 8.45703 7.27344 8.22266 7.27344C7.98828 7.27344 7.78255 7.32812 7.60547 7.4375C7.42839 7.54688 7.2487 7.68229 7.06641 7.84375C6.88932 8.00521 6.68099 8.16667 6.44141 8.32812C6.20703 8.48958 5.91276 8.625 5.55859 8.73438C5.20964 8.84375 4.77734 8.89844 4.26172 8.89844H4.19922C3.98047 8.89844 3.79297 8.82031 3.63672 8.66406C3.48047 8.50781 3.40234 8.31771 3.40234 8.09375C3.40234 7.88021 3.48047 7.69531 3.63672 7.53906C3.79297 7.38281 3.98047 7.30469 4.19922 7.30469H4.26172C4.60026 7.30469 4.89974 7.24219 5.16016 7.11719C5.42057 6.98698 5.71484 6.80469 6.04297 6.57031C6.30339 6.3776 6.61068 6.18229 6.96484 5.98438C7.32422 5.78646 7.74349 5.6875 8.22266 5.6875C8.71224 5.6875 9.13672 5.78906 9.49609 5.99219C9.85547 6.19531 10.1628 6.39583 10.418 6.59375C10.694 6.79688 10.9466 6.96615 11.1758 7.10156C11.4102 7.23698 11.6862 7.30469 12.0039 7.30469C12.3164 7.30469 12.5872 7.23698 12.8164 7.10156C13.0508 6.96615 13.306 6.79688 13.582 6.59375C13.8424 6.39583 14.1523 6.19531 14.5117 5.99219C14.8711 5.78906 15.293 5.6875 15.7773 5.6875C16.2565 5.6875 16.6732 5.78646 17.0273 5.98438C17.3867 6.18229 17.6966 6.3776 17.957 6.57031C18.2852 6.80469 18.5768 6.98698 18.832 7.11719C19.0924 7.24219 19.3945 7.30469 19.7383 7.30469H19.8008C20.0195 7.30469 20.207 7.38281 20.3633 7.53906C20.5195 7.69531 20.5977 7.88021 20.5977 8.09375C20.5977 8.31771 20.5195 8.50781 20.3633 8.66406C20.207 8.82031 20.0195 8.89844 19.8008 8.89844H19.7383C19.2174 8.89844 18.7826 8.84375 18.4336 8.73438C18.0898 8.625 17.7982 8.48958 17.5586 8.32812C17.319 8.16667 17.1081 8.00521 16.9258 7.84375C16.7487 7.68229 16.5716 7.54688 16.3945 7.4375C16.2174 7.32812 16.0117 7.27344 15.7773 7.27344C15.5482 7.27344 15.3424 7.32812 15.1602 7.4375C14.9779 7.54688 14.7956 7.68229 14.6133 7.84375C14.4362 8.00521 14.2331 8.16667 14.0039 8.32812C13.7747 8.48958 13.4987 8.625 13.1758 8.73438C12.8581 8.84375 12.4674 8.89844 12.0039 8.89844ZM12.0039 13.6016C11.5352 13.6016 11.1393 13.5469 10.8164 13.4375C10.4987 13.3281 10.2253 13.1953 9.99609 13.0391C9.77214 12.8776 9.56901 12.7161 9.38672 12.5547C9.20443 12.3932 9.02214 12.2578 8.83984 12.1484C8.66276 12.0391 8.45703 11.9844 8.22266 11.9844C7.98828 11.9844 7.78255 12.0391 7.60547 12.1484C7.42839 12.2578 7.2487 12.3932 7.06641 12.5547C6.88932 12.7161 6.68099 12.8776 6.44141 13.0391C6.20703 13.1953 5.91276 13.3281 5.55859 13.4375C5.20964 13.5469 4.77734 13.6016 4.26172 13.6016H4.19922C3.98047 13.6016 3.79297 13.526 3.63672 13.375C3.48047 13.2188 3.40234 13.0286 3.40234 12.8047C3.40234 12.5859 3.48047 12.401 3.63672 12.25C3.79297 12.0938 3.98047 12.0156 4.19922 12.0156H4.26172C4.60026 12.0156 4.89974 11.9505 5.16016 11.8203C5.42057 11.6901 5.71484 11.5078 6.04297 11.2734C6.30339 11.0859 6.61068 10.8932 6.96484 10.6953C7.32422 10.4974 7.74349 10.3984 8.22266 10.3984C8.71224 10.3984 9.13672 10.5 9.49609 10.7031C9.85547 10.9062 10.1628 11.1042 10.418 11.2969C10.694 11.5052 10.9466 11.6771 11.1758 11.8125C11.4102 11.9479 11.6862 12.0156 12.0039 12.0156C12.3164 12.0156 12.5872 11.9479 12.8164 11.8125C13.0508 11.6771 13.306 11.5052 13.582 11.2969C13.8424 11.1042 14.1523 10.9062 14.5117 10.7031C14.8711 10.5 15.293 10.3984 15.7773 10.3984C16.2565 10.3984 16.6732 10.4974 17.0273 10.6953C17.3867 10.8932 17.6966 11.0859 17.957 11.2734C18.2852 11.5078 18.5768 11.6901 18.832 11.8203C19.0924 11.9505 19.3945 12.0156 19.7383 12.0156H19.8008C20.0195 12.0156 20.207 12.0938 20.3633 12.25C20.5195 12.401 20.5977 12.5859 20.5977 12.8047C20.5977 13.0286 20.5195 13.2188 20.3633 13.375C20.207 13.526 20.0195 13.6016 19.8008 13.6016H19.7383C19.2174 13.6016 18.7826 13.5469 18.4336 13.4375C18.0898 13.3281 17.7982 13.1953 17.5586 13.0391C17.319 12.8776 17.1081 12.7161 16.9258 12.5547C16.7487 12.3932 16.5716 12.2578 16.3945 12.1484C16.2174 12.0391 16.0117 11.9844 15.7773 11.9844C15.5482 11.9844 15.3424 12.0391 15.1602 12.1484C14.9779 12.2578 14.7956 12.3932 14.6133 12.5547C14.4362 12.7161 14.2331 12.8776 14.0039 13.0391C13.7747 13.1953 13.4987 13.3281 13.1758 13.4375C12.8581 13.5469 12.4674 13.6016 12.0039 13.6016ZM12.0039 18.3125C11.5352 18.3125 11.1393 18.2578 10.8164 18.1484C10.4987 18.0391 10.2253 17.9036 9.99609 17.7422C9.77214 17.5807 9.56901 17.4219 9.38672 17.2656C9.20443 17.1042 9.02214 16.9688 8.83984 16.8594C8.66276 16.75 8.45703 16.6953 8.22266 16.6953C7.98828 16.6953 7.78255 16.75 7.60547 16.8594C7.42839 16.9688 7.2487 17.1042 7.06641 17.2656C6.88932 17.4219 6.68099 17.5807 6.44141 17.7422C6.20703 17.9036 5.91276 18.0391 5.55859 18.1484C5.20964 18.2578 4.77734 18.3125 4.26172 18.3125H4.19922C3.98047 18.3125 3.79297 18.2344 3.63672 18.0781C3.48047 17.9219 3.40234 17.7344 3.40234 17.5156C3.40234 17.2969 3.48047 17.112 3.63672 16.9609C3.79297 16.8047 3.98047 16.7266 4.19922 16.7266H4.26172C4.60026 16.7266 4.89974 16.6615 5.16016 16.5312C5.42057 16.401 5.71484 16.2188 6.04297 15.9844C6.30339 15.7969 6.61068 15.6042 6.96484 15.4062C7.32422 15.2083 7.74349 15.1094 8.22266 15.1094C8.71224 15.1094 9.13672 15.2109 9.49609 15.4141C9.85547 15.6172 10.1628 15.8151 10.418 16.0078C10.694 16.2161 10.9466 16.388 11.1758 16.5234C11.4102 16.6589 11.6862 16.7266 12.0039 16.7266C12.3164 16.7266 12.5872 16.6589 12.8164 16.5234C13.0508 16.388 13.306 16.2161 13.582 16.0078C13.8424 15.8151 14.1523 15.6172 14.5117 15.4141C14.8711 15.2109 15.293 15.1094 15.7773 15.1094C16.2565 15.1094 16.6732 15.2083 17.0273 15.4062C17.3867 15.6042 17.6966 15.7969 17.957 15.9844C18.2852 16.2188 18.5768 16.401 18.832 16.5312C19.0924 16.6615 19.3945 16.7266 19.7383 16.7266H19.8008C20.0195 16.7266 20.207 16.8047 20.3633 16.9609C20.5195 17.112 20.5977 17.2969 20.5977 17.5156C20.5977 17.7344 20.5195 17.9219 20.3633 18.0781C20.207 18.2344 20.0195 18.3125 19.8008 18.3125H19.7383C19.2174 18.3125 18.7826 18.2578 18.4336 18.1484C18.0898 18.0391 17.7982 17.9036 17.5586 17.7422C17.319 17.5807 17.1081 17.4219 16.9258 17.2656C16.7487 17.1042 16.5716 16.9688 16.3945 16.8594C16.2174 16.75 16.0117 16.6953 15.7773 16.6953C15.5482 16.6953 15.3424 16.75 15.1602 16.8594C14.9779 16.9688 14.7956 17.1042 14.6133 17.2656C14.4362 17.4219 14.2331 17.5807 14.0039 17.7422C13.7747 17.9036 13.4987 18.0391 13.1758 18.1484C12.8581 18.2578 12.4674 18.3125 12.0039 18.3125Z" fill="#EFEB00"/>
</svg>
