<svg width="24" height="25" viewBox="0 0 24 25" fill="none" xmlns="http://www.w3.org/2000/svg">
<path d="M8.43164 7.45312V5.76465C8.43164 5.00814 8.62533 4.43392 9.0127 4.04199C9.40462 3.64551 9.97656 3.44727 10.7285 3.44727H13.2578C13.6771 3.44727 14.0508 3.50651 14.3789 3.625C14.707 3.74349 15.0033 3.93945 15.2676 4.21289L18.6445 7.65137C18.9225 7.93848 19.1185 8.24609 19.2324 8.57422C19.3464 8.90234 19.4033 9.30111 19.4033 9.77051V15.0889C19.4033 15.8408 19.2074 16.415 18.8154 16.8115C18.4281 17.208 17.8584 17.4062 17.1064 17.4062H15.7188V15.8818H16.9492C17.2591 15.8818 17.4915 15.8044 17.6465 15.6494C17.8014 15.4899 17.8789 15.2598 17.8789 14.959V9.43555H15.001C14.5635 9.43555 14.224 9.31706 13.9824 9.08008C13.7454 8.8431 13.627 8.50358 13.627 8.06152V4.97168H10.8857C10.5713 4.97168 10.3366 5.05143 10.1816 5.21094C10.0312 5.36589 9.95605 5.59375 9.95605 5.89453V7.45312H8.43164ZM14.8438 7.89062C14.8438 8.00911 14.8688 8.0957 14.9189 8.15039C14.9736 8.20052 15.0579 8.22559 15.1719 8.22559H17.4824L14.8438 5.5459V7.89062ZM5 18.6641V9.33984C5 8.58789 5.19368 8.01595 5.58105 7.62402C5.97298 7.22754 6.54492 7.0293 7.29688 7.0293H9.65527C10.0882 7.0293 10.4482 7.07487 10.7354 7.16602C11.0225 7.25716 11.3096 7.45085 11.5967 7.74707L15.2539 11.4521C15.4499 11.6527 15.598 11.8464 15.6982 12.0332C15.8031 12.2201 15.8737 12.4274 15.9102 12.6553C15.9512 12.8786 15.9717 13.1475 15.9717 13.4619V18.6641C15.9717 19.4206 15.7757 19.9948 15.3838 20.3867C14.9919 20.7832 14.4222 20.9814 13.6748 20.9814H7.29688C6.54492 20.9814 5.97298 20.7832 5.58105 20.3867C5.19368 19.9948 5 19.4206 5 18.6641ZM6.51758 18.5342C6.51758 18.835 6.59505 19.0651 6.75 19.2246C6.90495 19.3841 7.13737 19.4639 7.44727 19.4639H13.5176C13.832 19.4639 14.0645 19.3841 14.2148 19.2246C14.3698 19.0651 14.4473 18.835 14.4473 18.5342V13.7012H11.0225C10.4938 13.7012 10.0973 13.5713 9.83301 13.3115C9.57324 13.0518 9.44336 12.6553 9.44336 12.1221V8.54688H7.4541C7.13965 8.54688 6.90495 8.62663 6.75 8.78613C6.59505 8.94564 6.51758 9.1735 6.51758 9.46973V18.5342ZM11.1592 12.4092H14.2832L10.7422 8.82031V11.9922C10.7422 12.138 10.7741 12.2451 10.8379 12.3135C10.9062 12.3773 11.0133 12.4092 11.1592 12.4092Z" fill="#888B92"/>
</svg>
