<svg width="119" height="100" viewBox="0 0 119 100" fill="none" xmlns="http://www.w3.org/2000/svg">
<path d="M103.75 16.0078L108.687 20.9453L118.562 11.0703L113.625 6.13281C105.45 -2.04219 92.15 -2.04219 83.9875 6.13281L79.05 11.0703L74.1125 6.13281C65.9375 -2.04219 52.6375 -2.04219 44.475 6.13281L39.5375 11.0703L34.6 6.13281C26.4125 -2.04219 13.1125 -2.04219 4.9375 6.12031L0 11.0578L9.875 20.9328L14.8125 15.9953C17.5375 13.2703 21.975 13.2703 24.6875 15.9953L29.625 20.9328L24.6875 25.8703C16.5125 34.0453 16.5125 47.3453 24.6875 55.5078L29.625 60.4453L9.8625 80.2078L29.625 99.9703L39.5125 90.0953L29.625 80.2203L39.5125 70.3453L59.275 90.1078L79.0375 70.3453L88.9125 80.2203L79.0375 90.0953L88.9125 99.9703L108.675 80.2078L88.9125 60.4453L93.85 55.5078C102.025 47.3328 102.025 34.0328 93.85 25.8703L88.9125 20.9328L93.85 15.9953C96.575 13.2703 101.013 13.2703 103.725 15.9953L103.75 16.0078ZM54.35 16.0078C57.075 13.2828 61.5125 13.2828 64.225 16.0078L69.1625 20.9453L59.2875 30.8203L49.4 20.9453L54.3375 16.0078H54.35ZM34.5875 45.6453C31.8625 42.9203 31.8625 38.4828 34.5875 35.7703L39.525 30.8328L49.4 40.7203L39.525 50.5953L34.5875 45.6578V45.6453ZM59.2875 70.3453L49.4 60.4703L59.2875 50.5953L69.1625 60.4703L59.2875 70.3453ZM83.9875 35.7578C86.7125 38.4828 86.7125 42.9203 83.9875 45.6328L79.05 50.5703L69.175 40.6953L79.05 30.8203L83.9875 35.7578Z" fill="#EFEB00"/>
</svg>
