<svg width="873" height="100" viewBox="0 0 873 100" fill="none" xmlns="http://www.w3.org/2000/svg">
<g clip-path="url(#clip0_740_917)">
<path d="M103.75 16.0125L108.687 20.95L118.562 11.075L113.625 6.13745C105.45 -2.03755 92.15 -2.03755 83.9875 6.13745L79.05 11.075L74.1125 6.13745C65.9375 -2.03755 52.6375 -2.03755 44.475 6.13745L39.5375 11.075L34.6 6.13745C26.4125 -2.03755 13.1125 -2.03755 4.9375 6.12495L0 11.0625L9.875 20.9375L14.8125 16C17.5375 13.275 21.975 13.275 24.6875 16L29.625 20.9375L24.6875 25.875C16.5125 34.05 16.5125 47.35 24.6875 55.5125L29.625 60.45L9.8625 80.2125L29.625 99.975L39.5125 90.1L29.625 80.225L39.5125 70.3499L59.275 90.1125L79.0375 70.3499L88.9125 80.225L79.0375 90.1L88.9125 99.975L108.675 80.2125L88.9125 60.45L93.85 55.5125C102.025 47.3375 102.025 34.0375 93.85 25.875L88.9125 20.9375L93.85 16C96.575 13.275 101.013 13.275 103.725 16L103.75 16.0125ZM54.35 16.0125C57.075 13.2875 61.5125 13.2875 64.225 16.0125L69.1625 20.95L59.2875 30.825L49.4 20.95L54.3375 16.0125H54.35ZM34.5875 45.65C31.8625 42.925 31.8625 38.4875 34.5875 35.775L39.525 30.8375L49.4 40.725L39.525 50.6L34.5875 45.6624V45.65ZM59.2875 70.3499L49.4 60.475L59.2875 50.6L69.1625 60.475L59.2875 70.3499ZM83.9875 35.7625C86.7125 38.4875 86.7125 42.9249 83.9875 45.6374L79.05 50.575L69.175 40.7L79.05 30.825L83.9875 35.7625Z" fill="#EFEB00"/>
<path d="M512.213 26.775V47.6875H542.3V55.0625H512.213V79.325H503.638V19.3125H545.988V26.775H512.213Z" fill="white"/>
<path d="M557.037 19.3125H565.612V79.3125H557.037V19.3125Z" fill="white"/>
<path d="M630.925 19.3125V79.3125H623.9L587.9 34.575V79.3125H579.325V19.3125H586.35L622.35 64.0625V19.3125H630.925Z" fill="white"/>
<path d="M683.3 64.3125H651.412L644.812 79.3125H635.987L663.162 19.3125H671.65L698.912 79.3125H689.912L683.312 64.3125H683.3ZM680.3 57.45L667.362 28.05L654.425 57.45H680.312H680.3Z" fill="white"/>
<path d="M755.475 19.3125V79.3125H748.45L712.45 34.575V79.3125H703.875V19.3125H710.9L746.9 64.0625V19.3125H755.475Z" fill="white"/>
<path d="M764.562 49.2125C764.562 31.4125 778.15 18.425 796.462 18.425C805.75 18.425 813.837 21.6125 819.337 27.8L813.75 33.2125C809.112 28.3125 803.437 26.075 796.812 26.075C783.225 26.075 773.162 35.875 773.162 49.2125C773.162 62.55 783.225 72.35 796.812 72.35C803.437 72.35 809.112 70.025 813.75 65.125L819.337 70.5376C813.837 76.7251 805.75 80.0001 796.375 80.0001C778.137 80.0001 764.55 67.0125 764.55 49.2125H764.562Z" fill="white"/>
<path d="M872.25 71.7624V79.2124H828.713V19.2124H871.063V26.6749H837.288V45.0999H867.375V52.3874H837.288V71.7624H872.263H872.25Z" fill="white"/>
<path d="M206.75 66.8875V80H158.575V20H206.75V33.1125H175.375V43.225H202.038V55.9125H175.375V66.8875H206.75Z" fill="white"/>
<path d="M270.35 80L270.175 48.2L254.75 74.0875H247.213L231.875 49.0625V80H216.188V20H230.163L251.25 54.625L271.812 20H285.788L285.963 80H270.362H270.35Z" fill="white"/>
<path d="M350.237 80L350.062 48.2L334.637 74.0875H327.088L311.75 49.0625V80H296.062V20H310.037L331.125 54.625L351.7 20H365.675L365.85 80H350.25H350.237Z" fill="white"/>
<path d="M424.125 66.8875V80H375.95V20H424.125V33.1125H392.75V43.225H419.413V55.9125H392.75V66.8875H424.125Z" fill="white"/>
<path d="M448.325 33.4625H429.9V20H483.638V33.4625H465.288V80H448.313V33.4625H448.325Z" fill="white"/>
</g>
<defs>
<clipPath id="clip0_740_917">
<rect width="872.25" height="100" fill="white"/>
</clipPath>
</defs>
</svg>
