<svg width="25" height="24" viewBox="0 0 25 24" fill="none" xmlns="http://www.w3.org/2000/svg">
<g clip-path="url(#clip0_3604_48701)">
<path d="M7.21104 17.7274C7.08826 17.6047 7.00723 17.4622 6.96794 17.3002C6.92865 17.1381 6.92865 16.9761 6.96794 16.814C7.00723 16.6519 7.08581 16.512 7.20367 16.3941L11.5941 11.9963L7.20367 7.60589C7.08581 7.49294 7.00723 7.35543 6.96794 7.19337C6.93357 7.0264 6.93357 6.86188 6.96794 6.69982C7.00723 6.53775 7.08826 6.39533 7.21104 6.27256C7.3289 6.14979 7.46886 6.06875 7.63093 6.02947C7.7979 5.99018 7.96242 5.99018 8.12448 6.02947C8.29145 6.06875 8.43387 6.14733 8.55174 6.26519L12.9422 10.6556L17.3326 6.26519C17.4504 6.14733 17.5904 6.06875 17.7525 6.02947C17.9145 5.99018 18.0766 5.99018 18.2387 6.02947C18.4007 6.06875 18.5431 6.15224 18.6659 6.27993C18.7887 6.39779 18.8697 6.53775 18.909 6.69982C18.9532 6.86188 18.9532 7.02394 18.909 7.186C18.8697 7.34807 18.7911 7.48803 18.6733 7.60589L14.2902 11.9963L18.6733 16.3941C18.7911 16.512 18.8697 16.6519 18.909 16.814C18.9483 16.9761 18.9483 17.1381 18.909 17.3002C18.8697 17.4622 18.7887 17.6047 18.6659 17.7274C18.5431 17.8502 18.4007 17.9312 18.2387 17.9705C18.0766 18.0098 17.9145 18.0098 17.7525 17.9705C17.5904 17.9312 17.4504 17.8527 17.3326 17.7348L12.9422 13.3444L8.55174 17.7348C8.43387 17.8527 8.29391 17.9312 8.13185 17.9705C7.96978 18.0098 7.80527 18.0098 7.63829 17.9705C7.47623 17.9312 7.33381 17.8502 7.21104 17.7274Z" fill="white"/>
</g>
<defs>
<clipPath id="clip0_3604_48701">
<rect x="0.938477" width="24" height="24" rx="8" fill="white"/>
</clipPath>
</defs>
</svg>
