<svg width="19" height="19" viewBox="0 0 19 19" fill="none" xmlns="http://www.w3.org/2000/svg">
<path d="M13.9678 11.8384C13.9678 12.0532 13.8955 12.233 13.751 12.3775C13.6064 12.5221 13.4364 12.5944 13.2411 12.5944C13.0418 12.5944 12.8738 12.5221 12.7371 12.3775C12.6042 12.2291 12.5378 12.0532 12.5378 11.8501V9.64061L12.6257 7.45459L11.688 8.50951L6.27277 13.9189C6.11258 14.0791 5.9348 14.1592 5.73945 14.1592C5.60661 14.1592 5.48353 14.124 5.37023 14.0537C5.26083 13.9834 5.17097 13.8915 5.10064 13.7782C5.03031 13.661 4.99515 13.5399 4.99515 13.4149C4.99515 13.2195 5.07524 13.0417 5.23543 12.8816L10.6448 7.46045L11.6939 6.53447L9.41994 6.61652H7.29838C7.09912 6.61652 6.92525 6.54815 6.77678 6.4114C6.63222 6.27465 6.55994 6.1086 6.55994 5.91324C6.55994 5.71789 6.63027 5.54988 6.77092 5.40923C6.91549 5.26466 7.09521 5.19238 7.3101 5.19238H13.1883C13.4267 5.19238 13.6142 5.26466 13.751 5.40923C13.8916 5.54988 13.9619 5.73352 13.9619 5.96013L13.9678 11.8384Z" fill="#191B1E"/>
</svg>
