<svg width="33" height="32" viewBox="0 0 33 32" fill="none" xmlns="http://www.w3.org/2000/svg">
<path d="M26.1167 9.28646L27.135 10.3008L29.1714 8.27208L28.1532 7.25771C26.4699 5.58076 23.73 5.58076 22.0467 7.25771L21.0285 8.27208L20.0102 7.25771C18.3269 5.58076 15.5871 5.58076 13.9038 7.25771L12.8855 8.27208L11.8673 7.25771C10.1839 5.58076 7.44412 5.58076 5.76079 7.25771L4.74255 8.27208L6.77903 10.3008L7.79727 9.28646C8.35936 8.7265 9.27165 8.7265 9.83374 9.28646L10.852 10.3008L9.83374 11.3152C8.15041 12.9922 8.15041 15.7216 9.83374 17.3985L10.852 18.4129L6.78197 22.4675L10.852 26.522L12.8885 24.4933L10.852 22.4645L12.8885 20.4358L16.9585 24.4904L21.0285 20.4358L23.0649 22.4645L21.0285 24.4933L23.0649 26.522L27.135 22.4675L23.0649 18.4129L24.0832 17.3985C25.7665 15.7216 25.7665 12.9922 24.0832 11.3152L23.0649 10.3008L24.0832 9.28646C24.6453 8.7265 25.5576 8.7265 26.1197 9.28646H26.1167ZM15.9402 9.28646C16.5023 8.7265 17.4146 8.7265 17.9767 9.28646L18.9949 10.3008L16.9585 12.3296L14.922 10.3008L15.9402 9.28646ZM11.8702 15.3698C11.3081 14.8098 11.3081 13.901 11.8702 13.341L12.8885 12.3267L14.9249 14.3554L12.8885 16.3842L11.8702 15.3698ZM16.9585 20.4387L14.922 18.41L16.9585 16.3812L18.9949 18.41L16.9585 20.4387ZM22.0467 13.341C22.6088 13.901 22.6088 14.8098 22.0467 15.3698L21.0285 16.3842L18.992 14.3554L21.0285 12.3267L22.0467 13.341Z" fill="#EFEB00"/>
</svg>
