<svg width="169" height="14" viewBox="0 0 169 14" fill="none" xmlns="http://www.w3.org/2000/svg">
<path d="M87.8426 1.96255V6.65464H94.6149V8.30988H87.8426V13.7511H85.9109V0.293854H95.4434V1.96704H87.8381L87.8426 1.96255Z" fill="white"/>
<path d="M97.9344 0.289337H99.8661V13.7466H97.9344V0.289337Z" fill="white"/>
<path d="M114.567 0.289337V13.7466H112.987L104.881 3.71196V13.7466H102.95V0.289337H104.53L112.635 10.324V0.289337H114.567Z" fill="white"/>
<path d="M126.361 10.3823H119.183L117.697 13.7466H115.712L121.831 0.289337H123.74L129.877 13.7466H127.851L126.365 10.3823H126.361ZM125.685 8.84366L122.772 2.24961L119.859 8.84366H125.685Z" fill="white"/>
<path d="M142.611 0.289337V13.7466H141.03L132.925 3.71196V13.7466H130.994V0.289337H132.574L140.679 10.324V0.289337H142.611Z" fill="white"/>
<path d="M144.655 6.99554C144.655 3.00323 147.713 0.09198 151.837 0.09198C153.927 0.09198 155.75 0.805213 156.989 2.19579L155.732 3.41143C154.688 2.31242 153.409 1.81002 151.918 1.81002C148.861 1.81002 146.596 4.00804 146.596 7.00003C146.596 9.99202 148.861 12.19 151.918 12.19C153.409 12.19 154.688 11.6697 155.732 10.5707L156.989 11.7863C155.75 13.1769 153.931 13.9081 151.819 13.9081C147.713 13.9081 144.655 10.9968 144.655 7.00452V6.99554Z" fill="white"/>
<path d="M168.899 12.0509V13.7241H159.096V0.266876H168.629V1.94006H161.023V6.07143H167.795V7.70424H161.023V12.0509H168.899Z" fill="white"/>
<path d="M11.5897 10.786V13.7287H0.742432V0.271423H11.5897V3.21407H4.52481V5.48386H10.5271V8.32782H4.52481V10.7905H11.5897V10.786Z" fill="white"/>
<path d="M25.9092 13.7287L25.8687 6.59633L22.397 12.4009H20.6995L17.2458 6.78921V13.7287H13.7156V0.271423H16.8631L21.609 8.03625L26.2379 0.271423H29.3854L29.4259 13.7287H25.9137H25.9092Z" fill="white"/>
<path d="M43.8931 13.7287L43.8525 6.59633L40.3809 12.4009H38.6833L35.2296 6.78921V13.7287H31.6994V0.271423H34.8424L39.5884 8.03625L44.2218 0.271423H47.3692L47.4098 13.7287H43.8976H43.8931Z" fill="white"/>
<path d="M60.527 10.786V13.7287H49.6797V0.271423H60.527V3.21407H53.4621V5.48386H59.4643V8.32782H53.4621V10.7905H60.527V10.786Z" fill="white"/>
<path d="M65.9754 3.29033H61.8283V0.271423H73.9274V3.29033H69.7983V13.7287H65.9754V3.29033Z" fill="white"/>
<circle cx="78.2813" cy="12.3792" r="1.34936" fill="white"/>
</svg>
