<svg width="24" height="24" viewBox="0 0 24 24" fill="none" xmlns="http://www.w3.org/2000/svg">
<g clip-path="url(#clip0_1743_49822)">
<rect width="24" height="24" rx="12" fill="#864DE6"/>
<path d="M15.8736 9.53405C15.5929 9.37328 15.228 9.37328 14.9193 9.53405L12.7298 10.767L11.2421 11.5712L9.05268 12.8041C8.77201 12.9649 8.40707 12.9649 8.09836 12.8041L6.35801 11.8392C6.07731 11.6783 5.88082 11.3836 5.88082 11.0619V9.15878C5.88082 8.83715 6.04924 8.5423 6.35801 8.38153L8.07025 7.44334C8.35092 7.28257 8.71586 7.28257 9.02464 7.44334L10.7369 8.38153C11.0175 8.5423 11.214 8.83715 11.214 9.15878V10.3918L12.7017 9.56083V8.32788C12.7017 8.00625 12.5334 7.71141 12.2246 7.55055L9.05268 5.78154C8.77201 5.62071 8.40707 5.62071 8.09836 5.78154L4.87032 7.55055C4.56155 7.71141 4.39313 8.00625 4.39313 8.32788V11.8928C4.39313 12.2145 4.56155 12.5093 4.87032 12.6702L8.09836 14.4392C8.37903 14.6 8.74389 14.6 9.05268 14.4392L11.2421 13.233L12.7298 12.4021L14.9193 11.1959C15.2 11.0351 15.5648 11.0351 15.8736 11.1959L17.5858 12.134C17.8665 12.2949 18.0631 12.5897 18.0631 12.9114V14.8144C18.0631 15.1361 17.8946 15.4309 17.5858 15.5917L15.8736 16.5566C15.5929 16.7175 15.228 16.7175 14.9193 16.5566L13.207 15.6185C12.9263 15.4577 12.7298 15.1628 12.7298 14.8412V13.6083L11.2421 14.4392V15.6721C11.2421 15.9937 11.4106 16.2886 11.7193 16.4494L14.9473 18.2184C15.228 18.3793 15.5929 18.3793 15.9016 18.2184L19.1298 16.4494C19.4104 16.2886 19.6069 15.9937 19.6069 15.6721V12.1072C19.6069 11.7855 19.4385 11.4908 19.1298 11.3299L15.8736 9.53405Z" fill="white"/>
</g>
<defs>
<clipPath id="clip0_1743_49822">
<rect width="24" height="24" fill="white"/>
</clipPath>
</defs>
</svg>
