<svg width="24" height="24" viewBox="0 0 24 24" fill="none" xmlns="http://www.w3.org/2000/svg">
<g clip-path="url(#clip0_2309_3129)">
<rect width="24.12" height="24.12" rx="12.06" fill="#FFEEDA"/>
<path d="M18.4601 14.7132V6.0702C18.444 5.3466 17.8732 4.76772 17.1496 4.76772H8.12871C6.18303 4.79988 4.61523 6.3918 4.61523 8.34552C4.61523 9.0048 4.79211 9.5676 5.06547 10.0661C5.29059 10.4761 5.65239 10.862 6.00615 11.1595C6.10263 11.2399 6.05439 11.2078 6.35991 11.4007C6.78603 11.658 7.26843 11.7866 7.26843 11.7866V16.9564C7.27647 17.1976 7.30863 17.4388 7.36491 17.6558C7.56591 18.3794 8.07243 18.9422 8.75583 19.2156C9.04527 19.3282 9.36687 19.4086 9.71259 19.4086L16.9164 19.4327C18.3556 19.4327 19.5214 18.2669 19.5214 16.8277C19.5214 15.9514 19.1033 15.1876 18.4601 14.7132Z" fill="#FFEEDA"/>
<path d="M18.6288 16.8679C18.5966 17.7925 17.8408 18.5322 16.9162 18.5322L11.9556 18.5161C12.3495 18.0578 12.5907 17.4629 12.5907 16.8197C12.5907 15.7986 11.9797 15.0991 11.9797 15.0991H16.9162C17.865 15.0991 18.6288 15.871 18.6288 16.8197V16.8679Z" fill="#EBC28E"/>
<path d="M6.46417 10.4118C5.89333 9.87311 5.49133 9.17363 5.49133 8.33747V8.24903C5.53957 6.83399 6.70537 5.69231 8.12041 5.64407H17.1413C17.3745 5.65211 17.5674 5.82095 17.5674 6.06215V13.6921C17.7765 13.7323 17.8729 13.7564 18.0739 13.8288C18.2267 13.8851 18.4518 14.0137 18.4518 14.0137V6.06215C18.4357 5.33855 17.8649 4.75967 17.1413 4.75967H8.12041C6.17473 4.79183 4.60693 6.38375 4.60693 8.33747C4.60693 9.47111 5.12149 10.444 5.97373 11.1274C6.03001 11.1756 6.08629 11.2319 6.23905 11.2319C6.50437 11.2319 6.68929 11.0228 6.68125 10.7897C6.67321 10.5967 6.59281 10.5244 6.46417 10.4118Z" fill="#190602"/>
<path d="M16.9159 14.2067H9.84074C9.36638 14.2067 8.98046 14.6006 8.98046 15.075V16.088C8.99654 16.5544 9.39854 16.9644 9.86486 16.9644H10.3875V16.088H9.86486V15.0911C9.86486 15.0911 9.9935 15.0911 10.1543 15.0911C11.0467 15.0911 11.706 15.9192 11.706 16.8116C11.706 17.5996 10.9905 18.6046 9.7925 18.5242C8.72318 18.4518 8.15234 17.5031 8.15234 16.8116V8.18472C8.15234 7.7988 7.83878 7.4772 7.44482 7.4772H6.7373V8.3616H7.2599V16.8116C7.23578 18.5322 8.48198 19.4005 9.78446 19.4005L16.9159 19.4246C18.3551 19.4246 19.5209 18.2588 19.5209 16.8197C19.5209 15.3805 18.3551 14.2067 16.9159 14.2067ZM18.6285 16.8679C18.5963 17.7925 17.8405 18.5322 16.9159 18.5322L11.9553 18.5161C12.3492 18.0578 12.5904 17.4629 12.5904 16.8197C12.5904 15.7986 11.9794 15.0991 11.9794 15.0991H16.9159C17.8647 15.0991 18.6285 15.871 18.6285 16.8197V16.8679Z" fill="#190602"/>
<path d="M15.067 8.51435H9.68018V7.63799H15.067C15.2841 7.63799 15.4529 7.81487 15.4529 8.02391V8.12843C15.4529 8.34551 15.276 8.51435 15.067 8.51435Z" fill="#190602"/>
<path d="M15.067 12.671H9.68018V11.7947H15.067C15.2841 11.7947 15.4529 11.9716 15.4529 12.1806V12.2851C15.4529 12.4942 15.276 12.671 15.067 12.671Z" fill="#190602"/>
<path d="M15.9998 10.5967H9.67236V9.72036H15.9998C16.2169 9.72036 16.3858 9.89724 16.3858 10.1063V10.2108C16.3938 10.4198 16.2169 10.5967 15.9998 10.5967Z" fill="#190602"/>
</g>
<defs>
<clipPath id="clip0_2309_3129">
<rect width="24" height="24" fill="white"/>
</clipPath>
</defs>
</svg>
