<svg width="24" height="24" viewBox="0 0 24 24" fill="none" xmlns="http://www.w3.org/2000/svg">
<g clip-path="url(#clip0_2309_3186)">
<rect width="24" height="24" rx="12" fill="#2775CA"/>
<g clip-path="url(#clip1_2309_3186)">
<path d="M12 24C18.65 24 24 18.65 24 12C24 5.34996 18.65 0 12 0C5.34996 0 0 5.34996 0 12C0 18.65 5.34996 24 12 24Z" fill="#2775CA"/>
<path d="M15.3001 13.9C15.3001 12.15 14.2501 11.55 12.1501 11.3C10.6501 11.1 10.3501 10.7 10.3501 9.99996C10.3501 9.29988 10.8501 8.85 11.8501 8.85C12.7501 8.85 13.2501 9.15 13.5001 9.9C13.5501 10.05 13.7001 10.15 13.8501 10.15H14.65C14.8501 10.15 15.0001 9.99996 15.0001 9.80004V9.75C14.8 8.64996 13.9 7.8 12.7501 7.70004V6.50004C12.7501 6.3 12.6001 6.15 12.3501 6.09996H11.6001C11.4001 6.09996 11.2501 6.24996 11.2 6.50004V7.65C9.70002 7.85004 8.7501 8.85 8.7501 10.1C8.7501 11.75 9.75006 12.4 11.8501 12.65C13.2501 12.9 13.7001 13.2 13.7001 14C13.7001 14.8001 13 15.35 12.0501 15.35C10.75 15.35 10.3 14.8 10.15 14.05C10.1001 13.85 9.9501 13.75 9.8001 13.75H8.95002C8.7501 13.75 8.6001 13.9 8.6001 14.1V14.15C8.80002 15.4 9.60006 16.3 11.2501 16.55V17.75C11.2501 17.95 11.4001 18.1 11.65 18.15H12.4C12.6001 18.15 12.7501 18 12.8001 17.75V16.55C14.3001 16.3 15.3001 15.25 15.3001 13.9Z" fill="white"/>
<path d="M9.45 19.15C5.55 17.75 3.54996 13.4 5.00004 9.54996C5.75004 7.44996 7.40004 5.85 9.45 5.1C9.65004 5.00004 9.75 4.85004 9.75 4.59996V3.9C9.75 3.69996 9.65004 3.54996 9.45 3.50004C9.39996 3.50004 9.3 3.50004 9.24996 3.54996C4.5 5.04996 1.89996 10.1 3.39996 14.85C4.29996 17.65 6.45 19.8 9.24996 20.7C9.45 20.8 9.65004 20.7 9.69996 20.5C9.75 20.45 9.75 20.4 9.75 20.3V19.6C9.75 19.45 9.6 19.25 9.45 19.15ZM14.75 3.54996C14.55 3.45 14.35 3.54996 14.3 3.75C14.25 3.80004 14.25 3.84996 14.25 3.95004V4.65C14.25 4.85004 14.4 5.04996 14.55 5.15004C18.45 6.54996 20.45 10.9 19 14.75C18.25 16.85 16.6 18.45 14.55 19.2C14.35 19.3 14.25 19.45 14.25 19.7V20.4C14.25 20.6 14.35 20.75 14.55 20.8C14.6 20.8 14.7 20.8 14.75 20.75C19.5 19.25 22.1 14.2 20.6 9.45C19.7 6.6 17.5 4.44996 14.75 3.54996Z" fill="white"/>
</g>
</g>
<defs>
<clipPath id="clip0_2309_3186">
<rect width="24" height="24" rx="12" fill="white"/>
</clipPath>
<clipPath id="clip1_2309_3186">
<rect width="24" height="24" fill="white"/>
</clipPath>
</defs>
</svg>
