<svg width="24" height="24" viewBox="0 0 24 24" fill="none" xmlns="http://www.w3.org/2000/svg">
<g clip-path="url(#clip0_2309_3162)">
<rect width="24" height="24" rx="12" fill="#2E9377"/>
<g clip-path="url(#clip1_2309_3162)">
<path fill-rule="evenodd" clip-rule="evenodd" d="M13.6594 13.6676C13.5674 13.6745 13.092 13.7029 12.0316 13.7029C11.1882 13.7029 10.5893 13.6776 10.3792 13.6676C7.11978 13.5242 4.68688 12.9568 4.68688 12.2775C4.68688 11.5981 7.11978 11.0315 10.3792 10.8858V13.1025C10.5924 13.1178 11.2027 13.1539 12.0462 13.1539C13.0583 13.1539 13.5651 13.1117 13.6563 13.1033V10.8873C16.9089 11.0323 19.3364 11.5997 19.3364 12.2775C19.3364 12.9553 16.9097 13.5227 13.6563 13.6668L13.6594 13.6676ZM13.6594 10.6581V8.6745H18.1986V5.64967H5.84008V8.6745H10.3785V10.6573C6.68964 10.8268 3.91553 11.5575 3.91553 12.4331C3.91553 13.3088 6.68964 14.0387 10.3785 14.2089V20.5653H13.6586V14.2066C17.3391 14.0372 20.1086 13.3072 20.1086 12.4324C20.1086 11.5575 17.3414 10.8275 13.6586 10.6573L13.6594 10.6581Z" fill="white"/>
</g>
</g>
<defs>
<clipPath id="clip0_2309_3162">
<rect width="24" height="24" rx="12" fill="white"/>
</clipPath>
<clipPath id="clip1_2309_3162">
<rect width="26.0259" height="22.6399" fill="white" transform="translate(-1 2.56506)"/>
</clipPath>
</defs>
</svg>
