<svg width="24" height="24" viewBox="0 0 24 24" fill="none" xmlns="http://www.w3.org/2000/svg">
<path d="M6.27256 17.7274C6.14979 17.6047 6.06875 17.4622 6.02947 17.3002C5.99018 17.1381 5.99018 16.9761 6.02947 16.814C6.06875 16.6519 6.14733 16.512 6.26519 16.3941L10.6556 11.9963L6.26519 7.60589C6.14733 7.49294 6.06875 7.35543 6.02947 7.19337C5.99509 7.0264 5.99509 6.86188 6.02947 6.69982C6.06875 6.53775 6.14979 6.39533 6.27256 6.27256C6.39042 6.14979 6.53039 6.06875 6.69245 6.02947C6.85942 5.99018 7.02394 5.99018 7.186 6.02947C7.35298 6.06875 7.4954 6.14733 7.61326 6.26519L12.0037 10.6556L16.3941 6.26519C16.512 6.14733 16.6519 6.06875 16.814 6.02947C16.9761 5.99018 17.1381 5.99018 17.3002 6.02947C17.4622 6.06875 17.6047 6.15224 17.7274 6.27993C17.8502 6.39779 17.9312 6.53775 17.9705 6.69982C18.0147 6.86188 18.0147 7.02394 17.9705 7.186C17.9312 7.34807 17.8527 7.48803 17.7348 7.60589L13.3517 11.9963L17.7348 16.3941C17.8527 16.512 17.9312 16.6519 17.9705 16.814C18.0098 16.9761 18.0098 17.1381 17.9705 17.3002C17.9312 17.4622 17.8502 17.6047 17.7274 17.7274C17.6047 17.8502 17.4622 17.9312 17.3002 17.9705C17.1381 18.0098 16.9761 18.0098 16.814 17.9705C16.6519 17.9312 16.512 17.8527 16.3941 17.7348L12.0037 13.3444L7.61326 17.7348C7.4954 17.8527 7.35543 17.9312 7.19337 17.9705C7.03131 18.0098 6.86679 18.0098 6.69982 17.9705C6.53775 17.9312 6.39533 17.8502 6.27256 17.7274Z" fill="#B3B7BF"/>
</svg>
