<svg width="16" height="16" viewBox="0 0 16 16" fill="none" xmlns="http://www.w3.org/2000/svg">
<path d="M8.01564 10.7865C7.81077 10.7865 7.62327 10.7031 7.45314 10.5365L3.53126 6.52605C3.46529 6.45661 3.41494 6.38195 3.38022 6.30209C3.34897 6.22223 3.33334 6.13369 3.33334 6.03647C3.33334 5.908 3.36459 5.78994 3.42709 5.6823C3.48959 5.57466 3.57293 5.48959 3.67709 5.42709C3.78473 5.36459 3.90279 5.33334 4.03126 5.33334C4.2257 5.33334 4.39584 5.40452 4.54168 5.54689L8.25522 9.35939H7.78126L11.4844 5.54689C11.6302 5.40452 11.8004 5.33334 11.9948 5.33334C12.1233 5.33334 12.2396 5.36459 12.3438 5.42709C12.4514 5.48959 12.5365 5.57466 12.599 5.6823C12.6615 5.78994 12.6927 5.908 12.6927 6.03647C12.6927 6.22744 12.625 6.3889 12.4896 6.52084L8.57814 10.5365C8.4948 10.6198 8.40626 10.6823 8.31251 10.724C8.22223 10.7622 8.12327 10.783 8.01564 10.7865Z" fill="#B3B7BF"/>
</svg>
