<svg width="100" height="100" viewBox="0 0 100 100" fill="none" xmlns="http://www.w3.org/2000/svg">
<g filter="url(#filter0_d_2302_7434)">
<circle opacity="0.1" cx="50" cy="48" r="32" fill="#F86F6E"/>
<circle cx="50" cy="48" r="31.5" stroke="url(#paint0_radial_2302_7434)"/>
<path d="M40.3279 60.0804C39.584 60.0804 38.9362 59.9132 38.3846 59.5789C37.8413 59.2529 37.4192 58.8099 37.1183 58.2499C36.8174 57.6983 36.667 57.0881 36.667 56.4195C36.667 55.7759 36.8342 55.1616 37.1685 54.5765L46.8598 37.6763C47.2024 37.0662 47.6538 36.6065 48.2138 36.2973C48.7821 35.988 49.3797 35.8334 50.0066 35.8334C50.6251 35.8334 51.2143 35.988 51.7743 36.2973C52.3343 36.6065 52.7899 37.0662 53.1409 37.6763L62.8322 54.5765C62.9993 54.8691 63.1247 55.1741 63.2083 55.4917C63.2919 55.801 63.3337 56.1102 63.3337 56.4195C63.3337 57.0881 63.1832 57.6983 62.8823 58.2499C62.5814 58.8099 62.1552 59.2529 61.6035 59.5789C61.0602 59.9132 60.4167 60.0804 59.6728 60.0804H40.3279ZM40.6914 57.4225H59.2967C59.6561 57.4225 59.9403 57.3013 60.1492 57.0589C60.3665 56.8165 60.4752 56.5365 60.4752 56.2189C60.4752 56.0016 60.4208 55.7884 60.3122 55.5795L50.9845 39.2435C50.8842 39.0513 50.7421 38.9134 50.5582 38.8298C50.3827 38.7462 50.1988 38.7044 50.0066 38.7044C49.8144 38.7044 49.6263 38.7462 49.4424 38.8298C49.2585 38.9134 49.1123 39.0513 49.0036 39.2435L39.6885 55.5544C39.63 55.6631 39.5882 55.7759 39.5631 55.8929C39.5464 56.0099 39.538 56.1186 39.538 56.2189C39.538 56.5365 39.6425 56.8165 39.8514 57.0589C40.0604 57.3013 40.3404 57.4225 40.6914 57.4225ZM50.0191 51.2291C49.2335 51.2291 48.8239 50.8362 48.7905 50.0506L48.615 44.3336C48.5982 43.9408 48.7194 43.619 48.9785 43.3682C49.2376 43.1091 49.5803 42.9796 50.0066 42.9796C50.4245 42.9796 50.763 43.1091 51.0221 43.3682C51.2896 43.619 51.4149 43.945 51.3982 44.3461L51.2102 50.038C51.1767 50.8321 50.7797 51.2291 50.0191 51.2291ZM50.0191 55.4416C49.5845 55.4416 49.2126 55.3079 48.9033 55.0404C48.6024 54.7729 48.452 54.4344 48.452 54.0249C48.452 53.607 48.6024 53.2643 48.9033 52.9968C49.2126 52.721 49.5845 52.5831 50.0191 52.5831C50.4538 52.5831 50.8173 52.7168 51.1099 52.9843C51.4108 53.2518 51.5612 53.5986 51.5612 54.0249C51.5612 54.4428 51.4108 54.7855 51.1099 55.0529C50.809 55.312 50.4454 55.4416 50.0191 55.4416Z" fill="#F86F6E"/>
</g>
<defs>
<filter id="filter0_d_2302_7434" x="0" y="0" width="100" height="100" filterUnits="userSpaceOnUse" color-interpolation-filters="sRGB">
<feFlood flood-opacity="0" result="BackgroundImageFix"/>
<feColorMatrix in="SourceAlpha" type="matrix" values="0 0 0 0 0 0 0 0 0 0 0 0 0 0 0 0 0 0 127 0" result="hardAlpha"/>
<feMorphology radius="6" operator="dilate" in="SourceAlpha" result="effect1_dropShadow_2302_7434"/>
<feOffset dy="2"/>
<feGaussianBlur stdDeviation="6"/>
<feComposite in2="hardAlpha" operator="out"/>
<feColorMatrix type="matrix" values="0 0 0 0 0 0 0 0 0 0 0 0 0 0 0 0 0 0 0.2 0"/>
<feBlend mode="multiply" in2="BackgroundImageFix" result="effect1_dropShadow_2302_7434"/>
<feBlend mode="normal" in="SourceGraphic" in2="effect1_dropShadow_2302_7434" result="shape"/>
</filter>
<radialGradient id="paint0_radial_2302_7434" cx="0" cy="0" r="1" gradientUnits="userSpaceOnUse" gradientTransform="translate(31 23) rotate(67.1663) scale(61.8466)">
<stop stop-color="#F86F6E"/>
<stop offset="1" stop-color="#4B3231" stop-opacity="0.99"/>
</radialGradient>
</defs>
</svg>
