<svg width="25" height="24" viewBox="0 0 25 24" fill="none" xmlns="http://www.w3.org/2000/svg">
<path d="M6.32353 15.5234V9.5C6.32353 8.70833 6.47197 8.01562 6.76884 7.42188C7.07093 6.82812 7.4902 6.36719 8.02665 6.03906C8.56832 5.71094 9.19853 5.54688 9.91728 5.54688C10.6152 5.54688 11.235 5.71354 11.7767 6.04688C12.3183 6.375 12.7428 6.83594 13.0501 7.42969C13.3626 8.02344 13.5188 8.71354 13.5188 9.5V14.8438C13.5188 15.4844 13.6933 15.9922 14.0423 16.3672C14.3964 16.737 14.847 16.9219 15.3938 16.9219C15.9303 16.9219 16.373 16.7344 16.722 16.3594C17.0709 15.9844 17.2454 15.4792 17.2454 14.8438V8.54688H18.9798V14.7188C18.9798 15.5104 18.8287 16.2031 18.5267 16.7969C18.2298 17.3906 17.8131 17.8516 17.2767 18.1797C16.7402 18.5078 16.1126 18.6719 15.3938 18.6719C14.6907 18.6719 14.0657 18.5078 13.5188 18.1797C12.9772 17.8464 12.5527 17.3828 12.2454 16.7891C11.9381 16.1953 11.7845 15.5052 11.7845 14.7188V9.375C11.7845 8.73438 11.6074 8.22917 11.2532 7.85938C10.9043 7.48438 10.4589 7.29688 9.91728 7.29688C9.37561 7.29688 8.9303 7.48438 8.58134 7.85938C8.23759 8.23438 8.06572 8.73958 8.06572 9.375V15.5234H6.32353ZM5.12822 15.0547H9.25322C9.56572 15.0547 9.76103 15.1589 9.83915 15.3672C9.92249 15.5703 9.8704 15.7995 9.6829 16.0547L7.73759 18.7812C7.58655 18.9896 7.40426 19.0938 7.19072 19.0938C6.98238 19.0938 6.8027 18.9896 6.65165 18.7812L4.69853 16.0625C4.51103 15.8073 4.45634 15.5755 4.53447 15.3672C4.61259 15.1589 4.81051 15.0547 5.12822 15.0547ZM16.0579 9.04688C15.7402 9.04688 15.5397 8.94531 15.4563 8.74219C15.3782 8.53385 15.4329 8.29688 15.6204 8.03125L17.5735 5.32031C17.7246 5.10677 17.9043 5 18.1126 5C18.3261 5 18.5084 5.10677 18.6595 5.32031L20.6048 8.03906C20.7923 8.29948 20.8444 8.53385 20.761 8.74219C20.6829 8.94531 20.4876 9.04688 20.1751 9.04688H16.0579Z" fill="#EFEB00"/>
</svg>
