<svg width="25" height="24" viewBox="0 0 25 24" fill="none" xmlns="http://www.w3.org/2000/svg">
<path d="M9.83333 15.5556C9.83333 16.0465 9.43536 16.4444 8.94444 16.4444C8.45352 16.4444 8.05556 16.0465 8.05556 15.5556V11.1111C8.05556 10.6202 8.45352 10.2222 8.94444 10.2222C9.43536 10.2222 9.83333 10.6202 9.83333 11.1111V15.5556ZM13.3889 15.5556C13.3889 16.0465 12.9909 16.4444 12.5 16.4444C12.0091 16.4444 11.6111 16.0465 11.6111 15.5556V8.44445C11.6111 7.95353 12.0091 7.55556 12.5 7.55556C12.9909 7.55556 13.3889 7.95352 13.3889 8.44444V15.5556ZM16.9444 15.5556C16.9444 16.0465 16.5465 16.4444 16.0556 16.4444C15.5646 16.4444 15.1667 16.0465 15.1667 15.5556V13.7778C15.1667 13.2869 15.5646 12.8889 16.0556 12.8889C16.5465 12.8889 16.9444 13.2869 16.9444 13.7778V15.5556ZM18.7222 18.2222H6.27778V5.77778H18.7222V18.3111M18.7222 4H6.27778C5.3 4 4.5 4.8 4.5 5.77778V18.2222C4.5 19.2 5.3 20 6.27778 20H18.7222C19.7 20 20.5 19.2 20.5 18.2222V5.77778C20.5 4.8 19.7 4 18.7222 4Z" fill="#EFEB00"/>
</svg>
