<svg width="25" height="24" viewBox="0 0 25 24" fill="none" xmlns="http://www.w3.org/2000/svg">
<path d="M6.04688 16.8203L11.7031 13.9766V7.29688H13.3594V13.9766L19 16.8203L18.1719 18.2422L12.5234 15.4062L6.88281 18.2422L6.04688 16.8203ZM4.17188 17.9844L4.15625 16.1875C4.15625 16.0365 4.18229 15.9062 4.23438 15.7969C4.29167 15.6823 4.40104 15.5807 4.5625 15.4922L6.09375 14.6016C6.25 14.513 6.39323 14.4714 6.52344 14.4766C6.65365 14.4818 6.78646 14.5234 6.92188 14.6016L8.48438 15.5C8.82292 15.6979 8.99219 15.9896 8.99219 16.375L8.97656 18.1719C8.98177 18.3385 8.95312 18.474 8.89062 18.5781C8.83333 18.6875 8.72135 18.7891 8.55469 18.8828L7.03906 19.7578C6.8776 19.8516 6.73438 19.8958 6.60938 19.8906C6.48958 19.8854 6.36198 19.8438 6.22656 19.7656L4.67969 18.8672C4.34115 18.6693 4.17188 18.375 4.17188 17.9844ZM16.0234 18.1797L16.0156 16.3828C16.0104 15.9974 16.1771 15.7057 16.5156 15.5078L18.0781 14.6094C18.2135 14.5312 18.3464 14.4896 18.4766 14.4844C18.6068 14.4792 18.75 14.5208 18.9062 14.6094L20.4453 15.5C20.6068 15.5885 20.7135 15.6901 20.7656 15.8047C20.8177 15.9141 20.8438 16.0443 20.8438 16.1953L20.8359 17.9922C20.8359 18.3828 20.6641 18.6771 20.3203 18.875L18.7734 19.7734C18.638 19.8516 18.5078 19.8932 18.3828 19.8984C18.263 19.9036 18.1224 19.8594 17.9609 19.7656L16.4453 18.8906C16.2786 18.7969 16.1667 18.6953 16.1094 18.5859C16.0521 18.4818 16.0234 18.3464 16.0234 18.1797ZM10.4453 9C10.3099 8.92188 10.2057 8.82812 10.1328 8.71875C10.0651 8.60938 10.0312 8.46354 10.0312 8.28125V6.52344C10.0312 6.33594 10.0651 6.1901 10.1328 6.08594C10.2005 5.97656 10.3021 5.88542 10.4375 5.8125L11.9922 4.92188C12.3359 4.72917 12.6771 4.72917 13.0156 4.92188L14.5781 5.8125C14.7135 5.89062 14.8125 5.98177 14.875 6.08594C14.9375 6.1901 14.9688 6.33594 14.9688 6.52344V8.28125C14.9688 8.46875 14.9349 8.61719 14.8672 8.72656C14.8047 8.83073 14.7031 8.92188 14.5625 9L13 9.89844C12.6719 10.0911 12.3411 10.0911 12.0078 9.89844L10.4453 9Z" fill="#EFEB00"/>
</svg>
