<svg width="25" height="24" viewBox="0 0 25 24" fill="none" xmlns="http://www.w3.org/2000/svg">
<path d="M4.5 16.4531C4.5 16.1615 4.57031 15.888 4.71094 15.6328C4.85677 15.3724 5.04167 15.125 5.26562 14.8906C5.48958 14.651 5.72135 14.4167 5.96094 14.1875C6.15365 14.0104 6.30208 13.7812 6.40625 13.5C6.51562 13.2135 6.59635 12.8932 6.64844 12.5391C6.70573 12.1797 6.75521 11.7969 6.79688 11.3906C6.84375 10.4323 6.97917 9.58073 7.20312 8.83594C7.42708 8.09115 7.75521 7.46615 8.1875 6.96094C8.625 6.45052 9.18229 6.07292 9.85938 5.82812C10.0156 5.30208 10.3047 4.86719 10.7266 4.52344C11.1484 4.17448 11.6484 4 12.2266 4C12.8151 4 13.3203 4.17448 13.7422 4.52344C14.1641 4.86719 14.4531 5.30208 14.6094 5.82812C15.2812 6.07292 15.8333 6.45052 16.2656 6.96094C16.7031 7.46615 17.0339 8.09115 17.2578 8.83594C17.487 9.58073 17.625 10.4323 17.6719 11.3906C17.7135 11.7969 17.7604 12.1797 17.8125 12.5391C17.8698 12.8932 17.9505 13.2135 18.0547 13.5C18.1641 13.7812 18.3151 14.0104 18.5078 14.1875C18.7474 14.4167 18.9792 14.651 19.2031 14.8906C19.4271 15.125 19.6094 15.3724 19.75 15.6328C19.8958 15.888 19.9688 16.1615 19.9688 16.4531C19.9688 16.8177 19.8438 17.112 19.5938 17.3359C19.3438 17.5547 19.0026 17.6641 18.5703 17.6641H15.4141C15.3932 18.1641 15.2474 18.6354 14.9766 19.0781C14.7109 19.5208 14.3411 19.8776 13.8672 20.1484C13.3984 20.4245 12.8516 20.5625 12.2266 20.5625C11.612 20.5625 11.0677 20.4245 10.5938 20.1484C10.125 19.8724 9.75521 19.513 9.48438 19.0703C9.21875 18.6328 9.07552 18.1641 9.05469 17.6641H5.89844C5.46615 17.6641 5.125 17.5547 4.875 17.3359C4.625 17.112 4.5 16.8177 4.5 16.4531ZM6.625 16.0469H17.8125V15.9609C17.7292 15.888 17.6302 15.7995 17.5156 15.6953C17.4062 15.5859 17.2865 15.4661 17.1562 15.3359C17.0312 15.2057 16.9062 15.0677 16.7812 14.9219C16.6562 14.7708 16.5443 14.5833 16.4453 14.3594C16.3464 14.1354 16.263 13.8828 16.1953 13.6016C16.1328 13.3203 16.0781 13.0156 16.0312 12.6875C15.9844 12.3594 15.9505 12.013 15.9297 11.6484C15.8984 10.6536 15.7786 9.85938 15.5703 9.26562C15.362 8.66667 15.0938 8.21615 14.7656 7.91406C14.4427 7.61198 14.0807 7.40625 13.6797 7.29688C13.5859 7.27604 13.5104 7.23958 13.4531 7.1875C13.401 7.13542 13.3724 7.05208 13.3672 6.9375C13.3411 6.55208 13.2266 6.24219 13.0234 6.00781C12.8255 5.77344 12.5599 5.65625 12.2266 5.65625C11.8984 5.65625 11.6354 5.77344 11.4375 6.00781C11.2396 6.24219 11.1276 6.55208 11.1016 6.9375C11.0911 7.05208 11.0599 7.13542 11.0078 7.1875C10.9557 7.23958 10.8828 7.27604 10.7891 7.29688C10.3828 7.40625 10.0156 7.61198 9.6875 7.91406C9.36458 8.21615 9.09896 8.66667 8.89062 9.26562C8.6875 9.85938 8.56771 10.6536 8.53125 11.6484C8.51042 12.013 8.47917 12.3594 8.4375 12.6875C8.39583 13.0156 8.33854 13.3203 8.26562 13.6016C8.19792 13.8828 8.11458 14.1354 8.01562 14.3594C7.92188 14.5833 7.8099 14.7708 7.67969 14.9219C7.5599 15.0677 7.43229 15.2057 7.29688 15.3359C7.16667 15.4661 7.04167 15.5859 6.92188 15.6953C6.80729 15.7995 6.70833 15.888 6.625 15.9609V16.0469ZM10.7188 17.6641C10.7448 18.1276 10.8984 18.4974 11.1797 18.7734C11.4609 19.0495 11.8099 19.1875 12.2266 19.1875C12.6536 19.1875 13.0052 19.0495 13.2812 18.7734C13.5625 18.4974 13.7188 18.1276 13.75 17.6641H10.7188Z" fill="#E0E3E6"/>
</svg>
