<svg width="24" height="24" viewBox="0 0 24 24" fill="none" xmlns="http://www.w3.org/2000/svg">
<path d="M2.26562 10.7578C2.08854 10.5807 2 10.375 2 10.1406C2.00521 9.90625 2.10156 9.69792 2.28906 9.51562L4.97656 6.83594C5.29948 6.51823 5.63542 6.35938 5.98438 6.35938C6.33854 6.35417 6.67708 6.51302 7 6.83594L9.6875 9.51562C9.875 9.69792 9.96875 9.90625 9.96875 10.1406C9.96875 10.375 9.88021 10.5807 9.70312 10.7578C9.52083 10.9401 9.3151 11.0286 9.08594 11.0234C8.85677 11.0182 8.64844 10.9271 8.46094 10.75L7.90625 10.2031L6.85156 9.02344V16.9375C6.85156 17.2969 6.94271 17.5651 7.125 17.7422C7.30729 17.9141 7.57031 18 7.91406 18H13.6797C13.9609 18 14.1823 18.0781 14.3438 18.2344C14.5104 18.3906 14.5938 18.6016 14.5938 18.8672C14.599 19.1328 14.5182 19.3438 14.3516 19.5C14.1849 19.6562 13.9609 19.7344 13.6797 19.7344H7.76562C6.90104 19.7344 6.24219 19.5104 5.78906 19.0625C5.34115 18.6198 5.11719 17.9714 5.11719 17.1172V9.03906L4.0625 10.2031L3.50781 10.75C3.32552 10.9271 3.11719 11.0182 2.88281 11.0234C2.65365 11.0286 2.44792 10.9401 2.26562 10.7578ZM9.39844 5.86719C9.39323 5.60677 9.47396 5.39844 9.64062 5.24219C9.8125 5.08594 10.0391 5.00781 10.3203 5.00781H16.2344C17.099 5.00781 17.7552 5.23177 18.2031 5.67969C18.651 6.1224 18.875 6.77083 18.875 7.625V15.7031L19.9297 14.5312L20.4844 13.9922C20.6667 13.8099 20.8724 13.7161 21.1016 13.7109C21.3359 13.7057 21.5443 13.7943 21.7266 13.9766C21.9036 14.1589 21.9896 14.3672 21.9844 14.6016C21.9844 14.8307 21.8932 15.0391 21.7109 15.2266L19.0234 17.8984C18.7005 18.2214 18.362 18.3828 18.0078 18.3828C17.6536 18.3828 17.3151 18.2214 16.9922 17.8984L14.3047 15.2266C14.1172 15.0391 14.0234 14.8307 14.0234 14.6016C14.0234 14.3672 14.112 14.1589 14.2891 13.9766C14.4714 13.7943 14.6771 13.7057 14.9062 13.7109C15.1354 13.7161 15.3438 13.8099 15.5312 13.9922L16.0859 14.5312L17.1406 15.7109V7.80469C17.1406 7.44531 17.0495 7.17969 16.8672 7.00781C16.6901 6.83073 16.4297 6.74219 16.0859 6.74219H10.3203C10.0391 6.74219 9.8151 6.66406 9.64844 6.50781C9.48177 6.35156 9.39844 6.13802 9.39844 5.86719Z" fill="#888B92"/>
</svg>
