<svg width="38" height="38" viewBox="0 0 38 38" fill="none" xmlns="http://www.w3.org/2000/svg">
<g filter="url(#filter0_d_2306_560)">
<rect x="3" y="3" width="31.9991" height="31.9991" rx="8" fill="#202226"/>
<rect x="3.5" y="3.5" width="30.9991" height="30.9991" rx="7.5" stroke="#61646B" stroke-opacity="0.1"/>
<path d="M9.26465 17.7578C9.08757 17.5807 8.99902 17.375 8.99902 17.1406C9.00423 16.9062 9.10059 16.6979 9.28809 16.5156L11.9756 13.8359C12.2985 13.5182 12.6344 13.3594 12.9834 13.3594C13.3376 13.3542 13.6761 13.513 13.999 13.8359L16.6865 16.5156C16.874 16.6979 16.9678 16.9062 16.9678 17.1406C16.9678 17.375 16.8792 17.5807 16.7021 17.7578C16.5199 17.9401 16.3141 18.0286 16.085 18.0234C15.8558 18.0182 15.6475 17.9271 15.46 17.75L14.9053 17.2031L13.8506 16.0234V23.9375C13.8506 24.2969 13.9417 24.5651 14.124 24.7422C14.3063 24.9141 14.5693 25 14.9131 25H20.6787C20.96 25 21.1813 25.0781 21.3428 25.2344C21.5094 25.3906 21.5928 25.6016 21.5928 25.8672C21.598 26.1328 21.5173 26.3438 21.3506 26.5C21.1839 26.6562 20.96 26.7344 20.6787 26.7344H14.7646C13.9001 26.7344 13.2412 26.5104 12.7881 26.0625C12.3402 25.6198 12.1162 24.9714 12.1162 24.1172V16.0391L11.0615 17.2031L10.5068 17.75C10.3245 17.9271 10.1162 18.0182 9.88184 18.0234C9.65267 18.0286 9.44694 17.9401 9.26465 17.7578ZM16.3975 12.8672C16.3923 12.6068 16.473 12.3984 16.6396 12.2422C16.8115 12.0859 17.0381 12.0078 17.3193 12.0078H23.2334C24.098 12.0078 24.7542 12.2318 25.2021 12.6797C25.6501 13.1224 25.874 13.7708 25.874 14.625V22.7031L26.9287 21.5312L27.4834 20.9922C27.6657 20.8099 27.8714 20.7161 28.1006 20.7109C28.335 20.7057 28.5433 20.7943 28.7256 20.9766C28.9027 21.1589 28.9886 21.3672 28.9834 21.6016C28.9834 21.8307 28.8923 22.0391 28.71 22.2266L26.0225 24.8984C25.6995 25.2214 25.361 25.3828 25.0068 25.3828C24.6527 25.3828 24.3141 25.2214 23.9912 24.8984L21.3037 22.2266C21.1162 22.0391 21.0225 21.8307 21.0225 21.6016C21.0225 21.3672 21.111 21.1589 21.2881 20.9766C21.4704 20.7943 21.6761 20.7057 21.9053 20.7109C22.1344 20.7161 22.3428 20.8099 22.5303 20.9922L23.085 21.5312L24.1396 22.7109V14.8047C24.1396 14.4453 24.0485 14.1797 23.8662 14.0078C23.6891 13.8307 23.4287 13.7422 23.085 13.7422H17.3193C17.0381 13.7422 16.8141 13.6641 16.6475 13.5078C16.4808 13.3516 16.3975 13.138 16.3975 12.8672Z" fill="#B3B7BF"/>
</g>
<defs>
<filter id="filter0_d_2306_560" x="0" y="0" width="37.999" height="37.999" filterUnits="userSpaceOnUse" color-interpolation-filters="sRGB">
<feFlood flood-opacity="0" result="BackgroundImageFix"/>
<feColorMatrix in="SourceAlpha" type="matrix" values="0 0 0 0 0 0 0 0 0 0 0 0 0 0 0 0 0 0 127 0" result="hardAlpha"/>
<feMorphology radius="3" operator="dilate" in="SourceAlpha" result="effect1_dropShadow_2306_560"/>
<feOffset/>
<feComposite in2="hardAlpha" operator="out"/>
<feColorMatrix type="matrix" values="0 0 0 0 0.105882 0 0 0 0 0.113725 0 0 0 0 0.12549 0 0 0 1 0"/>
<feBlend mode="normal" in2="BackgroundImageFix" result="effect1_dropShadow_2306_560"/>
<feBlend mode="normal" in="SourceGraphic" in2="effect1_dropShadow_2306_560" result="shape"/>
</filter>
</defs>
</svg>
