<svg width="24" height="24" viewBox="0 0 24 24" fill="none" xmlns="http://www.w3.org/2000/svg">
<g clip-path="url(#clip0_2301_1211)">
<rect width="24" height="24" rx="12" fill="#2E9377"/>
<g clip-path="url(#clip1_2301_1211)">
<path fill-rule="evenodd" clip-rule="evenodd" d="M13.6596 13.6676C13.5676 13.6745 13.0922 13.7029 12.0318 13.7029C11.1883 13.7029 10.5895 13.6776 10.3794 13.6676C7.11994 13.5242 4.68703 12.9568 4.68703 12.2775C4.68703 11.5981 7.11994 11.0315 10.3794 10.8858V13.1025C10.5926 13.1178 11.2029 13.1539 12.0463 13.1539C13.0584 13.1539 13.5653 13.1117 13.6565 13.1033V10.8874C16.9091 11.0323 19.3366 11.5997 19.3366 12.2775C19.3366 12.9553 16.9098 13.5227 13.6565 13.6668L13.6596 13.6676ZM13.6596 10.6581V8.67451H18.1987V5.64967H5.84023V8.67451H10.3786V10.6573C6.68979 10.8268 3.91568 11.5575 3.91568 12.4331C3.91568 13.3088 6.68979 14.0387 10.3786 14.2089V20.5653H13.6588V14.2066C17.3392 14.0372 20.1087 13.3072 20.1087 12.4324C20.1087 11.5575 17.3415 10.8275 13.6588 10.6573L13.6596 10.6581Z" fill="white"/>
</g>
</g>
<defs>
<clipPath id="clip0_2301_1211">
<rect width="24" height="24" rx="12" fill="white"/>
</clipPath>
<clipPath id="clip1_2301_1211">
<rect width="26.0259" height="22.6399" fill="white" transform="translate(-1 2.56506)"/>
</clipPath>
</defs>
</svg>
