<svg width="40" height="40" viewBox="0 0 40 40" fill="none" xmlns="http://www.w3.org/2000/svg">
<path d="M31.6919 12.235L21.2668 6.31307C20.9359 6.12374 20.564 6.02753 20.1921 6.02753C19.8202 6.02753 19.4484 6.12064 19.1174 6.31307L8.69858 12.235C8.03361 12.6136 7.62392 13.312 7.62392 14.0693V25.9193C7.62392 26.6766 8.03361 27.375 8.69858 27.7536L12.2406 29.7673L13.2998 30.3701V30.3695L13.914 28.7177L13.9121 28.7167L19.5366 13.5323C19.5933 13.3834 19.4799 13.222 19.316 13.222H16.675C16.4765 13.222 16.3 13.343 16.2338 13.5261L11.1791 27.1642L9.57785 26.2545C9.45809 26.1863 9.38246 26.0559 9.38246 25.9224V14.0693C9.38246 13.9327 9.45809 13.8055 9.57785 13.7372L19.9967 7.81217C20.0566 7.77803 20.1259 7.75941 20.1921 7.75941C20.2583 7.75941 20.3276 7.77803 20.3875 7.80907L30.8064 13.7341C30.9261 13.8024 31.0018 13.9327 31.0018 14.0662V25.9162C31.0018 26.0528 30.9261 26.18 30.8064 26.2483L29.2231 27.1487L25.0486 15.8819C24.9729 15.677 24.6799 15.677 24.6074 15.8819L23.2333 19.5908C23.1955 19.6933 23.1955 19.805 23.2333 19.9105L26.4904 28.7028L25.4041 29.3204L22.7354 22.1173C22.6629 21.9155 22.3698 21.9155 22.2942 22.1173L20.9201 25.8262C20.8823 25.9286 20.8823 26.0404 20.9201 26.1459L22.6717 30.8744L20.3875 32.1733C20.3308 32.2075 20.2583 32.223 20.1921 32.223C20.1259 32.223 20.0566 32.2044 19.9967 32.1733L17.7314 30.8865L24.1567 13.5354C24.2134 13.3834 24.1 13.222 23.9392 13.222H21.2951C21.0966 13.222 20.9201 13.343 20.8539 13.5261L14.387 30.9846L14.3892 30.9859L14.3874 30.9877L19.1209 33.6787C19.455 33.868 19.8237 33.9642 20.1956 33.9642C20.5675 33.9642 20.9393 33.8711 21.2702 33.6787L31.6923 27.7536C32.3572 27.375 32.7669 26.6766 32.7669 25.9193V14.0693C32.7669 13.312 32.3572 12.6136 31.6923 12.235H31.6919Z" fill="white"/>
</svg>
