<svg width="41" height="40" viewBox="0 0 41 40" fill="none" xmlns="http://www.w3.org/2000/svg">
<path fill-rule="evenodd" clip-rule="evenodd" d="M34.2616 19.7984C34.2616 12.1463 28.0512 5.93597 20.3992 5.93597C12.7471 5.93597 6.5368 12.1463 6.5368 19.7984C6.5368 27.4504 12.7471 33.6607 20.3992 33.6607C28.0512 33.6607 34.2616 27.4504 34.2616 19.7984ZM16.3627 23.4801C15.5309 23.4801 14.8544 23.2805 14.3332 22.8924C13.812 22.4931 13.5458 21.9276 13.5458 21.2067C13.5458 21.0515 13.568 20.8629 13.6013 20.6411C13.69 20.1421 13.8231 19.5432 13.9894 18.8335C14.4663 16.926 15.6862 15.9723 17.6491 15.9723C18.1814 15.9723 18.6694 16.061 19.0908 16.2495C19.5122 16.427 19.8449 16.6931 20.0889 17.048C20.3328 17.4029 20.4548 17.8132 20.4548 18.3012C20.4548 18.4453 20.4327 18.6339 20.3994 18.8557C20.2885 19.4767 20.1665 20.0755 20.0223 20.6633C19.7783 21.617 19.3569 22.3268 18.7581 22.8037C18.1592 23.2694 17.3607 23.5023 16.3627 23.5023V23.4801ZM16.5179 21.983C16.9061 21.983 17.2388 21.861 17.5049 21.6392C17.7822 21.4063 17.9818 21.0625 18.1038 20.5857C18.2701 19.9314 18.3921 19.3658 18.4697 18.8778C18.503 18.7337 18.5141 18.5784 18.5141 18.4231C18.5141 17.791 18.1814 17.4694 17.5271 17.4694C17.139 17.4694 16.8063 17.5914 16.529 17.8132C16.2518 18.0461 16.0632 18.3899 15.9412 18.8667C15.8082 19.3325 15.6862 19.8981 15.5642 20.5746C15.5309 20.7188 15.5198 20.8629 15.5198 21.0182C15.5087 21.6614 15.8525 21.983 16.5179 21.983ZM20.7429 23.3028C20.7873 23.3582 20.8427 23.3804 20.9204 23.3804L20.9093 23.3915H22.3288C22.3953 23.3915 22.4619 23.3693 22.5284 23.3139C22.5949 23.2695 22.6282 23.203 22.6504 23.1253L23.1272 20.8408H24.5357C25.445 20.8408 26.1659 20.6523 26.6871 20.2641C27.2194 19.876 27.5632 19.2882 27.7406 18.4897C27.785 18.3012 27.8072 18.1238 27.8072 17.9463C27.8072 17.3475 27.5743 16.8817 27.0974 16.5601C26.6317 16.2496 26.0217 16.0832 25.2454 16.0832H22.4729C22.4064 16.0832 22.3399 16.1054 22.2733 16.1609C22.2068 16.2052 22.1624 16.2718 22.1513 16.3494L20.7096 23.1142C20.6986 23.1808 20.7096 23.2473 20.7429 23.3028ZM25.3674 19.1551C25.1456 19.3215 24.9016 19.3991 24.6022 19.3991V19.388H23.4045L23.8037 17.5249H25.0569C25.3452 17.5249 25.5448 17.5804 25.6668 17.6913C25.7777 17.8022 25.8443 17.9574 25.8443 18.157C25.8443 18.2458 25.8332 18.3456 25.811 18.4676C25.7334 18.767 25.5892 18.9888 25.3674 19.1551Z" fill="white"/>
</svg>
