<svg width="40" height="40" viewBox="0 0 40 40" fill="none" xmlns="http://www.w3.org/2000/svg">
<path d="M29.1316 11.5938C27.1891 11.5938 25.0715 12.5892 22.8334 14.5499C21.7716 15.4789 20.8546 16.4743 20.1669 17.2706C20.1669 17.2706 20.1669 17.2706 20.173 17.2767V17.2706C20.173 17.2706 21.2588 18.453 22.4594 19.7199C23.1049 18.9538 24.034 17.9101 25.1017 16.969C27.0926 15.2255 28.3896 14.8575 29.1316 14.8575C31.925 14.8575 34.1932 17.0716 34.1932 19.7923C34.1932 22.495 31.9189 24.709 29.1316 24.7271C29.0049 24.7271 28.8421 24.709 28.6369 24.6668C29.4514 25.0167 30.3262 25.2701 31.1588 25.2701C36.2745 25.2701 37.276 21.9339 37.3424 21.6926C37.4932 21.0833 37.5716 20.4439 37.5716 19.7863C37.5716 15.2738 33.783 11.5938 29.1316 11.5938Z" fill="url(#paint0_linear_2720_92640)" fill-opacity="0.8"/>
<path opacity="0.7" d="M11.2631 28.0029C13.2057 28.0029 15.3232 27.0074 17.5614 25.0468C18.6232 24.1178 19.5402 23.1224 20.2278 22.326C20.2278 22.326 20.2278 22.326 20.2218 22.32V22.326C20.2218 22.326 19.136 21.1436 17.9354 19.8767C17.2899 20.6429 16.3609 21.6866 15.293 22.6277C13.3022 24.3711 12.0051 24.7391 11.2631 24.7391C8.46989 24.7331 6.20154 22.5191 6.20154 19.7983C6.20154 17.0956 8.47592 14.8816 11.2631 14.8635C11.3898 14.8635 11.5527 14.8816 11.7578 14.9238C10.9434 14.5739 10.0686 14.3206 9.23606 14.3206C4.12021 14.3206 3.12479 17.6567 3.0524 17.892C2.90158 18.5073 2.82315 19.1407 2.82315 19.7983C2.82315 24.3229 6.61178 28.0029 11.2631 28.0029Z" fill="url(#paint1_linear_2720_92640)"/>
<path d="M31.1472 25.1977C28.5289 25.1313 25.8081 23.0681 25.2531 22.5553C23.8173 21.2281 20.5052 17.6386 20.2459 17.3551C17.8206 14.6343 14.5327 11.5938 11.2629 11.5938H11.2569H11.2509C7.28124 11.6119 3.94508 14.3025 3.05222 17.892C3.11858 17.6567 4.42771 14.2543 9.22985 14.3749C11.8481 14.4413 14.581 16.5346 15.142 17.0474C16.5779 18.3746 19.8899 21.9641 20.1494 22.2476C22.5745 24.9624 25.8624 28.0029 29.1322 28.0029H29.1382H29.1442C33.1139 27.9848 36.456 25.2942 37.3429 21.7047C37.2705 21.94 35.9553 25.3123 31.1472 25.1977Z" fill="white"/>
<defs>
<linearGradient id="paint0_linear_2720_92640" x1="24.7382" y1="12.6758" x2="36.2131" y2="24.5586" gradientUnits="userSpaceOnUse">
<stop offset="0.21" stop-color="white"/>
<stop offset="0.6841" stop-color="white" stop-opacity="0.65"/>
</linearGradient>
<linearGradient id="paint1_linear_2720_92640" x1="7.39442" y1="15.403" x2="18.8746" y2="27.286" gradientUnits="userSpaceOnUse">
<stop offset="0.21" stop-color="white"/>
<stop offset="0.6841" stop-color="white" stop-opacity="0.65"/>
</linearGradient>
</defs>
</svg>
