<svg width="41" height="40" viewBox="0 0 41 40" fill="none" xmlns="http://www.w3.org/2000/svg">
<path fill-rule="evenodd" clip-rule="evenodd" d="M14.2082 31.7359H9.75991C8.82519 31.7359 8.36347 31.7359 8.08195 31.5558C7.77788 31.3586 7.59207 31.0321 7.56955 30.6716C7.55264 30.3396 7.78352 29.934 8.24524 29.1232L19.2286 9.76343C19.696 8.94133 19.9325 8.53028 20.2309 8.37826C20.5518 8.21498 20.9348 8.21498 21.2557 8.37826C21.5541 8.53028 21.7906 8.94133 22.258 9.76343L24.5159 13.705L24.5274 13.7251C25.0322 14.607 25.2882 15.0543 25.4 15.5237C25.5238 16.0361 25.5238 16.5766 25.4 17.089C25.2873 17.562 25.034 18.0125 24.5215 18.9078L18.7522 29.1063L18.7373 29.1324C18.2292 30.0216 17.9717 30.4723 17.6148 30.8123C17.2263 31.1841 16.7589 31.4542 16.2465 31.6065C15.7792 31.7359 15.2555 31.7359 14.2082 31.7359ZM25.4416 31.7359H31.8155C32.7558 31.7359 33.2289 31.7359 33.5106 31.5503C33.8146 31.3531 34.006 31.0208 34.0231 30.6606C34.0392 30.3393 33.8134 29.9495 33.3708 29.1858C33.3556 29.1598 33.3403 29.1333 33.3247 29.1064L30.132 23.6446L30.0957 23.5831C29.647 22.8244 29.4206 22.4413 29.1297 22.2932C28.8089 22.1299 28.4314 22.1299 28.1106 22.2932C27.8178 22.4452 27.5813 22.845 27.114 23.6502L23.9326 29.1121L23.9217 29.1309C23.456 29.9348 23.2232 30.3365 23.24 30.6661C23.2625 31.0266 23.4483 31.3586 23.7524 31.5558C24.0283 31.7359 24.5013 31.7359 25.4416 31.7359Z" fill="white"/>
</svg>
