<svg width="41" height="40" viewBox="0 0 41 40" fill="none" xmlns="http://www.w3.org/2000/svg">
<path d="M29.9567 8.10431C29.0758 8.10431 28.2579 8.561 27.7965 9.31176L22.825 16.6927C22.663 16.9359 22.7288 17.2639 22.972 17.4258C23.1692 17.5573 23.4301 17.541 23.6096 17.3865L28.5032 13.1421C28.5845 13.069 28.7099 13.0764 28.7831 13.1577C28.8163 13.195 28.8339 13.2431 28.8339 13.2926V26.5813C28.8339 26.6911 28.7451 26.7791 28.6353 26.7791C28.5764 26.7791 28.5208 26.7534 28.4836 26.708L13.691 9.00143C13.2093 8.43294 12.5019 8.10499 11.7572 8.10431H11.2402C9.84096 8.10431 8.70667 9.23858 8.70667 10.6378V29.354C8.70667 30.7532 9.84096 31.8874 11.2402 31.8874C12.1211 31.8874 12.9389 31.4307 13.4004 30.68L18.3719 23.2991C18.5338 23.0558 18.4681 22.7279 18.2248 22.5659C18.0276 22.4345 17.7668 22.4508 17.5872 22.6052L12.6936 26.8496C12.6123 26.9228 12.487 26.9153 12.4138 26.834C12.3806 26.7968 12.363 26.7487 12.3636 26.6992V13.4071C12.3636 13.2973 12.4524 13.2092 12.5622 13.2092C12.6204 13.2092 12.6767 13.235 12.7139 13.2804L27.5044 30.9903C27.9862 31.5588 28.6936 31.8868 29.4383 31.8874H29.9553C31.3545 31.8881 32.4895 30.7545 32.4909 29.3553V10.6378C32.4909 9.23858 31.3566 8.10431 29.9573 8.10431H29.9567Z" fill="white"/>
</svg>
