<svg width="40" height="40" viewBox="0 0 40 40" fill="none" xmlns="http://www.w3.org/2000/svg">
<path d="M11.8706 25.4971L34.5877 13.9241V16.379L33.5551 16.9245C32.7563 17.3337 32.2887 18.1714 32.3472 19.0677C32.3861 19.3794 32.3861 19.6911 32.3861 20.0028C32.3861 22.5746 31.5679 25.0684 30.0677 27.1336C26.1126 32.5889 18.4948 33.7968 13.0591 29.8418L15.2022 28.7702L15.3191 28.6923C16.8193 29.53 18.4948 29.9782 20.1898 29.9782C20.6379 29.9782 21.0861 29.9392 21.5147 29.8807C26.9699 29.1599 30.808 24.1527 30.0872 18.6975L13.3319 27.231L9.86391 29.004L5.81146 31.0692V28.5754L9.88339 26.4907L11.8706 25.4971Z" fill="white"/>
<path d="M27.0673 12.7746L30.5353 11.0212L34.5877 8.93649V11.4303L30.4963 13.515L28.509 14.5281L10.877 23.5293L9.88339 24.0163L8.88976 24.5229L5.81146 26.101V23.6072L6.86354 23.0812C7.66234 22.672 8.12993 21.8148 8.052 20.938C8.03251 20.6263 8.03251 20.3146 8.03251 20.0028C8.03251 17.4311 8.83131 14.9373 10.351 12.8526C14.306 7.41681 21.9238 6.18938 27.3595 10.1444L27.0673 10.3003L25.08 11.3134C23.2097 10.2613 21.0471 9.85219 18.9235 10.125C13.4682 10.8458 9.61063 15.853 10.3315 21.3082L27.0673 12.7746Z" fill="white"/>
</svg>
