<svg width="40" height="40" viewBox="0 0 40 40" fill="none" xmlns="http://www.w3.org/2000/svg">
<path fill-rule="evenodd" clip-rule="evenodd" d="M20.1996 12.1755L14.7878 17.5785L11.6391 14.4345L20.1996 5.88806L28.7628 14.4371L25.614 17.5808L20.1996 12.1755ZM9.41554 16.6541L6.26656 19.7983L9.41531 22.9415L12.5643 19.7977L9.41554 16.6541ZM20.1996 27.4212L14.7878 22.0186L11.6347 25.1577L11.6391 25.1622L20.1996 33.7086L28.7628 25.1597L28.7644 25.158L25.6139 22.016L20.1996 27.4212ZM30.9839 16.6559L27.8349 19.7997L30.9838 22.9433L34.1326 19.7995L30.9839 16.6559ZM23.3948 19.7964H23.3935L23.3966 19.7979L23.395 19.7997L20.1998 22.9897L17.0074 19.8021L17.0029 19.7975L17.0074 19.7932L17.5669 19.2344L17.8382 18.9634L20.1998 16.6063L23.3948 19.7964Z" fill="white"/>
</svg>
