<svg width="40" height="40" viewBox="0 0 40 40" fill="none" xmlns="http://www.w3.org/2000/svg">
<g clip-path="url(#clip0_2720_92633)">
<path d="M11.0369 25.4725C11.1971 25.3123 11.4174 25.2189 11.651 25.2189H32.8369C33.224 25.2189 33.4176 25.6861 33.1439 25.9598L28.9588 30.1449C28.7986 30.3051 28.5784 30.3985 28.3447 30.3985H7.15881C6.77167 30.3985 6.5781 29.9313 6.85177 29.6576L11.0369 25.4725Z" fill="white"/>
<path d="M11.0366 9.84678C11.2035 9.68659 11.4237 9.59314 11.6507 9.59314H32.8366C33.2237 9.59314 33.4173 10.0604 33.1436 10.334L28.9585 14.5192C28.7983 14.6794 28.578 14.7728 28.3444 14.7728H7.15851C6.77137 14.7728 6.5778 14.3056 6.85146 14.0319L11.0366 9.84678Z" fill="white"/>
<path d="M28.9588 17.6096C28.7986 17.4494 28.5784 17.356 28.3447 17.356H7.15881C6.77167 17.356 6.5781 17.8232 6.85177 18.0969L11.0369 22.282C11.1971 22.4422 11.4174 22.5356 11.651 22.5356H32.8369C33.224 22.5356 33.4176 22.0684 33.1439 21.7947L28.9588 17.6096Z" fill="white"/>
</g>
<defs>
<clipPath id="clip0_2720_92633">
<rect width="26.5458" height="20.8055" fill="white" transform="translate(6.72501 9.59314)"/>
</clipPath>
</defs>
</svg>
