<svg width="24" height="25" viewBox="0 0 24 25" fill="none" xmlns="http://www.w3.org/2000/svg">
<g clip-path="url(#clip0_3604_49058)">
<rect y="0.430054" width="24" height="24" rx="12" fill="#191B1E"/>
<rect x="0.25" y="0.680054" width="23.5" height="23.5" rx="11.75" stroke="#EFEB00" stroke-opacity="0.9" stroke-width="0.5"/>
<path d="M17.3553 8.90069L17.9506 9.49375L19.1412 8.30763L18.5459 7.71457C17.5617 6.73414 15.9599 6.73414 14.9757 7.71457L14.3804 8.30763L13.7851 7.71457C12.8009 6.73414 11.1991 6.73414 10.2149 7.71457L9.61958 8.30763L9.02426 7.71457C8.0401 6.73414 6.43825 6.73414 5.45408 7.71457L4.85876 8.30763L6.0494 9.49375L6.64471 8.90069C6.97334 8.57331 7.50672 8.57331 7.83535 8.90069L8.43066 9.49375L7.83535 10.0868C6.85118 11.0672 6.85118 12.663 7.83535 13.6434L8.43066 14.2365L6.05112 16.607L8.43066 18.9775L9.6213 17.7914L8.43066 16.6053L9.6213 15.4192L12.0008 17.7897L14.3804 15.4192L15.571 16.6053L14.3804 17.7914L15.571 18.9775L17.9506 16.607L15.571 14.2365L16.1663 13.6434C17.1505 12.663 17.1505 11.0672 16.1663 10.0868L15.571 9.49375L16.1663 8.90069C16.495 8.57331 17.0283 8.57331 17.357 8.90069H17.3553ZM11.4055 8.90069C11.7342 8.57331 12.2675 8.57331 12.5962 8.90069L13.1915 9.49375L12.0008 10.6799L10.8102 9.49375L11.4055 8.90069ZM9.02598 12.4573C8.69735 12.1299 8.69735 11.5986 9.02598 11.2712L9.6213 10.6782L10.8119 11.8643L9.6213 13.0504L9.02598 12.4573ZM12.0008 15.4209L10.8102 14.2348L12.0008 13.0487L13.1915 14.2348L12.0008 15.4209ZM14.9757 11.2712C15.3043 11.5986 15.3043 12.1299 14.9757 12.4573L14.3804 13.0504L13.1898 11.8643L14.3804 10.6782L14.9757 11.2712Z" fill="#EFEB00"/>
</g>
<defs>
<clipPath id="clip0_3604_49058">
<rect width="24" height="24" fill="white" transform="translate(0 0.430054)"/>
</clipPath>
</defs>
</svg>
