<svg width="41" height="41" viewBox="0 0 41 41" fill="none" xmlns="http://www.w3.org/2000/svg">
<rect x="0.583344" y="0.642578" width="39.5" height="39.5" rx="5.75" fill="#2A2D31"/>
<rect x="0.583344" y="0.642578" width="39.5" height="39.5" rx="5.75" stroke="url(#paint0_linear_2596_57975)" stroke-width="0.5"/>
<path d="M13.0374 32.1631C11.999 32.1631 11.2184 31.9053 10.6956 31.3896C10.18 30.874 9.92221 30.1077 9.92221 29.0908V18.6279C9.92221 17.6038 10.18 16.8376 10.6956 16.3291C11.2184 15.8135 11.999 15.5557 13.0374 15.5557H28.0658C29.097 15.5557 29.874 15.8135 30.3968 16.3291C30.9196 16.8447 31.181 17.611 31.181 18.6279V29.0908C31.181 30.1077 30.9196 30.874 30.3968 31.3896C29.874 31.9053 29.097 32.1631 28.0658 32.1631H13.0374ZM13.0589 30.6807H28.0335C28.5563 30.6807 28.9609 30.541 29.2474 30.2617C29.541 29.9824 29.6878 29.5671 29.6878 29.0156V18.7031C29.6878 18.1517 29.541 17.7363 29.2474 17.457C28.9609 17.1706 28.5563 17.0273 28.0335 17.0273H13.0589C12.529 17.0273 12.1208 17.1706 11.8343 17.457C11.555 17.7363 11.4154 18.1517 11.4154 18.7031V29.0156C11.4154 29.5671 11.555 29.9824 11.8343 30.2617C12.1208 30.541 12.529 30.6807 13.0589 30.6807ZM12.0814 13.8691C12.1458 13.4466 12.2891 13.1243 12.5111 12.9023C12.7331 12.6732 13.0733 12.5586 13.5316 12.5586H27.5716C28.03 12.5586 28.3701 12.6732 28.5921 12.9023C28.8141 13.1243 28.9609 13.4466 29.0326 13.8691H12.0814ZM14.1439 11.1406C14.1725 10.7467 14.2979 10.4495 14.5199 10.249C14.749 10.0413 15.0713 9.9375 15.4867 9.9375H25.6165C26.0391 9.9375 26.3613 10.0413 26.5833 10.249C26.8125 10.4495 26.9378 10.7467 26.9593 11.1406H14.1439ZM14.2083 31.4219C14.3372 30.7845 14.5879 30.1901 14.9603 29.6387C15.3327 29.0872 15.8018 28.6074 16.3675 28.1992C16.9333 27.791 17.5706 27.4759 18.2796 27.2539C18.9958 27.0247 19.7585 26.9102 20.5677 26.9102C21.3698 26.9102 22.1253 27.0247 22.8343 27.2539C23.5505 27.4759 24.1914 27.791 24.7572 28.1992C25.3301 28.6074 25.8027 29.0872 26.1751 29.6387C26.5475 30.1901 26.7946 30.7845 26.9164 31.4219H14.2083ZM20.5677 25.3633C19.9805 25.3561 19.4505 25.2057 18.9779 24.9121C18.5052 24.6113 18.1292 24.2031 17.8499 23.6875C17.5706 23.1719 17.4274 22.5882 17.4203 21.9365C17.4203 21.3206 17.5599 20.7585 17.8392 20.25C18.1185 19.7415 18.4945 19.3333 18.9671 19.0254C19.447 18.7174 19.9805 18.5635 20.5677 18.5635C21.1478 18.5635 21.6742 18.7174 22.1468 19.0254C22.6266 19.3333 23.0062 19.7415 23.2855 20.25C23.5648 20.7585 23.7044 21.3206 23.7044 21.9365C23.7044 22.5882 23.5648 23.1755 23.2855 23.6982C23.0062 24.221 22.6266 24.6328 22.1468 24.9336C21.6742 25.2272 21.1478 25.3704 20.5677 25.3633Z" fill="#EFEB00"/>
<defs>
<linearGradient id="paint0_linear_2596_57975" x1="5.42686" y1="-11.5165" x2="20.3333" y2="40.3926" gradientUnits="userSpaceOnUse">
<stop stop-color="#CECB16"/>
<stop offset="1" stop-color="#1B1D20" stop-opacity="0"/>
</linearGradient>
</defs>
</svg>
