<svg width="100" height="100" viewBox="0 0 100 100" fill="none" xmlns="http://www.w3.org/2000/svg">
<g filter="url(#filter0_d_2301_6860)">
<circle opacity="0.1" cx="50" cy="48" r="32" fill="#3888FF"/>
<circle cx="50" cy="48" r="31.5" stroke="url(#paint0_radial_2301_6860)"/>
<path d="M33.7757 45.9297C33.4806 45.6345 33.333 45.2917 33.333 44.901C33.3417 44.5104 33.5023 44.1632 33.8148 43.8594L38.2939 39.3932C38.8321 38.8637 39.392 38.5989 39.9736 38.5989C40.5639 38.5903 41.1281 38.855 41.6663 39.3932L46.1455 43.8594C46.458 44.1632 46.6143 44.5104 46.6143 44.901C46.6143 45.2917 46.4667 45.6345 46.1715 45.9297C45.8677 46.2335 45.5248 46.3811 45.1429 46.3724C44.761 46.3637 44.4137 46.2118 44.1012 45.9167L43.1768 45.0052L41.4189 43.0391V56.2292C41.4189 56.8281 41.5709 57.2752 41.8747 57.5703C42.1785 57.8568 42.6169 58 43.1898 58H52.7992C53.2679 58 53.6368 58.1302 53.9059 58.3906C54.1837 58.651 54.3226 59.0026 54.3226 59.4453C54.3313 59.888 54.1967 60.2396 53.9189 60.5C53.6412 60.7604 53.2679 60.8906 52.7992 60.8906H42.9424C41.5014 60.8906 40.4033 60.5174 39.6481 59.7708C38.9016 59.033 38.5283 57.9522 38.5283 56.5286V43.0651L36.7705 45.0052L35.846 45.9167C35.5422 46.2118 35.195 46.3637 34.8044 46.3724C34.4224 46.3811 34.0795 46.2335 33.7757 45.9297ZM45.6637 37.7786C45.6551 37.3446 45.7896 36.9974 46.0674 36.737C46.3538 36.4766 46.7314 36.3463 47.2002 36.3463H57.057C58.4979 36.3463 59.5917 36.7196 60.3382 37.4661C61.0847 38.204 61.458 39.2847 61.458 40.7083V54.1719L63.2158 52.2187L64.1403 51.3203C64.4441 51.0165 64.787 50.8602 65.1689 50.8516C65.5596 50.8429 65.9068 50.9904 66.2106 51.2943C66.5057 51.5981 66.649 51.9453 66.6403 52.3359C66.6403 52.7179 66.4884 53.0651 66.1846 53.3776L61.7054 57.8307C61.1672 58.3689 60.603 58.638 60.0127 58.638C59.4224 58.638 58.8582 58.3689 58.32 57.8307L53.8408 53.3776C53.5283 53.0651 53.3721 52.7179 53.3721 52.3359C53.3721 51.9453 53.5196 51.5981 53.8148 51.2943C54.1186 50.9904 54.4615 50.8429 54.8434 50.8516C55.2254 50.8602 55.5726 51.0165 55.8851 51.3203L56.8096 52.2187L58.5674 54.1849V41.0078C58.5674 40.4088 58.4155 39.9661 58.1117 39.6797C57.8165 39.3845 57.3825 39.237 56.8096 39.237H47.2002C46.7314 39.237 46.3582 39.1068 46.0804 38.8463C45.8026 38.5859 45.6637 38.23 45.6637 37.7786Z" fill="#3888FF"/>
</g>
<defs>
<filter id="filter0_d_2301_6860" x="0" y="0" width="100" height="100" filterUnits="userSpaceOnUse" color-interpolation-filters="sRGB">
<feFlood flood-opacity="0" result="BackgroundImageFix"/>
<feColorMatrix in="SourceAlpha" type="matrix" values="0 0 0 0 0 0 0 0 0 0 0 0 0 0 0 0 0 0 127 0" result="hardAlpha"/>
<feMorphology radius="6" operator="dilate" in="SourceAlpha" result="effect1_dropShadow_2301_6860"/>
<feOffset dy="2"/>
<feGaussianBlur stdDeviation="6"/>
<feComposite in2="hardAlpha" operator="out"/>
<feColorMatrix type="matrix" values="0 0 0 0 0 0 0 0 0 0 0 0 0 0 0 0 0 0 0.2 0"/>
<feBlend mode="multiply" in2="BackgroundImageFix" result="effect1_dropShadow_2301_6860"/>
<feBlend mode="normal" in="SourceGraphic" in2="effect1_dropShadow_2301_6860" result="shape"/>
</filter>
<radialGradient id="paint0_radial_2301_6860" cx="0" cy="0" r="1" gradientUnits="userSpaceOnUse" gradientTransform="translate(31 23) rotate(67.1663) scale(61.8466)">
<stop stop-color="#589AFC"/>
<stop offset="1" stop-color="#264574"/>
</radialGradient>
</defs>
</svg>
