<svg width="180" height="40" viewBox="0 0 180 40" fill="none" xmlns="http://www.w3.org/2000/svg">
<rect x="0.5" width="179" height="40" rx="8" fill="#105D27" fill-opacity="0.2"/>
<g opacity="0.2">
<rect x="7.25" y="6.75" width="26.5" height="26.5" rx="13.25" stroke="#40D86E" stroke-width="1.5"/>
</g>
<g opacity="0.5">
<rect x="10.25" y="9.75" width="20.5" height="20.5" rx="10.25" stroke="#40D86E" stroke-width="1.5"/>
</g>
<path fill-rule="evenodd" clip-rule="evenodd" d="M17.5 27.6484C18.4844 28.0755 19.5339 28.2891 20.6484 28.2891C21.763 28.2891 22.8125 28.0755 23.7969 27.6484C24.7812 27.2266 25.6458 26.6406 26.3906 25.8906C27.1406 25.1406 27.7292 24.276 28.1562 23.2969C28.5833 22.3125 28.7969 21.2604 28.7969 20.1406C28.7969 19.026 28.5833 17.9792 28.1562 17C27.7292 16.0156 27.1406 15.1484 26.3906 14.3984C25.6458 13.6484 24.7786 13.0625 23.7891 12.6406C22.8047 12.2135 21.7552 12 20.6406 12C19.526 12 18.4766 12.2135 17.4922 12.6406C16.5078 13.0625 15.6406 13.6484 14.8906 14.3984C14.1458 15.1484 13.5599 16.0156 13.1328 17C12.7109 17.9792 12.5 19.026 12.5 20.1406C12.5 21.2604 12.7109 22.3125 13.1328 23.2969C13.5599 24.276 14.1484 25.1406 14.8984 25.8906C15.6484 26.6406 16.5156 27.2266 17.5 27.6484ZM19.8047 23.8516C19.6536 23.8516 19.5156 23.8177 19.3906 23.75C19.2708 23.6823 19.1562 23.5833 19.0469 23.4531L17.2422 21.2656C17.0964 21.0833 17.0234 20.8984 17.0234 20.7109C17.0234 20.5026 17.0964 20.3255 17.2422 20.1797C17.388 20.0339 17.5625 19.9609 17.7656 19.9609C17.8906 19.9609 18.0026 19.987 18.1016 20.0391C18.2005 20.0911 18.2995 20.1771 18.3984 20.2969L19.7891 22.0469L22.75 17.2734C22.9271 16.9922 23.1484 16.8516 23.4141 16.8516C23.612 16.8516 23.7891 16.9167 23.9453 17.0469C24.1016 17.1771 24.1797 17.3464 24.1797 17.5547C24.1797 17.6432 24.1589 17.7344 24.1172 17.8281C24.0807 17.9219 24.0339 18.013 23.9766 18.1016L20.5469 23.4453C20.3646 23.7161 20.1172 23.8516 19.8047 23.8516Z" fill="#40D86E"/>
<path d="M42.3864 26H40.9091L45.1818 14.3636H46.6364L50.9091 26H49.4318L45.9545 16.2045H45.8636L42.3864 26ZM42.9318 21.4545H48.8864V22.7045H42.9318V21.4545ZM55.8352 26.1818C55.108 26.1818 54.4659 25.9981 53.9091 25.6307C53.3523 25.2595 52.9167 24.7367 52.6023 24.0625C52.2879 23.3845 52.1307 22.5833 52.1307 21.6591C52.1307 20.7424 52.2879 19.947 52.6023 19.2727C52.9167 18.5985 53.3542 18.0777 53.9148 17.7102C54.4754 17.3428 55.1231 17.1591 55.858 17.1591C56.4261 17.1591 56.875 17.2538 57.2045 17.4432C57.5379 17.6288 57.7917 17.8409 57.9659 18.0795C58.1439 18.3144 58.2822 18.5076 58.3807 18.6591H58.4943V14.3636H59.8352V26H58.5398V24.6591H58.3807C58.2822 24.8182 58.142 25.0189 57.9602 25.2614C57.7784 25.5 57.5189 25.714 57.1818 25.9034C56.8447 26.089 56.3958 26.1818 55.8352 26.1818ZM56.017 24.9773C56.5549 24.9773 57.0095 24.8371 57.3807 24.5568C57.7519 24.2727 58.0341 23.8807 58.2273 23.3807C58.4205 22.8769 58.517 22.2955 58.517 21.6364C58.517 20.9848 58.4223 20.4148 58.233 19.9261C58.0436 19.4337 57.7633 19.0511 57.392 18.7784C57.0208 18.5019 56.5625 18.3636 56.017 18.3636C55.4489 18.3636 54.9754 18.5095 54.5966 18.8011C54.2216 19.089 53.9394 19.4811 53.75 19.9773C53.5644 20.4697 53.4716 21.0227 53.4716 21.6364C53.4716 22.2576 53.5663 22.822 53.7557 23.3295C53.9489 23.8333 54.233 24.2348 54.608 24.5341C54.9867 24.8295 55.4564 24.9773 56.017 24.9773ZM65.7727 26.1818C65.0455 26.1818 64.4034 25.9981 63.8466 25.6307C63.2898 25.2595 62.8542 24.7367 62.5398 24.0625C62.2254 23.3845 62.0682 22.5833 62.0682 21.6591C62.0682 20.7424 62.2254 19.947 62.5398 19.2727C62.8542 18.5985 63.2917 18.0777 63.8523 17.7102C64.4129 17.3428 65.0606 17.1591 65.7955 17.1591C66.3636 17.1591 66.8125 17.2538 67.142 17.4432C67.4754 17.6288 67.7292 17.8409 67.9034 18.0795C68.0814 18.3144 68.2197 18.5076 68.3182 18.6591H68.4318V14.3636H69.7727V26H68.4773V24.6591H68.3182C68.2197 24.8182 68.0795 25.0189 67.8977 25.2614C67.7159 25.5 67.4564 25.714 67.1193 25.9034C66.7822 26.089 66.3333 26.1818 65.7727 26.1818ZM65.9545 24.9773C66.4924 24.9773 66.947 24.8371 67.3182 24.5568C67.6894 24.2727 67.9716 23.8807 68.1648 23.3807C68.358 22.8769 68.4545 22.2955 68.4545 21.6364C68.4545 20.9848 68.3598 20.4148 68.1705 19.9261C67.9811 19.4337 67.7008 19.0511 67.3295 18.7784C66.9583 18.5019 66.5 18.3636 65.9545 18.3636C65.3864 18.3636 64.9129 18.5095 64.5341 18.8011C64.1591 19.089 63.8769 19.4811 63.6875 19.9773C63.5019 20.4697 63.4091 21.0227 63.4091 21.6364C63.4091 22.2576 63.5038 22.822 63.6932 23.3295C63.8864 23.8333 64.1705 24.2348 64.5455 24.5341C64.9242 24.8295 65.3939 24.9773 65.9545 24.9773ZM72.4148 26V17.2727H73.7102V18.5909H73.8011C73.9602 18.1591 74.2481 17.8087 74.6648 17.5398C75.0814 17.2708 75.5511 17.1364 76.0739 17.1364C76.1723 17.1364 76.2955 17.1383 76.4432 17.142C76.5909 17.1458 76.7027 17.1515 76.7784 17.1591V18.5227C76.733 18.5114 76.6288 18.4943 76.4659 18.4716C76.3068 18.4451 76.1383 18.4318 75.9602 18.4318C75.536 18.4318 75.1572 18.5208 74.8239 18.6989C74.4943 18.8731 74.233 19.1155 74.0398 19.4261C73.8504 19.733 73.7557 20.0833 73.7557 20.4773V26H72.4148ZM81.7614 26.1818C80.9205 26.1818 80.1951 25.9962 79.5852 25.625C78.9792 25.25 78.5114 24.7273 78.1818 24.0568C77.8561 23.3826 77.6932 22.5985 77.6932 21.7045C77.6932 20.8106 77.8561 20.0227 78.1818 19.3409C78.5114 18.6553 78.9697 18.1212 79.5568 17.7386C80.1477 17.3523 80.8371 17.1591 81.625 17.1591C82.0795 17.1591 82.5284 17.2348 82.9716 17.3864C83.4148 17.5379 83.8182 17.7841 84.1818 18.125C84.5455 18.4621 84.8352 18.9091 85.0511 19.4659C85.267 20.0227 85.375 20.7083 85.375 21.5227V22.0909H78.6477V20.9318H84.0114C84.0114 20.4394 83.9129 20 83.7159 19.6136C83.5227 19.2273 83.2462 18.9223 82.8864 18.6989C82.5303 18.4754 82.1098 18.3636 81.625 18.3636C81.0909 18.3636 80.6288 18.4962 80.2386 18.7614C79.8523 19.0227 79.5549 19.3636 79.3466 19.7841C79.1383 20.2045 79.0341 20.6553 79.0341 21.1364V21.9091C79.0341 22.5682 79.1477 23.1269 79.375 23.5852C79.6061 24.0398 79.9261 24.3864 80.3352 24.625C80.7443 24.8598 81.2197 24.9773 81.7614 24.9773C82.1136 24.9773 82.4318 24.928 82.7159 24.8295C83.0038 24.7273 83.2519 24.5758 83.4602 24.375C83.6686 24.1705 83.8295 23.9167 83.9432 23.6136L85.2386 23.9773C85.1023 24.4167 84.8731 24.803 84.5511 25.1364C84.2292 25.4659 83.8314 25.7235 83.358 25.9091C82.8845 26.0909 82.3523 26.1818 81.7614 26.1818ZM93.5966 19.2273L92.392 19.5682C92.3163 19.3674 92.2045 19.1723 92.0568 18.983C91.9129 18.7898 91.7159 18.6307 91.4659 18.5057C91.2159 18.3807 90.8958 18.3182 90.5057 18.3182C89.9716 18.3182 89.5265 18.4413 89.1705 18.6875C88.8182 18.9299 88.642 19.2386 88.642 19.6136C88.642 19.947 88.7633 20.2102 89.0057 20.4034C89.2481 20.5966 89.6269 20.7576 90.142 20.8864L91.4375 21.2045C92.2178 21.3939 92.7992 21.6837 93.1818 22.0739C93.5644 22.4602 93.7557 22.9583 93.7557 23.5682C93.7557 24.0682 93.6117 24.5152 93.3239 24.9091C93.0398 25.303 92.642 25.6136 92.1307 25.8409C91.6193 26.0682 91.0246 26.1818 90.3466 26.1818C89.4564 26.1818 88.7197 25.9886 88.1364 25.6023C87.553 25.2159 87.1837 24.6515 87.0284 23.9091L88.3011 23.5909C88.4223 24.0606 88.6515 24.4129 88.9886 24.6477C89.3295 24.8826 89.7746 25 90.3239 25C90.9489 25 91.4451 24.8674 91.8125 24.6023C92.1837 24.3333 92.3693 24.0114 92.3693 23.6364C92.3693 23.3333 92.2633 23.0795 92.0511 22.875C91.839 22.6667 91.5133 22.5114 91.0739 22.4091L89.6193 22.0682C88.8201 21.8788 88.233 21.5852 87.858 21.1875C87.4867 20.786 87.3011 20.2841 87.3011 19.6818C87.3011 19.1894 87.4394 18.7538 87.7159 18.375C87.9962 17.9962 88.3769 17.6989 88.858 17.483C89.3428 17.267 89.892 17.1591 90.5057 17.1591C91.3693 17.1591 92.0473 17.3485 92.5398 17.7273C93.036 18.1061 93.3883 18.6061 93.5966 19.2273ZM101.956 19.2273L100.751 19.5682C100.676 19.3674 100.564 19.1723 100.416 18.983C100.272 18.7898 100.075 18.6307 99.8253 18.5057C99.5753 18.3807 99.2552 18.3182 98.8651 18.3182C98.331 18.3182 97.8859 18.4413 97.5298 18.6875C97.1776 18.9299 97.0014 19.2386 97.0014 19.6136C97.0014 19.947 97.1226 20.2102 97.3651 20.4034C97.6075 20.5966 97.9863 20.7576 98.5014 20.8864L99.7969 21.2045C100.577 21.3939 101.159 21.6837 101.541 22.0739C101.924 22.4602 102.115 22.9583 102.115 23.5682C102.115 24.0682 101.971 24.5152 101.683 24.9091C101.399 25.303 101.001 25.6136 100.49 25.8409C99.9787 26.0682 99.384 26.1818 98.706 26.1818C97.8158 26.1818 97.0791 25.9886 96.4957 25.6023C95.9124 25.2159 95.5431 24.6515 95.3878 23.9091L96.6605 23.5909C96.7817 24.0606 97.0109 24.4129 97.348 24.6477C97.6889 24.8826 98.134 25 98.6832 25C99.3082 25 99.8045 24.8674 100.172 24.6023C100.543 24.3333 100.729 24.0114 100.729 23.6364C100.729 23.3333 100.623 23.0795 100.411 22.875C100.198 22.6667 99.8726 22.5114 99.4332 22.4091L97.9787 22.0682C97.1795 21.8788 96.5923 21.5852 96.2173 21.1875C95.8461 20.786 95.6605 20.2841 95.6605 19.6818C95.6605 19.1894 95.7988 18.7538 96.0753 18.375C96.3556 17.9962 96.7363 17.6989 97.2173 17.483C97.7022 17.267 98.2514 17.1591 98.8651 17.1591C99.7287 17.1591 100.407 17.3485 100.899 17.7273C101.395 18.1061 101.748 18.6061 101.956 19.2273ZM112.179 26.1818C111.361 26.1818 110.656 25.9886 110.065 25.6023C109.474 25.2159 109.02 24.6837 108.702 24.0057C108.384 23.3277 108.224 22.553 108.224 21.6818C108.224 20.7955 108.387 20.0133 108.713 19.3352C109.043 18.6534 109.501 18.1212 110.088 17.7386C110.679 17.3523 111.368 17.1591 112.156 17.1591C112.77 17.1591 113.323 17.2727 113.815 17.5C114.308 17.7273 114.711 18.0455 115.026 18.4545C115.34 18.8636 115.535 19.3409 115.611 19.8864H114.27C114.168 19.4886 113.94 19.1364 113.588 18.8295C113.24 18.5189 112.77 18.3636 112.179 18.3636C111.656 18.3636 111.198 18.5 110.804 18.7727C110.414 19.0417 110.109 19.4223 109.889 19.9148C109.673 20.4034 109.565 20.9773 109.565 21.6364C109.565 22.3106 109.671 22.8977 109.884 23.3977C110.099 23.8977 110.402 24.286 110.793 24.5625C111.187 24.839 111.649 24.9773 112.179 24.9773C112.527 24.9773 112.844 24.9167 113.128 24.7955C113.412 24.6742 113.652 24.5 113.849 24.2727C114.046 24.0455 114.187 23.7727 114.27 23.4545H115.611C115.535 23.9697 115.348 24.4337 115.048 24.8466C114.753 25.2557 114.361 25.5814 113.872 25.8239C113.387 26.0625 112.823 26.1818 112.179 26.1818ZM121.116 26.1818C120.329 26.1818 119.637 25.9943 119.043 25.6193C118.452 25.2443 117.99 24.7197 117.656 24.0455C117.327 23.3712 117.162 22.5833 117.162 21.6818C117.162 20.7727 117.327 19.9792 117.656 19.3011C117.99 18.6231 118.452 18.0966 119.043 17.7216C119.637 17.3466 120.329 17.1591 121.116 17.1591C121.904 17.1591 122.594 17.3466 123.185 17.7216C123.779 18.0966 124.241 18.6231 124.571 19.3011C124.904 19.9792 125.071 20.7727 125.071 21.6818C125.071 22.5833 124.904 23.3712 124.571 24.0455C124.241 24.7197 123.779 25.2443 123.185 25.6193C122.594 25.9943 121.904 26.1818 121.116 26.1818ZM121.116 24.9773C121.715 24.9773 122.207 24.8239 122.594 24.517C122.98 24.2102 123.266 23.8068 123.452 23.3068C123.637 22.8068 123.73 22.2652 123.73 21.6818C123.73 21.0985 123.637 20.5549 123.452 20.0511C123.266 19.5473 122.98 19.1402 122.594 18.8295C122.207 18.5189 121.715 18.3636 121.116 18.3636C120.518 18.3636 120.026 18.5189 119.639 18.8295C119.253 19.1402 118.967 19.5473 118.781 20.0511C118.596 20.5549 118.503 21.0985 118.503 21.6818C118.503 22.2652 118.596 22.8068 118.781 23.3068C118.967 23.8068 119.253 24.2102 119.639 24.517C120.026 24.8239 120.518 24.9773 121.116 24.9773ZM127.118 29.2727V17.2727H128.413V18.6591H128.572C128.671 18.5076 128.807 18.3144 128.982 18.0795C129.16 17.8409 129.413 17.6288 129.743 17.4432C130.076 17.2538 130.527 17.1591 131.095 17.1591C131.83 17.1591 132.478 17.3428 133.038 17.7102C133.599 18.0777 134.036 18.5985 134.351 19.2727C134.665 19.947 134.822 20.7424 134.822 21.6591C134.822 22.5833 134.665 23.3845 134.351 24.0625C134.036 24.7367 133.601 25.2595 133.044 25.6307C132.487 25.9981 131.845 26.1818 131.118 26.1818C130.557 26.1818 130.108 26.089 129.771 25.9034C129.434 25.714 129.175 25.5 128.993 25.2614C128.811 25.0189 128.671 24.8182 128.572 24.6591H128.459V29.2727H127.118ZM128.436 21.6364C128.436 22.2955 128.533 22.8769 128.726 23.3807C128.919 23.8807 129.201 24.2727 129.572 24.5568C129.944 24.8371 130.398 24.9773 130.936 24.9773C131.497 24.9773 131.964 24.8295 132.339 24.5341C132.718 24.2348 133.002 23.8333 133.192 23.3295C133.385 22.822 133.482 22.2576 133.482 21.6364C133.482 21.0227 133.387 20.4697 133.197 19.9773C133.012 19.4811 132.73 19.089 132.351 18.8011C131.976 18.5095 131.504 18.3636 130.936 18.3636C130.391 18.3636 129.932 18.5019 129.561 18.7784C129.19 19.0511 128.91 19.4337 128.72 19.9261C128.531 20.4148 128.436 20.9848 128.436 21.6364ZM136.868 26V17.2727H138.209V26H136.868ZM137.55 15.8182C137.288 15.8182 137.063 15.7292 136.874 15.5511C136.688 15.3731 136.595 15.1591 136.595 14.9091C136.595 14.6591 136.688 14.4451 136.874 14.267C137.063 14.089 137.288 14 137.55 14C137.811 14 138.035 14.089 138.22 14.267C138.41 14.4451 138.504 14.6591 138.504 14.9091C138.504 15.1591 138.41 15.3731 138.22 15.5511C138.035 15.7292 137.811 15.8182 137.55 15.8182ZM144.324 26.1818C143.483 26.1818 142.758 25.9962 142.148 25.625C141.542 25.25 141.074 24.7273 140.744 24.0568C140.419 23.3826 140.256 22.5985 140.256 21.7045C140.256 20.8106 140.419 20.0227 140.744 19.3409C141.074 18.6553 141.532 18.1212 142.119 17.7386C142.71 17.3523 143.4 17.1591 144.188 17.1591C144.642 17.1591 145.091 17.2348 145.534 17.3864C145.977 17.5379 146.381 17.7841 146.744 18.125C147.108 18.4621 147.398 18.9091 147.614 19.4659C147.83 20.0227 147.938 20.7083 147.938 21.5227V22.0909H141.21V20.9318H146.574C146.574 20.4394 146.475 20 146.278 19.6136C146.085 19.2273 145.809 18.9223 145.449 18.6989C145.093 18.4754 144.672 18.3636 144.188 18.3636C143.653 18.3636 143.191 18.4962 142.801 18.7614C142.415 19.0227 142.117 19.3636 141.909 19.7841C141.701 20.2045 141.597 20.6553 141.597 21.1364V21.9091C141.597 22.5682 141.71 23.1269 141.938 23.5852C142.169 24.0398 142.489 24.3864 142.898 24.625C143.307 24.8598 143.782 24.9773 144.324 24.9773C144.676 24.9773 144.994 24.928 145.278 24.8295C145.566 24.7273 145.814 24.5758 146.023 24.375C146.231 24.1705 146.392 23.9167 146.506 23.6136L147.801 23.9773C147.665 24.4167 147.436 24.803 147.114 25.1364C146.792 25.4659 146.394 25.7235 145.92 25.9091C145.447 26.0909 144.915 26.1818 144.324 26.1818ZM153.273 26.1818C152.545 26.1818 151.903 25.9981 151.347 25.6307C150.79 25.2595 150.354 24.7367 150.04 24.0625C149.725 23.3845 149.568 22.5833 149.568 21.6591C149.568 20.7424 149.725 19.947 150.04 19.2727C150.354 18.5985 150.792 18.0777 151.352 17.7102C151.913 17.3428 152.561 17.1591 153.295 17.1591C153.864 17.1591 154.313 17.2538 154.642 17.4432C154.975 17.6288 155.229 17.8409 155.403 18.0795C155.581 18.3144 155.72 18.5076 155.818 18.6591H155.932V14.3636H157.273V26H155.977V24.6591H155.818C155.72 24.8182 155.58 25.0189 155.398 25.2614C155.216 25.5 154.956 25.714 154.619 25.9034C154.282 26.089 153.833 26.1818 153.273 26.1818ZM153.455 24.9773C153.992 24.9773 154.447 24.8371 154.818 24.5568C155.189 24.2727 155.472 23.8807 155.665 23.3807C155.858 22.8769 155.955 22.2955 155.955 21.6364C155.955 20.9848 155.86 20.4148 155.67 19.9261C155.481 19.4337 155.201 19.0511 154.83 18.7784C154.458 18.5019 154 18.3636 153.455 18.3636C152.886 18.3636 152.413 18.5095 152.034 18.8011C151.659 19.089 151.377 19.4811 151.188 19.9773C151.002 20.4697 150.909 21.0227 150.909 21.6364C150.909 22.2576 151.004 22.822 151.193 23.3295C151.386 23.8333 151.67 24.2348 152.045 24.5341C152.424 24.8295 152.894 24.9773 153.455 24.9773ZM161.688 14.3636L161.574 22.7273H160.256L160.142 14.3636H161.688ZM160.915 26.0909C160.634 26.0909 160.394 25.9905 160.193 25.7898C159.992 25.589 159.892 25.3485 159.892 25.0682C159.892 24.7879 159.992 24.5473 160.193 24.3466C160.394 24.1458 160.634 24.0455 160.915 24.0455C161.195 24.0455 161.436 24.1458 161.636 24.3466C161.837 24.5473 161.938 24.7879 161.938 25.0682C161.938 25.2538 161.89 25.4242 161.795 25.5795C161.705 25.7348 161.581 25.8598 161.426 25.9545C161.275 26.0455 161.104 26.0909 160.915 26.0909Z" fill="#40D86E"/>
</svg>
