<svg width="20" height="20" viewBox="0 0 20 20" fill="none" xmlns="http://www.w3.org/2000/svg">
<path d="M10.0234 14.1797C9.71615 14.1797 9.4349 14.0547 9.17969 13.8047L3.29688 7.78906C3.19792 7.6849 3.1224 7.57292 3.07031 7.45312C3.02344 7.33333 3 7.20052 3 7.05469C3 6.86198 3.04688 6.6849 3.14062 6.52344C3.23438 6.36198 3.35938 6.23438 3.51562 6.14062C3.67708 6.04688 3.85417 6 4.04688 6C4.33854 6 4.59375 6.10677 4.8125 6.32031L10.3828 12.0391H9.67188L15.2266 6.32031C15.4453 6.10677 15.7005 6 15.9922 6C16.1849 6 16.3594 6.04688 16.5156 6.14062C16.6771 6.23438 16.8047 6.36198 16.8984 6.52344C16.9922 6.6849 17.0391 6.86198 17.0391 7.05469C17.0391 7.34115 16.9375 7.58333 16.7344 7.78125L10.8672 13.8047C10.7422 13.9297 10.6094 14.0234 10.4688 14.0859C10.3333 14.1432 10.1849 14.1745 10.0234 14.1797Z" fill="#B3B7BF"/>
</svg>
