<svg width="40" height="40" viewBox="0 0 40 40" fill="none" xmlns="http://www.w3.org/2000/svg">
<rect width="40" height="40" rx="8" fill="#EFEB00"/>
<path d="M29.3742 13.2865L30.3924 14.3008L32.4289 12.2721L31.4106 11.2577C29.7273 9.58076 26.9875 9.58076 25.3042 11.2577L24.2859 12.2721L23.2677 11.2577C21.5844 9.58076 18.8445 9.58076 17.1612 11.2577L16.143 12.2721L15.1247 11.2577C13.4414 9.58076 10.7016 9.58076 9.01824 11.2577L8 12.2721L10.0365 14.3008L11.0547 13.2865C11.6168 12.7265 12.5291 12.7265 13.0912 13.2865L14.1094 14.3008L13.0912 15.3152C11.4079 16.9922 11.4079 19.7216 13.0912 21.3985L14.1094 22.4129L10.0394 26.4675L14.1094 30.522L16.1459 28.4933L14.1094 26.4645L16.1459 24.4358L20.2159 28.4904L24.2859 24.4358L26.3224 26.4645L24.2859 28.4933L26.3224 30.522L30.3924 26.4675L26.3224 22.4129L27.3406 21.3985C29.024 19.7216 29.024 16.9922 27.3406 15.3152L26.3224 14.3008L27.3406 13.2865C27.9027 12.7265 28.815 12.7265 29.3771 13.2865H29.3742ZM19.1977 13.2865C19.7598 12.7265 20.6721 12.7265 21.2341 13.2865L22.2524 14.3008L20.2159 16.3296L18.1794 14.3008L19.1977 13.2865ZM15.1277 19.3698C14.5656 18.8098 14.5656 17.901 15.1277 17.341L16.1459 16.3267L18.1824 18.3554L16.1459 20.3842L15.1277 19.3698ZM20.2159 24.4387L18.1794 22.41L20.2159 20.3812L22.2524 22.41L20.2159 24.4387ZM25.3042 17.341C25.8662 17.901 25.8662 18.8098 25.3042 19.3698L24.2859 20.3842L22.2494 18.3554L24.2859 16.3267L25.3042 17.341Z" fill="#191B1E"/>
</svg>
