<svg width="24" height="24" viewBox="0 0 24 24" fill="none" xmlns="http://www.w3.org/2000/svg">
<path d="M19.0264 5.17279L12.9365 9.69586L14.0627 7.02731L19.0264 5.17279Z" fill="#E2761B" stroke="#E2761B" stroke-width="0.0612053" stroke-linecap="round" stroke-linejoin="round"/>
<path d="M4.96736 5.17279L11.0083 9.7387L9.93723 7.02731L4.96736 5.17279ZM16.8351 15.6573L15.2131 18.1422L18.6835 19.097L19.6811 15.7123L16.8351 15.6573ZM4.32471 15.7123L5.31623 19.097L8.78657 18.1422L7.16463 15.6573L4.32471 15.7123Z" fill="#E4761B" stroke="#E4761B" stroke-width="0.0612053" stroke-linecap="round" stroke-linejoin="round"/>
<path d="M8.59107 11.4586L7.62402 12.9214L11.0699 13.0744L10.9475 9.37149L8.59107 11.4586ZM15.4032 11.4586L13.0162 9.32864L12.9366 13.0744L16.3764 12.9214L15.4032 11.4586ZM8.78692 18.1422L10.8557 17.1323L9.06847 15.7368L8.78692 18.1422ZM13.1386 17.1323L15.2135 18.1422L14.9258 15.7368L13.1386 17.1323Z" fill="#E4761B" stroke="#E4761B" stroke-width="0.0612053" stroke-linecap="round" stroke-linejoin="round"/>
<path d="M15.2132 18.1422L13.1383 17.1323L13.3036 18.4849L13.2852 19.0541L15.2132 18.1422ZM8.78662 18.1422L10.7146 19.0541L10.7023 18.4849L10.8554 17.1323L8.78662 18.1422Z" fill="#D7C1B3" stroke="#D7C1B3" stroke-width="0.0612053" stroke-linecap="round" stroke-linejoin="round"/>
<path d="M10.7455 14.8432L9.01953 14.3352L10.2375 13.7783L10.7455 14.8432ZM13.2488 14.8432L13.7568 13.7783L14.9809 14.3352L13.2488 14.8432Z" fill="#233447" stroke="#233447" stroke-width="0.0612053" stroke-linecap="round" stroke-linejoin="round"/>
<path d="M8.78649 18.1422L9.08028 15.6573L7.16455 15.7123L8.78649 18.1422ZM14.9193 15.6573L15.213 18.1422L16.835 15.7123L14.9193 15.6573ZM16.3759 12.9214L12.9362 13.0744L13.2545 14.8432L13.7625 13.7783L14.9866 14.3352L16.3759 12.9214ZM9.01907 14.3352L10.2432 13.7783L10.7451 14.8432L11.0694 13.0744L7.62359 12.9214L9.01907 14.3352Z" fill="#CD6116" stroke="#CD6116" stroke-width="0.0612053" stroke-linecap="round" stroke-linejoin="round"/>
<path d="M7.62402 12.9214L9.06847 15.7368L9.0195 14.3352L7.62402 12.9214ZM14.987 14.3352L14.9258 15.7368L16.3764 12.9214L14.987 14.3352ZM11.0699 13.0744L10.7455 14.8432L11.1494 16.9303L11.2413 14.1822L11.0699 13.0744ZM12.9366 13.0744L12.7714 14.1761L12.8448 16.9303L13.2549 14.8432L12.9366 13.0744Z" fill="#E4751F" stroke="#E4751F" stroke-width="0.0612053" stroke-linecap="round" stroke-linejoin="round"/>
<path d="M13.2549 14.8432L12.8449 16.9303L13.1386 17.1323L14.9258 15.7368L14.987 14.3352L13.2549 14.8432ZM9.01953 14.3352L9.0685 15.7368L10.8557 17.1323L11.1495 16.9303L10.7455 14.8432L9.01953 14.3352Z" fill="#F6851B" stroke="#F6851B" stroke-width="0.0612053" stroke-linecap="round" stroke-linejoin="round"/>
<path d="M13.2852 19.0542L13.3036 18.4849L13.1506 18.3503H10.8431L10.7023 18.4849L10.7146 19.0542L8.78662 18.1422L9.45988 18.693L10.8248 19.6417H13.1689L14.5399 18.693L15.2132 18.1422L13.2852 19.0542Z" fill="#C0AD9E" stroke="#C0AD9E" stroke-width="0.0612053" stroke-linecap="round" stroke-linejoin="round"/>
<path d="M13.1386 17.1323L12.8448 16.9303H11.1494L10.8556 17.1323L10.7026 18.4849L10.8434 18.3503H13.1508L13.3039 18.4849L13.1386 17.1323Z" fill="#161616" stroke="#161616" stroke-width="0.0612053" stroke-linecap="round" stroke-linejoin="round"/>
<path d="M19.2834 9.98965L19.8036 7.49247L19.0263 5.17279L13.1384 9.54285L15.403 11.4586L18.604 12.395L19.314 11.5687L19.008 11.3484L19.4976 10.9016L19.1181 10.6078L19.6078 10.2345L19.2834 9.98965ZM4.19629 7.49247L4.71653 9.98965L4.38603 10.2345L4.87567 10.6078L4.50232 10.9016L4.99196 11.3484L4.68593 11.5687L5.38979 12.395L8.59083 11.4586L10.8554 9.54285L4.96748 5.17279L4.19629 7.49247Z" fill="#763D16" stroke="#763D16" stroke-width="0.0612053" stroke-linecap="round" stroke-linejoin="round"/>
<path d="M18.6039 12.395L15.4029 11.4586L16.376 12.9214L14.9255 15.7368L16.8351 15.7124H19.6811L18.6039 12.395ZM8.59071 11.4586L5.38968 12.395L4.32471 15.7124H7.16463L9.06812 15.7368L7.62367 12.9214L8.59071 11.4586ZM12.9363 13.0744L13.1383 9.54287L14.0686 7.02733H9.93723L10.8553 9.54287L11.0695 13.0744L11.143 14.1883L11.1491 16.9303H12.8445L12.8567 14.1883L12.9363 13.0744Z" fill="#F6851B" stroke="#F6851B" stroke-width="0.0612053" stroke-linecap="round" stroke-linejoin="round"/>
</svg>
