<svg width="20" height="20" viewBox="0 0 20 20" fill="none" xmlns="http://www.w3.org/2000/svg">
<path d="M3.27474 11.6146C2.76259 11.1025 2.50434 10.5838 2.5 10.0586C2.5 9.53347 2.75391 9.01698 3.26172 8.50917L8.51562 3.25526C9.02344 2.74745 9.53993 2.49571 10.0651 2.50006C10.5946 2.5044 11.1133 2.76047 11.6211 3.26828L16.849 8.49615C17.3611 9.0083 17.6194 9.52913 17.6237 10.0586C17.628 10.5838 17.3763 11.1003 16.8685 11.6081L11.6146 16.862C11.1068 17.3698 10.5881 17.6216 10.0586 17.6172C9.53342 17.6129 9.01693 17.3568 8.50911 16.849L3.27474 11.6146ZM4.38802 10.6771L9.4401 15.7357C9.6441 15.9397 9.84809 16.0417 10.0521 16.0417C10.2604 16.0461 10.4731 15.9419 10.6901 15.7292L15.7357 10.6836C15.9484 10.471 16.0525 10.2605 16.0482 10.0521C16.0438 9.8438 15.9397 9.63764 15.7357 9.43365L10.6836 4.38157C10.4796 4.17757 10.2734 4.07558 10.0651 4.07558C9.85677 4.07124 9.64627 4.1754 9.43359 4.38808L4.39453 9.43365C4.17752 9.64632 4.07118 9.85683 4.07552 10.0652C4.07986 10.2692 4.18403 10.4731 4.38802 10.6771Z" fill="#B3B7BF"/>
</svg>
