<svg width="25" height="24" viewBox="0 0 25 24" fill="none" xmlns="http://www.w3.org/2000/svg">
<path d="M7.05556 4C8.53556 4.0002 9.96706 4.52779 11.0932 5.4881C12.2194 6.44842 12.9665 7.77861 13.2004 9.24C13.736 8.70504 14.3718 8.28092 15.0714 7.99189C15.7711 7.70286 16.5208 7.55458 17.2778 7.55556H19.2778H20.5778C20.9644 7.55556 21.2778 7.86896 21.2778 8.25556V9.77778C21.2778 11.3101 20.6691 12.7797 19.5855 13.8633C18.502 14.9468 17.0324 15.5556 15.5 15.5556H13.2778V19.1111C13.2778 19.602 12.8798 20 12.3889 20C11.898 20 11.5 19.602 11.5 19.1111V12.8889H9.72222C8.07199 12.8889 6.48934 12.2333 5.32245 11.0664C4.15555 9.89955 3.5 8.3169 3.5 6.66667V4.7C3.5 4.3134 3.8134 4 4.2 4H7.05556ZM19.5 9.33333H17.2778C16.2169 9.33333 15.1995 9.75476 14.4494 10.5049C13.6992 11.2551 13.2778 12.2725 13.2778 13.3333V13.7778H15.5C16.5609 13.7778 17.5783 13.3564 18.3284 12.6062C19.0786 11.8561 19.5 10.8386 19.5 9.77778V9.33333ZM7.05556 5.77778H5.27778V6.66667C5.27778 7.84541 5.74603 8.97587 6.57953 9.80936C7.41302 10.6429 8.54348 11.1111 9.72222 11.1111H11.5V10.2222C11.5 9.04348 11.0317 7.91302 10.1983 7.07953C9.36476 6.24603 8.2343 5.77778 7.05556 5.77778Z" fill="#EFEB00"/>
</svg>
