<svg width="24" height="24" viewBox="0 0 24 24" fill="none" xmlns="http://www.w3.org/2000/svg">
<path d="M3.92969 13.9376C3.3151 13.323 3.00521 12.7006 3 12.0704C3 11.4402 3.30469 10.8204 3.91406 10.211L10.2188 3.90632C10.8281 3.29694 11.4479 2.99486 12.0781 3.00007C12.7135 3.00527 13.3359 3.31257 13.9453 3.92194L20.2188 10.1954C20.8333 10.81 21.1432 11.435 21.1484 12.0704C21.1536 12.7006 20.8516 13.3204 20.2422 13.9298L13.9375 20.2344C13.3281 20.8438 12.7057 21.1459 12.0703 21.1407C11.4401 21.1355 10.8203 20.8282 10.2109 20.2188L3.92969 13.9376ZM5.26562 12.8126L11.3281 18.8829C11.5729 19.1277 11.8177 19.2501 12.0625 19.2501C12.3125 19.2553 12.5677 19.1303 12.8281 18.8751L18.8828 12.8204C19.138 12.5652 19.263 12.3126 19.2578 12.0626C19.2526 11.8126 19.1276 11.5652 18.8828 11.3204L12.8203 5.25788C12.5755 5.01309 12.3281 4.89069 12.0781 4.89069C11.8281 4.88548 11.5755 5.01048 11.3203 5.26569L5.27344 11.3204C5.01302 11.5756 4.88542 11.8282 4.89062 12.0782C4.89583 12.323 5.02083 12.5678 5.26562 12.8126Z" fill="#EFEB00"/>
</svg>
