<svg width="25" height="24" viewBox="0 0 25 24" fill="none" xmlns="http://www.w3.org/2000/svg">
<path d="M2.4375 12.0156C2.44271 11.8542 2.47396 11.7057 2.53125 11.5703C2.59375 11.4349 2.6875 11.3047 2.8125 11.1797L8.82812 5.29688C9.02604 5.09896 9.26823 5 9.55469 5C9.7526 5 9.92969 5.04688 10.0859 5.14062C10.2474 5.23438 10.375 5.36198 10.4688 5.52344C10.5677 5.67969 10.6172 5.85417 10.6172 6.04688C10.6172 6.33854 10.5078 6.59375 10.2891 6.8125L4.9375 12.0156L10.2891 17.2188C10.5078 17.4427 10.6172 17.6979 10.6172 17.9844C10.6172 18.1823 10.5677 18.3594 10.4688 18.5156C10.375 18.6719 10.2474 18.7969 10.0859 18.8906C9.92969 18.9844 9.7526 19.0312 9.55469 19.0312C9.26823 19.0312 9.02604 18.9323 8.82812 18.7344L2.8125 12.8516C2.68229 12.7266 2.58594 12.5964 2.52344 12.4609C2.46615 12.3203 2.4375 12.1719 2.4375 12.0156Z" fill="#E0E3E6"/>
<path d="M22.6172 12.0156C22.612 11.8542 22.5807 11.7057 22.5234 11.5703C22.4609 11.4349 22.3672 11.3047 22.2422 11.1797L16.2266 5.29688C16.0286 5.09896 15.7865 5 15.5 5C15.3021 5 15.125 5.04688 14.9688 5.14062C14.8073 5.23438 14.6797 5.36198 14.5859 5.52344C14.487 5.67969 14.4375 5.85417 14.4375 6.04688C14.4375 6.33854 14.5469 6.59375 14.7656 6.8125L20.1172 12.0156L14.7656 17.2188C14.5469 17.4427 14.4375 17.6979 14.4375 17.9844C14.4375 18.1823 14.487 18.3594 14.5859 18.5156C14.6797 18.6719 14.8073 18.7969 14.9688 18.8906C15.125 18.9844 15.3021 19.0312 15.5 19.0312C15.7865 19.0312 16.0286 18.9323 16.2266 18.7344L22.2422 12.8516C22.3724 12.7266 22.4688 12.5964 22.5312 12.4609C22.5885 12.3203 22.6172 12.1719 22.6172 12.0156Z" fill="#E0E3E6"/>
</svg>
