<svg width="25" height="24" viewBox="0 0 25 24" fill="none" xmlns="http://www.w3.org/2000/svg">
<path d="M6.14844 19.7422C5.28385 19.7422 4.625 19.5182 4.17188 19.0703C3.72396 18.6276 3.5 17.9792 3.5 17.125V7.60156C3.5 6.7526 3.71615 6.10677 4.14844 5.66406C4.58073 5.22135 5.17969 5 5.94531 5H8.14062C8.42188 5 8.66406 5.02083 8.86719 5.0625C9.07552 5.09896 9.26302 5.16146 9.42969 5.25C9.60156 5.33854 9.78385 5.45833 9.97656 5.60938L10.3984 5.95312C10.6276 6.13542 10.8438 6.26562 11.0469 6.34375C11.25 6.41667 11.4974 6.45312 11.7891 6.45312H18.8828C19.7422 6.45312 20.3958 6.67708 20.8438 7.125C21.2969 7.57292 21.5234 8.22396 21.5234 9.07812V17.125C21.5234 17.9792 21.3047 18.6276 20.8672 19.0703C20.4349 19.5182 19.8281 19.7422 19.0469 19.7422H6.14844ZM6.28906 18.0078H18.7344C19.0729 18.0078 19.3333 17.9219 19.5156 17.75C19.6979 17.5729 19.7891 17.3047 19.7891 16.9453V9.26562C19.7891 8.90104 19.6979 8.63281 19.5156 8.46094C19.3333 8.28385 19.0729 8.19531 18.7344 8.19531H11.3203C11.0391 8.19531 10.7943 8.17708 10.5859 8.14062C10.3828 8.09896 10.1927 8.03385 10.0156 7.94531C9.84375 7.85677 9.66406 7.73698 9.47656 7.58594L9.05469 7.24219C8.82552 7.05469 8.60938 6.92448 8.40625 6.85156C8.20833 6.77344 7.96615 6.73438 7.67969 6.73438H6.28125C5.94792 6.73438 5.6901 6.82552 5.50781 7.00781C5.32552 7.1849 5.23438 7.4401 5.23438 7.77344V16.9453C5.23438 17.3047 5.32292 17.5729 5.5 17.75C5.68229 17.9219 5.94531 18.0078 6.28906 18.0078ZM4.60156 11.2031V9.72656H20.4453V11.2031H4.60156Z" fill="#E0E3E6"/>
</svg>
