<svg width="24" height="24" viewBox="0 0 24 24" fill="none" xmlns="http://www.w3.org/2000/svg">
<rect x="0.375" y="0.375" width="23.25" height="23.25" rx="5.625" fill="#94979E" fill-opacity="0.16"/>
<rect x="0.375" y="0.375" width="23.25" height="23.25" rx="5.625" stroke="#3C3F43" stroke-width="0.75"/>
<path d="M5.92626 12.001C5.92626 11.8707 5.95882 11.7522 6.02394 11.6454C6.08907 11.5386 6.17503 11.4526 6.28184 11.3875C6.38864 11.3224 6.50457 11.2898 6.62961 11.2898L11.2913 11.2859L11.2913 6.62813C11.2887 6.50569 11.3199 6.39107 11.3851 6.28427C11.4554 6.17746 11.5427 6.09019 11.6469 6.02246C11.7537 5.95734 11.8722 5.92478 12.0024 5.92478C12.1301 5.92217 12.2473 5.95343 12.3541 6.01856C12.4635 6.08629 12.5508 6.17355 12.6159 6.28036C12.6837 6.38977 12.7175 6.507 12.7175 6.63204L12.7175 11.2898L17.3753 11.2898C17.5003 11.2898 17.6162 11.3224 17.723 11.3875C17.8298 11.4526 17.9158 11.5386 17.9809 11.6454C18.0461 11.7522 18.0773 11.872 18.0747 12.0049C18.0773 12.1325 18.0461 12.2497 17.9809 12.3565C17.9184 12.466 17.8325 12.5519 17.723 12.6144C17.6162 12.6796 17.5003 12.7121 17.3753 12.7121L12.7214 12.716L12.7136 17.3738C12.7136 17.4988 12.681 17.6148 12.6159 17.7216C12.5508 17.8284 12.4648 17.9143 12.358 17.9795C12.2512 18.0446 12.1327 18.0771 12.0024 18.0771C11.8722 18.0771 11.7537 18.0446 11.6469 17.9795C11.5401 17.9143 11.4541 17.8284 11.389 17.7216C11.3238 17.6148 11.2913 17.4988 11.2913 17.3738L11.2913 12.716L6.63352 12.716C6.50847 12.716 6.39255 12.6835 6.28575 12.6183C6.17894 12.5532 6.09167 12.466 6.02394 12.3565C5.95882 12.2497 5.92626 12.1312 5.92626 12.001Z" fill="#E0E3E6"/>
</svg>
