<svg width="24" height="24" viewBox="0 0 24 24" fill="none" xmlns="http://www.w3.org/2000/svg">
<path d="M8.05078 12.9768C7.8737 12.9768 7.72526 12.9169 7.60547 12.7971C7.48568 12.6773 7.42578 12.5289 7.42578 12.3518C7.42578 12.1747 7.48568 12.0289 7.60547 11.9143C7.72526 11.7945 7.8737 11.7346 8.05078 11.7346H11.3711V7.2346C11.3711 7.06273 11.431 6.9169 11.5508 6.7971C11.6706 6.67731 11.8164 6.61742 11.9883 6.61742C12.1654 6.61742 12.3138 6.67731 12.4336 6.7971C12.5534 6.9169 12.6133 7.06273 12.6133 7.2346V12.3518C12.6133 12.5289 12.5534 12.6773 12.4336 12.7971C12.3138 12.9169 12.1654 12.9768 11.9883 12.9768H8.05078ZM11.9961 20.0705C10.8919 20.0705 9.85286 19.8596 8.87891 19.4377C7.90495 19.0211 7.04557 18.4403 6.30078 17.6955C5.5612 16.9507 4.98047 16.0914 4.55859 15.1174C4.13672 14.1435 3.92578 13.1044 3.92578 12.0002C3.92578 10.8961 4.13672 9.857 4.55859 8.88304C4.98047 7.90908 5.5612 7.05231 6.30078 6.31273C7.04557 5.56794 7.90234 4.9846 8.87109 4.56273C9.84505 4.14085 10.8841 3.92992 11.9883 3.92992C13.0977 3.92992 14.1393 4.14085 15.1133 4.56273C16.0872 4.9846 16.9466 5.56794 17.6914 6.31273C18.4362 7.05231 19.0195 7.90908 19.4414 8.88304C19.8633 9.857 20.0742 10.8961 20.0742 12.0002C20.0742 13.1044 19.8633 14.1435 19.4414 15.1174C19.0195 16.0914 18.4362 16.9507 17.6914 17.6955C16.9466 18.4403 16.0872 19.0211 15.1133 19.4377C14.1393 19.8596 13.1003 20.0705 11.9961 20.0705ZM11.9961 18.4768C12.8971 18.4768 13.7383 18.3101 14.5195 17.9768C15.3008 17.6435 15.9883 17.1799 16.582 16.5862C17.1758 15.9924 17.6393 15.3049 17.9727 14.5237C18.306 13.7424 18.4727 12.9013 18.4727 12.0002C18.4727 11.1044 18.306 10.2659 17.9727 9.4846C17.6393 8.69815 17.1758 8.00804 16.582 7.41429C15.9883 6.82054 15.2982 6.357 14.5117 6.02367C13.7305 5.69033 12.8893 5.52367 11.9883 5.52367C11.0924 5.52367 10.2513 5.69033 9.46484 6.02367C8.68359 6.357 7.9987 6.82054 7.41016 7.41429C6.82161 8.00804 6.36068 8.69815 6.02734 9.4846C5.69401 10.2659 5.52734 11.1044 5.52734 12.0002C5.52734 12.9013 5.69401 13.7424 6.02734 14.5237C6.36068 15.3049 6.82161 15.9924 7.41016 16.5862C8.00391 17.1799 8.69141 17.6435 9.47266 17.9768C10.2591 18.3101 11.1003 18.4768 11.9961 18.4768Z" fill="#E0E3E6"/>
</svg>
