<svg width="33" height="32" viewBox="0 0 33 32" fill="none" xmlns="http://www.w3.org/2000/svg">
<rect x="1" y="0.5" width="31" height="31" rx="7.5" stroke="#61646B" stroke-opacity="0.3"/>
<path d="M10.7726 21.7274C10.6498 21.6047 10.5688 21.4622 10.5295 21.3002C10.4902 21.1381 10.4902 20.9761 10.5295 20.814C10.5688 20.6519 10.6473 20.512 10.7652 20.3941L15.1556 15.9963L10.7652 11.6059C10.6473 11.4929 10.5688 11.3554 10.5295 11.1934C10.4951 11.0264 10.4951 10.8619 10.5295 10.6998C10.5688 10.5378 10.6498 10.3953 10.7726 10.2726C10.8904 10.1498 11.0304 10.0688 11.1924 10.0295C11.3594 9.99018 11.5239 9.99018 11.686 10.0295C11.853 10.0688 11.9954 10.1473 12.1133 10.2652L16.5037 14.6556L20.8941 10.2652C21.012 10.1473 21.1519 10.0688 21.314 10.0295C21.4761 9.99018 21.6381 9.99018 21.8002 10.0295C21.9622 10.0688 22.1047 10.1522 22.2274 10.2799C22.3502 10.3978 22.4312 10.5378 22.4705 10.6998C22.5147 10.8619 22.5147 11.0239 22.4705 11.186C22.4312 11.3481 22.3527 11.488 22.2348 11.6059L17.8517 15.9963L22.2348 20.3941C22.3527 20.512 22.4312 20.6519 22.4705 20.814C22.5098 20.9761 22.5098 21.1381 22.4705 21.3002C22.4312 21.4622 22.3502 21.6047 22.2274 21.7274C22.1047 21.8502 21.9622 21.9312 21.8002 21.9705C21.6381 22.0098 21.4761 22.0098 21.314 21.9705C21.1519 21.9312 21.012 21.8527 20.8941 21.7348L16.5037 17.3444L12.1133 21.7348C11.9954 21.8527 11.8554 21.9312 11.6934 21.9705C11.5313 22.0098 11.3668 22.0098 11.1998 21.9705C11.0378 21.9312 10.8953 21.8502 10.7726 21.7274Z" fill="#B3B7BF"/>
</svg>
