<svg width="24" height="24" viewBox="0 0 24 24" fill="none" xmlns="http://www.w3.org/2000/svg">
<path d="M8.43164 7.00586V5.31738C8.43164 4.56087 8.62533 3.98665 9.0127 3.59473C9.40462 3.19824 9.97656 3 10.7285 3H13.2578C13.6771 3 14.0508 3.05924 14.3789 3.17773C14.707 3.29622 15.0033 3.49219 15.2676 3.76562L18.6445 7.2041C18.9225 7.49121 19.1185 7.79883 19.2324 8.12695C19.3464 8.45508 19.4033 8.85384 19.4033 9.32324V14.6416C19.4033 15.3936 19.2074 15.9678 18.8154 16.3643C18.4281 16.7607 17.8584 16.959 17.1064 16.959H15.7188V15.4346H16.9492C17.2591 15.4346 17.4915 15.3571 17.6465 15.2021C17.8014 15.0426 17.8789 14.8125 17.8789 14.5117V8.98828H15.001C14.5635 8.98828 14.224 8.86979 13.9824 8.63281C13.7454 8.39583 13.627 8.05631 13.627 7.61426V4.52441H10.8857C10.5713 4.52441 10.3366 4.60417 10.1816 4.76367C10.0312 4.91862 9.95605 5.14648 9.95605 5.44727V7.00586H8.43164ZM14.8438 7.44336C14.8438 7.56185 14.8688 7.64844 14.9189 7.70312C14.9736 7.75326 15.0579 7.77832 15.1719 7.77832H17.4824L14.8438 5.09863V7.44336ZM5 18.2168V8.89258C5 8.14062 5.19368 7.56869 5.58105 7.17676C5.97298 6.78027 6.54492 6.58203 7.29688 6.58203H9.65527C10.0882 6.58203 10.4482 6.6276 10.7354 6.71875C11.0225 6.8099 11.3096 7.00358 11.5967 7.2998L15.2539 11.0049C15.4499 11.2054 15.598 11.3991 15.6982 11.5859C15.8031 11.7728 15.8737 11.9801 15.9102 12.208C15.9512 12.4313 15.9717 12.7002 15.9717 13.0146V18.2168C15.9717 18.9733 15.7757 19.5475 15.3838 19.9395C14.9919 20.3359 14.4222 20.5342 13.6748 20.5342H7.29688C6.54492 20.5342 5.97298 20.3359 5.58105 19.9395C5.19368 19.5475 5 18.9733 5 18.2168ZM6.51758 18.0869C6.51758 18.3877 6.59505 18.6178 6.75 18.7773C6.90495 18.9368 7.13737 19.0166 7.44727 19.0166H13.5176C13.832 19.0166 14.0645 18.9368 14.2148 18.7773C14.3698 18.6178 14.4473 18.3877 14.4473 18.0869V13.2539H11.0225C10.4938 13.2539 10.0973 13.124 9.83301 12.8643C9.57324 12.6045 9.44336 12.208 9.44336 11.6748V8.09961H7.4541C7.13965 8.09961 6.90495 8.17936 6.75 8.33887C6.59505 8.49837 6.51758 8.72624 6.51758 9.02246V18.0869ZM11.1592 11.9619H14.2832L10.7422 8.37305V11.5449C10.7422 11.6908 10.7741 11.7979 10.8379 11.8662C10.9062 11.93 11.0133 11.9619 11.1592 11.9619Z" fill="#B3B7BF"/>
</svg>
