<svg width="209" height="32" viewBox="0 0 209 32" fill="none" xmlns="http://www.w3.org/2000/svg">
<path d="M25.3742 9.28646L26.3924 10.3008L28.4289 8.27208L27.4106 7.25771C25.7273 5.58076 22.9875 5.58076 21.3042 7.25771L20.2859 8.27208L19.2677 7.25771C17.5844 5.58076 14.8445 5.58076 13.1612 7.25771L12.143 8.27208L11.1247 7.25771C9.44139 5.58076 6.70157 5.58076 5.01824 7.25771L4 8.27208L6.03648 10.3008L7.05471 9.28646C7.6168 8.7265 8.5291 8.7265 9.09119 9.28646L10.1094 10.3008L9.09119 11.3152C7.40786 12.9922 7.40786 15.7216 9.09119 17.3985L10.1094 18.4129L6.03942 22.4675L10.1094 26.522L12.1459 24.4933L10.1094 22.4645L12.1459 20.4358L16.2159 24.4904L20.2859 20.4358L22.3224 22.4645L20.2859 24.4933L22.3224 26.522L26.3924 22.4675L22.3224 18.4129L23.3406 17.3985C25.024 15.7216 25.024 12.9922 23.3406 11.3152L22.3224 10.3008L23.3406 9.28646C23.9027 8.7265 24.815 8.7265 25.3771 9.28646H25.3742ZM15.1977 9.28646C15.7598 8.7265 16.6721 8.7265 17.2341 9.28646L18.2524 10.3008L16.2159 12.3296L14.1794 10.3008L15.1977 9.28646ZM11.1277 15.3698C10.5656 14.8098 10.5656 13.901 11.1277 13.341L12.1459 12.3267L14.1824 14.3554L12.1459 16.3842L11.1277 15.3698ZM16.2159 20.4387L14.1794 18.41L16.2159 16.3812L18.2524 18.41L16.2159 20.4387ZM21.3042 13.341C21.8662 13.901 21.8662 14.8098 21.3042 15.3698L20.2859 16.3842L18.2494 14.3554L20.2859 12.3267L21.3042 13.341Z" fill="#EFEB00"/>
<path d="M127.1 10.9626V15.6546H133.872V17.3099H127.1V22.7511H125.168V9.29385H134.701V10.967H127.096L127.1 10.9626Z" fill="white"/>
<path d="M137.192 9.28934H139.124V22.7466H137.192V9.28934Z" fill="white"/>
<path d="M153.825 9.28934V22.7466H152.244L144.139 12.712V22.7466H142.208V9.28934H143.788L151.893 19.324V9.28934H153.825Z" fill="white"/>
<path d="M165.618 19.3823H158.441L156.955 22.7466H154.969L161.089 9.28934H162.998L169.135 22.7466H167.109L165.623 19.3823H165.618ZM164.943 17.8437L162.03 11.2496L159.116 17.8437H164.943Z" fill="white"/>
<path d="M181.868 9.28934V22.7466H180.288L172.183 12.712V22.7466H170.251V9.28934H171.831L179.937 19.324V9.28934H181.868Z" fill="white"/>
<path d="M183.913 15.9955C183.913 12.0032 186.971 9.09198 191.095 9.09198C193.184 9.09198 195.008 9.80521 196.246 11.1958L194.99 12.4114C193.945 11.3124 192.667 10.81 191.176 10.81C188.119 10.81 185.854 13.008 185.854 16C185.854 18.992 188.119 21.19 191.176 21.19C192.667 21.19 193.945 20.6697 194.99 19.5707L196.246 20.7863C195.008 22.1769 193.189 22.9081 191.077 22.9081C186.971 22.9081 183.913 19.9968 183.913 16.0045V15.9955Z" fill="white"/>
<path d="M208.156 21.0509V22.7241H198.354V9.26688H207.886V10.9401H200.281V15.0714H207.053V16.7042H200.281V21.0509H208.156Z" fill="white"/>
<path d="M50.8473 19.786V22.7287H40V9.27142H50.8473V12.2141H43.7824V14.4839H49.7846V17.3278H43.7824V19.7905H50.8473V19.786Z" fill="white"/>
<path d="M65.1668 22.7287L65.1263 15.5963L61.6546 21.4009H59.957L56.5034 15.7892V22.7287H52.9731V9.27142H56.1206L60.8666 17.0363L65.4955 9.27142H68.643L68.6835 22.7287H65.1713H65.1668Z" fill="white"/>
<path d="M83.1507 22.7287L83.1102 15.5963L79.6385 21.4009H77.9409L74.4872 15.7892V22.7287H70.957V9.27142H74.1L78.846 17.0363L83.4794 9.27142H86.6269L86.6674 22.7287H83.1552H83.1507Z" fill="white"/>
<path d="M99.7843 19.786V22.7287H88.937V9.27142H99.7843V12.2141H92.7194V14.4839H98.7217V17.3278H92.7194V19.7905H99.7843V19.786Z" fill="white"/>
<path d="M105.233 12.2903H101.086V9.27142H113.185V12.2903H109.056V22.7287H105.233V12.2903Z" fill="white"/>
<circle cx="117.539" cy="21.3792" r="1.34936" fill="white"/>
</svg>
