<svg width="25" height="24" viewBox="0 0 25 24" fill="none" xmlns="http://www.w3.org/2000/svg">
<path fill-rule="evenodd" clip-rule="evenodd" d="M6.52892 5C5.99082 5 5.47475 5.21376 5.09426 5.59426C4.71376 5.97475 4.5 6.49082 4.5 7.02892V17.0498C4.5 17.5879 4.71376 18.104 5.09426 18.4845C5.47475 18.865 5.99082 19.0788 6.52892 19.0788H19.0551C19.4271 19.0788 19.7838 18.931 20.0469 18.6679C20.3099 18.4049 20.4577 18.0481 20.4577 17.6761V8.90784C20.4577 8.53585 20.3099 8.17909 20.0469 7.91604C19.7838 7.653 19.4271 7.50523 19.0551 7.50523H6.52892C6.4026 7.50523 6.28145 7.45505 6.19212 7.36572C6.1028 7.2764 6.05261 7.15525 6.05261 7.02892C6.05261 6.9026 6.1028 6.78145 6.19212 6.69212C6.28145 6.6028 6.4026 6.55261 6.52892 6.55261H17.1761C17.382 6.55261 17.5795 6.47082 17.7251 6.32524C17.8707 6.17965 17.9524 5.9822 17.9524 5.77631C17.9524 5.57042 17.8707 5.37296 17.7251 5.22738C17.5795 5.08179 17.382 5 17.1761 5H6.52892ZM6.05261 17.0498V9.00144L6.52914 9.05784L18.9051 9.05784V17.5261H6.52892C6.4026 17.5261 6.28145 17.476 6.19212 17.3866C6.1028 17.2973 6.05261 17.1762 6.05261 17.0498ZM16.4492 11.9103C16.2379 11.8683 16.0188 11.8898 15.8198 11.9723C15.6207 12.0548 15.4505 12.1944 15.3308 12.3736C15.2111 12.5527 15.1472 12.7634 15.1472 12.9788C15.1472 13.2678 15.262 13.5449 15.4663 13.7492C15.6706 13.9535 15.9477 14.0683 16.2367 14.0683C16.4522 14.0683 16.6628 14.0044 16.8419 13.8847C17.0211 13.765 17.1607 13.5948 17.2432 13.3958C17.3257 13.1967 17.3472 12.9776 17.3052 12.7663C17.2632 12.555 17.1594 12.3608 17.007 12.2085C16.8547 12.0561 16.6606 11.9523 16.4492 11.9103Z" fill="#E0E3E6"/>
</svg>
