<svg width="41" height="41" viewBox="0 0 41 41" fill="none" xmlns="http://www.w3.org/2000/svg">
<rect x="0.833252" y="0.892578" width="39" height="39" rx="5.5" stroke="url(#paint0_linear_3604_48597)"/>
<rect x="0.833252" y="0.892578" width="39" height="39" rx="5.5" stroke="url(#paint1_linear_3604_48597)"/>
<path d="M13.0374 32.1631C11.9989 32.1631 11.2183 31.9053 10.6956 31.3896C10.1799 30.874 9.92212 30.1077 9.92212 29.0908V18.6279C9.92212 17.6038 10.1799 16.8376 10.6956 16.3291C11.2183 15.8135 11.9989 15.5557 13.0374 15.5557H28.0657C29.0969 15.5557 29.8739 15.8135 30.3967 16.3291C30.9195 16.8447 31.1809 17.611 31.1809 18.6279V29.0908C31.1809 30.1077 30.9195 30.874 30.3967 31.3896C29.8739 31.9053 29.0969 32.1631 28.0657 32.1631H13.0374ZM13.0588 30.6807H28.0334C28.5562 30.6807 28.9609 30.541 29.2473 30.2617C29.5409 29.9824 29.6877 29.5671 29.6877 29.0156V18.7031C29.6877 18.1517 29.5409 17.7363 29.2473 17.457C28.9609 17.1706 28.5562 17.0273 28.0334 17.0273H13.0588C12.5289 17.0273 12.1207 17.1706 11.8342 17.457C11.5549 17.7363 11.4153 18.1517 11.4153 18.7031V29.0156C11.4153 29.5671 11.5549 29.9824 11.8342 30.2617C12.1207 30.541 12.5289 30.6807 13.0588 30.6807ZM12.0813 13.8691C12.1458 13.4466 12.289 13.1243 12.511 12.9023C12.733 12.6732 13.0732 12.5586 13.5315 12.5586H27.5715C28.0299 12.5586 28.37 12.6732 28.592 12.9023C28.814 13.1243 28.9609 13.4466 29.0325 13.8691H12.0813ZM14.1438 11.1406C14.1724 10.7467 14.2978 10.4495 14.5198 10.249C14.7489 10.0413 15.0712 9.9375 15.4866 9.9375H25.6165C26.039 9.9375 26.3612 10.0413 26.5833 10.249C26.8124 10.4495 26.9377 10.7467 26.9592 11.1406H14.1438ZM14.2083 31.4219C14.3372 30.7845 14.5878 30.1901 14.9602 29.6387C15.3326 29.0872 15.8017 28.6074 16.3674 28.1992C16.9332 27.791 17.5706 27.4759 18.2795 27.2539C18.9957 27.0247 19.7584 26.9102 20.5676 26.9102C21.3697 26.9102 22.1252 27.0247 22.8342 27.2539C23.5504 27.4759 24.1913 27.791 24.7571 28.1992C25.33 28.6074 25.8027 29.0872 26.175 29.6387C26.5474 30.1901 26.7945 30.7845 26.9163 31.4219H14.2083ZM20.5676 25.3633C19.9804 25.3561 19.4504 25.2057 18.9778 24.9121C18.5051 24.6113 18.1292 24.2031 17.8499 23.6875C17.5706 23.1719 17.4273 22.5882 17.4202 21.9365C17.4202 21.3206 17.5598 20.7585 17.8391 20.25C18.1184 19.7415 18.4944 19.3333 18.967 19.0254C19.4469 18.7174 19.9804 18.5635 20.5676 18.5635C21.1477 18.5635 21.6741 18.7174 22.1467 19.0254C22.6265 19.3333 23.0061 19.7415 23.2854 20.25C23.5647 20.7585 23.7043 21.3206 23.7043 21.9365C23.7043 22.5882 23.5647 23.1755 23.2854 23.6982C23.0061 24.221 22.6265 24.6328 22.1467 24.9336C21.6741 25.2272 21.1477 25.3704 20.5676 25.3633Z" fill="#EFEB00"/>
<defs>
<linearGradient id="paint0_linear_3604_48597" x1="5.42677" y1="-11.5165" x2="20.3333" y2="40.3926" gradientUnits="userSpaceOnUse">
<stop stop-color="#CECB16"/>
<stop offset="1" stop-color="#1B1D20" stop-opacity="0"/>
</linearGradient>
<linearGradient id="paint1_linear_3604_48597" x1="-7.4634" y1="-55.3322" x2="55.3249" y2="-25.4983" gradientUnits="userSpaceOnUse">
<stop stop-color="#4A67FF"/>
<stop offset="0.32" stop-color="#EFEB00"/>
<stop offset="0.675" stop-color="#8940D3"/>
<stop offset="0.985" stop-color="#4A67FF"/>
</linearGradient>
</defs>
</svg>
