<svg width="41" height="41" viewBox="0 0 41 41" fill="none" xmlns="http://www.w3.org/2000/svg">
<rect x="1.1665" y="0.892578" width="39" height="39" rx="5.5" stroke="url(#paint0_linear_3604_48622)"/>
<rect x="1.1665" y="0.892578" width="39" height="39" rx="5.5" stroke="url(#paint1_linear_3604_48622)"/>
<path d="M11.9858 23.4512C11.7782 23.4512 11.6027 23.3796 11.4595 23.2363C11.3234 23.0931 11.2554 22.9212 11.2554 22.7207V19.4121C11.2554 19.2116 11.3234 19.0397 11.4595 18.8965C11.6027 18.7461 11.7782 18.6709 11.9858 18.6709C12.2007 18.6709 12.3797 18.7461 12.5229 18.8965C12.6733 19.0397 12.7485 19.2116 12.7485 19.4121V22.7207C12.7485 22.9212 12.6733 23.0931 12.5229 23.2363C12.3797 23.3796 12.2007 23.4512 11.9858 23.4512ZM15.3696 27.5117C15.1548 27.5117 14.9757 27.4401 14.8325 27.2969C14.6965 27.1536 14.6284 26.9782 14.6284 26.7705V15.3623C14.6284 15.1475 14.6965 14.9684 14.8325 14.8252C14.9757 14.682 15.1548 14.6104 15.3696 14.6104C15.5773 14.6104 15.7528 14.682 15.896 14.8252C16.0464 14.9684 16.1216 15.1475 16.1216 15.3623V26.7705C16.1216 26.9782 16.0464 27.1536 15.896 27.2969C15.7528 27.4401 15.5773 27.5117 15.3696 27.5117ZM18.7427 31.6152C18.535 31.6152 18.3595 31.54 18.2163 31.3896C18.0731 31.2464 18.0015 31.071 18.0015 30.8633V11.2695C18.0015 11.0618 18.0731 10.8864 18.2163 10.7432C18.3595 10.5928 18.535 10.5176 18.7427 10.5176C18.9575 10.5176 19.1366 10.5928 19.2798 10.7432C19.423 10.8864 19.4946 11.0618 19.4946 11.2695V30.8633C19.4946 31.071 19.423 31.2464 19.2798 31.3896C19.1366 31.54 18.9575 31.6152 18.7427 31.6152ZM22.1265 26.3301C21.9116 26.3301 21.7326 26.2585 21.5894 26.1152C21.4533 25.972 21.3853 25.8001 21.3853 25.5996V16.5332C21.3853 16.3327 21.4533 16.1608 21.5894 16.0176C21.7326 15.8672 21.9116 15.792 22.1265 15.792C22.3341 15.792 22.5096 15.8672 22.6528 16.0176C22.7961 16.1608 22.8677 16.3327 22.8677 16.5332V25.5996C22.8677 25.8001 22.7961 25.972 22.6528 26.1152C22.5096 26.2585 22.3341 26.3301 22.1265 26.3301ZM25.4995 29.2734C25.2847 29.2734 25.1056 29.2018 24.9624 29.0586C24.8263 28.9154 24.7583 28.7399 24.7583 28.5322V13.5898C24.7583 13.3893 24.8263 13.2174 24.9624 13.0742C25.1056 12.9238 25.2847 12.8486 25.4995 12.8486C25.7072 12.8486 25.8826 12.9238 26.0259 13.0742C26.1691 13.2174 26.2407 13.3893 26.2407 13.5898V28.5322C26.2407 28.7399 26.1691 28.9154 26.0259 29.0586C25.8826 29.2018 25.7072 29.2734 25.4995 29.2734ZM28.8726 24.3643C28.6577 24.3643 28.4787 24.2926 28.3354 24.1494C28.1994 24.0062 28.1313 23.8307 28.1313 23.623V18.5098C28.1313 18.3021 28.1994 18.1266 28.3354 17.9834C28.4787 17.833 28.6577 17.7578 28.8726 17.7578C29.0802 17.7578 29.2557 17.833 29.3989 17.9834C29.5422 18.1266 29.6138 18.3021 29.6138 18.5098V23.623C29.6138 23.8307 29.5422 24.0062 29.3989 24.1494C29.2557 24.2926 29.0802 24.3643 28.8726 24.3643Z" fill="#EFEB00"/>
<defs>
<linearGradient id="paint0_linear_3604_48622" x1="5.76002" y1="-11.5165" x2="20.6665" y2="40.3926" gradientUnits="userSpaceOnUse">
<stop stop-color="#CECB16"/>
<stop offset="1" stop-color="#1B1D20" stop-opacity="0"/>
</linearGradient>
<linearGradient id="paint1_linear_3604_48622" x1="-7.13015" y1="-55.3322" x2="55.6582" y2="-25.4983" gradientUnits="userSpaceOnUse">
<stop stop-color="#4A67FF"/>
<stop offset="0.32" stop-color="#EFEB00"/>
<stop offset="0.675" stop-color="#8940D3"/>
<stop offset="0.985" stop-color="#4A67FF"/>
</linearGradient>
</defs>
</svg>
