<svg width="41" height="41" viewBox="0 0 41 41" fill="none" xmlns="http://www.w3.org/2000/svg">
<rect x="0.916626" y="0.642578" width="39.5" height="39.5" rx="5.75" fill="#2A2D31"/>
<rect x="0.916626" y="0.642578" width="39.5" height="39.5" rx="5.75" stroke="url(#paint0_linear_2596_57977)" stroke-width="0.5"/>
<path d="M21.9967 10.8828C21.7102 10.8828 21.4668 10.7861 21.2662 10.5928C21.0657 10.3923 20.9655 10.1452 20.9655 9.85156C20.9655 9.57227 21.0657 9.33236 21.2662 9.13184C21.4739 8.93132 21.7174 8.83105 21.9967 8.83105C22.2832 8.83105 22.5267 8.93132 22.7272 9.13184C22.9277 9.3252 23.028 9.5651 23.028 9.85156C23.028 10.1452 22.9277 10.3923 22.7272 10.5928C22.5338 10.7861 22.2903 10.8828 21.9967 10.8828ZM17.1735 13.665C16.887 13.665 16.6435 13.5648 16.443 13.3643C16.2425 13.1637 16.1422 12.9202 16.1422 12.6338C16.1422 12.3545 16.2425 12.1146 16.443 11.9141C16.6435 11.7064 16.887 11.6025 17.1735 11.6025C17.4599 11.6025 17.6998 11.7028 17.8932 11.9033C18.0937 12.1038 18.194 12.3473 18.194 12.6338C18.194 12.9274 18.0973 13.1745 17.9039 13.375C17.7106 13.5684 17.4671 13.665 17.1735 13.665ZM26.8199 13.665C26.5335 13.665 26.29 13.5648 26.0895 13.3643C25.8961 13.1637 25.7994 12.9202 25.7994 12.6338C25.7994 12.3545 25.8997 12.1146 26.1002 11.9141C26.3007 11.7064 26.5406 11.6025 26.8199 11.6025C27.1064 11.6025 27.3499 11.7028 27.5504 11.9033C27.7509 12.1038 27.8512 12.3473 27.8512 12.6338C27.8512 12.9274 27.7509 13.1745 27.5504 13.375C27.3571 13.5684 27.1136 13.665 26.8199 13.665ZM12.3502 16.4795C12.0638 16.4795 11.8203 16.3828 11.6198 16.1895C11.4192 15.9889 11.319 15.7419 11.319 15.4482C11.319 15.1689 11.4192 14.929 11.6198 14.7285C11.8274 14.528 12.0709 14.4277 12.3502 14.4277C12.6295 14.4277 12.8694 14.528 13.0699 14.7285C13.2776 14.929 13.3815 15.1689 13.3815 15.4482C13.3815 15.749 13.2812 15.9961 13.0807 16.1895C12.8802 16.3828 12.6367 16.4795 12.3502 16.4795ZM21.9967 16.8555C21.61 16.8555 21.2806 16.7194 21.0084 16.4473C20.7363 16.168 20.6002 15.835 20.6002 15.4482C20.6002 15.0687 20.7363 14.7428 21.0084 14.4707C21.2877 14.1914 21.6171 14.0518 21.9967 14.0518C22.3834 14.0518 22.7128 14.1914 22.985 14.4707C23.2571 14.7428 23.3932 15.0687 23.3932 15.4482C23.3932 15.8421 23.2571 16.1751 22.985 16.4473C22.72 16.7194 22.3906 16.8555 21.9967 16.8555ZM31.611 16.4795C31.3173 16.4795 31.0703 16.3828 30.8698 16.1895C30.6764 15.9889 30.5797 15.7419 30.5797 15.4482C30.5797 15.1761 30.68 14.9398 30.8805 14.7393C31.081 14.5316 31.3245 14.4277 31.611 14.4277C31.8974 14.4277 32.1373 14.528 32.3307 14.7285C32.5312 14.9219 32.6315 15.1618 32.6315 15.4482C32.6315 15.749 32.5312 15.9961 32.3307 16.1895C32.1373 16.3828 31.8974 16.4795 31.611 16.4795ZM17.1735 19.6484C16.7867 19.6484 16.4573 19.5124 16.1852 19.2402C15.913 18.9681 15.777 18.6387 15.777 18.252C15.777 17.8724 15.9166 17.5465 16.1959 17.2744C16.4752 16.9951 16.8011 16.8555 17.1735 16.8555C17.553 16.8555 17.8789 16.9915 18.151 17.2637C18.4303 17.5358 18.5699 17.8652 18.5699 18.252C18.5699 18.6458 18.4339 18.9788 18.1617 19.251C17.8968 19.516 17.5673 19.6484 17.1735 19.6484ZM26.8199 19.6484C26.4332 19.6484 26.1038 19.5124 25.8317 19.2402C25.5595 18.9681 25.4235 18.6387 25.4235 18.252C25.4235 17.8724 25.5595 17.5465 25.8317 17.2744C26.111 16.9951 26.4404 16.8555 26.8199 16.8555C27.1995 16.8555 27.5253 16.9915 27.7975 17.2637C28.0768 17.5358 28.2164 17.8652 28.2164 18.252C28.2164 18.6458 28.0804 18.9788 27.8082 19.251C27.5361 19.516 27.2067 19.6484 26.8199 19.6484ZM12.3502 22.0869C12.0638 22.0869 11.8203 21.9902 11.6198 21.7969C11.4192 21.5964 11.319 21.3493 11.319 21.0557C11.319 20.7764 11.4192 20.5365 11.6198 20.3359C11.8274 20.1354 12.0709 20.0352 12.3502 20.0352C12.6295 20.0352 12.8694 20.1354 13.0699 20.3359C13.2776 20.5293 13.3815 20.7692 13.3815 21.0557C13.3815 21.3493 13.2812 21.5964 13.0807 21.7969C12.8802 21.9902 12.6367 22.0869 12.3502 22.0869ZM21.9967 22.6992C21.5455 22.6992 21.1588 22.5381 20.8365 22.2158C20.5214 21.8936 20.3639 21.5068 20.3639 21.0557C20.3639 20.762 20.4355 20.4899 20.5787 20.2393C20.7291 19.9886 20.9261 19.7917 21.1696 19.6484C21.4202 19.498 21.6959 19.4229 21.9967 19.4229C22.4479 19.4229 22.831 19.584 23.1461 19.9062C23.4684 20.2285 23.6295 20.6117 23.6295 21.0557C23.6295 21.514 23.472 21.9043 23.1569 22.2266C22.8418 22.5417 22.455 22.6992 21.9967 22.6992ZM31.611 22.0869C31.3173 22.0869 31.0703 21.9902 30.8698 21.7969C30.6764 21.5964 30.5797 21.3493 30.5797 21.0557C30.5797 20.7764 30.68 20.5365 30.8805 20.3359C31.081 20.1354 31.3245 20.0352 31.611 20.0352C31.8974 20.0352 32.1373 20.1354 32.3307 20.3359C32.5312 20.5293 32.6315 20.7692 32.6315 21.0557C32.6315 21.3564 32.5312 21.6035 32.3307 21.7969C32.1373 21.9902 31.8974 22.0869 31.611 22.0869ZM17.1735 25.2666C16.7939 25.2666 16.4645 25.1305 16.1852 24.8584C15.913 24.5863 15.777 24.2568 15.777 23.8701C15.777 23.4906 15.913 23.1647 16.1852 22.8926C16.4645 22.6133 16.7939 22.4736 17.1735 22.4736C17.553 22.4736 17.8789 22.6097 18.151 22.8818C18.4303 23.154 18.5699 23.4834 18.5699 23.8701C18.5699 24.2568 18.4339 24.5863 18.1617 24.8584C17.8896 25.1305 17.5602 25.2666 17.1735 25.2666ZM26.8199 25.2666C26.4332 25.2666 26.1038 25.1305 25.8317 24.8584C25.5595 24.5863 25.4235 24.2568 25.4235 23.8701C25.4235 23.4906 25.5595 23.1647 25.8317 22.8926C26.111 22.6133 26.4404 22.4736 26.8199 22.4736C27.1995 22.4736 27.5253 22.6097 27.7975 22.8818C28.0768 23.154 28.2164 23.4834 28.2164 23.8701C28.2164 24.2568 28.0804 24.5863 27.8082 24.8584C27.5361 25.1305 27.2067 25.2666 26.8199 25.2666ZM12.3502 27.6836C12.0638 27.6836 11.8203 27.5869 11.6198 27.3936C11.4192 27.193 11.319 26.9495 11.319 26.6631C11.319 26.3838 11.4192 26.1439 11.6198 25.9434C11.8274 25.7357 12.0709 25.6318 12.3502 25.6318C12.6295 25.6318 12.8694 25.7321 13.0699 25.9326C13.2776 26.1331 13.3815 26.3766 13.3815 26.6631C13.3815 26.9567 13.2812 27.2002 13.0807 27.3936C12.8802 27.5869 12.6367 27.6836 12.3502 27.6836ZM21.9967 28.0596C21.61 28.0596 21.2806 27.9235 21.0084 27.6514C20.7363 27.3792 20.6002 27.0498 20.6002 26.6631C20.6002 26.2835 20.7363 25.9577 21.0084 25.6855C21.2877 25.4062 21.6171 25.2666 21.9967 25.2666C22.3834 25.2666 22.7128 25.4027 22.985 25.6748C23.2571 25.9469 23.3932 26.2764 23.3932 26.6631C23.3932 27.0498 23.2571 27.3792 22.985 27.6514C22.72 27.9235 22.3906 28.0596 21.9967 28.0596ZM31.611 27.6836C31.3173 27.6836 31.0703 27.5869 30.8698 27.3936C30.6764 27.193 30.5797 26.9495 30.5797 26.6631C30.5797 26.3838 30.68 26.1439 30.8805 25.9434C31.081 25.7357 31.3245 25.6318 31.611 25.6318C31.8903 25.6318 32.1302 25.7321 32.3307 25.9326C32.5312 26.1331 32.6315 26.3766 32.6315 26.6631C32.6315 26.9567 32.5348 27.2002 32.3414 27.3936C32.1481 27.5869 31.9046 27.6836 31.611 27.6836ZM17.1735 30.5195C16.887 30.5195 16.6435 30.4157 16.443 30.208C16.2425 30.0075 16.1422 29.7676 16.1422 29.4883C16.1422 29.209 16.2425 28.9655 16.443 28.7578C16.6435 28.5501 16.887 28.4463 17.1735 28.4463C17.4599 28.4463 17.6998 28.5465 17.8932 28.7471C18.0937 28.9548 18.194 29.2018 18.194 29.4883C18.194 29.7747 18.0973 30.0182 17.9039 30.2188C17.7106 30.4193 17.4671 30.5195 17.1735 30.5195ZM26.8199 30.5195C26.5335 30.5195 26.29 30.4157 26.0895 30.208C25.8961 30.0075 25.7994 29.7676 25.7994 29.4883C25.7994 29.209 25.8997 28.9655 26.1002 28.7578C26.3007 28.5501 26.5406 28.4463 26.8199 28.4463C27.1064 28.4463 27.3499 28.5465 27.5504 28.7471C27.7509 28.9548 27.8512 29.2018 27.8512 29.4883C27.8512 29.7747 27.7509 30.0182 27.5504 30.2188C27.3571 30.4193 27.1136 30.5195 26.8199 30.5195ZM21.9967 33.291C21.7102 33.291 21.4668 33.1908 21.2662 32.9902C21.0657 32.7969 20.9655 32.5534 20.9655 32.2598C20.9655 31.9805 21.0657 31.7406 21.2662 31.54C21.4739 31.3395 21.7174 31.2393 21.9967 31.2393C22.2832 31.2393 22.5267 31.3359 22.7272 31.5293C22.9277 31.7298 23.028 31.9733 23.028 32.2598C23.028 32.5605 22.9277 32.8076 22.7272 33.001C22.5338 33.1943 22.2903 33.291 21.9967 33.291Z" fill="#EFEB00"/>
<defs>
<linearGradient id="paint0_linear_2596_57977" x1="5.76014" y1="-11.5165" x2="20.6666" y2="40.3926" gradientUnits="userSpaceOnUse">
<stop stop-color="#CECB16"/>
<stop offset="1" stop-color="#1B1D20" stop-opacity="0"/>
</linearGradient>
</defs>
</svg>
