<svg width="41" height="41" viewBox="0 0 41 41" fill="none" xmlns="http://www.w3.org/2000/svg">
<rect x="1.1665" y="0.892578" width="39" height="39" rx="5.5" stroke="url(#paint0_linear_3604_48603)"/>
<rect x="1.1665" y="0.892578" width="39" height="39" rx="5.5" stroke="url(#paint1_linear_3604_48603)"/>
<path d="M20.688 10.2144C20.4015 10.2144 20.158 10.1177 19.9575 9.92432C19.757 9.7238 19.6567 9.47673 19.6567 9.18311C19.6567 8.90381 19.757 8.6639 19.9575 8.46338C20.1652 8.26286 20.4087 8.1626 20.688 8.1626C20.9744 8.1626 21.2179 8.26286 21.4185 8.46338C21.619 8.65674 21.7192 8.89665 21.7192 9.18311C21.7192 9.47673 21.619 9.7238 21.4185 9.92432C21.2251 10.1177 20.9816 10.2144 20.688 10.2144ZM15.8647 12.9966C15.5783 12.9966 15.3348 12.8963 15.1343 12.6958C14.9338 12.4953 14.8335 12.2518 14.8335 11.9653C14.8335 11.686 14.9338 11.4461 15.1343 11.2456C15.3348 11.0379 15.5783 10.9341 15.8647 10.9341C16.1512 10.9341 16.3911 11.0343 16.5845 11.2349C16.785 11.4354 16.8853 11.6789 16.8853 11.9653C16.8853 12.259 16.7886 12.506 16.5952 12.7065C16.4019 12.8999 16.1584 12.9966 15.8647 12.9966ZM25.5112 12.9966C25.2248 12.9966 24.9813 12.8963 24.7808 12.6958C24.5874 12.4953 24.4907 12.2518 24.4907 11.9653C24.4907 11.686 24.591 11.4461 24.7915 11.2456C24.992 11.0379 25.2319 10.9341 25.5112 10.9341C25.7977 10.9341 26.0412 11.0343 26.2417 11.2349C26.4422 11.4354 26.5425 11.6789 26.5425 11.9653C26.5425 12.259 26.4422 12.506 26.2417 12.7065C26.0483 12.8999 25.8049 12.9966 25.5112 12.9966ZM11.0415 15.811C10.755 15.811 10.5116 15.7144 10.311 15.521C10.1105 15.3205 10.0103 15.0734 10.0103 14.7798C10.0103 14.5005 10.1105 14.2606 10.311 14.0601C10.5187 13.8595 10.7622 13.7593 11.0415 13.7593C11.3208 13.7593 11.5607 13.8595 11.7612 14.0601C11.9689 14.2606 12.0728 14.5005 12.0728 14.7798C12.0728 15.0806 11.9725 15.3276 11.772 15.521C11.5715 15.7144 11.328 15.811 11.0415 15.811ZM20.688 16.187C20.3013 16.187 19.9718 16.0509 19.6997 15.7788C19.4276 15.4995 19.2915 15.1665 19.2915 14.7798C19.2915 14.4002 19.4276 14.0744 19.6997 13.8022C19.979 13.5229 20.3084 13.3833 20.688 13.3833C21.0747 13.3833 21.4041 13.5229 21.6763 13.8022C21.9484 14.0744 22.0845 14.4002 22.0845 14.7798C22.0845 15.1737 21.9484 15.5067 21.6763 15.7788C21.4113 16.0509 21.0819 16.187 20.688 16.187ZM30.3022 15.811C30.0086 15.811 29.7616 15.7144 29.561 15.521C29.3677 15.3205 29.271 15.0734 29.271 14.7798C29.271 14.5076 29.3713 14.2713 29.5718 14.0708C29.7723 13.8631 30.0158 13.7593 30.3022 13.7593C30.5887 13.7593 30.8286 13.8595 31.022 14.0601C31.2225 14.2534 31.3228 14.4933 31.3228 14.7798C31.3228 15.0806 31.2225 15.3276 31.022 15.521C30.8286 15.7144 30.5887 15.811 30.3022 15.811ZM15.8647 18.98C15.478 18.98 15.1486 18.8439 14.8765 18.5718C14.6043 18.2996 14.4683 17.9702 14.4683 17.5835C14.4683 17.2039 14.6079 16.8781 14.8872 16.606C15.1665 16.3267 15.4924 16.187 15.8647 16.187C16.2443 16.187 16.5701 16.3231 16.8423 16.5952C17.1216 16.8674 17.2612 17.1968 17.2612 17.5835C17.2612 17.9774 17.1252 18.3104 16.853 18.5825C16.5881 18.8475 16.2586 18.98 15.8647 18.98ZM25.5112 18.98C25.1245 18.98 24.7951 18.8439 24.5229 18.5718C24.2508 18.2996 24.1147 17.9702 24.1147 17.5835C24.1147 17.2039 24.2508 16.8781 24.5229 16.606C24.8022 16.3267 25.1317 16.187 25.5112 16.187C25.8908 16.187 26.2166 16.3231 26.4888 16.5952C26.7681 16.8674 26.9077 17.1968 26.9077 17.5835C26.9077 17.9774 26.7716 18.3104 26.4995 18.5825C26.2274 18.8475 25.8979 18.98 25.5112 18.98ZM11.0415 21.4185C10.755 21.4185 10.5116 21.3218 10.311 21.1284C10.1105 20.9279 10.0103 20.6808 10.0103 20.3872C10.0103 20.1079 10.1105 19.868 10.311 19.6675C10.5187 19.467 10.7622 19.3667 11.0415 19.3667C11.3208 19.3667 11.5607 19.467 11.7612 19.6675C11.9689 19.8608 12.0728 20.1007 12.0728 20.3872C12.0728 20.6808 11.9725 20.9279 11.772 21.1284C11.5715 21.3218 11.328 21.4185 11.0415 21.4185ZM20.688 22.0308C20.2368 22.0308 19.8501 21.8696 19.5278 21.5474C19.2127 21.2251 19.0552 20.8384 19.0552 20.3872C19.0552 20.0936 19.1268 19.8215 19.27 19.5708C19.4204 19.3201 19.6174 19.1232 19.8608 18.98C20.1115 18.8296 20.3872 18.7544 20.688 18.7544C21.1392 18.7544 21.5223 18.9155 21.8374 19.2378C22.1597 19.5601 22.3208 19.9432 22.3208 20.3872C22.3208 20.8455 22.1632 21.2358 21.8481 21.5581C21.533 21.8732 21.1463 22.0308 20.688 22.0308ZM30.3022 21.4185C30.0086 21.4185 29.7616 21.3218 29.561 21.1284C29.3677 20.9279 29.271 20.6808 29.271 20.3872C29.271 20.1079 29.3713 19.868 29.5718 19.6675C29.7723 19.467 30.0158 19.3667 30.3022 19.3667C30.5887 19.3667 30.8286 19.467 31.022 19.6675C31.2225 19.8608 31.3228 20.1007 31.3228 20.3872C31.3228 20.688 31.2225 20.9351 31.022 21.1284C30.8286 21.3218 30.5887 21.4185 30.3022 21.4185ZM15.8647 24.5981C15.4852 24.5981 15.1558 24.4621 14.8765 24.1899C14.6043 23.9178 14.4683 23.5884 14.4683 23.2017C14.4683 22.8221 14.6043 22.4963 14.8765 22.2241C15.1558 21.9448 15.4852 21.8052 15.8647 21.8052C16.2443 21.8052 16.5701 21.9412 16.8423 22.2134C17.1216 22.4855 17.2612 22.8149 17.2612 23.2017C17.2612 23.5884 17.1252 23.9178 16.853 24.1899C16.5809 24.4621 16.2515 24.5981 15.8647 24.5981ZM25.5112 24.5981C25.1245 24.5981 24.7951 24.4621 24.5229 24.1899C24.2508 23.9178 24.1147 23.5884 24.1147 23.2017C24.1147 22.8221 24.2508 22.4963 24.5229 22.2241C24.8022 21.9448 25.1317 21.8052 25.5112 21.8052C25.8908 21.8052 26.2166 21.9412 26.4888 22.2134C26.7681 22.4855 26.9077 22.8149 26.9077 23.2017C26.9077 23.5884 26.7716 23.9178 26.4995 24.1899C26.2274 24.4621 25.8979 24.5981 25.5112 24.5981ZM11.0415 27.0151C10.755 27.0151 10.5116 26.9185 10.311 26.7251C10.1105 26.5246 10.0103 26.2811 10.0103 25.9946C10.0103 25.7153 10.1105 25.4754 10.311 25.2749C10.5187 25.0672 10.7622 24.9634 11.0415 24.9634C11.3208 24.9634 11.5607 25.0636 11.7612 25.2642C11.9689 25.4647 12.0728 25.7082 12.0728 25.9946C12.0728 26.2882 11.9725 26.5317 11.772 26.7251C11.5715 26.9185 11.328 27.0151 11.0415 27.0151ZM20.688 27.3911C20.3013 27.3911 19.9718 27.255 19.6997 26.9829C19.4276 26.7108 19.2915 26.3813 19.2915 25.9946C19.2915 25.6151 19.4276 25.2892 19.6997 25.0171C19.979 24.7378 20.3084 24.5981 20.688 24.5981C21.0747 24.5981 21.4041 24.7342 21.6763 25.0063C21.9484 25.2785 22.0845 25.6079 22.0845 25.9946C22.0845 26.3813 21.9484 26.7108 21.6763 26.9829C21.4113 27.255 21.0819 27.3911 20.688 27.3911ZM30.3022 27.0151C30.0086 27.0151 29.7616 26.9185 29.561 26.7251C29.3677 26.5246 29.271 26.2811 29.271 25.9946C29.271 25.7153 29.3713 25.4754 29.5718 25.2749C29.7723 25.0672 30.0158 24.9634 30.3022 24.9634C30.5815 24.9634 30.8215 25.0636 31.022 25.2642C31.2225 25.4647 31.3228 25.7082 31.3228 25.9946C31.3228 26.2882 31.2261 26.5317 31.0327 26.7251C30.8394 26.9185 30.5959 27.0151 30.3022 27.0151ZM15.8647 29.8511C15.5783 29.8511 15.3348 29.7472 15.1343 29.5396C14.9338 29.339 14.8335 29.0991 14.8335 28.8198C14.8335 28.5405 14.9338 28.297 15.1343 28.0894C15.3348 27.8817 15.5783 27.7778 15.8647 27.7778C16.1512 27.7778 16.3911 27.8781 16.5845 28.0786C16.785 28.2863 16.8853 28.5334 16.8853 28.8198C16.8853 29.1063 16.7886 29.3498 16.5952 29.5503C16.4019 29.7508 16.1584 29.8511 15.8647 29.8511ZM25.5112 29.8511C25.2248 29.8511 24.9813 29.7472 24.7808 29.5396C24.5874 29.339 24.4907 29.0991 24.4907 28.8198C24.4907 28.5405 24.591 28.297 24.7915 28.0894C24.992 27.8817 25.2319 27.7778 25.5112 27.7778C25.7977 27.7778 26.0412 27.8781 26.2417 28.0786C26.4422 28.2863 26.5425 28.5334 26.5425 28.8198C26.5425 29.1063 26.4422 29.3498 26.2417 29.5503C26.0483 29.7508 25.8049 29.8511 25.5112 29.8511ZM20.688 32.6226C20.4015 32.6226 20.158 32.5223 19.9575 32.3218C19.757 32.1284 19.6567 31.8849 19.6567 31.5913C19.6567 31.312 19.757 31.0721 19.9575 30.8716C20.1652 30.6711 20.4087 30.5708 20.688 30.5708C20.9744 30.5708 21.2179 30.6675 21.4185 30.8608C21.619 31.0614 21.7192 31.3048 21.7192 31.5913C21.7192 31.8921 21.619 32.1392 21.4185 32.3325C21.2251 32.5259 20.9816 32.6226 20.688 32.6226Z" fill="#EFEB00"/>
<defs>
<linearGradient id="paint0_linear_3604_48603" x1="5.76002" y1="-11.5165" x2="20.6665" y2="40.3926" gradientUnits="userSpaceOnUse">
<stop stop-color="#CECB16"/>
<stop offset="1" stop-color="#1B1D20" stop-opacity="0"/>
</linearGradient>
<linearGradient id="paint1_linear_3604_48603" x1="-7.13015" y1="-55.3322" x2="55.6582" y2="-25.4983" gradientUnits="userSpaceOnUse">
<stop stop-color="#4A67FF"/>
<stop offset="0.32" stop-color="#EFEB00"/>
<stop offset="0.675" stop-color="#8940D3"/>
<stop offset="0.985" stop-color="#4A67FF"/>
</linearGradient>
</defs>
</svg>
