<svg width="40" height="41" viewBox="0 0 40 41" fill="none" xmlns="http://www.w3.org/2000/svg">
<rect x="0.25" y="0.642578" width="39.5" height="39.5" rx="5.75" fill="#2A2D31"/>
<rect x="0.25" y="0.642578" width="39.5" height="39.5" rx="5.75" stroke="url(#paint0_linear_2599_57985)" stroke-width="0.5"/>
<path d="M20.4619 33.7744C18.693 33.7744 17.1927 33.3018 15.9609 32.3564C14.7363 31.4183 13.7982 30.0218 13.1465 28.167L11.3311 23.0752C11.2809 22.9105 11.238 22.7386 11.2021 22.5596C11.1735 22.3734 11.1592 22.2087 11.1592 22.0654C11.1592 21.5212 11.3382 21.1022 11.6963 20.8086C12.0615 20.5078 12.484 20.3574 12.9639 20.3574C13.3148 20.3574 13.6299 20.4613 13.9092 20.6689C14.1956 20.8695 14.4212 21.1667 14.5859 21.5605L15.3486 23.3975C15.363 23.4404 15.388 23.4619 15.4238 23.4619C15.4811 23.4619 15.5098 23.4333 15.5098 23.376V14.75C15.5098 14.127 15.696 13.6292 16.0684 13.2568C16.4479 12.8773 16.9242 12.6875 17.4971 12.6875C18.0771 12.6875 18.5498 12.8773 18.915 13.2568C19.2874 13.6292 19.4736 14.127 19.4736 14.75V18.1875C19.7243 18.1087 19.9749 18.0693 20.2256 18.0693C20.6624 18.0693 21.0348 18.1875 21.3428 18.4238C21.6579 18.653 21.8763 18.9645 21.998 19.3584C22.306 19.2581 22.6068 19.208 22.9004 19.208C23.3229 19.208 23.681 19.3154 23.9746 19.5303C24.2682 19.738 24.4688 20.0244 24.5762 20.3896C25.5072 20.404 26.2305 20.737 26.7461 21.3887C27.2617 22.0332 27.5195 22.9355 27.5195 24.0957V26.2549C27.5195 27.8376 27.2188 29.1875 26.6172 30.3047C26.0228 31.429 25.1956 32.2884 24.1357 32.8828C23.083 33.4772 21.8584 33.7744 20.4619 33.7744ZM20.4941 32.5068C21.6829 32.5068 22.7106 32.2598 23.5771 31.7656C24.4437 31.2715 25.1097 30.5482 25.5752 29.5957C26.0479 28.6504 26.2842 27.4902 26.2842 26.1152V24.2783C26.2842 23.4404 26.1553 22.7959 25.8975 22.3447C25.6396 21.8864 25.2708 21.6572 24.791 21.6572V22.8496C24.791 23.0358 24.7301 23.1826 24.6084 23.29C24.4938 23.3975 24.3613 23.4512 24.2109 23.4512C24.0534 23.4512 23.9137 23.3975 23.792 23.29C23.6702 23.1826 23.6094 23.0358 23.6094 22.8496V21.3135C23.6094 20.7048 23.3229 20.4004 22.75 20.4004C22.5352 20.4004 22.3239 20.4469 22.1162 20.54V22.4629C22.1162 22.6419 22.0553 22.7887 21.9336 22.9033C21.8118 23.0107 21.6758 23.0645 21.5254 23.0645C21.3607 23.0645 21.2174 23.0107 21.0957 22.9033C20.9811 22.7887 20.9238 22.6419 20.9238 22.4629V20.1748C20.9238 19.5661 20.6374 19.2617 20.0645 19.2617C19.8424 19.2617 19.6312 19.3083 19.4307 19.4014V22.0762C19.4307 22.248 19.3734 22.3913 19.2588 22.5059C19.1442 22.6133 19.0046 22.667 18.8398 22.667C18.6823 22.667 18.5426 22.6133 18.4209 22.5059C18.2992 22.3913 18.2383 22.248 18.2383 22.0762V14.6641C18.2383 14.4349 18.1702 14.2487 18.0342 14.1055C17.8981 13.9551 17.7191 13.8799 17.4971 13.8799C17.2822 13.8799 17.1032 13.9551 16.96 14.1055C16.8167 14.2487 16.7451 14.4349 16.7451 14.6641V25.084C16.7451 25.306 16.6807 25.4886 16.5518 25.6318C16.4229 25.7751 16.2546 25.8467 16.0469 25.8467C15.875 25.8467 15.7139 25.8001 15.5635 25.707C15.4202 25.6139 15.2949 25.4492 15.1875 25.2129L13.8125 22.1084C13.6549 21.7217 13.415 21.5283 13.0928 21.5283C12.8779 21.5283 12.7061 21.5964 12.5771 21.7324C12.4482 21.8685 12.3838 22.0296 12.3838 22.2158C12.3838 22.3734 12.4124 22.5273 12.4697 22.6777L14.2744 27.7695C14.8831 29.4596 15.7174 30.6699 16.7773 31.4004C17.8372 32.138 19.0762 32.5068 20.4941 32.5068ZM12.3838 15.4375C11.9541 15.4375 11.5853 15.2835 11.2773 14.9756C10.9694 14.6605 10.8154 14.2809 10.8154 13.8369C10.8154 13.4072 10.9694 13.0384 11.2773 12.7305C11.5853 12.4154 11.9541 12.2578 12.3838 12.2578C12.835 12.2578 13.2145 12.4154 13.5225 12.7305C13.8304 13.0384 13.9844 13.4072 13.9844 13.8369C13.9844 14.2809 13.8304 14.6605 13.5225 14.9756C13.2145 15.2835 12.835 15.4375 12.3838 15.4375ZM17.5078 10.8721C17.071 10.8721 16.6986 10.7181 16.3906 10.4102C16.0827 10.0951 15.9287 9.71549 15.9287 9.27148C15.9287 8.83464 16.0827 8.46224 16.3906 8.1543C16.6986 7.84635 17.071 7.69238 17.5078 7.69238C17.9447 7.69238 18.3171 7.84635 18.625 8.1543C18.9401 8.46224 19.0977 8.83464 19.0977 9.27148C19.0977 9.71549 18.9401 10.0951 18.625 10.4102C18.3171 10.7181 17.9447 10.8721 17.5078 10.8721ZM22.6855 15.4375C22.2487 15.4375 21.8727 15.2835 21.5576 14.9756C21.2497 14.6605 21.0957 14.2809 21.0957 13.8369C21.0957 13.4072 21.2497 13.0384 21.5576 12.7305C21.8727 12.4154 22.2487 12.2578 22.6855 12.2578C23.1224 12.2578 23.4948 12.4154 23.8027 12.7305C24.1178 13.0384 24.2754 13.4072 24.2754 13.8369C24.2754 14.2809 24.1178 14.6605 23.8027 14.9756C23.4948 15.2835 23.1224 15.4375 22.6855 15.4375ZM27.3262 15.4375C26.8893 15.4375 26.5169 15.2835 26.209 14.9756C25.901 14.6605 25.7471 14.2809 25.7471 13.8369C25.7471 13.4072 25.901 13.0384 26.209 12.7305C26.5169 12.4154 26.8893 12.2578 27.3262 12.2578C27.7702 12.2578 28.1462 12.4154 28.4541 12.7305C28.7692 13.0384 28.9268 13.4072 28.9268 13.8369C28.9268 14.2809 28.7692 14.6605 28.4541 14.9756C28.1462 15.2835 27.7702 15.4375 27.3262 15.4375ZM27.3262 10.8721C26.8893 10.8721 26.5169 10.7181 26.209 10.4102C25.901 10.0951 25.7471 9.71549 25.7471 9.27148C25.7471 8.83464 25.901 8.46224 26.209 8.1543C26.5169 7.84635 26.8893 7.69238 27.3262 7.69238C27.7702 7.69238 28.1462 7.84635 28.4541 8.1543C28.7692 8.46224 28.9268 8.83464 28.9268 9.27148C28.9268 9.71549 28.7692 10.0951 28.4541 10.4102C28.1462 10.7181 27.7702 10.8721 27.3262 10.8721Z" fill="#EFEB00"/>
<defs>
<linearGradient id="paint0_linear_2599_57985" x1="5.09351" y1="-11.5165" x2="20" y2="40.3926" gradientUnits="userSpaceOnUse">
<stop stop-color="#CECB16"/>
<stop offset="1" stop-color="#1B1D20" stop-opacity="0"/>
</linearGradient>
</defs>
</svg>
