<svg width="41" height="41" viewBox="0 0 41 41" fill="none" xmlns="http://www.w3.org/2000/svg">
<rect x="0.916626" y="0.642578" width="39.5" height="39.5" rx="5.75" fill="#2A2D31"/>
<rect x="0.916626" y="0.642578" width="39.5" height="39.5" rx="5.75" stroke="url(#paint0_linear_2599_57987)" stroke-width="0.5"/>
<path d="M11.986 23.4512C11.7783 23.4512 11.6028 23.3796 11.4596 23.2363C11.3235 23.0931 11.2555 22.9212 11.2555 22.7207V19.4121C11.2555 19.2116 11.3235 19.0397 11.4596 18.8965C11.6028 18.7461 11.7783 18.6709 11.986 18.6709C12.2008 18.6709 12.3798 18.7461 12.5231 18.8965C12.6735 19.0397 12.7487 19.2116 12.7487 19.4121V22.7207C12.7487 22.9212 12.6735 23.0931 12.5231 23.2363C12.3798 23.3796 12.2008 23.4512 11.986 23.4512ZM15.3698 27.5117C15.1549 27.5117 14.9759 27.4401 14.8326 27.2969C14.6966 27.1536 14.6285 26.9782 14.6285 26.7705V15.3623C14.6285 15.1475 14.6966 14.9684 14.8326 14.8252C14.9759 14.682 15.1549 14.6104 15.3698 14.6104C15.5774 14.6104 15.7529 14.682 15.8961 14.8252C16.0465 14.9684 16.1217 15.1475 16.1217 15.3623V26.7705C16.1217 26.9782 16.0465 27.1536 15.8961 27.2969C15.7529 27.4401 15.5774 27.5117 15.3698 27.5117ZM18.7428 31.6152C18.5351 31.6152 18.3597 31.54 18.2164 31.3896C18.0732 31.2464 18.0016 31.071 18.0016 30.8633V11.2695C18.0016 11.0618 18.0732 10.8864 18.2164 10.7432C18.3597 10.5928 18.5351 10.5176 18.7428 10.5176C18.9576 10.5176 19.1367 10.5928 19.2799 10.7432C19.4231 10.8864 19.4948 11.0618 19.4948 11.2695V30.8633C19.4948 31.071 19.4231 31.2464 19.2799 31.3896C19.1367 31.54 18.9576 31.6152 18.7428 31.6152ZM22.1266 26.3301C21.9117 26.3301 21.7327 26.2585 21.5895 26.1152C21.4534 25.972 21.3854 25.8001 21.3854 25.5996V16.5332C21.3854 16.3327 21.4534 16.1608 21.5895 16.0176C21.7327 15.8672 21.9117 15.792 22.1266 15.792C22.3343 15.792 22.5097 15.8672 22.653 16.0176C22.7962 16.1608 22.8678 16.3327 22.8678 16.5332V25.5996C22.8678 25.8001 22.7962 25.972 22.653 26.1152C22.5097 26.2585 22.3343 26.3301 22.1266 26.3301ZM25.4996 29.2734C25.2848 29.2734 25.1058 29.2018 24.9625 29.0586C24.8265 28.9154 24.7584 28.7399 24.7584 28.5322V13.5898C24.7584 13.3893 24.8265 13.2174 24.9625 13.0742C25.1058 12.9238 25.2848 12.8486 25.4996 12.8486C25.7073 12.8486 25.8828 12.9238 26.026 13.0742C26.1692 13.2174 26.2408 13.3893 26.2408 13.5898V28.5322C26.2408 28.7399 26.1692 28.9154 26.026 29.0586C25.8828 29.2018 25.7073 29.2734 25.4996 29.2734ZM28.8727 24.3643C28.6578 24.3643 28.4788 24.2926 28.3356 24.1494C28.1995 24.0062 28.1315 23.8307 28.1315 23.623V18.5098C28.1315 18.3021 28.1995 18.1266 28.3356 17.9834C28.4788 17.833 28.6578 17.7578 28.8727 17.7578C29.0804 17.7578 29.2558 17.833 29.399 17.9834C29.5423 18.1266 29.6139 18.3021 29.6139 18.5098V23.623C29.6139 23.8307 29.5423 24.0062 29.399 24.1494C29.2558 24.2926 29.0804 24.3643 28.8727 24.3643Z" fill="#EFEB00"/>
<defs>
<linearGradient id="paint0_linear_2599_57987" x1="5.76014" y1="-11.5165" x2="20.6666" y2="40.3926" gradientUnits="userSpaceOnUse">
<stop stop-color="#CECB16"/>
<stop offset="1" stop-color="#1B1D20" stop-opacity="0"/>
</linearGradient>
</defs>
</svg>
