<svg width="41" height="41" viewBox="0 0 41 41" fill="none" xmlns="http://www.w3.org/2000/svg">
<rect x="0.833252" y="0.892578" width="39" height="39" rx="5.5" stroke="url(#paint0_linear_3604_48616)"/>
<rect x="0.833252" y="0.892578" width="39" height="39" rx="5.5" stroke="url(#paint1_linear_3604_48616)"/>
<path d="M20.2688 33.001C19.5527 33.001 18.8723 32.8255 18.2278 32.4746C17.5904 32.1237 17.0211 31.6475 16.5198 31.0459C16.0185 30.4443 15.6246 29.7604 15.3381 28.9941C15.0517 28.2279 14.9084 27.4258 14.9084 26.5879C14.9084 25.8861 15.0338 25.3024 15.2844 24.8369C15.5351 24.3714 15.886 23.999 16.3372 23.7197C16.7955 23.4404 17.329 23.2256 17.9377 23.0752V22.9785C17.637 22.8281 17.4006 22.6061 17.2288 22.3125C17.0569 22.0117 16.953 21.6859 16.9172 21.335C16.8886 20.9769 16.9316 20.6403 17.0461 20.3252C17.1607 20.0101 17.3541 19.7594 17.6262 19.5732V19.4766C16.7597 19.319 16.108 18.9896 15.6711 18.4883C15.2415 17.987 15.0266 17.3496 15.0266 16.5762C15.0266 15.8529 15.1627 15.1725 15.4348 14.5352C15.7069 13.8978 16.0865 13.3392 16.5735 12.8594C17.0605 12.3724 17.6191 11.9928 18.2493 11.7207C18.8795 11.4414 19.5527 11.3018 20.2688 11.3018C20.9849 11.3018 21.6581 11.4414 22.2883 11.7207C22.9185 11.9928 23.4771 12.3724 23.9641 12.8594C24.4511 13.3392 24.8306 13.8978 25.1028 14.5352C25.3821 15.1725 25.5217 15.8529 25.5217 16.5762C25.5217 17.3496 25.3033 17.987 24.8665 18.4883C24.4296 18.9896 23.7779 19.319 22.9114 19.4766V19.5732C23.1835 19.7594 23.3769 20.0101 23.4915 20.3252C23.606 20.6403 23.6454 20.9769 23.6096 21.335C23.581 21.6859 23.4807 22.0117 23.3088 22.3125C23.137 22.6061 22.9006 22.8281 22.5999 22.9785V23.0752C23.2229 23.2256 23.76 23.4404 24.2112 23.7197C24.6624 23.999 25.0097 24.3714 25.2532 24.8369C25.5038 25.3024 25.6292 25.8861 25.6292 26.5879C25.6292 27.4258 25.4859 28.2279 25.1995 28.9941C24.913 29.7604 24.5191 30.4443 24.0178 31.0459C23.5165 31.6475 22.9436 32.1237 22.2991 32.4746C21.6617 32.8255 20.9849 33.001 20.2688 33.001ZM20.2688 31.4434C20.8059 31.4434 21.3036 31.3037 21.762 31.0244C22.2275 30.7523 22.6357 30.3835 22.9866 29.918C23.3375 29.4596 23.6132 28.9548 23.8137 28.4033C24.0142 27.859 24.1145 27.3148 24.1145 26.7705C24.1145 26.0687 23.9068 25.5137 23.4915 25.1055C23.0833 24.6973 22.4853 24.4932 21.6975 24.4932H18.8401C18.0523 24.4932 17.4508 24.6973 17.0354 25.1055C16.6272 25.5137 16.4231 26.0687 16.4231 26.7705C16.4231 27.3148 16.5234 27.859 16.7239 28.4033C16.9244 28.9548 17.2001 29.4596 17.551 29.918C17.9019 30.3835 18.3101 30.7523 18.7756 31.0244C19.2411 31.3037 19.7389 31.4434 20.2688 31.4434ZM18.3137 21.0449C18.3137 21.6322 18.4892 22.1299 18.8401 22.5381C19.191 22.9463 19.6171 23.1504 20.1184 23.1504C20.1685 23.1504 20.2187 23.1504 20.2688 23.1504C20.3261 23.1504 20.3798 23.1504 20.4299 23.1504C20.9241 23.1504 21.3466 22.9463 21.6975 22.5381C22.0484 22.1299 22.2239 21.6322 22.2239 21.0449C22.2239 20.5794 22.0878 20.2178 21.8157 19.96C21.5435 19.695 21.1711 19.5625 20.6985 19.5625C20.5624 19.5625 20.4192 19.5625 20.2688 19.5625C20.1256 19.5625 19.9859 19.5625 19.8499 19.5625C19.37 19.5625 18.9941 19.695 18.7219 19.96C18.4498 20.2178 18.3137 20.5794 18.3137 21.0449ZM18.3889 18.1123H22.1487C22.5282 18.1123 22.8541 18.0479 23.1262 17.9189C23.4055 17.79 23.6204 17.6074 23.7708 17.3711C23.9211 17.1276 23.9963 16.8447 23.9963 16.5225C23.9963 15.8636 23.8209 15.2549 23.47 14.6963C23.1262 14.1377 22.6715 13.6901 22.1057 13.3535C21.54 13.0098 20.9277 12.8379 20.2688 12.8379C19.6171 12.8379 19.0048 13.0098 18.4319 13.3535C17.8661 13.6901 17.4114 14.1377 17.0676 14.6963C16.7239 15.2549 16.552 15.8636 16.552 16.5225C16.552 16.8447 16.6236 17.1276 16.7668 17.3711C16.9172 17.6074 17.1285 17.79 17.4006 17.9189C17.6799 18.0479 18.0094 18.1123 18.3889 18.1123ZM13.5334 32.3135C13.3043 32.3135 13.1324 32.249 13.0178 32.1201C12.9104 31.9912 12.8352 31.8122 12.7922 31.583L11.9651 26.2656C11.872 25.6712 11.9508 25.2057 12.2014 24.8691C12.4521 24.5254 12.9032 24.2783 13.5549 24.1279L17.9377 23.0752V24.418L14.2961 25.374C13.9381 25.4743 13.6946 25.6139 13.5657 25.793C13.4368 25.9648 13.401 26.2119 13.4583 26.5342L14.2209 31.4756C14.2568 31.7334 14.203 31.9375 14.0598 32.0879C13.9237 32.2383 13.7483 32.3135 13.5334 32.3135ZM27.0042 32.3135C26.7893 32.3135 26.6103 32.2383 26.467 32.0879C26.331 31.9375 26.2844 31.7334 26.3274 31.4756L27.0793 26.5342C27.1366 26.2119 27.1008 25.9648 26.9719 25.793C26.8502 25.6139 26.6067 25.4743 26.2415 25.374L22.5999 24.418V23.0752L26.9934 24.1279C27.6379 24.2783 28.0855 24.5254 28.3362 24.8691C28.5868 25.2057 28.6656 25.6712 28.5725 26.2656L27.7454 31.583C27.7024 31.8122 27.6236 31.9912 27.509 32.1201C27.4016 32.249 27.2333 32.3135 27.0042 32.3135ZM17.7122 21.8828L14.1458 21.3672C13.5084 21.2812 13.0429 21.0664 12.7493 20.7227C12.4628 20.3717 12.3196 19.8883 12.3196 19.2725V15.7812C12.3196 15.5592 12.3805 15.3838 12.5022 15.2549C12.6239 15.126 12.7958 15.0615 13.0178 15.0615C13.247 15.0615 13.4224 15.126 13.5442 15.2549C13.6659 15.3838 13.7268 15.5592 13.7268 15.7812V18.9824C13.7268 19.3477 13.8199 19.609 14.0061 19.7666C14.1923 19.917 14.4573 20.0173 14.801 20.0674L17.7122 20.4863V21.8828ZM22.8254 21.8828V20.4863L25.7366 20.0674C26.0875 20.0173 26.3525 19.917 26.5315 19.7666C26.7177 19.609 26.8108 19.3477 26.8108 18.9824V15.7812C26.8108 15.5592 26.8717 15.3838 26.9934 15.2549C27.1223 15.126 27.2978 15.0615 27.5198 15.0615C27.7418 15.0615 27.9137 15.126 28.0354 15.2549C28.1643 15.3838 28.2288 15.5592 28.2288 15.7812V19.2725C28.2288 19.8883 28.0819 20.3717 27.7883 20.7227C27.4947 21.0664 27.0292 21.2812 26.3918 21.3672L22.8254 21.8828ZM17.2288 13.6436L16.3157 12.999C15.8287 12.641 15.5458 12.2184 15.467 11.7314C15.3954 11.2373 15.5172 10.7145 15.8323 10.1631L16.5305 9.09961C16.7024 8.79883 16.928 8.64844 17.2073 8.64844C17.3935 8.64844 17.5474 8.70931 17.6692 8.83105C17.7981 8.94564 17.8625 9.09603 17.8625 9.28223C17.8625 9.36816 17.8518 9.44336 17.8303 9.50781C17.816 9.5651 17.7838 9.6403 17.7336 9.7334L17.0999 10.6572C16.9137 10.9508 16.8313 11.2194 16.8528 11.4629C16.8743 11.7064 17.0175 11.9248 17.2825 12.1182L18.0344 12.666L17.2288 13.6436ZM23.3196 13.665L22.5247 12.6768L23.2981 12.1182C23.5559 11.9248 23.6956 11.7064 23.717 11.4629C23.7457 11.2194 23.6669 10.9508 23.4807 10.6572L22.8362 9.7334C22.7861 9.6403 22.7502 9.5651 22.7288 9.50781C22.7144 9.44336 22.7073 9.36816 22.7073 9.28223C22.7073 9.09603 22.7681 8.94564 22.8899 8.83105C23.0188 8.70931 23.1764 8.64844 23.3625 8.64844C23.649 8.64844 23.8746 8.79883 24.0393 9.09961L24.7268 10.1631C25.0562 10.7145 25.1816 11.2373 25.1028 11.7314C25.024 12.2184 24.7411 12.641 24.2542 12.999L23.3196 13.665Z" fill="#EFEB00"/>
<defs>
<linearGradient id="paint0_linear_3604_48616" x1="5.42677" y1="-11.5165" x2="20.3333" y2="40.3926" gradientUnits="userSpaceOnUse">
<stop stop-color="#CECB16"/>
<stop offset="1" stop-color="#1B1D20" stop-opacity="0"/>
</linearGradient>
<linearGradient id="paint1_linear_3604_48616" x1="-7.4634" y1="-55.3322" x2="55.3249" y2="-25.4983" gradientUnits="userSpaceOnUse">
<stop stop-color="#4A67FF"/>
<stop offset="0.32" stop-color="#EFEB00"/>
<stop offset="0.675" stop-color="#8940D3"/>
<stop offset="0.985" stop-color="#4A67FF"/>
</linearGradient>
</defs>
</svg>
