<svg width="41" height="41" viewBox="0 0 41 41" fill="none" xmlns="http://www.w3.org/2000/svg">
<rect x="0.583344" y="0.642578" width="39.5" height="39.5" rx="5.75" fill="#2A2D31"/>
<rect x="0.583344" y="0.642578" width="39.5" height="39.5" rx="5.75" stroke="url(#paint0_linear_2599_57983)" stroke-width="0.5"/>
<path d="M20.2689 33.001C19.5527 33.001 18.8724 32.8255 18.2279 32.4746C17.5905 32.1237 17.0212 31.6475 16.5199 31.0459C16.0186 30.4443 15.6247 29.7604 15.3382 28.9941C15.0518 28.2279 14.9085 27.4258 14.9085 26.5879C14.9085 25.8861 15.0339 25.3024 15.2845 24.8369C15.5352 24.3714 15.8861 23.999 16.3372 23.7197C16.7956 23.4404 17.3291 23.2256 17.9378 23.0752V22.9785C17.6371 22.8281 17.4007 22.6061 17.2289 22.3125C17.057 22.0117 16.9531 21.6859 16.9173 21.335C16.8887 20.9769 16.9317 20.6403 17.0462 20.3252C17.1608 20.0101 17.3542 19.7594 17.6263 19.5732V19.4766C16.7598 19.319 16.1081 18.9896 15.6712 18.4883C15.2415 17.987 15.0267 17.3496 15.0267 16.5762C15.0267 15.8529 15.1628 15.1725 15.4349 14.5352C15.707 13.8978 16.0866 13.3392 16.5736 12.8594C17.0606 12.3724 17.6192 11.9928 18.2494 11.7207C18.8796 11.4414 19.5527 11.3018 20.2689 11.3018C20.985 11.3018 21.6582 11.4414 22.2884 11.7207C22.9186 11.9928 23.4772 12.3724 23.9642 12.8594C24.4512 13.3392 24.8307 13.8978 25.1029 14.5352C25.3822 15.1725 25.5218 15.8529 25.5218 16.5762C25.5218 17.3496 25.3034 17.987 24.8665 18.4883C24.4297 18.9896 23.778 19.319 22.9115 19.4766V19.5732C23.1836 19.7594 23.377 20.0101 23.4915 20.3252C23.6061 20.6403 23.6455 20.9769 23.6097 21.335C23.5811 21.6859 23.4808 22.0117 23.3089 22.3125C23.1371 22.6061 22.9007 22.8281 22.5999 22.9785V23.0752C23.223 23.2256 23.7601 23.4404 24.2113 23.7197C24.6624 23.999 25.0098 24.3714 25.2533 24.8369C25.5039 25.3024 25.6292 25.8861 25.6292 26.5879C25.6292 27.4258 25.486 28.2279 25.1996 28.9941C24.9131 29.7604 24.5192 30.4443 24.0179 31.0459C23.5166 31.6475 22.9437 32.1237 22.2992 32.4746C21.6618 32.8255 20.985 33.001 20.2689 33.001ZM20.2689 31.4434C20.806 31.4434 21.3037 31.3037 21.7621 31.0244C22.2275 30.7523 22.6358 30.3835 22.9867 29.918C23.3376 29.4596 23.6133 28.9548 23.8138 28.4033C24.0143 27.859 24.1146 27.3148 24.1146 26.7705C24.1146 26.0687 23.9069 25.5137 23.4915 25.1055C23.0833 24.6973 22.4854 24.4932 21.6976 24.4932H18.8402C18.0524 24.4932 17.4509 24.6973 17.0355 25.1055C16.6273 25.5137 16.4232 26.0687 16.4232 26.7705C16.4232 27.3148 16.5234 27.859 16.724 28.4033C16.9245 28.9548 17.2002 29.4596 17.5511 29.918C17.902 30.3835 18.3102 30.7523 18.7757 31.0244C19.2412 31.3037 19.7389 31.4434 20.2689 31.4434ZM18.3138 21.0449C18.3138 21.6322 18.4893 22.1299 18.8402 22.5381C19.1911 22.9463 19.6172 23.1504 20.1185 23.1504C20.1686 23.1504 20.2188 23.1504 20.2689 23.1504C20.3262 23.1504 20.3799 23.1504 20.43 23.1504C20.9242 23.1504 21.3467 22.9463 21.6976 22.5381C22.0485 22.1299 22.224 21.6322 22.224 21.0449C22.224 20.5794 22.0879 20.2178 21.8158 19.96C21.5436 19.695 21.1712 19.5625 20.6986 19.5625C20.5625 19.5625 20.4193 19.5625 20.2689 19.5625C20.1257 19.5625 19.986 19.5625 19.8499 19.5625C19.3701 19.5625 18.9942 19.695 18.722 19.96C18.4499 20.2178 18.3138 20.5794 18.3138 21.0449ZM18.389 18.1123H22.1488C22.5283 18.1123 22.8542 18.0479 23.1263 17.9189C23.4056 17.79 23.6205 17.6074 23.7708 17.3711C23.9212 17.1276 23.9964 16.8447 23.9964 16.5225C23.9964 15.8636 23.821 15.2549 23.4701 14.6963C23.1263 14.1377 22.6716 13.6901 22.1058 13.3535C21.54 13.0098 20.9277 12.8379 20.2689 12.8379C19.6172 12.8379 19.0049 13.0098 18.432 13.3535C17.8662 13.6901 17.4115 14.1377 17.0677 14.6963C16.724 15.2549 16.5521 15.8636 16.5521 16.5225C16.5521 16.8447 16.6237 17.1276 16.7669 17.3711C16.9173 17.6074 17.1286 17.79 17.4007 17.9189C17.68 18.0479 18.0095 18.1123 18.389 18.1123ZM13.5335 32.3135C13.3044 32.3135 13.1325 32.249 13.0179 32.1201C12.9105 31.9912 12.8353 31.8122 12.7923 31.583L11.9652 26.2656C11.8721 25.6712 11.9509 25.2057 12.2015 24.8691C12.4522 24.5254 12.9033 24.2783 13.555 24.1279L17.9378 23.0752V24.418L14.2962 25.374C13.9382 25.4743 13.6947 25.6139 13.5658 25.793C13.4369 25.9648 13.4011 26.2119 13.4583 26.5342L14.221 31.4756C14.2568 31.7334 14.2031 31.9375 14.0599 32.0879C13.9238 32.2383 13.7484 32.3135 13.5335 32.3135ZM27.0042 32.3135C26.7894 32.3135 26.6104 32.2383 26.4671 32.0879C26.3311 31.9375 26.2845 31.7334 26.3275 31.4756L27.0794 26.5342C27.1367 26.2119 27.1009 25.9648 26.972 25.793C26.8503 25.6139 26.6068 25.4743 26.2415 25.374L22.5999 24.418V23.0752L26.9935 24.1279C27.638 24.2783 28.0856 24.5254 28.3363 24.8691C28.5869 25.2057 28.6657 25.6712 28.5726 26.2656L27.7455 31.583C27.7025 31.8122 27.6237 31.9912 27.5091 32.1201C27.4017 32.249 27.2334 32.3135 27.0042 32.3135ZM17.7122 21.8828L14.1458 21.3672C13.5085 21.2812 13.043 21.0664 12.7494 20.7227C12.4629 20.3717 12.3197 19.8883 12.3197 19.2725V15.7812C12.3197 15.5592 12.3805 15.3838 12.5023 15.2549C12.624 15.126 12.7959 15.0615 13.0179 15.0615C13.2471 15.0615 13.4225 15.126 13.5443 15.2549C13.666 15.3838 13.7269 15.5592 13.7269 15.7812V18.9824C13.7269 19.3477 13.82 19.609 14.0062 19.7666C14.1924 19.917 14.4574 20.0173 14.8011 20.0674L17.7122 20.4863V21.8828ZM22.8255 21.8828V20.4863L25.7367 20.0674C26.0876 20.0173 26.3525 19.917 26.5316 19.7666C26.7178 19.609 26.8109 19.3477 26.8109 18.9824V15.7812C26.8109 15.5592 26.8718 15.3838 26.9935 15.2549C27.1224 15.126 27.2979 15.0615 27.5199 15.0615C27.7419 15.0615 27.9137 15.126 28.0355 15.2549C28.1644 15.3838 28.2289 15.5592 28.2289 15.7812V19.2725C28.2289 19.8883 28.082 20.3717 27.7884 20.7227C27.4948 21.0664 27.0293 21.2812 26.3919 21.3672L22.8255 21.8828ZM17.2289 13.6436L16.3158 12.999C15.8288 12.641 15.5459 12.2184 15.4671 11.7314C15.3955 11.2373 15.5173 10.7145 15.8324 10.1631L16.5306 9.09961C16.7025 8.79883 16.9281 8.64844 17.2074 8.64844C17.3936 8.64844 17.5475 8.70931 17.6693 8.83105C17.7982 8.94564 17.8626 9.09603 17.8626 9.28223C17.8626 9.36816 17.8519 9.44336 17.8304 9.50781C17.8161 9.5651 17.7839 9.6403 17.7337 9.7334L17.0999 10.6572C16.9137 10.9508 16.8314 11.2194 16.8529 11.4629C16.8744 11.7064 17.0176 11.9248 17.2826 12.1182L18.0345 12.666L17.2289 13.6436ZM23.3197 13.665L22.5247 12.6768L23.2982 12.1182C23.556 11.9248 23.6956 11.7064 23.7171 11.4629C23.7458 11.2194 23.667 10.9508 23.4808 10.6572L22.8363 9.7334C22.7861 9.6403 22.7503 9.5651 22.7289 9.50781C22.7145 9.44336 22.7074 9.36816 22.7074 9.28223C22.7074 9.09603 22.7682 8.94564 22.89 8.83105C23.0189 8.70931 23.1764 8.64844 23.3626 8.64844C23.6491 8.64844 23.8747 8.79883 24.0394 9.09961L24.7269 10.1631C25.0563 10.7145 25.1817 11.2373 25.1029 11.7314C25.0241 12.2184 24.7412 12.641 24.2542 12.999L23.3197 13.665Z" fill="#EFEB00"/>
<defs>
<linearGradient id="paint0_linear_2599_57983" x1="5.42686" y1="-11.5165" x2="20.3333" y2="40.3926" gradientUnits="userSpaceOnUse">
<stop stop-color="#CECB16"/>
<stop offset="1" stop-color="#1B1D20" stop-opacity="0"/>
</linearGradient>
</defs>
</svg>
