<svg width="40" height="41" viewBox="0 0 40 41" fill="none" xmlns="http://www.w3.org/2000/svg">
<rect x="0.25" y="0.642578" width="39.5" height="39.5" rx="5.75" fill="#2A2D31"/>
<rect x="0.25" y="0.642578" width="39.5" height="39.5" rx="5.75" stroke="url(#paint0_linear_2592_57965)" stroke-width="0.5"/>
<path d="M21.0723 21.4854V30.7666C21.0723 31.2965 20.972 31.7012 20.7715 31.9805C20.5781 32.2669 20.3096 32.4209 19.9658 32.4424C19.6221 32.4639 19.2282 32.3493 18.7842 32.0986L10.7812 27.4688C10.4661 27.2897 10.2227 27.1071 10.0508 26.9209C9.87891 26.7275 9.75716 26.5127 9.68555 26.2764C9.62109 26.0329 9.58887 25.7464 9.58887 25.417V15.8779C9.58887 15.4411 9.69987 15.1081 9.92188 14.8789C10.151 14.6497 10.4303 14.5244 10.7598 14.5029C11.0892 14.4814 11.415 14.5602 11.7373 14.7393L19.9121 19.4551C20.1914 19.627 20.417 19.806 20.5889 19.9922C20.7607 20.1784 20.8825 20.3932 20.9541 20.6367C21.0329 20.873 21.0723 21.1559 21.0723 21.4854ZM19.1387 20.7979L11.2969 16.2754C11.2467 16.2396 11.1966 16.2324 11.1465 16.2539C11.1035 16.2754 11.082 16.3184 11.082 16.3828V25.3848C11.082 25.5781 11.1107 25.7285 11.168 25.8359C11.2324 25.9362 11.347 26.0329 11.5117 26.126L19.3857 30.6592C19.443 30.695 19.486 30.7021 19.5146 30.6807C19.5505 30.6592 19.5684 30.6198 19.5684 30.5625V21.5391C19.5684 21.3242 19.5361 21.1702 19.4717 21.0771C19.4072 20.984 19.2962 20.891 19.1387 20.7979ZM20.2559 27.8984V26.126L23.7256 28.1133C23.7757 28.1491 23.8187 28.1598 23.8545 28.1455C23.8903 28.124 23.9082 28.0811 23.9082 28.0166V18.9824C23.9082 18.7747 23.876 18.6243 23.8115 18.5312C23.7471 18.431 23.6361 18.3379 23.4785 18.252L15.6475 13.7188C15.5902 13.6901 15.54 13.6901 15.4971 13.7188C15.4541 13.7402 15.4326 13.7796 15.4326 13.8369V17.7041L13.9287 16.9092V13.332C13.9287 12.888 14.0397 12.5514 14.2617 12.3223C14.4909 12.0931 14.7666 11.9678 15.0889 11.9463C15.4183 11.9248 15.7441 12.0072 16.0664 12.1934L24.2412 16.9092C24.5277 17.0739 24.7568 17.2529 24.9287 17.4463C25.1006 17.6325 25.2223 17.8438 25.2939 18.0801C25.3727 18.3164 25.4121 18.5993 25.4121 18.9287V28.2207C25.4121 28.7507 25.3118 29.1553 25.1113 29.4346C24.918 29.7139 24.6458 29.8643 24.2949 29.8857C23.9512 29.9144 23.5609 29.8034 23.124 29.5527L20.2559 27.8984ZM24.6709 25.7178V23.9346L27.7861 25.75C27.8434 25.7786 27.89 25.7858 27.9258 25.7715C27.9616 25.75 27.9795 25.707 27.9795 25.6426V16.6084C27.9795 16.4079 27.9437 16.2611 27.8721 16.168C27.8076 16.0677 27.7002 15.971 27.5498 15.8779L19.708 11.3447C19.6507 11.3161 19.6006 11.3161 19.5576 11.3447C19.5146 11.3662 19.4932 11.4056 19.4932 11.4629V15.0293L18 14.2881V10.9688C18 10.5247 18.111 10.1882 18.333 9.95898C18.555 9.72266 18.8307 9.59375 19.1602 9.57227C19.4967 9.55078 19.8226 9.63314 20.1377 9.81934L28.3018 14.5352C28.5954 14.6999 28.8245 14.8789 28.9893 15.0723C29.1611 15.2585 29.2829 15.4697 29.3545 15.7061C29.4333 15.9424 29.4727 16.2253 29.4727 16.5547V25.8467C29.4727 26.3766 29.3724 26.7812 29.1719 27.0605C28.9785 27.3398 28.7064 27.4938 28.3555 27.5225C28.0117 27.5439 27.6214 27.4294 27.1846 27.1787L24.6709 25.7178Z" fill="#EFEB00"/>
<defs>
<linearGradient id="paint0_linear_2592_57965" x1="5.09351" y1="-11.5165" x2="20" y2="40.3926" gradientUnits="userSpaceOnUse">
<stop stop-color="#CECB16"/>
<stop offset="1" stop-color="#1B1D20" stop-opacity="0"/>
</linearGradient>
</defs>
</svg>
