<svg width="37" height="36" viewBox="0 0 37 36" fill="none" xmlns="http://www.w3.org/2000/svg">
<g clip-path="url(#clip0_4551_32974)">
<rect x="0.795898" y="-0.000488281" width="36.0009" height="36.0009" rx="18.0005" fill="#017BFE"/>
<g clip-path="url(#clip1_4551_32974)">
<path d="M21.1971 22.6427C21.3245 22.5584 21.5009 22.6125 21.5532 22.752L23.5336 28.037C23.5973 28.2069 23.4369 28.376 23.2539 28.3316L15.9621 26.5643C15.766 26.5167 15.7195 26.2705 15.8858 26.1603L21.1971 22.6427Z" fill="white"/>
<path d="M22.4762 21.4762C22.467 21.4518 22.4624 21.426 22.4624 21.4001V16.0738C22.4624 15.9231 22.3109 15.8148 22.1599 15.8575L15.9116 17.624C15.7606 17.6667 15.6091 17.5584 15.6091 17.4078V13.9655C15.6091 13.8952 15.6435 13.8288 15.702 13.7862L23.8443 7.85013C23.9574 7.76763 24.1206 7.79913 24.1915 7.91716L29.1102 16.1086C29.1451 16.1667 29.1512 16.2365 29.1269 16.2993L24.9857 26.9969C24.9093 27.1943 24.617 27.1928 24.5428 26.9947L22.4762 21.4762Z" fill="white"/>
<path d="M13.5241 8.31197C13.5634 8.27513 13.615 8.25262 13.6698 8.24834L21.1849 7.66197C21.4197 7.64366 21.5342 7.92975 21.3468 8.06618L14.9413 12.7279C14.882 12.7711 14.8049 12.7849 14.7333 12.7651L10.5153 11.6019C10.3418 11.5541 10.2866 11.345 10.4156 11.2241L13.5241 8.31197Z" fill="white"/>
<path d="M9.34133 12.7723C9.3593 12.6348 9.50149 12.5452 9.64067 12.5837L14.111 13.8202C14.2119 13.8481 14.2812 13.9364 14.2812 14.0368V19.0432C14.2812 19.1939 14.4329 19.3022 14.5839 19.2594L20.7888 17.5008C20.9399 17.458 21.0915 17.5663 21.0915 17.717V20.8969C21.0915 20.9708 21.0536 21.0399 20.9903 21.0821L14.0307 25.71C13.9399 25.7703 13.8175 25.7622 13.7363 25.6905L8.37196 20.9525C8.31609 20.9032 8.28853 20.8311 8.29796 20.7589L9.34133 12.7723Z" fill="white"/>
</g>
</g>
<defs>
<clipPath id="clip0_4551_32974">
<rect width="36.0009" height="36.0009" fill="white" transform="translate(0.795898 -0.000488281)"/>
</clipPath>
<clipPath id="clip1_4551_32974">
<rect width="25.8473" height="20.6778" fill="white" transform="translate(8.29614 7.66113)"/>
</clipPath>
</defs>
</svg>
