<svg width="37" height="36" viewBox="0 0 37 36" fill="none" xmlns="http://www.w3.org/2000/svg">
<g clip-path="url(#clip0_4551_32977)">
<path d="M18.7964 36.0005C28.7378 36.0005 36.7969 27.9414 36.7969 18C36.7969 8.05861 28.7378 -0.000488281 18.7964 -0.000488281C8.85499 -0.000488281 0.795898 8.05861 0.795898 18C0.795898 27.9414 8.85499 36.0005 18.7964 36.0005Z" fill="#FF007A"/>
<path d="M16.3961 10.8369C16.1198 10.796 16.1045 10.7858 16.2375 10.7704C16.4883 10.7295 17.0716 10.7858 17.4809 10.8779C18.4327 11.103 19.2873 11.6812 20.1981 12.6995L20.4335 12.9758L20.7763 12.9247C22.2398 12.6893 23.7442 12.8735 25.0029 13.4517C25.3458 13.6103 25.8882 13.9276 25.9547 14.0043C25.9803 14.0299 26.0212 14.2039 26.0468 14.3728C26.1389 14.9919 26.098 15.4576 25.9035 15.8106C25.7961 16.0102 25.7961 16.0614 25.8626 16.2354C25.9138 16.3684 26.0724 16.4605 26.2208 16.4605C26.538 16.4605 26.8655 15.959 27.0241 15.258L27.0907 14.9817L27.2084 15.1147C27.8838 15.8669 28.4109 16.9108 28.4876 17.6476L28.5132 17.8472L28.3955 17.6732C28.1959 17.3713 28.0117 17.1718 27.761 16.9978C27.3107 16.6959 26.8348 16.6038 25.5812 16.5373C24.4452 16.4707 23.8004 16.3786 23.1659 16.1688C22.0811 15.8106 21.5285 15.3501 20.2492 13.6462C19.6813 12.894 19.3231 12.4846 18.97 12.1418C18.1922 11.3896 17.4093 10.9956 16.3961 10.8369Z" fill="white"/>
<path d="M26.2309 12.5103C26.2565 12.0088 26.323 11.6762 26.4663 11.3743C26.5174 11.2566 26.5737 11.1492 26.584 11.1492C26.5993 11.1492 26.5686 11.2413 26.5328 11.3487C26.4253 11.6404 26.4151 12.0498 26.4816 12.5103C26.5737 13.1039 26.6147 13.1857 27.2492 13.8305C27.5408 14.1324 27.8837 14.5162 28.0167 14.6748L28.2419 14.9665L28.0167 14.7567C27.7404 14.4906 27.1059 13.9891 26.9626 13.9226C26.8705 13.8714 26.8552 13.8714 26.7886 13.9379C26.7375 13.9891 26.7221 14.071 26.7221 14.4548C26.7068 15.0483 26.63 15.4167 26.4305 15.8005C26.323 16.0001 26.3128 15.9591 26.4049 15.734C26.4714 15.56 26.4816 15.4833 26.4816 14.9153C26.4816 13.7691 26.3486 13.4876 25.5452 13.0271C25.3456 12.9094 25.0028 12.7354 24.8084 12.6433C24.5986 12.5512 24.4399 12.4694 24.4502 12.4694C24.4758 12.4438 25.2535 12.6689 25.5606 12.7968C26.0211 12.9811 26.103 12.9964 26.1541 12.9811C26.19 12.9504 26.2155 12.8429 26.2309 12.5103Z" fill="white"/>
<path d="M16.9384 14.4803C16.3858 13.7127 16.0276 12.5256 16.1043 11.6403L16.1299 11.364L16.263 11.3896C16.4983 11.4305 16.9077 11.5892 17.1073 11.7069C17.6343 12.0241 17.8748 12.4591 18.0948 13.5439C18.1614 13.8611 18.2535 14.2295 18.2944 14.3472C18.3609 14.5468 18.6117 15.0073 18.8215 15.299C18.9647 15.5088 18.8726 15.6162 18.5451 15.5907C18.0437 15.5344 17.3733 15.0738 16.9384 14.4803Z" fill="white"/>
<path d="M25.5554 20.2214C22.9406 19.1673 22.0195 18.2565 22.0195 16.7111C22.0195 16.486 22.0349 16.3018 22.0349 16.3018C22.0502 16.3018 22.1423 16.3785 22.26 16.4757C22.7871 16.9004 23.3807 17.0847 25.0334 17.32C25.9954 17.4633 26.5532 17.5708 27.0547 17.7448C28.6512 18.2718 29.6439 19.3566 29.8792 20.8201C29.9458 21.2448 29.9048 22.0481 29.8025 22.4677C29.7104 22.7952 29.4443 23.4042 29.3778 23.4195C29.3624 23.4195 29.3368 23.353 29.3368 23.2455C29.3113 22.6929 29.0349 22.1607 28.5693 21.7514C28.0115 21.2806 27.3003 20.9224 25.5554 20.2214Z" fill="white"/>
<path d="M23.708 20.6565C23.6824 20.4569 23.6159 20.2062 23.575 20.1039L23.5084 19.9043L23.6261 20.0476C23.8001 20.2471 23.928 20.4825 24.0508 20.8151C24.1429 21.0659 24.1429 21.1426 24.1429 21.552C24.1429 21.946 24.1276 22.0381 24.0508 22.2632C23.9178 22.6214 23.7592 22.8722 23.4982 23.1485C23.0223 23.6346 22.4032 23.9007 21.5179 24.0184C21.3593 24.0337 20.909 24.0695 20.515 24.0951C19.5274 24.1463 18.8673 24.2537 18.2686 24.4635C18.1919 24.4891 18.11 24.5147 18.0946 24.5045C18.0691 24.4789 18.4784 24.2384 18.8059 24.0798C19.2664 23.8546 19.7423 23.7369 20.7862 23.5527C21.303 23.476 21.8301 23.3685 21.9631 23.3173C23.2731 22.9131 23.9178 21.8999 23.708 20.6565Z" fill="white"/>
<path d="M24.9106 22.7854C24.5678 22.0332 24.4859 21.3219 24.6753 20.6465C24.7008 20.5799 24.7264 20.5134 24.752 20.5134C24.7776 20.5134 24.8595 20.5544 24.9362 20.6055C25.0948 20.713 25.4223 20.8972 26.2718 21.3577C27.3412 21.9411 27.9501 22.3862 28.3697 22.9031C28.7381 23.3534 28.9633 23.8651 29.0708 24.4996C29.1373 24.8578 29.0963 25.7123 29.0042 26.0705C28.7126 27.1911 28.0525 28.0917 27.0905 28.6034C26.9472 28.6802 26.8244 28.7364 26.8142 28.7364C26.8039 28.7364 26.8551 28.6034 26.9318 28.4448C27.2491 27.7693 27.29 27.1246 27.0495 26.398C26.9063 25.9477 26.5992 25.4104 25.9954 24.4945C25.2637 23.4455 25.0948 23.164 24.9106 22.7854Z" fill="white"/>
<path d="M15.0759 26.8226C16.0532 26.0039 17.2557 25.4257 18.361 25.2364C18.8369 25.1596 19.63 25.1852 20.065 25.3029C20.766 25.4871 21.4005 25.8862 21.728 26.3723C22.0452 26.8482 22.1885 27.2576 22.3369 28.1684C22.3881 28.5266 22.4546 28.895 22.4699 28.9718C22.5774 29.4476 22.7872 29.8161 23.0533 30.0156C23.4626 30.3175 24.1739 30.3329 24.8749 30.0668C24.9926 30.0259 25.1001 29.99 25.1001 30.0003C25.1257 30.0259 24.7726 30.2664 24.5321 30.3841C24.2046 30.558 23.9385 30.6092 23.5803 30.6092C22.9458 30.6092 22.4034 30.2817 21.9685 29.6216C21.8764 29.4886 21.6922 29.1048 21.5335 28.7517C21.073 27.6823 20.8325 27.365 20.2901 27.0068C19.8142 26.7049 19.2053 26.6384 18.7448 26.8636C18.1358 27.1552 17.9772 27.933 18.4019 28.4089C18.5759 28.6085 18.888 28.7671 19.1541 28.8029C19.6402 28.8694 20.065 28.4857 20.065 27.9995C20.065 27.6823 19.9473 27.4981 19.63 27.3548C19.2053 27.1706 18.7448 27.3804 18.7601 27.7897C18.7601 27.9637 18.8369 28.0661 19.0108 28.1479C19.1183 28.1991 19.1183 28.1991 19.0364 28.1889C18.6527 28.1121 18.5606 27.6362 18.8625 27.3292C19.2309 26.9608 20.0087 27.1194 20.2747 27.6311C20.3822 27.8409 20.3924 28.2656 20.3003 28.5266C20.0752 29.1099 19.4407 29.4118 18.7959 29.2378C18.361 29.1202 18.1768 29.0025 17.6497 28.4601C16.7236 27.5083 16.3705 27.3241 15.0503 27.1245L14.7996 27.0836L15.0759 26.8226Z" fill="white"/>
<path fill-rule="evenodd" clip-rule="evenodd" d="M8.13198 5.5819C11.2073 9.31731 15.9456 15.1251 16.1861 15.4424C16.3857 15.7084 16.3038 15.9592 15.9763 16.1434C15.7921 16.2508 15.4083 16.3532 15.2241 16.3532C15.0143 16.3532 14.7636 16.2457 14.5896 16.0769C14.4719 15.9592 13.9551 15.207 12.7936 13.3956C11.9083 12.0089 11.1561 10.8626 11.1459 10.8473C11.0947 10.8217 11.0947 10.8217 12.7015 13.6975C13.7197 15.5038 14.0472 16.1536 14.0472 16.2304C14.0472 16.4044 13.9961 16.4965 13.7811 16.7318C13.423 17.1258 13.2643 17.5761 13.1466 18.5126C13.0136 19.5564 12.6605 20.2933 11.6422 21.5469C11.0487 22.2838 10.9566 22.4168 10.8082 22.7238C10.624 23.0923 10.5728 23.3072 10.5421 23.7779C10.5165 24.2794 10.5677 24.5967 10.7161 25.0725C10.8491 25.4973 10.9924 25.7736 11.3506 26.316C11.6525 26.7919 11.8367 27.15 11.8367 27.278C11.8367 27.3854 11.8623 27.3854 12.3382 27.278C13.4741 27.0119 14.4105 26.5667 14.9274 26.009C15.2446 25.6661 15.3214 25.4819 15.3214 25.006C15.3214 24.7041 15.306 24.6376 15.2293 24.4534C15.0962 24.1617 14.8455 23.9263 14.3031 23.5579C13.5918 23.0718 13.2848 22.6727 13.208 22.1456C13.1415 21.6953 13.2234 21.3934 13.6174 20.5594C14.0268 19.6997 14.1342 19.3466 14.2007 18.4716C14.2417 17.919 14.3082 17.6938 14.4668 17.5199C14.6408 17.3356 14.7841 17.2691 15.1934 17.218C15.8689 17.1258 16.3038 16.9519 16.6467 16.6244C16.9486 16.3481 17.0816 16.0717 17.097 15.6624L17.1123 15.3605L16.9383 15.1763C16.3141 14.465 7.72262 5.01392 7.68168 5.01392C7.66633 5.01392 7.88125 5.26465 8.13198 5.5819ZM12.1846 24.3562C12.3279 24.1054 12.2512 23.7882 12.0107 23.6296C11.7855 23.4863 11.4427 23.5528 11.4427 23.7472C11.4427 23.7984 11.4683 23.8547 11.5501 23.8803C11.6678 23.9468 11.6832 24.0133 11.5911 24.1566C11.499 24.2999 11.499 24.4329 11.6167 24.525C11.8009 24.6734 12.0516 24.5915 12.1846 24.3562Z" fill="white"/>
<path fill-rule="evenodd" clip-rule="evenodd" d="M17.5319 17.4122C17.2147 17.5043 16.9128 17.8471 16.8207 18.19C16.7695 18.3998 16.7951 18.7835 16.8872 18.9012C17.0305 19.0855 17.1635 19.1366 17.5319 19.1366C18.2585 19.1366 18.8777 18.8194 18.9442 18.4356C19.0107 18.1183 18.7344 17.6834 18.3506 17.4838C18.1511 17.3815 17.7417 17.3457 17.5319 17.4122ZM18.3762 18.0723C18.4837 17.9137 18.4427 17.7448 18.2432 17.622C17.885 17.3968 17.3477 17.5811 17.3477 17.9239C17.3477 18.0979 17.624 18.2821 17.8901 18.2821C18.059 18.2821 18.2944 18.1746 18.3762 18.0723Z" fill="white"/>
</g>
<defs>
<clipPath id="clip0_4551_32977">
<rect width="36.001" height="36.001" fill="white" transform="translate(0.795898 -0.000488281)"/>
</clipPath>
</defs>
</svg>
