<svg width="20" height="20" viewBox="0 0 20 20" fill="none" xmlns="http://www.w3.org/2000/svg">
<path d="M6.35938 17.6328C5.9375 17.6328 5.60417 17.513 5.35938 17.2734C5.11458 17.0391 4.99219 16.7005 4.99219 16.2578V16.1094C4.99219 15.6302 5.09896 15.151 5.3125 14.6719C5.53125 14.1875 5.80208 13.7266 6.125 13.2891C6.45312 12.8464 6.78906 12.4427 7.13281 12.0781C7.48177 11.7135 7.78125 11.4036 8.03125 11.1484C8.28646 10.9036 8.41667 10.6406 8.42188 10.3594C8.43229 10.0781 8.30208 9.80729 8.03125 9.54688C7.78125 9.29167 7.48177 8.98177 7.13281 8.61719C6.78906 8.2526 6.45312 7.85156 6.125 7.41406C5.80208 6.97656 5.53125 6.51823 5.3125 6.03906C5.09896 5.55469 4.99219 5.07031 4.99219 4.58594V4.46094C4.99219 4.01302 5.11458 3.67188 5.35938 3.4375C5.60417 3.19792 5.9375 3.07812 6.35938 3.07812H12.9531C13.3802 3.07812 13.7161 3.19792 13.9609 3.4375C14.2057 3.67188 14.3281 4.01302 14.3281 4.46094V4.58594C14.3281 5.07031 14.2188 5.55469 14 6.03906C13.7865 6.51823 13.5156 6.97656 13.1875 7.41406C12.8594 7.85156 12.5234 8.2526 12.1797 8.61719C11.8359 8.98177 11.5365 9.29167 11.2812 9.54688C11.0156 9.80729 10.888 10.0781 10.8984 10.3594C10.9089 10.6406 11.0365 10.9036 11.2812 11.1484C11.5365 11.4036 11.8359 11.7135 12.1797 12.0781C12.5234 12.4427 12.8594 12.8464 13.1875 13.2891C13.5156 13.7266 13.7865 14.1875 14 14.6719C14.2188 15.151 14.3281 15.6302 14.3281 16.1094V16.2578C14.3281 16.7005 14.2057 17.0391 13.9609 17.2734C13.7161 17.513 13.3802 17.6328 12.9531 17.6328H6.35938ZM10.2734 9.07031C10.4141 8.95052 10.6042 8.77083 10.8438 8.53125C11.0833 8.28646 11.3385 8.01562 11.6094 7.71875C11.8854 7.42188 12.1432 7.1276 12.3828 6.83594C12.6224 6.53906 12.8099 6.27604 12.9453 6.04688C13.0339 5.90625 13.0599 5.78385 13.0234 5.67969C12.9922 5.57552 12.901 5.52344 12.75 5.52344H6.5625C6.42188 5.52344 6.33333 5.57552 6.29688 5.67969C6.26042 5.78385 6.28385 5.90625 6.36719 6.04688C6.50781 6.27604 6.69792 6.53906 6.9375 6.83594C7.17708 7.1276 7.43229 7.42188 7.70312 7.71875C7.97396 8.01562 8.22917 8.28646 8.46875 8.53125C8.71354 8.77083 8.90365 8.95052 9.03906 9.07031C9.26302 9.25781 9.46875 9.35156 9.65625 9.35156C9.84896 9.35156 10.0547 9.25781 10.2734 9.07031Z" fill="#D983FD"/>
</svg>
