<svg width="349" height="349" viewBox="0 0 349 349" fill="none" xmlns="http://www.w3.org/2000/svg">
<g opacity="0.6" filter="url(#filter0_f_3825_5899)">
<path fill-rule="evenodd" clip-rule="evenodd" d="M174.5 306.144C199.069 306.144 222.049 299.434 241.732 287.747C246.226 285.079 252.107 286.108 255.09 290.399C258.073 294.69 257.027 300.614 252.557 303.322C229.782 317.124 203.058 325.069 174.5 325.069C145.953 325.069 119.238 317.129 96.4678 303.338C91.9978 300.63 90.9508 294.706 93.9329 290.414C96.915 286.123 102.796 285.093 107.29 287.761C126.968 299.439 149.94 306.144 174.5 306.144Z" fill="#8940D3"/>
<path fill-rule="evenodd" clip-rule="evenodd" d="M39.1166 133.469C44.1211 134.974 46.922 140.246 45.7821 145.347C43.7045 154.642 42.6071 164.314 42.6071 174.251C42.6071 213.679 59.8987 249.065 87.3429 273.246C91.264 276.701 92.0929 282.613 88.9263 286.771C85.7597 290.928 79.8003 291.753 75.8488 288.333C43.9109 260.691 23.6821 219.832 23.6821 174.251C23.6821 162.438 25.0422 150.931 27.6174 139.884C28.8039 134.795 34.1121 131.963 39.1166 133.469Z" fill="#14BDA8"/>
<path fill-rule="evenodd" clip-rule="evenodd" d="M205.867 40.496C205.182 43.4322 202.265 45.2484 199.303 44.6851C196.341 44.1217 194.258 41.3559 194.698 38.373L195.75 31.231C196.253 27.818 199.449 25.4488 202.839 26.0933C206.228 26.7379 208.294 30.1068 207.509 33.4662L205.867 40.496Z" fill="#1DA9C8"/>
<path fill-rule="evenodd" clip-rule="evenodd" d="M188.639 37.7224C188.338 40.6645 185.732 42.7964 182.78 42.6137C179.828 42.4311 177.459 39.9928 177.523 37.036L177.683 29.583C177.756 26.2064 180.578 23.5163 183.949 23.7249C187.32 23.9334 189.741 26.9466 189.397 30.3065L188.639 37.7224Z" fill="#45B6B7"/>
<path fill-rule="evenodd" clip-rule="evenodd" d="M262.222 63.4005C258.976 67.4964 253.042 68.1547 248.725 65.2098C244.14 62.0826 239.349 59.2376 234.377 56.6993C229.722 54.3233 227.45 48.8022 229.485 43.9885C231.519 39.1747 237.087 36.8947 241.763 39.2284C248.295 42.4882 254.556 46.2073 260.503 50.3429C264.794 53.3263 265.467 59.3046 262.222 63.4005Z" fill="#549FE5"/>
<path fill-rule="evenodd" clip-rule="evenodd" d="M263.67 75.2265C263.166 75.7851 262.306 75.8294 261.742 75.3318C261.178 74.8341 261.115 73.9748 261.607 73.406L272.076 61.2966C272.638 60.6467 273.622 60.5748 274.266 61.1433C274.91 61.7119 274.96 62.6962 274.385 63.3345L263.67 75.2265Z" fill="#0080F7"/>
<path fill-rule="evenodd" clip-rule="evenodd" d="M306.279 167.648C306.279 137.215 293.904 109.604 273.356 86.8589C269.852 82.981 269.765 77.0104 273.423 73.2775C277.08 69.5447 283.096 69.4669 286.632 73.3151C310.476 99.2643 324.035 129.916 325.188 167.648C325.188 168.463 325.201 170.261 325.212 172.281C325.236 176.854 321.485 180.409 316.916 180.221C311.041 179.979 306.315 175.013 306.285 169.134C306.282 168.487 306.279 167.969 306.279 167.648Z" fill="#4A67FF"/>
<path fill-rule="evenodd" clip-rule="evenodd" d="M171.026 32.9378C171.152 38.1623 167.009 42.4644 161.807 42.9611C113.051 47.616 72.0193 78.8219 53.3702 121.975C51.297 126.772 45.9326 129.394 40.9983 127.673C36.064 125.952 33.4323 120.539 35.462 115.724C56.6916 65.3513 104.498 28.9121 161.345 23.9994C166.552 23.5495 170.9 27.7133 171.026 32.9378Z" fill="#9AFBC0"/>
<path opacity="0.7" fill-rule="evenodd" clip-rule="evenodd" d="M260.029 286.805C256.864 282.646 257.695 276.734 261.618 273.28C284.262 253.344 300 225.782 304.83 194.628C305.63 189.463 310.165 185.578 315.374 186.007C320.582 186.436 324.487 191.015 323.733 196.186C318.387 232.865 299.845 265.249 273.106 288.372C269.153 291.791 263.194 290.963 260.029 286.805Z" fill="#A589F6"/>
<path fill-rule="evenodd" clip-rule="evenodd" d="M222.429 45.4354C221.367 48.2886 218.209 49.733 215.313 48.7918C212.418 47.8507 210.687 44.818 211.506 41.8855L213.414 35.0443C214.35 31.6875 217.85 29.7165 221.164 30.7939C224.478 31.8713 226.123 35.5131 224.907 38.7791L222.429 45.4354Z" fill="#2A8DE9"/>
</g>
<path fill-rule="evenodd" clip-rule="evenodd" d="M174.5 306.144C199.069 306.144 222.049 299.434 241.732 287.747C246.226 285.079 252.107 286.108 255.09 290.399C258.073 294.69 257.027 300.614 252.557 303.322C229.782 317.124 203.058 325.069 174.5 325.069C145.953 325.069 119.238 317.129 96.4678 303.338C91.9978 300.63 90.9508 294.706 93.9329 290.414C96.915 286.123 102.796 285.093 107.29 287.761C126.968 299.439 149.94 306.144 174.5 306.144Z" fill="#8940D3"/>
<path fill-rule="evenodd" clip-rule="evenodd" d="M39.1166 133.469C44.1211 134.974 46.922 140.246 45.7821 145.347C43.7045 154.642 42.6071 164.314 42.6071 174.251C42.6071 213.679 59.8987 249.065 87.3429 273.246C91.264 276.701 92.0929 282.613 88.9263 286.771C85.7597 290.928 79.8003 291.753 75.8488 288.333C43.9109 260.691 23.6821 219.832 23.6821 174.251C23.6821 162.438 25.0422 150.931 27.6174 139.884C28.8039 134.795 34.1121 131.963 39.1166 133.469Z" fill="#14BDA8"/>
<path fill-rule="evenodd" clip-rule="evenodd" d="M205.867 40.496C205.182 43.4322 202.265 45.2484 199.303 44.6851C196.341 44.1217 194.258 41.3559 194.698 38.373L195.75 31.231C196.253 27.818 199.449 25.4488 202.839 26.0933C206.228 26.7379 208.294 30.1068 207.509 33.4662L205.867 40.496Z" fill="#1DA9C8"/>
<path fill-rule="evenodd" clip-rule="evenodd" d="M188.639 37.7224C188.338 40.6645 185.732 42.7964 182.78 42.6137C179.828 42.4311 177.459 39.9928 177.523 37.036L177.683 29.583C177.756 26.2064 180.578 23.5163 183.949 23.7249C187.32 23.9334 189.741 26.9466 189.397 30.3065L188.639 37.7224Z" fill="#45B6B7"/>
<path fill-rule="evenodd" clip-rule="evenodd" d="M262.222 63.4005C258.976 67.4964 253.042 68.1547 248.725 65.2098C244.14 62.0826 239.349 59.2376 234.377 56.6993C229.722 54.3233 227.45 48.8022 229.485 43.9885C231.519 39.1747 237.087 36.8947 241.763 39.2284C248.295 42.4882 254.556 46.2073 260.503 50.3429C264.794 53.3263 265.467 59.3046 262.222 63.4005Z" fill="#549FE5"/>
<path fill-rule="evenodd" clip-rule="evenodd" d="M263.67 75.2265C263.166 75.7851 262.306 75.8294 261.742 75.3318C261.178 74.8341 261.115 73.9748 261.607 73.406L272.076 61.2966C272.638 60.6467 273.622 60.5748 274.266 61.1433C274.91 61.7119 274.96 62.6962 274.385 63.3345L263.67 75.2265Z" fill="#0080F7"/>
<path fill-rule="evenodd" clip-rule="evenodd" d="M306.279 167.648C306.279 137.215 293.904 109.604 273.356 86.8589C269.852 82.981 269.765 77.0104 273.423 73.2775C277.08 69.5447 283.096 69.4669 286.632 73.3151C310.476 99.2643 324.035 129.916 325.188 167.648C325.188 168.463 325.201 170.261 325.212 172.281C325.236 176.854 321.485 180.409 316.916 180.221C311.041 179.979 306.315 175.013 306.285 169.134C306.282 168.487 306.279 167.969 306.279 167.648Z" fill="#4A67FF"/>
<path fill-rule="evenodd" clip-rule="evenodd" d="M171.026 32.9378C171.152 38.1623 167.009 42.4644 161.807 42.9611C113.051 47.616 72.0193 78.8219 53.3702 121.975C51.297 126.772 45.9326 129.394 40.9983 127.673C36.064 125.952 33.4323 120.539 35.462 115.724C56.6916 65.3513 104.498 28.9121 161.345 23.9994C166.552 23.5495 170.9 27.7133 171.026 32.9378Z" fill="#9AFBC0"/>
<path opacity="0.7" fill-rule="evenodd" clip-rule="evenodd" d="M260.029 286.805C256.864 282.646 257.695 276.734 261.618 273.28C284.262 253.344 300 225.782 304.83 194.628C305.63 189.463 310.165 185.578 315.374 186.007C320.582 186.436 324.487 191.015 323.733 196.186C318.387 232.865 299.845 265.249 273.106 288.372C269.153 291.791 263.194 290.963 260.029 286.805Z" fill="#A589F6"/>
<path fill-rule="evenodd" clip-rule="evenodd" d="M222.429 45.4354C221.367 48.2886 218.209 49.733 215.313 48.7918C212.418 47.8507 210.687 44.818 211.506 41.8855L213.414 35.0443C214.35 31.6875 217.85 29.7165 221.164 30.7939C224.478 31.8713 226.123 35.5131 224.907 38.7791L222.429 45.4354Z" fill="#2A8DE9"/>
<circle cx="174.5" cy="174.251" r="124.045" stroke="#9AFBC0" stroke-width="0.573485"/>
<path d="M161.905 133.6V177.81H155.213V140.292H154.954L144.376 147.2V140.81L155.407 133.6H161.905ZM172.645 177.81V133.6H188.835C191.972 133.6 194.57 134.118 196.628 135.154C198.686 136.176 200.226 137.565 201.248 139.32C202.27 141.062 202.78 143.026 202.78 145.214C202.78 147.056 202.442 148.61 201.766 149.877C201.089 151.129 200.183 152.136 199.046 152.899C197.923 153.647 196.686 154.194 195.333 154.539V154.971C196.801 155.043 198.233 155.518 199.629 156.396C201.039 157.259 202.205 158.49 203.126 160.087C204.047 161.685 204.507 163.628 204.507 165.916C204.507 168.175 203.975 170.204 202.91 172.003C201.859 173.788 200.233 175.205 198.031 176.256C195.829 177.292 193.016 177.81 189.591 177.81H172.645ZM179.315 172.09H188.943C192.138 172.09 194.426 171.471 195.808 170.233C197.189 168.996 197.88 167.448 197.88 165.592C197.88 164.196 197.528 162.915 196.822 161.749C196.117 160.584 195.11 159.656 193.8 158.965C192.505 158.274 190.965 157.929 189.181 157.929H179.315V172.09ZM179.315 152.726H188.252C189.749 152.726 191.095 152.438 192.289 151.863C193.498 151.287 194.455 150.481 195.16 149.445C195.88 148.394 196.24 147.157 196.24 145.732C196.24 143.904 195.599 142.371 194.318 141.134C193.037 139.896 191.073 139.277 188.425 139.277H179.315V152.726Z" fill="white"/>
<g opacity="0.34" filter="url(#filter1_f_3825_5899)">
<path d="M161.905 133.6V177.81H155.213V140.292H154.954L144.376 147.2V140.81L155.407 133.6H161.905ZM172.645 177.81V133.6H188.835C191.972 133.6 194.57 134.118 196.628 135.154C198.686 136.176 200.226 137.565 201.248 139.321C202.27 141.062 202.78 143.026 202.78 145.214C202.78 147.056 202.442 148.61 201.766 149.877C201.089 151.129 200.183 152.136 199.046 152.899C197.923 153.647 196.686 154.194 195.333 154.539V154.971C196.801 155.043 198.233 155.518 199.629 156.396C201.039 157.259 202.205 158.49 203.126 160.087C204.047 161.685 204.507 163.628 204.507 165.916C204.507 168.175 203.975 170.205 202.91 172.003C201.859 173.788 200.233 175.206 198.031 176.256C195.829 177.292 193.016 177.81 189.591 177.81H172.645ZM179.315 172.09H188.943C192.138 172.09 194.426 171.471 195.808 170.233C197.189 168.996 197.88 167.449 197.88 165.592C197.88 164.196 197.528 162.915 196.822 161.75C196.117 160.584 195.11 159.656 193.8 158.965C192.505 158.274 190.965 157.929 189.181 157.929H179.315V172.09ZM179.315 152.726H188.252C189.749 152.726 191.095 152.438 192.289 151.863C193.498 151.287 194.455 150.481 195.16 149.445C195.88 148.394 196.24 147.157 196.24 145.732C196.24 143.904 195.599 142.372 194.318 141.134C193.037 139.896 191.073 139.277 188.425 139.277H179.315V152.726Z" fill="white"/>
</g>
<path d="M114.906 212.662V197.022H115.908V212.662H114.906ZM118.04 201.873C117.975 201.294 117.706 200.846 117.234 200.529C116.761 200.207 116.167 200.046 115.45 200.046C114.937 200.046 114.493 200.128 114.118 200.29C113.743 200.449 113.452 200.669 113.244 200.95C113.041 201.227 112.939 201.543 112.939 201.897C112.939 202.195 113.008 202.451 113.147 202.667C113.289 202.883 113.475 203.064 113.703 203.211C113.935 203.353 114.183 203.474 114.448 203.571C114.713 203.665 114.967 203.742 115.212 203.803L116.434 204.121C116.833 204.219 117.242 204.351 117.662 204.518C118.081 204.685 118.47 204.905 118.829 205.178C119.187 205.451 119.476 205.789 119.696 206.192C119.92 206.596 120.032 207.078 120.032 207.64C120.032 208.349 119.849 208.978 119.482 209.528C119.12 210.078 118.592 210.512 117.9 210.829C117.212 211.147 116.379 211.306 115.401 211.306C114.464 211.306 113.654 211.157 112.969 210.86C112.285 210.563 111.75 210.141 111.363 209.595C110.976 209.045 110.762 208.394 110.721 207.64H112.615C112.652 208.092 112.798 208.469 113.055 208.771C113.316 209.068 113.648 209.29 114.051 209.436C114.458 209.579 114.904 209.65 115.389 209.65C115.922 209.65 116.397 209.567 116.812 209.4C117.232 209.229 117.562 208.993 117.802 208.691C118.042 208.386 118.163 208.029 118.163 207.622C118.163 207.251 118.057 206.948 117.845 206.712C117.637 206.475 117.354 206.28 116.996 206.125C116.641 205.97 116.24 205.834 115.792 205.716L114.314 205.313C113.312 205.04 112.517 204.638 111.931 204.109C111.348 203.579 111.057 202.879 111.057 202.007C111.057 201.286 111.253 200.657 111.644 200.119C112.035 199.582 112.564 199.164 113.232 198.867C113.9 198.566 114.654 198.415 115.493 198.415C116.34 198.415 117.087 198.563 117.735 198.861C118.387 199.158 118.9 199.567 119.275 200.089C119.649 200.606 119.845 201.201 119.861 201.873H118.04ZM121.772 211.098V198.586H129.617V200.211H123.66V204.023H129.207V205.642H123.66V209.473H129.69V211.098H121.772ZM131.622 198.586H133.913L137.897 208.312H138.043L142.027 198.586H144.318V211.098H142.522V202.044H142.406L138.715 211.08H137.225L133.535 202.038H133.418V211.098H131.622V198.586ZM146.546 198.586H148.838L152.821 208.312H152.968L156.951 198.586H159.242V211.098H157.446V202.044H157.33L153.64 211.08H152.149L148.459 202.038H148.343V211.098H146.546V198.586ZM161.471 211.098V198.586H169.315V200.211H163.359V204.023H168.906V205.642H163.359V209.473H169.389V211.098H161.471ZM170.704 200.211V198.586H180.388V200.211H176.484V211.098H174.602V200.211H170.704ZM192.873 201.873C192.808 201.294 192.539 200.846 192.066 200.529C191.594 200.207 190.999 200.046 190.282 200.046C189.769 200.046 189.325 200.128 188.95 200.29C188.576 200.449 188.284 200.669 188.077 200.95C187.873 201.227 187.771 201.543 187.771 201.897C187.771 202.195 187.841 202.451 187.979 202.667C188.122 202.883 188.307 203.064 188.535 203.211C188.767 203.353 189.016 203.474 189.28 203.571C189.545 203.665 189.8 203.742 190.044 203.803L191.266 204.121C191.665 204.219 192.074 204.351 192.494 204.518C192.914 204.685 193.302 204.905 193.661 205.178C194.019 205.451 194.309 205.789 194.528 206.192C194.752 206.596 194.865 207.078 194.865 207.64C194.865 208.349 194.681 208.978 194.315 209.528C193.952 210.078 193.425 210.512 192.732 210.829C192.044 211.147 191.211 211.306 190.233 211.306C189.297 211.306 188.486 211.157 187.802 210.86C187.118 210.563 186.582 210.141 186.195 209.595C185.808 209.045 185.594 208.394 185.554 207.64H187.447C187.484 208.092 187.631 208.469 187.887 208.771C188.148 209.068 188.48 209.29 188.883 209.436C189.291 209.579 189.737 209.65 190.221 209.65C190.755 209.65 191.229 209.567 191.645 209.4C192.064 209.229 192.394 208.993 192.635 208.691C192.875 208.386 192.995 208.029 192.995 207.622C192.995 207.251 192.889 206.948 192.677 206.712C192.47 206.475 192.186 206.28 191.828 206.125C191.474 205.97 191.072 205.834 190.624 205.716L189.146 205.313C188.144 205.04 187.35 204.638 186.763 204.109C186.181 203.579 185.89 202.879 185.89 202.007C185.89 201.286 186.085 200.657 186.476 200.119C186.867 199.582 187.397 199.164 188.065 198.867C188.733 198.566 189.486 198.415 190.325 198.415C191.172 198.415 191.92 198.563 192.567 198.861C193.219 199.158 193.732 199.567 194.107 200.089C194.482 200.606 194.677 201.201 194.693 201.873H192.873ZM202.402 207.206V201.714H204.235V211.098H202.439V209.473H202.341C202.125 209.974 201.779 210.392 201.303 210.726C200.83 211.055 200.242 211.22 199.537 211.22C198.934 211.22 198.401 211.088 197.936 210.823C197.476 210.555 197.113 210.157 196.849 209.632C196.588 209.107 196.458 208.457 196.458 207.683V201.714H198.284V207.463C198.284 208.103 198.462 208.612 198.816 208.99C199.17 209.369 199.631 209.559 200.197 209.559C200.539 209.559 200.879 209.473 201.217 209.302C201.559 209.131 201.842 208.872 202.066 208.526C202.294 208.18 202.406 207.74 202.402 207.206ZM206.174 214.617V201.714H207.958V203.235H208.11C208.216 203.04 208.369 202.814 208.569 202.557C208.768 202.3 209.045 202.076 209.399 201.885C209.754 201.69 210.222 201.592 210.805 201.592C211.562 201.592 212.238 201.783 212.833 202.166C213.428 202.549 213.894 203.101 214.232 203.822C214.574 204.543 214.745 205.41 214.745 206.424C214.745 207.439 214.576 208.308 214.238 209.033C213.9 209.754 213.436 210.31 212.845 210.701C212.255 211.088 211.581 211.282 210.823 211.282C210.253 211.282 209.786 211.186 209.424 210.994C209.065 210.803 208.784 210.579 208.581 210.322C208.377 210.066 208.22 209.838 208.11 209.638H208V214.617H206.174ZM207.964 206.406C207.964 207.066 208.059 207.644 208.251 208.141C208.442 208.638 208.719 209.027 209.082 209.308C209.444 209.585 209.888 209.724 210.414 209.724C210.959 209.724 211.416 209.579 211.782 209.29C212.149 208.997 212.426 208.599 212.613 208.098C212.804 207.597 212.9 207.033 212.9 206.406C212.9 205.787 212.807 205.231 212.619 204.738C212.436 204.245 212.159 203.856 211.788 203.571C211.422 203.286 210.963 203.144 210.414 203.144C209.884 203.144 209.436 203.28 209.069 203.553C208.707 203.826 208.432 204.207 208.245 204.695C208.057 205.184 207.964 205.754 207.964 206.406ZM216.276 214.617V201.714H218.06V203.235H218.213C218.318 203.04 218.471 202.814 218.671 202.557C218.87 202.3 219.147 202.076 219.502 201.885C219.856 201.69 220.324 201.592 220.907 201.592C221.664 201.592 222.341 201.783 222.935 202.166C223.53 202.549 223.996 203.101 224.334 203.822C224.677 204.543 224.848 205.41 224.848 206.424C224.848 207.439 224.679 208.308 224.34 209.033C224.002 209.754 223.538 210.31 222.948 210.701C222.357 211.088 221.683 211.282 220.925 211.282C220.355 211.282 219.889 211.186 219.526 210.994C219.168 210.803 218.887 210.579 218.683 210.322C218.479 210.066 218.323 209.838 218.213 209.638H218.103V214.617H216.276ZM218.066 206.406C218.066 207.066 218.162 207.644 218.353 208.141C218.545 208.638 218.822 209.027 219.184 209.308C219.547 209.585 219.99 209.724 220.516 209.724C221.062 209.724 221.518 209.579 221.884 209.29C222.251 208.997 222.528 208.599 222.715 208.098C222.907 207.597 223.002 207.033 223.002 206.406C223.002 205.787 222.909 205.231 222.721 204.738C222.538 204.245 222.261 203.856 221.891 203.571C221.524 203.286 221.066 203.144 220.516 203.144C219.986 203.144 219.538 203.28 219.172 203.553C218.809 203.826 218.534 204.207 218.347 204.695C218.16 205.184 218.066 205.754 218.066 206.406ZM228.205 198.586V211.098H226.378V198.586H228.205ZM231.301 214.617C231.028 214.617 230.78 214.595 230.556 214.55C230.332 214.509 230.165 214.465 230.055 214.416L230.495 212.919C230.829 213.009 231.126 213.047 231.387 213.035C231.647 213.023 231.877 212.925 232.077 212.742C232.281 212.558 232.46 212.259 232.615 211.844L232.841 211.22L229.407 201.714H231.362L233.739 208.997H233.837L236.213 201.714H238.174L234.307 212.351C234.128 212.839 233.9 213.253 233.623 213.591C233.346 213.933 233.016 214.19 232.633 214.361C232.25 214.532 231.806 214.617 231.301 214.617Z" fill="white"/>
<defs>
<filter id="filter0_f_3825_5899" x="0.67243" y="0.703833" width="347.549" height="347.375" filterUnits="userSpaceOnUse" color-interpolation-filters="sRGB">
<feFlood flood-opacity="0" result="BackgroundImageFix"/>
<feBlend mode="normal" in="SourceGraphic" in2="BackgroundImageFix" result="shape"/>
<feGaussianBlur stdDeviation="11.5048" result="effect1_foregroundBlur_3825_5899"/>
</filter>
<filter id="filter1_f_3825_5899" x="134.901" y="124.125" width="79.0806" height="63.1596" filterUnits="userSpaceOnUse" color-interpolation-filters="sRGB">
<feFlood flood-opacity="0" result="BackgroundImageFix"/>
<feBlend mode="normal" in="SourceGraphic" in2="BackgroundImageFix" result="shape"/>
<feGaussianBlur stdDeviation="4.73728" result="effect1_foregroundBlur_3825_5899"/>
</filter>
</defs>
</svg>
