<svg width="515" height="514" viewBox="0 0 515 514" fill="none" xmlns="http://www.w3.org/2000/svg">
<g opacity="0.6" filter="url(#filter0_f_3604_48821)">
<path fill-rule="evenodd" clip-rule="evenodd" d="M257.5 451.9C293.804 451.9 327.761 441.985 356.845 424.716C363.485 420.774 372.175 422.293 376.583 428.634C380.99 434.974 379.445 443.729 372.841 447.73C339.187 468.124 299.698 479.864 257.5 479.864C215.318 479.864 175.842 468.132 142.197 447.753C135.592 443.752 134.044 434.998 138.451 428.657C142.857 422.315 151.547 420.794 158.188 424.736C187.265 441.993 221.209 451.9 257.5 451.9Z" fill="#8940D3"/>
<path fill-rule="evenodd" clip-rule="evenodd" d="M57.4523 196.748C64.8471 198.972 68.9859 206.763 67.3014 214.299C64.2315 228.034 62.61 242.325 62.61 257.01C62.61 315.269 88.1608 367.557 128.713 403.288C134.507 408.393 135.732 417.13 131.053 423.273C126.374 429.416 117.568 430.635 111.729 425.581C64.5365 384.736 34.6456 324.361 34.6456 257.01C34.6456 239.553 36.6554 222.551 40.4606 206.228C42.2137 198.707 50.0575 194.523 57.4523 196.748Z" fill="#14BDA8"/>
<path fill-rule="evenodd" clip-rule="evenodd" d="M303.85 59.3677C302.836 63.7063 298.526 66.39 294.149 65.5576C289.772 64.7251 286.695 60.6383 287.345 56.2306L288.9 45.6774C289.643 40.6342 294.366 37.1333 299.374 38.0857C304.382 39.0382 307.435 44.0161 306.276 48.9801L303.85 59.3677Z" fill="#1DA9C8"/>
<path fill-rule="evenodd" clip-rule="evenodd" d="M278.392 55.2693C277.947 59.6167 274.097 62.7668 269.735 62.4969C265.374 62.227 261.872 58.6241 261.966 54.255L262.204 43.2422C262.312 38.2528 266.481 34.2777 271.462 34.586C276.443 34.8942 280.021 39.3465 279.513 44.3112L278.392 55.2693Z" fill="#45B6B7"/>
<path fill-rule="evenodd" clip-rule="evenodd" d="M387.121 93.2122C382.325 99.2645 373.557 100.237 367.178 95.8858C360.403 91.2649 353.324 87.0609 345.976 83.3103C339.099 79.7995 335.742 71.6412 338.748 64.5283C341.754 57.4153 349.98 54.0463 356.89 57.4945C366.542 62.3114 375.793 67.8069 384.582 73.9178C390.922 78.3262 391.917 87.1599 387.121 93.2122Z" fill="#549FE5"/>
<path fill-rule="evenodd" clip-rule="evenodd" d="M389.26 110.687C388.517 111.512 387.245 111.578 386.412 110.842C385.579 110.107 385.486 108.837 386.213 107.997L401.683 90.1034C402.513 89.143 403.966 89.0368 404.918 89.8769C405.87 90.7171 405.944 92.1715 405.094 93.1147L389.26 110.687Z" fill="#0080F7"/>
<path fill-rule="evenodd" clip-rule="evenodd" d="M452.222 247.252C452.222 202.284 433.936 161.484 403.573 127.875C398.396 122.145 398.268 113.323 403.672 107.807C409.077 102.291 417.966 102.176 423.19 107.863C458.423 146.206 478.459 191.498 480.163 247.252C480.163 248.457 480.182 251.113 480.198 254.099C480.234 260.856 474.69 266.109 467.939 265.83C459.259 265.473 452.276 258.136 452.231 249.449C452.226 248.492 452.222 247.726 452.222 247.252Z" fill="#4A67FF"/>
<path fill-rule="evenodd" clip-rule="evenodd" d="M252.367 48.1992C252.553 55.9191 246.432 62.2761 238.744 63.01C166.701 69.8883 106.071 115.999 78.514 179.764C75.4506 186.852 67.524 190.727 60.2329 188.184C52.9417 185.64 49.0531 177.643 52.0522 170.527C83.4219 96.0947 154.062 42.2507 238.062 34.9916C245.756 34.3267 252.181 40.4793 252.367 48.1992Z" fill="#9AFBC0"/>
<path opacity="0.7" fill-rule="evenodd" clip-rule="evenodd" d="M383.881 423.323C379.205 417.179 380.433 408.442 386.229 403.339C419.689 373.88 442.944 333.154 450.081 287.119C451.264 279.488 457.965 273.747 465.661 274.381C473.357 275.014 479.127 281.78 478.013 289.421C470.114 343.619 442.715 391.471 403.204 425.64C397.363 430.691 388.558 429.468 383.881 423.323Z" fill="#A589F6"/>
<path fill-rule="evenodd" clip-rule="evenodd" d="M328.323 66.6662C326.753 70.8822 322.086 73.0166 317.808 71.6259C313.529 70.2352 310.972 65.754 312.181 61.4208L315.001 51.3119C316.385 46.3518 321.556 43.4395 326.453 45.0314C331.35 46.6234 333.78 52.0047 331.984 56.8307L328.323 66.6662Z" fill="#2A8DE9"/>
</g>
<path fill-rule="evenodd" clip-rule="evenodd" d="M257.5 451.9C293.804 451.9 327.761 441.985 356.845 424.716C363.485 420.774 372.175 422.293 376.583 428.634C380.99 434.974 379.445 443.729 372.841 447.73C339.187 468.124 299.698 479.864 257.5 479.864C215.318 479.864 175.842 468.132 142.197 447.753C135.592 443.752 134.044 434.998 138.451 428.657C142.857 422.315 151.547 420.794 158.188 424.736C187.265 441.993 221.209 451.9 257.5 451.9Z" fill="#8940D3"/>
<path fill-rule="evenodd" clip-rule="evenodd" d="M57.4523 196.748C64.8471 198.972 68.9859 206.763 67.3014 214.299C64.2315 228.034 62.61 242.325 62.61 257.01C62.61 315.269 88.1608 367.557 128.713 403.288C134.507 408.393 135.732 417.13 131.053 423.273C126.374 429.416 117.568 430.635 111.729 425.581C64.5365 384.736 34.6456 324.361 34.6456 257.01C34.6456 239.553 36.6554 222.551 40.4606 206.228C42.2137 198.707 50.0575 194.523 57.4523 196.748Z" fill="#14BDA8"/>
<path fill-rule="evenodd" clip-rule="evenodd" d="M303.85 59.3677C302.836 63.7063 298.526 66.39 294.149 65.5576C289.772 64.7251 286.695 60.6383 287.345 56.2306L288.9 45.6774C289.643 40.6342 294.366 37.1333 299.374 38.0857C304.382 39.0382 307.435 44.0161 306.276 48.9801L303.85 59.3677Z" fill="#1DA9C8"/>
<path fill-rule="evenodd" clip-rule="evenodd" d="M278.392 55.2693C277.947 59.6167 274.097 62.7668 269.735 62.4969C265.374 62.227 261.872 58.6241 261.966 54.255L262.204 43.2422C262.312 38.2528 266.481 34.2777 271.462 34.586C276.443 34.8942 280.021 39.3465 279.513 44.3112L278.392 55.2693Z" fill="#45B6B7"/>
<path fill-rule="evenodd" clip-rule="evenodd" d="M387.121 93.2122C382.325 99.2645 373.557 100.237 367.178 95.8858C360.403 91.2649 353.324 87.0609 345.976 83.3103C339.099 79.7995 335.742 71.6412 338.748 64.5283C341.754 57.4153 349.98 54.0463 356.89 57.4945C366.542 62.3114 375.793 67.8069 384.582 73.9178C390.922 78.3262 391.917 87.1599 387.121 93.2122Z" fill="#549FE5"/>
<path fill-rule="evenodd" clip-rule="evenodd" d="M389.26 110.687C388.517 111.512 387.245 111.578 386.412 110.842C385.579 110.107 385.486 108.837 386.213 107.997L401.683 90.1034C402.513 89.143 403.966 89.0368 404.918 89.8769C405.87 90.7171 405.944 92.1715 405.094 93.1147L389.26 110.687Z" fill="#0080F7"/>
<path fill-rule="evenodd" clip-rule="evenodd" d="M452.222 247.252C452.222 202.284 433.936 161.484 403.573 127.875C398.396 122.145 398.268 113.323 403.672 107.807C409.077 102.291 417.966 102.176 423.19 107.863C458.423 146.206 478.459 191.498 480.163 247.252C480.163 248.457 480.182 251.113 480.198 254.099C480.234 260.856 474.69 266.109 467.939 265.83C459.259 265.473 452.276 258.136 452.231 249.449C452.226 248.492 452.222 247.726 452.222 247.252Z" fill="#4A67FF"/>
<path fill-rule="evenodd" clip-rule="evenodd" d="M252.367 48.1992C252.553 55.9191 246.432 62.2761 238.744 63.01C166.701 69.8883 106.071 115.999 78.514 179.764C75.4506 186.852 67.524 190.727 60.2329 188.184C52.9417 185.64 49.0531 177.643 52.0522 170.527C83.4219 96.0947 154.062 42.2507 238.062 34.9916C245.756 34.3267 252.181 40.4793 252.367 48.1992Z" fill="#9AFBC0"/>
<path opacity="0.7" fill-rule="evenodd" clip-rule="evenodd" d="M383.881 423.323C379.205 417.179 380.433 408.442 386.229 403.339C419.689 373.88 442.944 333.154 450.081 287.119C451.264 279.488 457.965 273.747 465.661 274.381C473.357 275.014 479.127 281.78 478.013 289.421C470.114 343.619 442.715 391.471 403.204 425.64C397.363 430.691 388.558 429.468 383.881 423.323Z" fill="#A589F6"/>
<path fill-rule="evenodd" clip-rule="evenodd" d="M328.323 66.6662C326.753 70.8822 322.086 73.0166 317.808 71.6259C313.529 70.2352 310.972 65.754 312.181 61.4208L315.001 51.3119C316.385 46.3518 321.556 43.4395 326.453 45.0314C331.35 46.6234 333.78 52.0047 331.984 56.8307L328.323 66.6662Z" fill="#2A8DE9"/>
<circle cx="257.5" cy="257.01" r="183.293" stroke="#9AFBC0" stroke-width="0.847404"/>
<path d="M238.888 196.895V262.222H228.999V206.783H228.617L212.987 216.991V207.549L229.286 196.895H238.888ZM254.758 262.222V196.895H278.681C283.317 196.895 287.155 197.661 290.196 199.192C293.237 200.702 295.513 202.754 297.023 205.348C298.532 207.921 299.287 210.824 299.287 214.056C299.287 216.778 298.788 219.075 297.788 220.946C296.789 222.796 295.449 224.285 293.769 225.412C292.11 226.518 290.281 227.326 288.283 227.836V228.474C290.452 228.58 292.567 229.282 294.63 230.579C296.714 231.855 298.437 233.674 299.798 236.034C301.159 238.394 301.839 241.265 301.839 244.646C301.839 247.985 301.052 250.983 299.479 253.642C297.926 256.279 295.523 258.373 292.27 259.926C289.016 261.457 284.859 262.222 279.798 262.222H254.758ZM264.614 253.769H278.841C283.562 253.769 286.943 252.855 288.984 251.026C291.026 249.197 292.046 246.911 292.046 244.168C292.046 242.105 291.525 240.213 290.483 238.49C289.441 236.768 287.953 235.396 286.018 234.375C284.104 233.355 281.828 232.844 279.192 232.844H264.614V253.769ZM264.614 225.157H277.82C280.032 225.157 282.02 224.731 283.785 223.881C285.571 223.03 286.985 221.839 288.027 220.308C289.091 218.756 289.622 216.927 289.622 214.822C289.622 212.121 288.676 209.856 286.783 208.027C284.891 206.199 281.988 205.284 278.075 205.284H264.614V225.157Z" fill="white"/>
<g opacity="0.34" filter="url(#filter1_f_3604_48821)">
<path d="M238.888 196.895V262.222H228.999V206.783H228.617L212.987 216.991V207.549L229.286 196.895H238.888ZM254.758 262.222V196.895H278.681C283.317 196.895 287.155 197.661 290.196 199.192C293.237 200.702 295.513 202.754 297.023 205.348C298.532 207.921 299.287 210.824 299.287 214.056C299.287 216.778 298.788 219.075 297.788 220.946C296.789 222.796 295.449 224.285 293.769 225.412C292.11 226.518 290.281 227.326 288.283 227.836V228.474C290.452 228.58 292.567 229.282 294.63 230.579C296.714 231.855 298.437 233.674 299.798 236.034C301.159 238.394 301.839 241.265 301.839 244.646C301.839 247.985 301.052 250.983 299.479 253.642C297.926 256.279 295.523 258.373 292.27 259.926C289.016 261.457 284.859 262.222 279.798 262.222H254.758ZM264.614 253.769H278.841C283.562 253.769 286.943 252.855 288.984 251.026C291.026 249.197 292.046 246.911 292.046 244.168C292.046 242.105 291.525 240.213 290.483 238.49C289.441 236.768 287.953 235.396 286.018 234.375C284.104 233.355 281.828 232.844 279.192 232.844H264.614V253.769ZM264.614 225.157H277.82C280.032 225.157 282.02 224.731 283.785 223.881C285.571 223.03 286.985 221.839 288.027 220.308C289.091 218.756 289.622 216.927 289.622 214.822C289.622 212.121 288.676 209.856 286.783 208.027C284.891 206.199 281.988 205.284 278.075 205.284H264.614V225.157Z" fill="white"/>
</g>
<path d="M169.634 314.17V291.059H171.115V314.17H169.634ZM174.265 298.227C174.169 297.372 173.772 296.71 173.074 296.241C172.375 295.765 171.497 295.528 170.437 295.528C169.679 295.528 169.023 295.648 168.469 295.889C167.916 296.123 167.485 296.448 167.178 296.864C166.878 297.273 166.727 297.739 166.727 298.263C166.727 298.702 166.829 299.082 167.034 299.4C167.245 299.719 167.519 299.987 167.856 300.204C168.199 300.415 168.566 300.592 168.957 300.737C169.348 300.875 169.724 300.989 170.085 301.08L171.891 301.549C172.481 301.694 173.086 301.889 173.706 302.136C174.325 302.383 174.9 302.708 175.43 303.111C175.959 303.514 176.387 304.014 176.712 304.609C177.043 305.205 177.208 305.919 177.208 306.749C177.208 307.796 176.937 308.726 176.396 309.539C175.86 310.351 175.081 310.992 174.058 311.462C173.04 311.931 171.81 312.166 170.365 312.166C168.981 312.166 167.783 311.946 166.772 311.507C165.761 311.067 164.97 310.444 164.398 309.638C163.826 308.825 163.51 307.862 163.45 306.749H166.249C166.303 307.417 166.519 307.974 166.899 308.419C167.284 308.859 167.774 309.187 168.37 309.403C168.972 309.614 169.631 309.719 170.347 309.719C171.136 309.719 171.837 309.596 172.451 309.349C173.071 309.096 173.558 308.747 173.913 308.302C174.268 307.85 174.446 307.324 174.446 306.722C174.446 306.174 174.289 305.726 173.976 305.377C173.669 305.028 173.251 304.739 172.721 304.51C172.198 304.281 171.605 304.08 170.943 303.905L168.758 303.309C167.278 302.906 166.104 302.313 165.237 301.531C164.377 300.749 163.947 299.713 163.947 298.425C163.947 297.36 164.235 296.43 164.813 295.636C165.391 294.841 166.173 294.225 167.16 293.785C168.147 293.34 169.261 293.117 170.501 293.117C171.753 293.117 172.857 293.337 173.814 293.776C174.777 294.216 175.535 294.82 176.089 295.591C176.643 296.355 176.931 297.234 176.956 298.227H174.265ZM179.779 311.859V293.37H191.371V295.771H182.569V301.405H190.766V303.797H182.569V309.457H191.479V311.859H179.779ZM194.334 293.37H197.72L203.606 307.742H203.822L209.709 293.37H213.094V311.859H210.44V298.48H210.268L204.815 311.832H202.613L197.16 298.471H196.988V311.859H194.334V293.37ZM216.387 293.37H219.772L225.658 307.742H225.875L231.761 293.37H235.147V311.859H232.492V298.48H232.321L226.868 311.832H224.665L219.213 298.471H219.041V311.859H216.387V293.37ZM238.44 311.859V293.37H250.031V295.771H241.229V301.405H249.426V303.797H241.229V309.457H250.14V311.859H238.44ZM252.083 295.771V293.37H266.392V295.771H260.623V311.859H257.843V295.771H252.083ZM284.841 298.227C284.744 297.372 284.347 296.71 283.649 296.241C282.951 295.765 282.072 295.528 281.013 295.528C280.254 295.528 279.598 295.648 279.045 295.889C278.491 296.123 278.061 296.448 277.754 296.864C277.453 297.273 277.302 297.739 277.302 298.263C277.302 298.702 277.405 299.082 277.609 299.4C277.82 299.719 278.094 299.987 278.431 300.204C278.774 300.415 279.141 300.592 279.532 300.737C279.923 300.875 280.3 300.989 280.661 301.08L282.466 301.549C283.056 301.694 283.661 301.889 284.281 302.136C284.901 302.383 285.475 302.708 286.005 303.111C286.535 303.514 286.962 304.014 287.287 304.609C287.618 305.205 287.784 305.919 287.784 306.749C287.784 307.796 287.513 308.726 286.971 309.539C286.435 310.351 285.656 310.992 284.633 311.462C283.616 311.931 282.385 312.166 280.941 312.166C279.556 312.166 278.359 311.946 277.348 311.507C276.336 311.067 275.545 310.444 274.973 309.638C274.401 308.825 274.085 307.862 274.025 306.749H276.824C276.878 307.417 277.095 307.974 277.474 308.419C277.859 308.859 278.35 309.187 278.945 309.403C279.547 309.614 280.206 309.719 280.922 309.719C281.711 309.719 282.412 309.596 283.026 309.349C283.646 309.096 284.133 308.747 284.488 308.302C284.844 307.85 285.021 307.324 285.021 306.722C285.021 306.174 284.865 305.726 284.552 305.377C284.245 305.028 283.826 304.739 283.297 304.51C282.773 304.281 282.18 304.08 281.518 303.905L279.334 303.309C277.853 302.906 276.679 302.313 275.813 301.531C274.952 300.749 274.522 299.713 274.522 298.425C274.522 297.36 274.811 296.43 275.388 295.636C275.966 294.841 276.749 294.225 277.736 293.785C278.723 293.34 279.836 293.117 281.076 293.117C282.328 293.117 283.432 293.337 284.389 293.776C285.352 294.216 286.11 294.82 286.664 295.591C287.218 296.355 287.507 297.234 287.531 298.227H284.841ZM298.922 306.108V297.992H301.63V311.859H298.976V309.457H298.831C298.512 310.198 298.001 310.815 297.297 311.308C296.599 311.796 295.729 312.039 294.688 312.039C293.797 312.039 293.009 311.844 292.322 311.453C291.642 311.055 291.107 310.468 290.716 309.692C290.33 308.916 290.138 307.956 290.138 306.812V297.992H292.837V306.487C292.837 307.432 293.099 308.184 293.622 308.744C294.146 309.304 294.826 309.584 295.663 309.584C296.168 309.584 296.671 309.457 297.17 309.205C297.676 308.952 298.094 308.57 298.425 308.058C298.762 307.547 298.928 306.897 298.922 306.108ZM304.494 317.059V297.992H307.13V300.24H307.356C307.513 299.951 307.738 299.617 308.033 299.238C308.328 298.859 308.737 298.528 309.261 298.245C309.785 297.956 310.477 297.812 311.337 297.812C312.457 297.812 313.456 298.094 314.335 298.66C315.213 299.226 315.902 300.041 316.402 301.107C316.907 302.172 317.16 303.454 317.16 304.953C317.16 306.451 316.91 307.736 316.411 308.807C315.911 309.873 315.225 310.694 314.353 311.272C313.48 311.844 312.484 312.13 311.364 312.13C310.522 312.13 309.833 311.988 309.297 311.705C308.767 311.422 308.352 311.091 308.051 310.712C307.75 310.333 307.519 309.996 307.356 309.701H307.194V317.059H304.494ZM307.139 304.925C307.139 305.9 307.281 306.755 307.564 307.489C307.847 308.224 308.256 308.798 308.791 309.214C309.327 309.623 309.983 309.828 310.76 309.828C311.566 309.828 312.24 309.614 312.782 309.187C313.323 308.753 313.733 308.166 314.01 307.426C314.292 306.686 314.434 305.852 314.434 304.925C314.434 304.011 314.295 303.189 314.019 302.461C313.748 301.733 313.338 301.158 312.791 300.737C312.249 300.315 311.572 300.105 310.76 300.105C309.977 300.105 309.315 300.306 308.773 300.71C308.238 301.113 307.832 301.675 307.555 302.398C307.278 303.12 307.139 303.963 307.139 304.925ZM319.422 317.059V297.992H322.058V300.24H322.284C322.44 299.951 322.666 299.617 322.961 299.238C323.256 298.859 323.665 298.528 324.188 298.245C324.712 297.956 325.404 297.812 326.265 297.812C327.384 297.812 328.383 298.094 329.262 298.66C330.141 299.226 330.83 300.041 331.329 301.107C331.835 302.172 332.088 303.454 332.088 304.953C332.088 306.451 331.838 307.736 331.338 308.807C330.839 309.873 330.153 310.694 329.28 311.272C328.407 311.844 327.411 312.13 326.292 312.13C325.449 312.13 324.76 311.988 324.225 311.705C323.695 311.422 323.28 311.091 322.979 310.712C322.678 310.333 322.446 309.996 322.284 309.701H322.121V317.059H319.422ZM322.067 304.925C322.067 305.9 322.208 306.755 322.491 307.489C322.774 308.224 323.183 308.798 323.719 309.214C324.255 309.623 324.911 309.828 325.687 309.828C326.494 309.828 327.168 309.614 327.709 309.187C328.251 308.753 328.66 308.166 328.937 307.426C329.22 306.686 329.361 305.852 329.361 304.925C329.361 304.011 329.223 303.189 328.946 302.461C328.675 301.733 328.266 301.158 327.718 300.737C327.177 300.315 326.5 300.105 325.687 300.105C324.905 300.105 324.243 300.306 323.701 300.71C323.165 301.113 322.759 301.675 322.482 302.398C322.205 303.12 322.067 303.963 322.067 304.925ZM337.049 293.37V311.859H334.349V293.37H337.049ZM341.624 317.059C341.22 317.059 340.853 317.026 340.522 316.959C340.191 316.899 339.945 316.833 339.782 316.761L340.432 314.549C340.926 314.681 341.365 314.739 341.75 314.721C342.135 314.703 342.475 314.558 342.77 314.287C343.071 314.016 343.336 313.574 343.565 312.96L343.899 312.039L338.825 297.992H341.714L345.226 308.753H345.37L348.882 297.992H351.78L346.065 313.709C345.8 314.432 345.463 315.043 345.054 315.542C344.645 316.048 344.157 316.427 343.592 316.68C343.026 316.932 342.37 317.059 341.624 317.059Z" fill="white"/>
<defs>
<filter id="filter0_f_3604_48821" x="0.64563" y="0.569153" width="513.552" height="513.295" filterUnits="userSpaceOnUse" color-interpolation-filters="sRGB">
<feFlood flood-opacity="0" result="BackgroundImageFix"/>
<feBlend mode="normal" in="SourceGraphic" in2="BackgroundImageFix" result="shape"/>
<feGaussianBlur stdDeviation="17" result="effect1_foregroundBlur_3604_48821"/>
</filter>
<filter id="filter1_f_3604_48821" x="198.987" y="182.895" width="116.853" height="93.3271" filterUnits="userSpaceOnUse" color-interpolation-filters="sRGB">
<feFlood flood-opacity="0" result="BackgroundImageFix"/>
<feBlend mode="normal" in="SourceGraphic" in2="BackgroundImageFix" result="shape"/>
<feGaussianBlur stdDeviation="7" result="effect1_foregroundBlur_3604_48821"/>
</filter>
</defs>
</svg>
