<svg width="450" height="451" viewBox="0 0 450 451" fill="none" xmlns="http://www.w3.org/2000/svg">
<path d="M233.169 22.1868C235.435 22.278 237.7 22.4072 239.962 22.5743" stroke="#45B6B7" stroke-width="17.6868" stroke-linecap="round"/>
<path d="M262.483 25.4804C264.451 25.8426 266.414 26.2339 268.371 26.6543" stroke="#1DA9C8" stroke-width="17.6868" stroke-linecap="round"/>
<path d="M296.149 34.9015C294.517 34.2908 292.878 33.7012 291.232 33.1329" stroke="#2A8DE9" stroke-width="17.6868" stroke-linecap="round"/>
<path d="M319.151 45.1827C327.016 49.302 334.604 53.9341 341.866 59.0497" stroke="#549FE5" stroke-width="17.6868" stroke-linecap="round"/>
<path d="M363.471 76.4968C363.087 76.1475 362.701 75.7997 362.314 75.4534" stroke="#0080F7" stroke-width="17.6868" stroke-linecap="round"/>
<path d="M427.907 222.825C427.43 176.503 411.105 131.832 381.855 96.1975" stroke="#4A67FF" stroke-width="17.6868" stroke-linecap="round"/>
<path d="M367.67 369.218C399.633 337.619 420.236 296.245 426.155 251.616" stroke="#856FC5" stroke-width="17.6868" stroke-linecap="round"/>
<path d="M346.885 387.158C281.419 436.369 192.537 441.408 121.855 399.655" stroke="#8940D3" stroke-width="17.6868" stroke-linecap="round"/>
<path d="M97.7873 383.001C40.9297 337.278 12.8769 264.198 24.7971 191.97" stroke="#14BDA8" stroke-width="17.6868" stroke-linecap="round"/>
<path d="M32.1256 161.948C54.5139 93.2955 111.64 42.1161 181.305 26.7759" stroke="#9AFBC0" stroke-width="17.6868" stroke-linecap="round"/>
<path d="M207.515 22.3239C207.988 22.2981 208.462 22.2739 208.935 22.2514" stroke="#FFFD78" stroke-width="17.6868" stroke-linecap="round"/>
<circle cx="225" cy="225.011" r="168.386" fill="#111112" stroke="#9AFBC0" stroke-width="1.7042"/>
<g opacity="0.34" filter="url(#filter0_f_3902_15853)">
<path d="M207.889 175.689V235.867H198.78V184.798H198.428L184.03 194.201V185.503L199.045 175.689H207.889ZM222.509 235.867V175.689H244.547C248.817 175.689 252.353 176.394 255.154 177.804C257.956 179.195 260.052 181.086 261.443 183.476C262.833 185.846 263.529 188.52 263.529 191.497C263.529 194.005 263.068 196.12 262.148 197.844C261.227 199.549 259.993 200.92 258.445 201.958C256.917 202.977 255.233 203.721 253.391 204.191V204.779C255.389 204.877 257.339 205.523 259.239 206.718C261.159 207.894 262.745 209.569 263.999 211.743C265.253 213.917 265.88 216.562 265.88 219.677C265.88 222.752 265.155 225.514 263.705 227.963C262.275 230.392 260.062 232.322 257.064 233.752C254.067 235.162 250.237 235.867 245.575 235.867H222.509ZM231.588 228.081H244.694C249.042 228.081 252.157 227.238 254.038 225.554C255.918 223.869 256.859 221.763 256.859 219.236C256.859 217.336 256.379 215.592 255.419 214.006C254.459 212.419 253.088 211.155 251.305 210.215C249.542 209.275 247.446 208.805 245.017 208.805H231.588V228.081ZM231.588 201.723H243.753C245.791 201.723 247.622 201.331 249.248 200.548C250.894 199.764 252.196 198.667 253.156 197.257C254.136 195.827 254.625 194.142 254.625 192.203C254.625 189.715 253.754 187.628 252.01 185.944C250.267 184.259 247.593 183.417 243.988 183.417H231.588V201.723Z" fill="white"/>
</g>
<path d="M207.889 175.689V235.867H198.78V184.798H198.428L184.03 194.201V185.503L199.045 175.689H207.889ZM222.509 235.867V175.689H244.547C248.817 175.689 252.353 176.394 255.154 177.804C257.956 179.195 260.052 181.086 261.443 183.476C262.833 185.846 263.529 188.52 263.529 191.497C263.529 194.005 263.068 196.12 262.148 197.844C261.227 199.549 259.993 200.92 258.445 201.958C256.917 202.977 255.233 203.721 253.391 204.191V204.779C255.389 204.877 257.339 205.523 259.239 206.718C261.159 207.894 262.745 209.569 263.999 211.743C265.253 213.917 265.88 216.562 265.88 219.677C265.88 222.752 265.155 225.514 263.705 227.963C262.275 230.392 260.062 232.322 257.064 233.752C254.067 235.162 250.237 235.867 245.575 235.867H222.509ZM231.588 228.081H244.694C249.042 228.081 252.157 227.238 254.038 225.554C255.918 223.869 256.859 221.763 256.859 219.236C256.859 217.336 256.379 215.592 255.419 214.006C254.459 212.419 253.088 211.155 251.305 210.215C249.542 209.275 247.446 208.805 245.017 208.805H231.588V228.081ZM231.588 201.723H243.753C245.791 201.723 247.622 201.331 249.248 200.548C250.894 199.764 252.196 198.667 253.156 197.257C254.136 195.827 254.625 194.142 254.625 192.203C254.625 189.715 253.754 187.628 252.01 185.944C250.267 184.259 247.593 183.417 243.988 183.417H231.588V201.723Z" fill="white"/>
<path d="M144.219 284.283V262.993H145.583V284.283H144.219ZM148.485 269.597C148.397 268.809 148.031 268.199 147.388 267.767C146.744 267.329 145.935 267.11 144.959 267.11C144.261 267.11 143.656 267.221 143.146 267.443C142.636 267.659 142.24 267.958 141.957 268.341C141.68 268.718 141.541 269.147 141.541 269.63C141.541 270.035 141.635 270.384 141.824 270.678C142.018 270.972 142.27 271.218 142.581 271.418C142.897 271.612 143.235 271.775 143.595 271.908C143.956 272.036 144.302 272.141 144.635 272.225L146.298 272.657C146.841 272.79 147.399 272.97 147.97 273.198C148.541 273.425 149.07 273.724 149.558 274.096C150.046 274.467 150.44 274.927 150.739 275.476C151.044 276.025 151.196 276.682 151.196 277.447C151.196 278.412 150.947 279.268 150.448 280.017C149.954 280.765 149.237 281.356 148.294 281.788C147.357 282.221 146.223 282.437 144.893 282.437C143.618 282.437 142.514 282.235 141.583 281.83C140.651 281.425 139.922 280.851 139.396 280.108C138.869 279.36 138.578 278.473 138.522 277.447H141.1C141.15 278.063 141.35 278.575 141.699 278.986C142.054 279.39 142.506 279.693 143.055 279.892C143.609 280.086 144.216 280.183 144.876 280.183C145.602 280.183 146.248 280.07 146.814 279.842C147.385 279.609 147.834 279.288 148.161 278.878C148.488 278.462 148.652 277.977 148.652 277.422C148.652 276.918 148.507 276.505 148.219 276.183C147.936 275.861 147.551 275.595 147.063 275.385C146.581 275.174 146.035 274.988 145.425 274.827L143.412 274.279C142.049 273.907 140.967 273.361 140.169 272.64C139.376 271.92 138.98 270.966 138.98 269.78C138.98 268.798 139.246 267.942 139.778 267.21C140.31 266.478 141.031 265.91 141.94 265.505C142.85 265.095 143.875 264.89 145.017 264.89C146.171 264.89 147.188 265.092 148.069 265.497C148.957 265.901 149.655 266.459 150.165 267.168C150.675 267.872 150.941 268.682 150.964 269.597H148.485ZM153.565 282.154V265.122H164.243V267.335H156.134V272.524H163.685V274.728H156.134V279.942H164.342V282.154H153.565ZM166.973 265.122H170.091L175.513 278.362H175.713L181.135 265.122H184.254V282.154H181.809V269.829H181.651L176.628 282.129H174.599L169.576 269.821H169.418V282.154H166.973V265.122ZM187.287 265.122H190.406L195.828 278.362H196.028L201.45 265.122H204.569V282.154H202.124V269.829H201.966L196.943 282.129H194.913L189.89 269.821H189.732V282.154H187.287V265.122ZM207.602 282.154V265.122H218.28V267.335H210.172V272.524H217.723V274.728H210.172V279.942H218.38V282.154H207.602ZM220.17 267.335V265.122H233.351V267.335H228.037V282.154H225.476V267.335H220.17ZM250.346 269.597C250.257 268.809 249.891 268.199 249.248 267.767C248.605 267.329 247.796 267.11 246.82 267.11C246.121 267.11 245.517 267.221 245.007 267.443C244.497 267.659 244.101 267.958 243.818 268.341C243.541 268.718 243.402 269.147 243.402 269.63C243.402 270.035 243.496 270.384 243.685 270.678C243.879 270.972 244.131 271.218 244.441 271.418C244.758 271.612 245.096 271.775 245.456 271.908C245.816 272.036 246.163 272.141 246.496 272.225L248.159 272.657C248.702 272.79 249.259 272.97 249.83 273.198C250.401 273.425 250.931 273.724 251.419 274.096C251.907 274.467 252.3 274.927 252.6 275.476C252.905 276.025 253.057 276.682 253.057 277.447C253.057 278.412 252.808 279.268 252.309 280.017C251.815 280.765 251.097 281.356 250.155 281.788C249.218 282.221 248.084 282.437 246.753 282.437C245.478 282.437 244.375 282.235 243.444 281.83C242.512 281.425 241.783 280.851 241.256 280.108C240.73 279.36 240.439 278.473 240.383 277.447H242.961C243.011 278.063 243.211 278.575 243.56 278.986C243.915 279.39 244.367 279.693 244.916 279.892C245.47 280.086 246.077 280.183 246.737 280.183C247.463 280.183 248.109 280.07 248.674 279.842C249.246 279.609 249.695 279.288 250.022 278.878C250.349 278.462 250.512 277.977 250.512 277.422C250.512 276.918 250.368 276.505 250.08 276.183C249.797 275.861 249.412 275.595 248.924 275.385C248.442 275.174 247.896 274.988 247.286 274.827L245.273 274.279C243.909 273.907 242.828 273.361 242.03 272.64C241.237 271.92 240.841 270.966 240.841 269.78C240.841 268.798 241.107 267.942 241.639 267.21C242.171 266.478 242.892 265.91 243.801 265.505C244.71 265.095 245.736 264.89 246.878 264.89C248.031 264.89 249.049 265.092 249.93 265.497C250.817 265.901 251.516 266.459 252.026 267.168C252.536 267.872 252.802 268.682 252.824 269.597H250.346ZM263.317 276.857V269.38H265.812V282.154H263.367V279.942H263.234C262.94 280.624 262.469 281.192 261.821 281.647C261.177 282.096 260.376 282.32 259.417 282.32C258.597 282.32 257.87 282.14 257.238 281.78C256.612 281.414 256.118 280.873 255.758 280.158C255.403 279.443 255.226 278.559 255.226 277.505V269.38H257.712V277.206C257.712 278.076 257.953 278.769 258.436 279.285C258.918 279.801 259.545 280.058 260.315 280.058C260.781 280.058 261.244 279.942 261.704 279.709C262.17 279.476 262.555 279.124 262.86 278.653C263.171 278.182 263.323 277.583 263.317 276.857ZM268.451 286.944V269.38H270.879V271.451H271.087C271.231 271.185 271.439 270.877 271.711 270.528C271.983 270.179 272.36 269.874 272.842 269.613C273.324 269.347 273.962 269.214 274.755 269.214C275.786 269.214 276.706 269.475 277.516 269.996C278.325 270.517 278.96 271.268 279.42 272.249C279.886 273.231 280.119 274.412 280.119 275.792C280.119 277.173 279.888 278.356 279.428 279.343C278.968 280.325 278.336 281.081 277.532 281.614C276.728 282.14 275.811 282.404 274.78 282.404C274.003 282.404 273.369 282.273 272.875 282.013C272.387 281.752 272.005 281.447 271.727 281.098C271.45 280.749 271.237 280.438 271.087 280.167H270.937V286.944H268.451ZM270.888 275.767C270.888 276.665 271.018 277.453 271.278 278.129C271.539 278.805 271.916 279.335 272.409 279.717C272.903 280.094 273.507 280.283 274.222 280.283C274.965 280.283 275.586 280.086 276.085 279.693C276.584 279.293 276.961 278.753 277.216 278.071C277.477 277.389 277.607 276.621 277.607 275.767C277.607 274.925 277.48 274.168 277.225 273.497C276.975 272.826 276.598 272.297 276.094 271.908C275.595 271.52 274.971 271.326 274.222 271.326C273.502 271.326 272.892 271.512 272.393 271.884C271.899 272.255 271.525 272.773 271.27 273.439C271.015 274.104 270.888 274.88 270.888 275.767ZM282.202 286.944V269.38H284.63V271.451H284.838C284.982 271.185 285.19 270.877 285.462 270.528C285.734 270.179 286.111 269.874 286.593 269.613C287.075 269.347 287.713 269.214 288.506 269.214C289.537 269.214 290.457 269.475 291.267 269.996C292.076 270.517 292.711 271.268 293.171 272.249C293.637 273.231 293.87 274.412 293.87 275.792C293.87 277.173 293.64 278.356 293.179 279.343C292.719 280.325 292.087 281.081 291.283 281.614C290.479 282.14 289.562 282.404 288.531 282.404C287.754 282.404 287.12 282.273 286.626 282.013C286.138 281.752 285.756 281.447 285.479 281.098C285.201 280.749 284.988 280.438 284.838 280.167H284.689V286.944H282.202ZM284.639 275.767C284.639 276.665 284.769 277.453 285.029 278.129C285.29 278.805 285.667 279.335 286.161 279.717C286.654 280.094 287.258 280.283 287.973 280.283C288.716 280.283 289.337 280.086 289.836 279.693C290.335 279.293 290.712 278.753 290.967 278.071C291.228 277.389 291.358 276.621 291.358 275.767C291.358 274.925 291.231 274.168 290.976 273.497C290.726 272.826 290.349 272.297 289.845 271.908C289.346 271.52 288.722 271.326 287.973 271.326C287.253 271.326 286.643 271.512 286.144 271.884C285.65 272.255 285.276 272.773 285.021 273.439C284.766 274.104 284.639 274.88 284.639 275.767ZM298.44 265.122V282.154H295.953V265.122H298.44ZM302.654 286.944C302.283 286.944 301.944 286.914 301.639 286.853C301.335 286.797 301.107 286.736 300.958 286.67L301.556 284.632C302.011 284.754 302.416 284.807 302.77 284.79C303.125 284.774 303.439 284.641 303.71 284.391C303.987 284.142 304.231 283.734 304.442 283.169L304.75 282.32L300.076 269.38H302.737L305.972 279.293H306.105L309.34 269.38H312.01L306.746 283.859C306.502 284.524 306.191 285.087 305.814 285.547C305.437 286.013 304.988 286.362 304.467 286.595C303.946 286.828 303.342 286.944 302.654 286.944Z" fill="white"/>
<defs>
<filter id="filter0_f_3902_15853" x="171.133" y="162.792" width="107.643" height="85.9719" filterUnits="userSpaceOnUse" color-interpolation-filters="sRGB">
<feFlood flood-opacity="0" result="BackgroundImageFix"/>
<feBlend mode="normal" in="SourceGraphic" in2="BackgroundImageFix" result="shape"/>
<feGaussianBlur stdDeviation="6.44832" result="effect1_foregroundBlur_3902_15853"/>
</filter>
</defs>
</svg>
