<svg width="20" height="20" viewBox="0 0 20 20" fill="none" xmlns="http://www.w3.org/2000/svg">
<path d="M4.19652 17.2482C3.7502 17.2482 3.36154 17.1479 3.03056 16.9473C2.70459 16.7517 2.45134 16.4859 2.2708 16.1499C2.09027 15.8189 2 15.4529 2 15.0517C2 14.6655 2.1003 14.2969 2.30089 13.9459L8.11566 3.80578C8.32127 3.43969 8.59207 3.16387 8.92807 2.97832C9.26908 2.79277 9.62764 2.7 10.0038 2.7C10.3749 2.7 10.7284 2.79277 11.0644 2.97832C11.4004 3.16387 11.6737 3.43969 11.8843 3.80578L17.6991 13.9459C17.7994 14.1214 17.8746 14.3044 17.9248 14.495C17.9749 14.6806 18 14.8661 18 15.0517C18 15.4529 17.9097 15.8189 17.7292 16.1499C17.5487 16.4859 17.2929 16.7517 16.9619 16.9473C16.636 17.1479 16.2498 17.2482 15.8035 17.2482H4.19652ZM4.41467 15.6535H15.5778C15.7934 15.6535 15.964 15.5807 16.0893 15.4353C16.2197 15.2899 16.2849 15.1219 16.2849 14.9313C16.2849 14.8009 16.2523 14.673 16.1871 14.5477L10.5905 4.74607C10.5303 4.63073 10.4451 4.54798 10.3347 4.49783C10.2294 4.44769 10.1191 4.42261 10.0038 4.42261C9.88842 4.42261 9.77558 4.44769 9.66526 4.49783C9.55493 4.54798 9.46717 4.63073 9.40197 4.74607L3.81288 14.5326C3.77778 14.5978 3.7527 14.6655 3.73766 14.7357C3.72763 14.8059 3.72261 14.8711 3.72261 14.9313C3.72261 15.1219 3.7853 15.2899 3.91067 15.4353C4.03604 15.5807 4.20404 15.6535 4.41467 15.6535ZM10.0113 11.9374C9.53988 11.9374 9.29415 11.7017 9.2741 11.2303L9.16878 7.80014C9.15875 7.56444 9.23147 7.37137 9.38693 7.22092C9.54239 7.06546 9.748 6.98773 10.0038 6.98773C10.2545 6.98773 10.4576 7.06546 10.6131 7.22092C10.7735 7.37137 10.8488 7.56695 10.8387 7.80766L10.7259 11.2228C10.7058 11.6992 10.4676 11.9374 10.0113 11.9374ZM10.0113 14.4649C9.75051 14.4649 9.52735 14.3847 9.3418 14.2242C9.16126 14.0637 9.07099 13.8606 9.07099 13.6149C9.07099 13.3642 9.16126 13.1585 9.3418 12.9981C9.52735 12.8326 9.75051 12.7498 10.0113 12.7498C10.2721 12.7498 10.4902 12.8301 10.6657 12.9905C10.8463 13.151 10.9365 13.3591 10.9365 13.6149C10.9365 13.8656 10.8463 14.0713 10.6657 14.2317C10.4852 14.3872 10.267 14.4649 10.0113 14.4649Z" fill="#F86F6E"/>
</svg>
