<svg width="12" height="12" viewBox="0 0 12 12" fill="none" xmlns="http://www.w3.org/2000/svg">
<path d="M0 4.83398C0 4.16992 0.125 3.54492 0.375 2.95898C0.625 2.37305 0.972656 1.85938 1.41797 1.41797C1.86328 0.972656 2.37695 0.625 2.95898 0.375C3.54492 0.125 4.17188 0 4.83984 0C5.50781 0 6.13281 0.125 6.71484 0.375C7.30078 0.625 7.81641 0.972656 8.26172 1.41797C8.70703 1.85938 9.05469 2.37305 9.30469 2.95898C9.55469 3.54492 9.67969 4.16992 9.67969 4.83398C9.67969 5.33398 9.60547 5.81055 9.45703 6.26367C9.3125 6.7168 9.10938 7.13281 8.84766 7.51172L11.373 10.0488C11.4668 10.1465 11.5371 10.2539 11.584 10.3711C11.6348 10.4922 11.6602 10.6211 11.6602 10.7578C11.6602 10.9453 11.6172 11.1152 11.5312 11.2676C11.4453 11.4199 11.3281 11.5391 11.1797 11.625C11.0312 11.7148 10.8594 11.7598 10.6641 11.7598C10.5312 11.7598 10.4023 11.7363 10.2773 11.6895C10.1523 11.6426 10.041 11.5703 9.94336 11.4727L7.39453 8.92383C7.02734 9.1582 6.62695 9.34375 6.19336 9.48047C5.76367 9.61328 5.3125 9.67969 4.83984 9.67969C4.17188 9.67969 3.54492 9.55469 2.95898 9.30469C2.37695 9.05469 1.86328 8.70703 1.41797 8.26172C0.972656 7.81641 0.625 7.30078 0.375 6.71484C0.125 6.12891 0 5.50195 0 4.83398ZM1.42383 4.83398C1.42383 5.30664 1.51172 5.75 1.6875 6.16406C1.86719 6.57422 2.11328 6.93555 2.42578 7.24805C2.73828 7.56055 3.09961 7.80664 3.50977 7.98633C3.92383 8.16211 4.36719 8.25 4.83984 8.25C5.3125 8.25 5.75391 8.16211 6.16406 7.98633C6.57812 7.80664 6.94141 7.56055 7.25391 7.24805C7.56641 6.93555 7.81055 6.57422 7.98633 6.16406C8.16602 5.75 8.25586 5.30664 8.25586 4.83398C8.25586 4.36523 8.16602 3.92578 7.98633 3.51562C7.81055 3.10156 7.56641 2.73828 7.25391 2.42578C6.94141 2.10938 6.57812 1.86328 6.16406 1.6875C5.75391 1.51172 5.3125 1.42383 4.83984 1.42383C4.36719 1.42383 3.92383 1.51172 3.50977 1.6875C3.09961 1.86328 2.73828 2.10938 2.42578 2.42578C2.11328 2.73828 1.86719 3.10156 1.6875 3.51562C1.51172 3.92578 1.42383 4.36523 1.42383 4.83398Z" fill="#B3B7BF"/>
</svg>
