<svg width="20" height="20" viewBox="0 0 20 20" fill="none" xmlns="http://www.w3.org/2000/svg">
<path d="M10.1239 16.9091C9.1949 16.9091 8.32013 16.7311 7.49964 16.3751C6.67914 16.0235 5.95632 15.5351 5.33118 14.91C4.70604 14.2848 4.21548 13.5642 3.85949 12.748C3.50785 11.9275 3.33203 11.0506 3.33203 10.1172C3.33203 9.1882 3.50785 8.3156 3.85949 7.49945C4.21548 6.67895 4.70387 5.95613 5.32467 5.33099C5.94981 4.70585 6.67263 4.21746 7.49312 3.86582C8.31362 3.50984 9.18838 3.33184 10.1174 3.33184C11.0464 3.33184 11.9212 3.50984 12.7417 3.86582C13.5665 4.21746 14.2894 4.70585 14.9102 5.33099C15.5353 5.95613 16.0259 6.67895 16.3818 7.49945C16.7378 8.3156 16.9158 9.1882 16.9158 10.1172C16.9158 11.0506 16.7378 11.9275 16.3818 12.748C16.0259 13.5642 15.5353 14.2848 14.9102 14.91C14.2894 15.5351 13.5687 16.0235 12.7482 16.3751C11.9277 16.7311 11.053 16.9091 10.1239 16.9091ZM10.1239 15.4179C10.8576 15.4179 11.5435 15.2811 12.1817 15.0076C12.8242 14.7341 13.3885 14.3565 13.8748 13.8746C14.361 13.3884 14.7408 12.8262 15.0143 12.188C15.2878 11.5455 15.4246 10.8552 15.4246 10.1172C15.4246 9.38355 15.2857 8.69764 15.0078 8.05947C14.7343 7.41697 14.3545 6.8526 13.8683 6.36638C13.3864 5.88016 12.8242 5.5003 12.1817 5.2268C11.5435 4.9533 10.8554 4.81655 10.1174 4.81655C9.38374 4.81655 8.69565 4.9533 8.05315 5.2268C7.41498 5.5003 6.85279 5.88016 6.36657 6.36638C5.88469 6.8526 5.507 7.41697 5.2335 8.05947C4.96434 8.69764 4.82976 9.38355 4.82976 10.1172C4.82976 10.8552 4.96434 11.5455 5.2335 12.188C5.507 12.8262 5.88686 13.3884 6.37308 13.8746C6.8593 14.3565 7.42149 14.7341 8.05966 15.0076C8.70216 15.2811 9.39025 15.4179 10.1239 15.4179ZM9.42064 13.2104C9.29474 13.2104 9.1797 13.1822 9.07551 13.1257C8.97566 13.0693 8.88015 12.9868 8.78899 12.8783L7.28474 11.0549C7.16319 10.903 7.10241 10.7489 7.10241 10.5926C7.10241 10.4189 7.16319 10.2713 7.28474 10.1498C7.4063 10.0282 7.55173 9.96745 7.72104 9.96745C7.82523 9.96745 7.91857 9.98916 8.00105 10.0326C8.08353 10.076 8.16602 10.1476 8.2485 10.2475L9.40762 11.7061L11.8756 7.72736C12.0232 7.49294 12.2077 7.37572 12.4291 7.37572C12.5941 7.37572 12.7417 7.42999 12.8719 7.53852C13.0022 7.64705 13.0673 7.78814 13.0673 7.96179C13.0673 8.03559 13.0499 8.11157 13.0152 8.18971C12.9848 8.26785 12.9457 8.34382 12.898 8.41762L10.0393 12.8718C9.88733 13.0975 9.68112 13.2104 9.42064 13.2104Z" fill="#40D86E"/>
</svg>
