<svg width="21" height="20" viewBox="0 0 21 20" fill="none" xmlns="http://www.w3.org/2000/svg">
<g clip-path="url(#clip0_3504_3224)">
<rect x="0.5" y="0.000228882" width="20.0995" height="20.0995" rx="10.0498" fill="#61DFFF"/>
<g clip-path="url(#clip1_3504_3224)">
<mask id="mask0_3504_3224" style="mask-type:luminance" maskUnits="userSpaceOnUse" x="3" y="3" width="16" height="14">
<path d="M18.0306 3.55157H3.5V16.3382H18.0306V3.55157Z" fill="white"/>
</mask>
<g mask="url(#mask0_3504_3224)">
<path d="M15.5677 16.3382H3.5V5.62645H6.26111V14.2622H15.5677V16.3371V16.3382Z" fill="black"/>
<path d="M15.5674 7.70132C16.9276 7.70132 18.0303 6.77236 18.0303 5.62645C18.0303 4.48054 16.9276 3.5516 15.5674 3.5516C14.2072 3.5516 13.1045 4.48054 13.1045 5.62645C13.1045 6.77236 14.2072 7.70132 15.5674 7.70132Z" fill="black"/>
</g>
</g>
</g>
<defs>
<clipPath id="clip0_3504_3224">
<rect width="19.9995" height="19.9995" fill="white" transform="translate(0.5 0.000228882)"/>
</clipPath>
<clipPath id="clip1_3504_3224">
<rect width="15" height="13.333" fill="white" transform="translate(3.5 3.3335)"/>
</clipPath>
</defs>
</svg>
