<svg width="41" height="40" viewBox="0 0 41 40" fill="none" xmlns="http://www.w3.org/2000/svg">
<rect x="0.375" y="0.00109863" width="39.9963" height="39.9963" rx="19.9982" fill="#864DE6"/>
<path d="M26.8287 15.8898C26.3608 15.6218 25.7528 15.6218 25.2383 15.8898L21.5895 17.9445L19.1103 19.2847L15.4615 21.3394C14.9938 21.6073 14.3856 21.6073 13.8711 21.3394L10.9708 19.7313C10.503 19.4632 10.1756 18.972 10.1756 18.4359V15.2644C10.1756 14.7284 10.4562 14.237 10.9708 13.9691L13.8243 12.4056C14.292 12.1376 14.9002 12.1376 15.4148 12.4056L18.2682 13.9691C18.736 14.237 19.0634 14.7284 19.0634 15.2644V17.3192L21.5427 15.9344V13.8797C21.5427 13.3437 21.2621 12.8523 20.7475 12.5842L15.4615 9.63613C14.9938 9.36812 14.3856 9.36812 13.8711 9.63613L8.49153 12.5842C7.97696 12.8523 7.69629 13.3437 7.69629 13.8797V19.8207C7.69629 20.3567 7.97696 20.848 8.49153 21.1161L13.8711 24.0642C14.3389 24.3322 14.9469 24.3322 15.4615 24.0642L19.1103 22.0541L21.5895 20.6694L25.2383 18.6593C25.706 18.3912 26.3141 18.3912 26.8287 18.6593L29.6821 20.2226C30.1499 20.4907 30.4774 20.9821 30.4774 21.5181V24.6894C30.4774 25.2256 30.1967 25.7169 29.6821 25.9849L26.8287 27.593C26.3608 27.8611 25.7528 27.8611 25.2383 27.593L22.3847 26.0296C21.917 25.7616 21.5895 25.2702 21.5895 24.7342V22.6795L19.1103 24.0642V26.1189C19.1103 26.6549 19.391 27.1463 19.9054 27.4143L25.285 30.3624C25.7528 30.6305 26.3608 30.6305 26.8754 30.3624L32.2551 27.4143C32.7228 27.1463 33.0503 26.6549 33.0503 26.1189V20.178C33.0503 19.6419 32.7696 19.1506 32.2551 18.8826L26.8287 15.8898Z" fill="white"/>
</svg>
