<svg width="24" height="24" viewBox="0 0 24 24" fill="none" xmlns="http://www.w3.org/2000/svg">
<g clip-path="url(#clip0_2309_3211)">
<rect width="24" height="24" rx="12" fill="#F5AC37"/>
<g clip-path="url(#clip1_2309_3211)">
<path d="M12 0C18.628 0 24 5.37305 24 12C24 18.628 18.628 24 12 24C5.37305 24 0 18.6275 0 12C0 5.37305 5.37305 0 12 0Z" fill="#F5AC37"/>
<path d="M12.4422 12.8473H17.002C17.0992 12.8473 17.1451 12.8473 17.1521 12.7198C17.1894 12.256 17.1894 11.7894 17.1521 11.325C17.1521 11.2348 17.1073 11.1976 17.0096 11.1976H7.93477C7.82245 11.1976 7.79221 11.2348 7.79221 11.3401V12.675C7.79221 12.8473 7.79221 12.8473 7.97203 12.8473H12.4422ZM16.6429 9.63748C16.6559 9.60346 16.6559 9.5662 16.6429 9.53272C16.5668 9.36693 16.4766 9.20871 16.3718 9.06021C16.2141 8.80641 16.0284 8.57259 15.8167 8.36252C15.7168 8.23562 15.6012 8.12168 15.4716 8.02502C14.8225 7.4726 14.0509 7.08163 13.2214 6.88507C12.8029 6.79111 12.3752 6.74629 11.9465 6.75007H7.91911C7.80679 6.75007 7.79167 6.79489 7.79167 6.89263V9.55486C7.79167 9.66718 7.79167 9.69742 7.93423 9.69742H16.5889C16.5889 9.69742 16.664 9.6823 16.6791 9.63748H16.6429ZM16.6429 14.4073C16.5155 14.3933 16.3869 14.3933 16.2595 14.4073H7.94233C7.83001 14.4073 7.79221 14.4073 7.79221 14.5575V17.1603C7.79221 17.2802 7.79221 17.3104 7.94233 17.3104H11.7823C11.9659 17.3245 12.1495 17.3115 12.3293 17.2732C12.8866 17.2332 13.4347 17.1122 13.9575 16.913C14.1475 16.8471 14.3311 16.7612 14.5045 16.6581H14.5569C15.457 16.1899 16.1882 15.4544 16.6494 14.5515C16.6494 14.5515 16.7018 14.4381 16.6429 14.4084V14.4073ZM6.28506 18.6599V18.6151V16.8676V16.2752V14.5126C6.28506 14.4149 6.28506 14.4003 6.16517 14.4003H4.5376C4.44742 14.4003 4.41016 14.4003 4.41016 14.2804V12.8554H6.15005C6.24725 12.8554 6.28506 12.8554 6.28506 12.7279V11.318C6.28506 11.2278 6.28506 11.2057 6.16517 11.2057H4.5376C4.44742 11.2057 4.41016 11.2057 4.41016 11.0858V9.766C4.41016 9.68338 4.41016 9.66124 4.53004 9.66124H6.14249C6.25481 9.66124 6.28506 9.66124 6.28506 9.51868V5.4762C6.28506 5.35631 6.28506 5.32607 6.43518 5.32607H12.0599C12.4681 5.34227 12.8737 5.38709 13.2749 5.46108C14.1016 5.6139 14.896 5.90928 15.6223 6.33102C16.104 6.61453 16.5473 6.95689 16.9421 7.35109C17.2391 7.65944 17.5069 7.99316 17.7445 8.34848C17.9805 8.70867 18.1765 9.09369 18.3304 9.496C18.3493 9.60076 18.4498 9.6715 18.5545 9.65368H19.897C20.0692 9.65368 20.0692 9.65368 20.0768 9.81892V11.0491C20.0768 11.1689 20.032 11.1992 19.9116 11.1992H18.8764C18.7716 11.1992 18.7414 11.1992 18.7489 11.3342C18.79 11.791 18.79 12.2495 18.7489 12.7063C18.7489 12.8338 18.7489 12.8489 18.892 12.8489H20.0763C20.1286 12.9164 20.0763 12.9839 20.0763 13.0519C20.0838 13.1389 20.0838 13.2269 20.0763 13.3138V14.2216C20.0763 14.349 20.039 14.3868 19.9261 14.3868H18.5086C18.4098 14.3679 18.3137 14.4311 18.291 14.5294C17.9535 15.4069 17.4135 16.1937 16.7158 16.8244C16.4609 17.0539 16.1931 17.2699 15.9134 17.4692C15.6131 17.642 15.321 17.8218 15.0132 17.9644C14.4467 18.2192 13.8527 18.4072 13.243 18.5265C12.6641 18.6302 12.0772 18.6772 11.488 18.6691H6.2829V18.6615L6.28506 18.6599Z" fill="#FEFEFD"/>
</g>
</g>
<defs>
<clipPath id="clip0_2309_3211">
<rect width="24" height="24" rx="12" fill="white"/>
</clipPath>
<clipPath id="clip1_2309_3211">
<rect width="24" height="24" fill="white"/>
</clipPath>
</defs>
</svg>
