<svg width="24" height="24" viewBox="0 0 24 24" fill="none" xmlns="http://www.w3.org/2000/svg">
<rect width="24" height="24" rx="12" fill="#F8F8F8"/>
<path d="M17.9993 7.73246L18.6662 8.39684L20 7.06809L19.3331 6.40371C18.2306 5.30537 16.4361 5.30537 15.3336 6.40371L14.6667 7.06809L13.9998 6.40371C12.8972 5.30537 11.1028 5.30537 10.0002 6.40371L9.33333 7.06809L8.66643 6.40371C7.56391 5.30537 5.76943 5.30537 4.66691 6.40371L4 7.06809L5.33382 8.39684L6.00072 7.73246C6.36887 7.36571 6.96639 7.36571 7.33454 7.73246L8.00145 8.39684L7.33454 9.06122C6.23202 10.1596 6.23202 11.9472 7.33454 13.0456L8.00145 13.7099L5.33574 16.3655L8.00145 19.0211L9.33526 17.6924L8.00145 16.3636L9.33526 15.0349L12.001 17.6904L14.6667 15.0349L16.0005 16.3636L14.6667 17.6924L16.0005 19.0211L18.6662 16.3655L16.0005 13.7099L16.6674 13.0456C17.7699 11.9472 17.7699 10.1596 16.6674 9.06122L16.0005 8.39684L16.6674 7.73246C17.0355 7.36571 17.6331 7.36571 18.0012 7.73246H17.9993ZM11.3341 7.73246C11.7022 7.36571 12.2997 7.36571 12.6679 7.73246L13.3348 8.39684L12.001 9.7256L10.6671 8.39684L11.3341 7.73246ZM8.66835 11.7168C8.3002 11.3501 8.3002 10.7548 8.66835 10.3881L9.33526 9.72368L10.6691 11.0524L9.33526 12.3812L8.66835 11.7168ZM12.001 15.0368L10.6671 13.708L12.001 12.3793L13.3348 13.708L12.001 15.0368ZM15.3336 10.3881C15.7017 10.7548 15.7017 11.3501 15.3336 11.7168L14.6667 12.3812L13.3329 11.0524L14.6667 9.72368L15.3336 10.3881Z" fill="#34CE8D"/>
</svg>
